G04 #@! TF.FileFunction,Other,Fab,Top*
%FSLAX46Y46*%
G04 Gerber Fmt 4.6, Leading zero omitted, Abs format (unit mm)*
G04 Created by KiCad (PCBNEW 4.0.5+dfsg1-4) date Tue Aug 14 14:25:04 2018*
%MOMM*%
%LPD*%
G01*
G04 APERTURE LIST*
%ADD10C,0.100000*%
%ADD11C,0.150000*%
%ADD12C,0.040000*%
%ADD13C,0.120000*%
%ADD14C,0.060000*%
%ADD15C,0.062500*%
G04 APERTURE END LIST*
D10*
X69800000Y-83950000D02*
X69800000Y-83450000D01*
X69800000Y-83450000D02*
X70800000Y-83450000D01*
X70800000Y-83450000D02*
X70800000Y-83950000D01*
X70800000Y-83950000D02*
X69800000Y-83950000D01*
X53100000Y-94950000D02*
X53100000Y-94450000D01*
X53100000Y-94450000D02*
X54100000Y-94450000D01*
X54100000Y-94450000D02*
X54100000Y-94950000D01*
X54100000Y-94950000D02*
X53100000Y-94950000D01*
X56500000Y-94200000D02*
X56500000Y-94700000D01*
X56500000Y-94700000D02*
X55500000Y-94700000D01*
X55500000Y-94700000D02*
X55500000Y-94200000D01*
X55500000Y-94200000D02*
X56500000Y-94200000D01*
X63700000Y-88650000D02*
X63700000Y-88150000D01*
X63700000Y-88150000D02*
X64700000Y-88150000D01*
X64700000Y-88150000D02*
X64700000Y-88650000D01*
X64700000Y-88650000D02*
X63700000Y-88650000D01*
X53100000Y-96250000D02*
X53100000Y-95750000D01*
X53100000Y-95750000D02*
X54100000Y-95750000D01*
X54100000Y-95750000D02*
X54100000Y-96250000D01*
X54100000Y-96250000D02*
X53100000Y-96250000D01*
X56510000Y-95760000D02*
X56510000Y-96260000D01*
X56510000Y-96260000D02*
X55510000Y-96260000D01*
X55510000Y-96260000D02*
X55510000Y-95760000D01*
X55510000Y-95760000D02*
X56510000Y-95760000D01*
X57900000Y-94710000D02*
X57900000Y-94210000D01*
X57900000Y-94210000D02*
X58900000Y-94210000D01*
X58900000Y-94210000D02*
X58900000Y-94710000D01*
X58900000Y-94710000D02*
X57900000Y-94710000D01*
X57900000Y-96170000D02*
X57900000Y-95670000D01*
X57900000Y-95670000D02*
X58900000Y-95670000D01*
X58900000Y-95670000D02*
X58900000Y-96170000D01*
X58900000Y-96170000D02*
X57900000Y-96170000D01*
X74450000Y-87200000D02*
X73950000Y-87200000D01*
X73950000Y-87200000D02*
X73950000Y-86200000D01*
X73950000Y-86200000D02*
X74450000Y-86200000D01*
X74450000Y-86200000D02*
X74450000Y-87200000D01*
X71800000Y-92150000D02*
X71800000Y-91650000D01*
X71800000Y-91650000D02*
X72800000Y-91650000D01*
X72800000Y-91650000D02*
X72800000Y-92150000D01*
X72800000Y-92150000D02*
X71800000Y-92150000D01*
X51150000Y-94900000D02*
X51650000Y-94900000D01*
X51650000Y-94900000D02*
X51650000Y-95900000D01*
X51650000Y-95900000D02*
X51150000Y-95900000D01*
X51150000Y-95900000D02*
X51150000Y-94900000D01*
X64700000Y-85250000D02*
X64700000Y-85750000D01*
X64700000Y-85750000D02*
X63700000Y-85750000D01*
X63700000Y-85750000D02*
X63700000Y-85250000D01*
X63700000Y-85250000D02*
X64700000Y-85250000D01*
X64600000Y-83650000D02*
X64600000Y-84150000D01*
X64600000Y-84150000D02*
X63600000Y-84150000D01*
X63600000Y-84150000D02*
X63600000Y-83650000D01*
X63600000Y-83650000D02*
X64600000Y-83650000D01*
X76400000Y-85050000D02*
X76400000Y-84550000D01*
X76400000Y-84550000D02*
X77400000Y-84550000D01*
X77400000Y-84550000D02*
X77400000Y-85050000D01*
X77400000Y-85050000D02*
X76400000Y-85050000D01*
X87500000Y-86150000D02*
X87500000Y-86650000D01*
X87500000Y-86650000D02*
X86500000Y-86650000D01*
X86500000Y-86650000D02*
X86500000Y-86150000D01*
X86500000Y-86150000D02*
X87500000Y-86150000D01*
X75450000Y-83500000D02*
X74950000Y-83500000D01*
X74950000Y-83500000D02*
X74950000Y-82500000D01*
X74950000Y-82500000D02*
X75450000Y-82500000D01*
X75450000Y-82500000D02*
X75450000Y-83500000D01*
X87500000Y-84550000D02*
X87500000Y-85050000D01*
X87500000Y-85050000D02*
X86500000Y-85050000D01*
X86500000Y-85050000D02*
X86500000Y-84550000D01*
X86500000Y-84550000D02*
X87500000Y-84550000D01*
X86800000Y-129450000D02*
X86800000Y-126950000D01*
X86800000Y-126950000D02*
X90000000Y-126950000D01*
X90000000Y-126950000D02*
X90000000Y-129450000D01*
X90000000Y-129450000D02*
X86800000Y-129450000D01*
X83400000Y-85050000D02*
X83400000Y-84550000D01*
X83400000Y-84550000D02*
X84400000Y-84550000D01*
X84400000Y-84550000D02*
X84400000Y-85050000D01*
X84400000Y-85050000D02*
X83400000Y-85050000D01*
X84250000Y-130000000D02*
X83750000Y-130000000D01*
X83750000Y-130000000D02*
X83750000Y-129000000D01*
X83750000Y-129000000D02*
X84250000Y-129000000D01*
X84250000Y-129000000D02*
X84250000Y-130000000D01*
X81200000Y-85650000D02*
X81200000Y-86150000D01*
X81200000Y-86150000D02*
X80200000Y-86150000D01*
X80200000Y-86150000D02*
X80200000Y-85650000D01*
X80200000Y-85650000D02*
X81200000Y-85650000D01*
X80300000Y-83950000D02*
X80300000Y-83450000D01*
X80300000Y-83450000D02*
X81300000Y-83450000D01*
X81300000Y-83450000D02*
X81300000Y-83950000D01*
X81300000Y-83950000D02*
X80300000Y-83950000D01*
X76100000Y-91650000D02*
X76100000Y-91150000D01*
X76100000Y-91150000D02*
X77100000Y-91150000D01*
X77100000Y-91150000D02*
X77100000Y-91650000D01*
X77100000Y-91650000D02*
X76100000Y-91650000D01*
X62050000Y-85400000D02*
X61550000Y-85400000D01*
X61550000Y-85400000D02*
X61550000Y-84400000D01*
X61550000Y-84400000D02*
X62050000Y-84400000D01*
X62050000Y-84400000D02*
X62050000Y-85400000D01*
X87500000Y-87750000D02*
X87500000Y-88250000D01*
X87500000Y-88250000D02*
X86500000Y-88250000D01*
X86500000Y-88250000D02*
X86500000Y-87750000D01*
X86500000Y-87750000D02*
X87500000Y-87750000D01*
X66400000Y-83250000D02*
X66400000Y-82750000D01*
X66400000Y-82750000D02*
X67400000Y-82750000D01*
X67400000Y-82750000D02*
X67400000Y-83250000D01*
X67400000Y-83250000D02*
X66400000Y-83250000D01*
X63700000Y-92350000D02*
X63700000Y-91850000D01*
X63700000Y-91850000D02*
X64700000Y-91850000D01*
X64700000Y-91850000D02*
X64700000Y-92350000D01*
X64700000Y-92350000D02*
X63700000Y-92350000D01*
X53150000Y-84500000D02*
X53650000Y-84500000D01*
X53650000Y-84500000D02*
X53650000Y-85500000D01*
X53650000Y-85500000D02*
X53150000Y-85500000D01*
X53150000Y-85500000D02*
X53150000Y-84500000D01*
X58400000Y-85250000D02*
X58400000Y-85750000D01*
X58400000Y-85750000D02*
X57400000Y-85750000D01*
X57400000Y-85750000D02*
X57400000Y-85250000D01*
X57400000Y-85250000D02*
X58400000Y-85250000D01*
X63660000Y-93660000D02*
X63660000Y-93160000D01*
X63660000Y-93160000D02*
X64660000Y-93160000D01*
X64660000Y-93160000D02*
X64660000Y-93660000D01*
X64660000Y-93660000D02*
X63660000Y-93660000D01*
X51750000Y-84500000D02*
X52250000Y-84500000D01*
X52250000Y-84500000D02*
X52250000Y-85500000D01*
X52250000Y-85500000D02*
X51750000Y-85500000D01*
X51750000Y-85500000D02*
X51750000Y-84500000D01*
X51650000Y-87200000D02*
X52150000Y-87200000D01*
X52150000Y-87200000D02*
X52150000Y-88200000D01*
X52150000Y-88200000D02*
X51650000Y-88200000D01*
X51650000Y-88200000D02*
X51650000Y-87200000D01*
X54100000Y-90050000D02*
X54100000Y-89550000D01*
X54100000Y-89550000D02*
X55100000Y-89550000D01*
X55100000Y-89550000D02*
X55100000Y-90050000D01*
X55100000Y-90050000D02*
X54100000Y-90050000D01*
X83800000Y-85850000D02*
X83800000Y-86350000D01*
X83800000Y-86350000D02*
X82800000Y-86350000D01*
X82800000Y-86350000D02*
X82800000Y-85850000D01*
X82800000Y-85850000D02*
X83800000Y-85850000D01*
X86500000Y-91250000D02*
X86500000Y-90750000D01*
X86500000Y-90750000D02*
X87500000Y-90750000D01*
X87500000Y-90750000D02*
X87500000Y-91250000D01*
X87500000Y-91250000D02*
X86500000Y-91250000D01*
X95991300Y-119955500D02*
X95991300Y-120455500D01*
X95991300Y-120455500D02*
X94991300Y-120455500D01*
X94991300Y-120455500D02*
X94991300Y-119955500D01*
X94991300Y-119955500D02*
X95991300Y-119955500D01*
X95500000Y-100550000D02*
X95500000Y-100050000D01*
X95500000Y-100050000D02*
X96500000Y-100050000D01*
X96500000Y-100050000D02*
X96500000Y-100550000D01*
X96500000Y-100550000D02*
X95500000Y-100550000D01*
X84500000Y-89250000D02*
X84500000Y-89750000D01*
X84500000Y-89750000D02*
X83500000Y-89750000D01*
X83500000Y-89750000D02*
X83500000Y-89250000D01*
X83500000Y-89250000D02*
X84500000Y-89250000D01*
X84500000Y-88050000D02*
X84500000Y-88550000D01*
X84500000Y-88550000D02*
X83500000Y-88550000D01*
X83500000Y-88550000D02*
X83500000Y-88050000D01*
X83500000Y-88050000D02*
X84500000Y-88050000D01*
X96000000Y-116250000D02*
X96000000Y-116750000D01*
X96000000Y-116750000D02*
X95000000Y-116750000D01*
X95000000Y-116750000D02*
X95000000Y-116250000D01*
X95000000Y-116250000D02*
X96000000Y-116250000D01*
X96500000Y-97250000D02*
X96500000Y-97750000D01*
X96500000Y-97750000D02*
X95500000Y-97750000D01*
X95500000Y-97750000D02*
X95500000Y-97250000D01*
X95500000Y-97250000D02*
X96500000Y-97250000D01*
X55100000Y-91950000D02*
X55100000Y-92450000D01*
X55100000Y-92450000D02*
X54100000Y-92450000D01*
X54100000Y-92450000D02*
X54100000Y-91950000D01*
X54100000Y-91950000D02*
X55100000Y-91950000D01*
X79250000Y-129500000D02*
X78750000Y-129500000D01*
X79250000Y-129100000D02*
X79850000Y-129500000D01*
X79250000Y-129900000D02*
X79250000Y-129100000D01*
X79850000Y-129500000D02*
X79250000Y-129900000D01*
X79850000Y-129500000D02*
X79850000Y-128950000D01*
X79850000Y-129500000D02*
X79850000Y-130050000D01*
X80250000Y-129500000D02*
X79850000Y-129500000D01*
X80900000Y-128600000D02*
X80900000Y-130400000D01*
X78100000Y-128600000D02*
X80900000Y-128600000D01*
X78100000Y-130400000D02*
X78100000Y-128600000D01*
X80900000Y-130400000D02*
X78100000Y-130400000D01*
X90700000Y-91500000D02*
X89900000Y-91500000D01*
X89900000Y-91500000D02*
X89900000Y-92100000D01*
X89900000Y-92100000D02*
X90700000Y-92100000D01*
X90700000Y-92100000D02*
X90700000Y-91500000D01*
X90050000Y-92100000D02*
X90050000Y-91500000D01*
X76400000Y-90250000D02*
X76400000Y-89750000D01*
X76400000Y-89750000D02*
X77400000Y-89750000D01*
X77400000Y-89750000D02*
X77400000Y-90250000D01*
X77400000Y-90250000D02*
X76400000Y-90250000D01*
X57800000Y-83350000D02*
X57800000Y-83850000D01*
X57800000Y-83850000D02*
X56800000Y-83850000D01*
X56800000Y-83850000D02*
X56800000Y-83350000D01*
X56800000Y-83350000D02*
X57800000Y-83350000D01*
X58850000Y-91800000D02*
X59350000Y-91800000D01*
X59350000Y-91800000D02*
X59350000Y-92800000D01*
X59350000Y-92800000D02*
X58850000Y-92800000D01*
X58850000Y-92800000D02*
X58850000Y-91800000D01*
X63700000Y-89950000D02*
X63700000Y-89450000D01*
X63700000Y-89450000D02*
X64700000Y-89450000D01*
X64700000Y-89450000D02*
X64700000Y-89950000D01*
X64700000Y-89950000D02*
X63700000Y-89950000D01*
X91800000Y-87400000D02*
X91800000Y-88200000D01*
X91800000Y-88200000D02*
X90200000Y-88200000D01*
X90200000Y-88200000D02*
X90200000Y-87400000D01*
X90200000Y-87400000D02*
X91800000Y-87400000D01*
X73300000Y-88850000D02*
X73300000Y-88350000D01*
X73300000Y-88350000D02*
X74300000Y-88350000D01*
X74300000Y-88350000D02*
X74300000Y-88850000D01*
X74300000Y-88850000D02*
X73300000Y-88850000D01*
X60700000Y-90050000D02*
X60700000Y-89550000D01*
X60700000Y-89550000D02*
X61700000Y-89550000D01*
X61700000Y-89550000D02*
X61700000Y-90050000D01*
X61700000Y-90050000D02*
X60700000Y-90050000D01*
X60250000Y-84400000D02*
X60750000Y-84400000D01*
X60750000Y-84400000D02*
X60750000Y-85400000D01*
X60750000Y-85400000D02*
X60250000Y-85400000D01*
X60250000Y-85400000D02*
X60250000Y-84400000D01*
X96500000Y-101850000D02*
X96500000Y-102350000D01*
X96500000Y-102350000D02*
X95500000Y-102350000D01*
X95500000Y-102350000D02*
X95500000Y-101850000D01*
X95500000Y-101850000D02*
X96500000Y-101850000D01*
X96500000Y-103950000D02*
X96500000Y-104450000D01*
X96500000Y-104450000D02*
X95500000Y-104450000D01*
X95500000Y-104450000D02*
X95500000Y-103950000D01*
X95500000Y-103950000D02*
X96500000Y-103950000D01*
X54750000Y-84500000D02*
X55250000Y-84500000D01*
X55250000Y-84500000D02*
X55250000Y-85500000D01*
X55250000Y-85500000D02*
X54750000Y-85500000D01*
X54750000Y-85500000D02*
X54750000Y-84500000D01*
X60600000Y-92250000D02*
X60600000Y-91750000D01*
X60600000Y-91750000D02*
X61600000Y-91750000D01*
X61600000Y-91750000D02*
X61600000Y-92250000D01*
X61600000Y-92250000D02*
X60600000Y-92250000D01*
X58800000Y-88450000D02*
X58800000Y-88950000D01*
X58800000Y-88950000D02*
X57800000Y-88950000D01*
X57800000Y-88950000D02*
X57800000Y-88450000D01*
X57800000Y-88450000D02*
X58800000Y-88450000D01*
X95500000Y-105750000D02*
X95500000Y-105250000D01*
X95500000Y-105250000D02*
X96500000Y-105250000D01*
X96500000Y-105250000D02*
X96500000Y-105750000D01*
X96500000Y-105750000D02*
X95500000Y-105750000D01*
X77300000Y-86250000D02*
X77300000Y-86750000D01*
X77300000Y-86750000D02*
X76300000Y-86750000D01*
X76300000Y-86750000D02*
X76300000Y-86250000D01*
X76300000Y-86250000D02*
X77300000Y-86250000D01*
X86500000Y-89750000D02*
X86500000Y-89250000D01*
X86500000Y-89250000D02*
X87500000Y-89250000D01*
X87500000Y-89250000D02*
X87500000Y-89750000D01*
X87500000Y-89750000D02*
X86500000Y-89750000D01*
X96000000Y-118250000D02*
X96000000Y-118750000D01*
X96000000Y-118750000D02*
X95000000Y-118750000D01*
X95000000Y-118750000D02*
X95000000Y-118250000D01*
X95000000Y-118250000D02*
X96000000Y-118250000D01*
X96500000Y-98750000D02*
X96500000Y-99250000D01*
X96500000Y-99250000D02*
X95500000Y-99250000D01*
X95500000Y-99250000D02*
X95500000Y-98750000D01*
X95500000Y-98750000D02*
X96500000Y-98750000D01*
X91000000Y-89350000D02*
X91000000Y-89850000D01*
X91000000Y-89850000D02*
X90000000Y-89850000D01*
X90000000Y-89850000D02*
X90000000Y-89350000D01*
X90000000Y-89350000D02*
X91000000Y-89350000D01*
X60900000Y-96380000D02*
X60100000Y-96380000D01*
X60100000Y-96380000D02*
X60100000Y-94780000D01*
X60100000Y-94780000D02*
X60900000Y-94780000D01*
X60900000Y-94780000D02*
X60900000Y-96380000D01*
X90050000Y-85290000D02*
X90050000Y-84490000D01*
X90050000Y-84490000D02*
X91650000Y-84490000D01*
X91650000Y-84490000D02*
X91650000Y-85290000D01*
X91650000Y-85290000D02*
X90050000Y-85290000D01*
X56420000Y-97730000D02*
X50620000Y-97730000D01*
X50620000Y-97730000D02*
X50620000Y-120590000D01*
X50620000Y-120590000D02*
X56420000Y-120590000D01*
X56420000Y-120590000D02*
X56420000Y-97730000D01*
X50350000Y-130350000D02*
X50350000Y-122850000D01*
X55350000Y-130350000D02*
X50350000Y-130350000D01*
X55350000Y-122850000D02*
X55350000Y-130350000D01*
X50350000Y-122850000D02*
X55350000Y-122850000D01*
X51050000Y-123350000D02*
X51050000Y-129850000D01*
X62300000Y-127850000D02*
X62300000Y-130150000D01*
X62300000Y-130150000D02*
X68700000Y-130150000D01*
X68700000Y-130150000D02*
X68700000Y-127850000D01*
X68700000Y-127850000D02*
X62300000Y-127850000D01*
X98844100Y-108296200D02*
X98544100Y-107996200D01*
X99144100Y-107996200D02*
X98844100Y-108296200D01*
X98894100Y-109296200D02*
G75*
G03X98894100Y-109296200I-50000J0D01*
G01*
X98969100Y-109296200D02*
G75*
G03X98969100Y-109296200I-125000J0D01*
G01*
X99744100Y-109296200D02*
G75*
G03X99744100Y-109296200I-900000J0D01*
G01*
X100144100Y-110596200D02*
X97544100Y-110596200D01*
X100144100Y-110596200D02*
X100144100Y-108296200D01*
X100144100Y-108296200D02*
X99844100Y-107996200D01*
X97544100Y-110596200D02*
X97544100Y-107996200D01*
X99844100Y-107996200D02*
X97544100Y-107996200D01*
X99044100Y-109296200D02*
G75*
G03X99044100Y-109296200I-200000J0D01*
G01*
X74700000Y-91350000D02*
X75000000Y-91050000D01*
X75000000Y-91050000D02*
X75000000Y-89850000D01*
X75000000Y-89850000D02*
X74000000Y-89850000D01*
X74000000Y-89850000D02*
X74000000Y-91350000D01*
X74000000Y-91350000D02*
X74700000Y-91350000D01*
X67900000Y-86300000D02*
X70900000Y-86300000D01*
X70900000Y-86300000D02*
X70900000Y-90300000D01*
X70900000Y-90300000D02*
X66900000Y-90300000D01*
X66900000Y-90300000D02*
X66900000Y-87300000D01*
X66900000Y-87300000D02*
X67900000Y-86300000D01*
D11*
X68895239Y-84655714D02*
X68895239Y-85322381D01*
X68657143Y-84274762D02*
X68419048Y-84989048D01*
X69038096Y-84989048D01*
X69419048Y-85227143D02*
X69466667Y-85274762D01*
X69419048Y-85322381D01*
X69371429Y-85274762D01*
X69419048Y-85227143D01*
X69419048Y-85322381D01*
X69800000Y-84322381D02*
X70466667Y-84322381D01*
X70038095Y-85322381D01*
X71276191Y-84655714D02*
X71276191Y-85322381D01*
X70847619Y-84655714D02*
X70847619Y-85179524D01*
X70895238Y-85274762D01*
X70990476Y-85322381D01*
X71133334Y-85322381D01*
X71228572Y-85274762D01*
X71276191Y-85227143D01*
X72085715Y-84798571D02*
X71752381Y-84798571D01*
X71752381Y-85322381D02*
X71752381Y-84322381D01*
X72228572Y-84322381D01*
D12*
X70139286Y-83789286D02*
X70127381Y-83801190D01*
X70091667Y-83813095D01*
X70067857Y-83813095D01*
X70032143Y-83801190D01*
X70008334Y-83777381D01*
X69996429Y-83753571D01*
X69984524Y-83705952D01*
X69984524Y-83670238D01*
X69996429Y-83622619D01*
X70008334Y-83598810D01*
X70032143Y-83575000D01*
X70067857Y-83563095D01*
X70091667Y-83563095D01*
X70127381Y-83575000D01*
X70139286Y-83586905D01*
X70234524Y-83586905D02*
X70246429Y-83575000D01*
X70270238Y-83563095D01*
X70329762Y-83563095D01*
X70353572Y-83575000D01*
X70365476Y-83586905D01*
X70377381Y-83610714D01*
X70377381Y-83634524D01*
X70365476Y-83670238D01*
X70222619Y-83813095D01*
X70377381Y-83813095D01*
X70591667Y-83563095D02*
X70544048Y-83563095D01*
X70520238Y-83575000D01*
X70508333Y-83586905D01*
X70484524Y-83622619D01*
X70472619Y-83670238D01*
X70472619Y-83765476D01*
X70484524Y-83789286D01*
X70496429Y-83801190D01*
X70520238Y-83813095D01*
X70567857Y-83813095D01*
X70591667Y-83801190D01*
X70603571Y-83789286D01*
X70615476Y-83765476D01*
X70615476Y-83705952D01*
X70603571Y-83682143D01*
X70591667Y-83670238D01*
X70567857Y-83658333D01*
X70520238Y-83658333D01*
X70496429Y-83670238D01*
X70484524Y-83682143D01*
X70472619Y-83705952D01*
D11*
X52195239Y-95655714D02*
X52195239Y-96322381D01*
X51957143Y-95274762D02*
X51719048Y-95989048D01*
X52338096Y-95989048D01*
X52719048Y-96227143D02*
X52766667Y-96274762D01*
X52719048Y-96322381D01*
X52671429Y-96274762D01*
X52719048Y-96227143D01*
X52719048Y-96322381D01*
X53100000Y-95322381D02*
X53766667Y-95322381D01*
X53338095Y-96322381D01*
X54576191Y-95655714D02*
X54576191Y-96322381D01*
X54147619Y-95655714D02*
X54147619Y-96179524D01*
X54195238Y-96274762D01*
X54290476Y-96322381D01*
X54433334Y-96322381D01*
X54528572Y-96274762D01*
X54576191Y-96227143D01*
X55385715Y-95798571D02*
X55052381Y-95798571D01*
X55052381Y-96322381D02*
X55052381Y-95322381D01*
X55528572Y-95322381D01*
D12*
X53558334Y-94789286D02*
X53546429Y-94801190D01*
X53510715Y-94813095D01*
X53486905Y-94813095D01*
X53451191Y-94801190D01*
X53427382Y-94777381D01*
X53415477Y-94753571D01*
X53403572Y-94705952D01*
X53403572Y-94670238D01*
X53415477Y-94622619D01*
X53427382Y-94598810D01*
X53451191Y-94575000D01*
X53486905Y-94563095D01*
X53510715Y-94563095D01*
X53546429Y-94575000D01*
X53558334Y-94586905D01*
X53784524Y-94563095D02*
X53665477Y-94563095D01*
X53653572Y-94682143D01*
X53665477Y-94670238D01*
X53689286Y-94658333D01*
X53748810Y-94658333D01*
X53772620Y-94670238D01*
X53784524Y-94682143D01*
X53796429Y-94705952D01*
X53796429Y-94765476D01*
X53784524Y-94789286D01*
X53772620Y-94801190D01*
X53748810Y-94813095D01*
X53689286Y-94813095D01*
X53665477Y-94801190D01*
X53653572Y-94789286D01*
D11*
X54595239Y-93065714D02*
X54595239Y-93732381D01*
X54357143Y-92684762D02*
X54119048Y-93399048D01*
X54738096Y-93399048D01*
X55119048Y-93637143D02*
X55166667Y-93684762D01*
X55119048Y-93732381D01*
X55071429Y-93684762D01*
X55119048Y-93637143D01*
X55119048Y-93732381D01*
X55500000Y-92732381D02*
X56166667Y-92732381D01*
X55738095Y-93732381D01*
X56976191Y-93065714D02*
X56976191Y-93732381D01*
X56547619Y-93065714D02*
X56547619Y-93589524D01*
X56595238Y-93684762D01*
X56690476Y-93732381D01*
X56833334Y-93732381D01*
X56928572Y-93684762D01*
X56976191Y-93637143D01*
X57785715Y-93208571D02*
X57452381Y-93208571D01*
X57452381Y-93732381D02*
X57452381Y-92732381D01*
X57928572Y-92732381D01*
D12*
X55958334Y-94539286D02*
X55946429Y-94551190D01*
X55910715Y-94563095D01*
X55886905Y-94563095D01*
X55851191Y-94551190D01*
X55827382Y-94527381D01*
X55815477Y-94503571D01*
X55803572Y-94455952D01*
X55803572Y-94420238D01*
X55815477Y-94372619D01*
X55827382Y-94348810D01*
X55851191Y-94325000D01*
X55886905Y-94313095D01*
X55910715Y-94313095D01*
X55946429Y-94325000D01*
X55958334Y-94336905D01*
X56172620Y-94313095D02*
X56125001Y-94313095D01*
X56101191Y-94325000D01*
X56089286Y-94336905D01*
X56065477Y-94372619D01*
X56053572Y-94420238D01*
X56053572Y-94515476D01*
X56065477Y-94539286D01*
X56077382Y-94551190D01*
X56101191Y-94563095D01*
X56148810Y-94563095D01*
X56172620Y-94551190D01*
X56184524Y-94539286D01*
X56196429Y-94515476D01*
X56196429Y-94455952D01*
X56184524Y-94432143D01*
X56172620Y-94420238D01*
X56148810Y-94408333D01*
X56101191Y-94408333D01*
X56077382Y-94420238D01*
X56065477Y-94432143D01*
X56053572Y-94455952D01*
D11*
X62795239Y-89355714D02*
X62795239Y-90022381D01*
X62557143Y-88974762D02*
X62319048Y-89689048D01*
X62938096Y-89689048D01*
X63319048Y-89927143D02*
X63366667Y-89974762D01*
X63319048Y-90022381D01*
X63271429Y-89974762D01*
X63319048Y-89927143D01*
X63319048Y-90022381D01*
X63700000Y-89022381D02*
X64366667Y-89022381D01*
X63938095Y-90022381D01*
X65176191Y-89355714D02*
X65176191Y-90022381D01*
X64747619Y-89355714D02*
X64747619Y-89879524D01*
X64795238Y-89974762D01*
X64890476Y-90022381D01*
X65033334Y-90022381D01*
X65128572Y-89974762D01*
X65176191Y-89927143D01*
X65985715Y-89498571D02*
X65652381Y-89498571D01*
X65652381Y-90022381D02*
X65652381Y-89022381D01*
X66128572Y-89022381D01*
D12*
X64158334Y-88489286D02*
X64146429Y-88501190D01*
X64110715Y-88513095D01*
X64086905Y-88513095D01*
X64051191Y-88501190D01*
X64027382Y-88477381D01*
X64015477Y-88453571D01*
X64003572Y-88405952D01*
X64003572Y-88370238D01*
X64015477Y-88322619D01*
X64027382Y-88298810D01*
X64051191Y-88275000D01*
X64086905Y-88263095D01*
X64110715Y-88263095D01*
X64146429Y-88275000D01*
X64158334Y-88286905D01*
X64301191Y-88370238D02*
X64277382Y-88358333D01*
X64265477Y-88346429D01*
X64253572Y-88322619D01*
X64253572Y-88310714D01*
X64265477Y-88286905D01*
X64277382Y-88275000D01*
X64301191Y-88263095D01*
X64348810Y-88263095D01*
X64372620Y-88275000D01*
X64384524Y-88286905D01*
X64396429Y-88310714D01*
X64396429Y-88322619D01*
X64384524Y-88346429D01*
X64372620Y-88358333D01*
X64348810Y-88370238D01*
X64301191Y-88370238D01*
X64277382Y-88382143D01*
X64265477Y-88394048D01*
X64253572Y-88417857D01*
X64253572Y-88465476D01*
X64265477Y-88489286D01*
X64277382Y-88501190D01*
X64301191Y-88513095D01*
X64348810Y-88513095D01*
X64372620Y-88501190D01*
X64384524Y-88489286D01*
X64396429Y-88465476D01*
X64396429Y-88417857D01*
X64384524Y-88394048D01*
X64372620Y-88382143D01*
X64348810Y-88370238D01*
D11*
X52052381Y-97622381D02*
X51480952Y-97622381D01*
X51766666Y-97622381D02*
X51766666Y-96622381D01*
X51671428Y-96765238D01*
X51576190Y-96860476D01*
X51480952Y-96908095D01*
X52671428Y-96622381D02*
X52766667Y-96622381D01*
X52861905Y-96670000D01*
X52909524Y-96717619D01*
X52957143Y-96812857D01*
X53004762Y-97003333D01*
X53004762Y-97241429D01*
X52957143Y-97431905D01*
X52909524Y-97527143D01*
X52861905Y-97574762D01*
X52766667Y-97622381D01*
X52671428Y-97622381D01*
X52576190Y-97574762D01*
X52528571Y-97527143D01*
X52480952Y-97431905D01*
X52433333Y-97241429D01*
X52433333Y-97003333D01*
X52480952Y-96812857D01*
X52528571Y-96717619D01*
X52576190Y-96670000D01*
X52671428Y-96622381D01*
X53623809Y-96622381D02*
X53719048Y-96622381D01*
X53814286Y-96670000D01*
X53861905Y-96717619D01*
X53909524Y-96812857D01*
X53957143Y-97003333D01*
X53957143Y-97241429D01*
X53909524Y-97431905D01*
X53861905Y-97527143D01*
X53814286Y-97574762D01*
X53719048Y-97622381D01*
X53623809Y-97622381D01*
X53528571Y-97574762D01*
X53480952Y-97527143D01*
X53433333Y-97431905D01*
X53385714Y-97241429D01*
X53385714Y-97003333D01*
X53433333Y-96812857D01*
X53480952Y-96717619D01*
X53528571Y-96670000D01*
X53623809Y-96622381D01*
X54385714Y-96955714D02*
X54385714Y-97622381D01*
X54385714Y-97050952D02*
X54433333Y-97003333D01*
X54528571Y-96955714D01*
X54671429Y-96955714D01*
X54766667Y-97003333D01*
X54814286Y-97098571D01*
X54814286Y-97622381D01*
X55623810Y-97098571D02*
X55290476Y-97098571D01*
X55290476Y-97622381D02*
X55290476Y-96622381D01*
X55766667Y-96622381D01*
D12*
X53558334Y-96089286D02*
X53546429Y-96101190D01*
X53510715Y-96113095D01*
X53486905Y-96113095D01*
X53451191Y-96101190D01*
X53427382Y-96077381D01*
X53415477Y-96053571D01*
X53403572Y-96005952D01*
X53403572Y-95970238D01*
X53415477Y-95922619D01*
X53427382Y-95898810D01*
X53451191Y-95875000D01*
X53486905Y-95863095D01*
X53510715Y-95863095D01*
X53546429Y-95875000D01*
X53558334Y-95886905D01*
X53677382Y-96113095D02*
X53725001Y-96113095D01*
X53748810Y-96101190D01*
X53760715Y-96089286D01*
X53784524Y-96053571D01*
X53796429Y-96005952D01*
X53796429Y-95910714D01*
X53784524Y-95886905D01*
X53772620Y-95875000D01*
X53748810Y-95863095D01*
X53701191Y-95863095D01*
X53677382Y-95875000D01*
X53665477Y-95886905D01*
X53653572Y-95910714D01*
X53653572Y-95970238D01*
X53665477Y-95994048D01*
X53677382Y-96005952D01*
X53701191Y-96017857D01*
X53748810Y-96017857D01*
X53772620Y-96005952D01*
X53784524Y-95994048D01*
X53796429Y-95970238D01*
D11*
X54462381Y-95292381D02*
X53890952Y-95292381D01*
X54176666Y-95292381D02*
X54176666Y-94292381D01*
X54081428Y-94435238D01*
X53986190Y-94530476D01*
X53890952Y-94578095D01*
X55081428Y-94292381D02*
X55176667Y-94292381D01*
X55271905Y-94340000D01*
X55319524Y-94387619D01*
X55367143Y-94482857D01*
X55414762Y-94673333D01*
X55414762Y-94911429D01*
X55367143Y-95101905D01*
X55319524Y-95197143D01*
X55271905Y-95244762D01*
X55176667Y-95292381D01*
X55081428Y-95292381D01*
X54986190Y-95244762D01*
X54938571Y-95197143D01*
X54890952Y-95101905D01*
X54843333Y-94911429D01*
X54843333Y-94673333D01*
X54890952Y-94482857D01*
X54938571Y-94387619D01*
X54986190Y-94340000D01*
X55081428Y-94292381D01*
X56033809Y-94292381D02*
X56129048Y-94292381D01*
X56224286Y-94340000D01*
X56271905Y-94387619D01*
X56319524Y-94482857D01*
X56367143Y-94673333D01*
X56367143Y-94911429D01*
X56319524Y-95101905D01*
X56271905Y-95197143D01*
X56224286Y-95244762D01*
X56129048Y-95292381D01*
X56033809Y-95292381D01*
X55938571Y-95244762D01*
X55890952Y-95197143D01*
X55843333Y-95101905D01*
X55795714Y-94911429D01*
X55795714Y-94673333D01*
X55843333Y-94482857D01*
X55890952Y-94387619D01*
X55938571Y-94340000D01*
X56033809Y-94292381D01*
X56795714Y-94625714D02*
X56795714Y-95292381D01*
X56795714Y-94720952D02*
X56843333Y-94673333D01*
X56938571Y-94625714D01*
X57081429Y-94625714D01*
X57176667Y-94673333D01*
X57224286Y-94768571D01*
X57224286Y-95292381D01*
X58033810Y-94768571D02*
X57700476Y-94768571D01*
X57700476Y-95292381D02*
X57700476Y-94292381D01*
X58176667Y-94292381D01*
D12*
X55849286Y-96099286D02*
X55837381Y-96111190D01*
X55801667Y-96123095D01*
X55777857Y-96123095D01*
X55742143Y-96111190D01*
X55718334Y-96087381D01*
X55706429Y-96063571D01*
X55694524Y-96015952D01*
X55694524Y-95980238D01*
X55706429Y-95932619D01*
X55718334Y-95908810D01*
X55742143Y-95885000D01*
X55777857Y-95873095D01*
X55801667Y-95873095D01*
X55837381Y-95885000D01*
X55849286Y-95896905D01*
X56087381Y-96123095D02*
X55944524Y-96123095D01*
X56015953Y-96123095D02*
X56015953Y-95873095D01*
X55992143Y-95908810D01*
X55968334Y-95932619D01*
X55944524Y-95944524D01*
X56242143Y-95873095D02*
X56265952Y-95873095D01*
X56289762Y-95885000D01*
X56301667Y-95896905D01*
X56313571Y-95920714D01*
X56325476Y-95968333D01*
X56325476Y-96027857D01*
X56313571Y-96075476D01*
X56301667Y-96099286D01*
X56289762Y-96111190D01*
X56265952Y-96123095D01*
X56242143Y-96123095D01*
X56218333Y-96111190D01*
X56206429Y-96099286D01*
X56194524Y-96075476D01*
X56182619Y-96027857D01*
X56182619Y-95968333D01*
X56194524Y-95920714D01*
X56206429Y-95896905D01*
X56218333Y-95885000D01*
X56242143Y-95873095D01*
D11*
X57328572Y-96082381D02*
X56757143Y-96082381D01*
X57042857Y-96082381D02*
X57042857Y-95082381D01*
X56947619Y-95225238D01*
X56852381Y-95320476D01*
X56757143Y-95368095D01*
X57947619Y-95082381D02*
X58042858Y-95082381D01*
X58138096Y-95130000D01*
X58185715Y-95177619D01*
X58233334Y-95272857D01*
X58280953Y-95463333D01*
X58280953Y-95701429D01*
X58233334Y-95891905D01*
X58185715Y-95987143D01*
X58138096Y-96034762D01*
X58042858Y-96082381D01*
X57947619Y-96082381D01*
X57852381Y-96034762D01*
X57804762Y-95987143D01*
X57757143Y-95891905D01*
X57709524Y-95701429D01*
X57709524Y-95463333D01*
X57757143Y-95272857D01*
X57804762Y-95177619D01*
X57852381Y-95130000D01*
X57947619Y-95082381D01*
X58709524Y-95415714D02*
X58709524Y-96415714D01*
X58709524Y-95463333D02*
X58804762Y-95415714D01*
X58995239Y-95415714D01*
X59090477Y-95463333D01*
X59138096Y-95510952D01*
X59185715Y-95606190D01*
X59185715Y-95891905D01*
X59138096Y-95987143D01*
X59090477Y-96034762D01*
X58995239Y-96082381D01*
X58804762Y-96082381D01*
X58709524Y-96034762D01*
X59947620Y-95558571D02*
X59614286Y-95558571D01*
X59614286Y-96082381D02*
X59614286Y-95082381D01*
X60090477Y-95082381D01*
D12*
X58239286Y-94549286D02*
X58227381Y-94561190D01*
X58191667Y-94573095D01*
X58167857Y-94573095D01*
X58132143Y-94561190D01*
X58108334Y-94537381D01*
X58096429Y-94513571D01*
X58084524Y-94465952D01*
X58084524Y-94430238D01*
X58096429Y-94382619D01*
X58108334Y-94358810D01*
X58132143Y-94335000D01*
X58167857Y-94323095D01*
X58191667Y-94323095D01*
X58227381Y-94335000D01*
X58239286Y-94346905D01*
X58477381Y-94573095D02*
X58334524Y-94573095D01*
X58405953Y-94573095D02*
X58405953Y-94323095D01*
X58382143Y-94358810D01*
X58358334Y-94382619D01*
X58334524Y-94394524D01*
X58715476Y-94573095D02*
X58572619Y-94573095D01*
X58644048Y-94573095D02*
X58644048Y-94323095D01*
X58620238Y-94358810D01*
X58596429Y-94382619D01*
X58572619Y-94394524D01*
D11*
X56709524Y-96542381D02*
X57328572Y-96542381D01*
X56995238Y-96923333D01*
X57138096Y-96923333D01*
X57233334Y-96970952D01*
X57280953Y-97018571D01*
X57328572Y-97113810D01*
X57328572Y-97351905D01*
X57280953Y-97447143D01*
X57233334Y-97494762D01*
X57138096Y-97542381D01*
X56852381Y-97542381D01*
X56757143Y-97494762D01*
X56709524Y-97447143D01*
X57661905Y-96542381D02*
X58280953Y-96542381D01*
X57947619Y-96923333D01*
X58090477Y-96923333D01*
X58185715Y-96970952D01*
X58233334Y-97018571D01*
X58280953Y-97113810D01*
X58280953Y-97351905D01*
X58233334Y-97447143D01*
X58185715Y-97494762D01*
X58090477Y-97542381D01*
X57804762Y-97542381D01*
X57709524Y-97494762D01*
X57661905Y-97447143D01*
X58709524Y-96875714D02*
X58709524Y-97875714D01*
X58709524Y-96923333D02*
X58804762Y-96875714D01*
X58995239Y-96875714D01*
X59090477Y-96923333D01*
X59138096Y-96970952D01*
X59185715Y-97066190D01*
X59185715Y-97351905D01*
X59138096Y-97447143D01*
X59090477Y-97494762D01*
X58995239Y-97542381D01*
X58804762Y-97542381D01*
X58709524Y-97494762D01*
X59947620Y-97018571D02*
X59614286Y-97018571D01*
X59614286Y-97542381D02*
X59614286Y-96542381D01*
X60090477Y-96542381D01*
D12*
X58239286Y-96009286D02*
X58227381Y-96021190D01*
X58191667Y-96033095D01*
X58167857Y-96033095D01*
X58132143Y-96021190D01*
X58108334Y-95997381D01*
X58096429Y-95973571D01*
X58084524Y-95925952D01*
X58084524Y-95890238D01*
X58096429Y-95842619D01*
X58108334Y-95818810D01*
X58132143Y-95795000D01*
X58167857Y-95783095D01*
X58191667Y-95783095D01*
X58227381Y-95795000D01*
X58239286Y-95806905D01*
X58477381Y-96033095D02*
X58334524Y-96033095D01*
X58405953Y-96033095D02*
X58405953Y-95783095D01*
X58382143Y-95818810D01*
X58358334Y-95842619D01*
X58334524Y-95854524D01*
X58691667Y-95866429D02*
X58691667Y-96033095D01*
X58632143Y-95771190D02*
X58572619Y-95949762D01*
X58727381Y-95949762D01*
D11*
X75822381Y-88247619D02*
X75822381Y-88819048D01*
X75822381Y-88533334D02*
X74822381Y-88533334D01*
X74965238Y-88628572D01*
X75060476Y-88723810D01*
X75108095Y-88819048D01*
X74822381Y-87628572D02*
X74822381Y-87533333D01*
X74870000Y-87438095D01*
X74917619Y-87390476D01*
X75012857Y-87342857D01*
X75203333Y-87295238D01*
X75441429Y-87295238D01*
X75631905Y-87342857D01*
X75727143Y-87390476D01*
X75774762Y-87438095D01*
X75822381Y-87533333D01*
X75822381Y-87628572D01*
X75774762Y-87723810D01*
X75727143Y-87771429D01*
X75631905Y-87819048D01*
X75441429Y-87866667D01*
X75203333Y-87866667D01*
X75012857Y-87819048D01*
X74917619Y-87771429D01*
X74870000Y-87723810D01*
X74822381Y-87628572D01*
X74822381Y-86676191D02*
X74822381Y-86580952D01*
X74870000Y-86485714D01*
X74917619Y-86438095D01*
X75012857Y-86390476D01*
X75203333Y-86342857D01*
X75441429Y-86342857D01*
X75631905Y-86390476D01*
X75727143Y-86438095D01*
X75774762Y-86485714D01*
X75822381Y-86580952D01*
X75822381Y-86676191D01*
X75774762Y-86771429D01*
X75727143Y-86819048D01*
X75631905Y-86866667D01*
X75441429Y-86914286D01*
X75203333Y-86914286D01*
X75012857Y-86866667D01*
X74917619Y-86819048D01*
X74870000Y-86771429D01*
X74822381Y-86676191D01*
X75155714Y-85914286D02*
X76155714Y-85914286D01*
X75203333Y-85914286D02*
X75155714Y-85819048D01*
X75155714Y-85628571D01*
X75203333Y-85533333D01*
X75250952Y-85485714D01*
X75346190Y-85438095D01*
X75631905Y-85438095D01*
X75727143Y-85485714D01*
X75774762Y-85533333D01*
X75822381Y-85628571D01*
X75822381Y-85819048D01*
X75774762Y-85914286D01*
X75298571Y-84676190D02*
X75298571Y-85009524D01*
X75822381Y-85009524D02*
X74822381Y-85009524D01*
X74822381Y-84533333D01*
D12*
X74289286Y-86860714D02*
X74301190Y-86872619D01*
X74313095Y-86908333D01*
X74313095Y-86932143D01*
X74301190Y-86967857D01*
X74277381Y-86991666D01*
X74253571Y-87003571D01*
X74205952Y-87015476D01*
X74170238Y-87015476D01*
X74122619Y-87003571D01*
X74098810Y-86991666D01*
X74075000Y-86967857D01*
X74063095Y-86932143D01*
X74063095Y-86908333D01*
X74075000Y-86872619D01*
X74086905Y-86860714D01*
X74313095Y-86622619D02*
X74313095Y-86765476D01*
X74313095Y-86694047D02*
X74063095Y-86694047D01*
X74098810Y-86717857D01*
X74122619Y-86741666D01*
X74134524Y-86765476D01*
X74063095Y-86396429D02*
X74063095Y-86515476D01*
X74182143Y-86527381D01*
X74170238Y-86515476D01*
X74158333Y-86491667D01*
X74158333Y-86432143D01*
X74170238Y-86408333D01*
X74182143Y-86396429D01*
X74205952Y-86384524D01*
X74265476Y-86384524D01*
X74289286Y-86396429D01*
X74301190Y-86408333D01*
X74313095Y-86432143D01*
X74313095Y-86491667D01*
X74301190Y-86515476D01*
X74289286Y-86527381D01*
D11*
X70609524Y-92522381D02*
X71228572Y-92522381D01*
X70895238Y-92903333D01*
X71038096Y-92903333D01*
X71133334Y-92950952D01*
X71180953Y-92998571D01*
X71228572Y-93093810D01*
X71228572Y-93331905D01*
X71180953Y-93427143D01*
X71133334Y-93474762D01*
X71038096Y-93522381D01*
X70752381Y-93522381D01*
X70657143Y-93474762D01*
X70609524Y-93427143D01*
X71561905Y-92522381D02*
X72180953Y-92522381D01*
X71847619Y-92903333D01*
X71990477Y-92903333D01*
X72085715Y-92950952D01*
X72133334Y-92998571D01*
X72180953Y-93093810D01*
X72180953Y-93331905D01*
X72133334Y-93427143D01*
X72085715Y-93474762D01*
X71990477Y-93522381D01*
X71704762Y-93522381D01*
X71609524Y-93474762D01*
X71561905Y-93427143D01*
X72609524Y-92855714D02*
X72609524Y-93855714D01*
X72609524Y-92903333D02*
X72704762Y-92855714D01*
X72895239Y-92855714D01*
X72990477Y-92903333D01*
X73038096Y-92950952D01*
X73085715Y-93046190D01*
X73085715Y-93331905D01*
X73038096Y-93427143D01*
X72990477Y-93474762D01*
X72895239Y-93522381D01*
X72704762Y-93522381D01*
X72609524Y-93474762D01*
X73847620Y-92998571D02*
X73514286Y-92998571D01*
X73514286Y-93522381D02*
X73514286Y-92522381D01*
X73990477Y-92522381D01*
D12*
X72139286Y-91989286D02*
X72127381Y-92001190D01*
X72091667Y-92013095D01*
X72067857Y-92013095D01*
X72032143Y-92001190D01*
X72008334Y-91977381D01*
X71996429Y-91953571D01*
X71984524Y-91905952D01*
X71984524Y-91870238D01*
X71996429Y-91822619D01*
X72008334Y-91798810D01*
X72032143Y-91775000D01*
X72067857Y-91763095D01*
X72091667Y-91763095D01*
X72127381Y-91775000D01*
X72139286Y-91786905D01*
X72234524Y-91786905D02*
X72246429Y-91775000D01*
X72270238Y-91763095D01*
X72329762Y-91763095D01*
X72353572Y-91775000D01*
X72365476Y-91786905D01*
X72377381Y-91810714D01*
X72377381Y-91834524D01*
X72365476Y-91870238D01*
X72222619Y-92013095D01*
X72377381Y-92013095D01*
X72532143Y-91763095D02*
X72555952Y-91763095D01*
X72579762Y-91775000D01*
X72591667Y-91786905D01*
X72603571Y-91810714D01*
X72615476Y-91858333D01*
X72615476Y-91917857D01*
X72603571Y-91965476D01*
X72591667Y-91989286D01*
X72579762Y-92001190D01*
X72555952Y-92013095D01*
X72532143Y-92013095D01*
X72508333Y-92001190D01*
X72496429Y-91989286D01*
X72484524Y-91965476D01*
X72472619Y-91917857D01*
X72472619Y-91858333D01*
X72484524Y-91810714D01*
X72496429Y-91786905D01*
X72508333Y-91775000D01*
X72532143Y-91763095D01*
D11*
X50682381Y-96471428D02*
X50682381Y-97042857D01*
X50682381Y-96757143D02*
X49682381Y-96757143D01*
X49825238Y-96852381D01*
X49920476Y-96947619D01*
X49968095Y-97042857D01*
X49682381Y-95852381D02*
X49682381Y-95757142D01*
X49730000Y-95661904D01*
X49777619Y-95614285D01*
X49872857Y-95566666D01*
X50063333Y-95519047D01*
X50301429Y-95519047D01*
X50491905Y-95566666D01*
X50587143Y-95614285D01*
X50634762Y-95661904D01*
X50682381Y-95757142D01*
X50682381Y-95852381D01*
X50634762Y-95947619D01*
X50587143Y-95995238D01*
X50491905Y-96042857D01*
X50301429Y-96090476D01*
X50063333Y-96090476D01*
X49872857Y-96042857D01*
X49777619Y-95995238D01*
X49730000Y-95947619D01*
X49682381Y-95852381D01*
X50015714Y-95090476D02*
X51015714Y-95090476D01*
X50063333Y-95090476D02*
X50015714Y-94995238D01*
X50015714Y-94804761D01*
X50063333Y-94709523D01*
X50110952Y-94661904D01*
X50206190Y-94614285D01*
X50491905Y-94614285D01*
X50587143Y-94661904D01*
X50634762Y-94709523D01*
X50682381Y-94804761D01*
X50682381Y-94995238D01*
X50634762Y-95090476D01*
X50158571Y-93852380D02*
X50158571Y-94185714D01*
X50682381Y-94185714D02*
X49682381Y-94185714D01*
X49682381Y-93709523D01*
D12*
X51489286Y-95560714D02*
X51501190Y-95572619D01*
X51513095Y-95608333D01*
X51513095Y-95632143D01*
X51501190Y-95667857D01*
X51477381Y-95691666D01*
X51453571Y-95703571D01*
X51405952Y-95715476D01*
X51370238Y-95715476D01*
X51322619Y-95703571D01*
X51298810Y-95691666D01*
X51275000Y-95667857D01*
X51263095Y-95632143D01*
X51263095Y-95608333D01*
X51275000Y-95572619D01*
X51286905Y-95560714D01*
X51286905Y-95465476D02*
X51275000Y-95453571D01*
X51263095Y-95429762D01*
X51263095Y-95370238D01*
X51275000Y-95346428D01*
X51286905Y-95334524D01*
X51310714Y-95322619D01*
X51334524Y-95322619D01*
X51370238Y-95334524D01*
X51513095Y-95477381D01*
X51513095Y-95322619D01*
X51286905Y-95227381D02*
X51275000Y-95215476D01*
X51263095Y-95191667D01*
X51263095Y-95132143D01*
X51275000Y-95108333D01*
X51286905Y-95096429D01*
X51310714Y-95084524D01*
X51334524Y-95084524D01*
X51370238Y-95096429D01*
X51513095Y-95239286D01*
X51513095Y-95084524D01*
D11*
X63604762Y-84782381D02*
X63033333Y-84782381D01*
X63319047Y-84782381D02*
X63319047Y-83782381D01*
X63223809Y-83925238D01*
X63128571Y-84020476D01*
X63033333Y-84068095D01*
X64461905Y-84115714D02*
X64461905Y-84782381D01*
X64033333Y-84115714D02*
X64033333Y-84639524D01*
X64080952Y-84734762D01*
X64176190Y-84782381D01*
X64319048Y-84782381D01*
X64414286Y-84734762D01*
X64461905Y-84687143D01*
X65271429Y-84258571D02*
X64938095Y-84258571D01*
X64938095Y-84782381D02*
X64938095Y-83782381D01*
X65414286Y-83782381D01*
D12*
X64039286Y-85589286D02*
X64027381Y-85601190D01*
X63991667Y-85613095D01*
X63967857Y-85613095D01*
X63932143Y-85601190D01*
X63908334Y-85577381D01*
X63896429Y-85553571D01*
X63884524Y-85505952D01*
X63884524Y-85470238D01*
X63896429Y-85422619D01*
X63908334Y-85398810D01*
X63932143Y-85375000D01*
X63967857Y-85363095D01*
X63991667Y-85363095D01*
X64027381Y-85375000D01*
X64039286Y-85386905D01*
X64134524Y-85386905D02*
X64146429Y-85375000D01*
X64170238Y-85363095D01*
X64229762Y-85363095D01*
X64253572Y-85375000D01*
X64265476Y-85386905D01*
X64277381Y-85410714D01*
X64277381Y-85434524D01*
X64265476Y-85470238D01*
X64122619Y-85613095D01*
X64277381Y-85613095D01*
X64360714Y-85363095D02*
X64515476Y-85363095D01*
X64432143Y-85458333D01*
X64467857Y-85458333D01*
X64491667Y-85470238D01*
X64503571Y-85482143D01*
X64515476Y-85505952D01*
X64515476Y-85565476D01*
X64503571Y-85589286D01*
X64491667Y-85601190D01*
X64467857Y-85613095D01*
X64396429Y-85613095D01*
X64372619Y-85601190D01*
X64360714Y-85589286D01*
D11*
X63504762Y-83182381D02*
X62933333Y-83182381D01*
X63219047Y-83182381D02*
X63219047Y-82182381D01*
X63123809Y-82325238D01*
X63028571Y-82420476D01*
X62933333Y-82468095D01*
X64361905Y-82515714D02*
X64361905Y-83182381D01*
X63933333Y-82515714D02*
X63933333Y-83039524D01*
X63980952Y-83134762D01*
X64076190Y-83182381D01*
X64219048Y-83182381D01*
X64314286Y-83134762D01*
X64361905Y-83087143D01*
X65171429Y-82658571D02*
X64838095Y-82658571D01*
X64838095Y-83182381D02*
X64838095Y-82182381D01*
X65314286Y-82182381D01*
D12*
X63939286Y-83989286D02*
X63927381Y-84001190D01*
X63891667Y-84013095D01*
X63867857Y-84013095D01*
X63832143Y-84001190D01*
X63808334Y-83977381D01*
X63796429Y-83953571D01*
X63784524Y-83905952D01*
X63784524Y-83870238D01*
X63796429Y-83822619D01*
X63808334Y-83798810D01*
X63832143Y-83775000D01*
X63867857Y-83763095D01*
X63891667Y-83763095D01*
X63927381Y-83775000D01*
X63939286Y-83786905D01*
X64034524Y-83786905D02*
X64046429Y-83775000D01*
X64070238Y-83763095D01*
X64129762Y-83763095D01*
X64153572Y-83775000D01*
X64165476Y-83786905D01*
X64177381Y-83810714D01*
X64177381Y-83834524D01*
X64165476Y-83870238D01*
X64022619Y-84013095D01*
X64177381Y-84013095D01*
X64391667Y-83846429D02*
X64391667Y-84013095D01*
X64332143Y-83751190D02*
X64272619Y-83929762D01*
X64427381Y-83929762D01*
D11*
X75828572Y-86422381D02*
X75257143Y-86422381D01*
X75542857Y-86422381D02*
X75542857Y-85422381D01*
X75447619Y-85565238D01*
X75352381Y-85660476D01*
X75257143Y-85708095D01*
X76447619Y-85422381D02*
X76542858Y-85422381D01*
X76638096Y-85470000D01*
X76685715Y-85517619D01*
X76733334Y-85612857D01*
X76780953Y-85803333D01*
X76780953Y-86041429D01*
X76733334Y-86231905D01*
X76685715Y-86327143D01*
X76638096Y-86374762D01*
X76542858Y-86422381D01*
X76447619Y-86422381D01*
X76352381Y-86374762D01*
X76304762Y-86327143D01*
X76257143Y-86231905D01*
X76209524Y-86041429D01*
X76209524Y-85803333D01*
X76257143Y-85612857D01*
X76304762Y-85517619D01*
X76352381Y-85470000D01*
X76447619Y-85422381D01*
X77209524Y-85755714D02*
X77209524Y-86755714D01*
X77209524Y-85803333D02*
X77304762Y-85755714D01*
X77495239Y-85755714D01*
X77590477Y-85803333D01*
X77638096Y-85850952D01*
X77685715Y-85946190D01*
X77685715Y-86231905D01*
X77638096Y-86327143D01*
X77590477Y-86374762D01*
X77495239Y-86422381D01*
X77304762Y-86422381D01*
X77209524Y-86374762D01*
X78447620Y-85898571D02*
X78114286Y-85898571D01*
X78114286Y-86422381D02*
X78114286Y-85422381D01*
X78590477Y-85422381D01*
D12*
X76739286Y-84889286D02*
X76727381Y-84901190D01*
X76691667Y-84913095D01*
X76667857Y-84913095D01*
X76632143Y-84901190D01*
X76608334Y-84877381D01*
X76596429Y-84853571D01*
X76584524Y-84805952D01*
X76584524Y-84770238D01*
X76596429Y-84722619D01*
X76608334Y-84698810D01*
X76632143Y-84675000D01*
X76667857Y-84663095D01*
X76691667Y-84663095D01*
X76727381Y-84675000D01*
X76739286Y-84686905D01*
X76834524Y-84686905D02*
X76846429Y-84675000D01*
X76870238Y-84663095D01*
X76929762Y-84663095D01*
X76953572Y-84675000D01*
X76965476Y-84686905D01*
X76977381Y-84710714D01*
X76977381Y-84734524D01*
X76965476Y-84770238D01*
X76822619Y-84913095D01*
X76977381Y-84913095D01*
X77203571Y-84663095D02*
X77084524Y-84663095D01*
X77072619Y-84782143D01*
X77084524Y-84770238D01*
X77108333Y-84758333D01*
X77167857Y-84758333D01*
X77191667Y-84770238D01*
X77203571Y-84782143D01*
X77215476Y-84805952D01*
X77215476Y-84865476D01*
X77203571Y-84889286D01*
X77191667Y-84901190D01*
X77167857Y-84913095D01*
X77108333Y-84913095D01*
X77084524Y-84901190D01*
X77072619Y-84889286D01*
D11*
X85309524Y-84682381D02*
X85928572Y-84682381D01*
X85595238Y-85063333D01*
X85738096Y-85063333D01*
X85833334Y-85110952D01*
X85880953Y-85158571D01*
X85928572Y-85253810D01*
X85928572Y-85491905D01*
X85880953Y-85587143D01*
X85833334Y-85634762D01*
X85738096Y-85682381D01*
X85452381Y-85682381D01*
X85357143Y-85634762D01*
X85309524Y-85587143D01*
X86261905Y-84682381D02*
X86880953Y-84682381D01*
X86547619Y-85063333D01*
X86690477Y-85063333D01*
X86785715Y-85110952D01*
X86833334Y-85158571D01*
X86880953Y-85253810D01*
X86880953Y-85491905D01*
X86833334Y-85587143D01*
X86785715Y-85634762D01*
X86690477Y-85682381D01*
X86404762Y-85682381D01*
X86309524Y-85634762D01*
X86261905Y-85587143D01*
X87309524Y-85015714D02*
X87309524Y-86015714D01*
X87309524Y-85063333D02*
X87404762Y-85015714D01*
X87595239Y-85015714D01*
X87690477Y-85063333D01*
X87738096Y-85110952D01*
X87785715Y-85206190D01*
X87785715Y-85491905D01*
X87738096Y-85587143D01*
X87690477Y-85634762D01*
X87595239Y-85682381D01*
X87404762Y-85682381D01*
X87309524Y-85634762D01*
X88547620Y-85158571D02*
X88214286Y-85158571D01*
X88214286Y-85682381D02*
X88214286Y-84682381D01*
X88690477Y-84682381D01*
D12*
X86839286Y-86489286D02*
X86827381Y-86501190D01*
X86791667Y-86513095D01*
X86767857Y-86513095D01*
X86732143Y-86501190D01*
X86708334Y-86477381D01*
X86696429Y-86453571D01*
X86684524Y-86405952D01*
X86684524Y-86370238D01*
X86696429Y-86322619D01*
X86708334Y-86298810D01*
X86732143Y-86275000D01*
X86767857Y-86263095D01*
X86791667Y-86263095D01*
X86827381Y-86275000D01*
X86839286Y-86286905D01*
X86934524Y-86286905D02*
X86946429Y-86275000D01*
X86970238Y-86263095D01*
X87029762Y-86263095D01*
X87053572Y-86275000D01*
X87065476Y-86286905D01*
X87077381Y-86310714D01*
X87077381Y-86334524D01*
X87065476Y-86370238D01*
X86922619Y-86513095D01*
X87077381Y-86513095D01*
X87160714Y-86263095D02*
X87327381Y-86263095D01*
X87220238Y-86513095D01*
D11*
X76822381Y-83595238D02*
X76822381Y-84166667D01*
X76822381Y-83880953D02*
X75822381Y-83880953D01*
X75965238Y-83976191D01*
X76060476Y-84071429D01*
X76108095Y-84166667D01*
X76155714Y-82738095D02*
X76822381Y-82738095D01*
X76155714Y-83166667D02*
X76679524Y-83166667D01*
X76774762Y-83119048D01*
X76822381Y-83023810D01*
X76822381Y-82880952D01*
X76774762Y-82785714D01*
X76727143Y-82738095D01*
X76298571Y-81928571D02*
X76298571Y-82261905D01*
X76822381Y-82261905D02*
X75822381Y-82261905D01*
X75822381Y-81785714D01*
D12*
X75289286Y-83160714D02*
X75301190Y-83172619D01*
X75313095Y-83208333D01*
X75313095Y-83232143D01*
X75301190Y-83267857D01*
X75277381Y-83291666D01*
X75253571Y-83303571D01*
X75205952Y-83315476D01*
X75170238Y-83315476D01*
X75122619Y-83303571D01*
X75098810Y-83291666D01*
X75075000Y-83267857D01*
X75063095Y-83232143D01*
X75063095Y-83208333D01*
X75075000Y-83172619D01*
X75086905Y-83160714D01*
X75086905Y-83065476D02*
X75075000Y-83053571D01*
X75063095Y-83029762D01*
X75063095Y-82970238D01*
X75075000Y-82946428D01*
X75086905Y-82934524D01*
X75110714Y-82922619D01*
X75134524Y-82922619D01*
X75170238Y-82934524D01*
X75313095Y-83077381D01*
X75313095Y-82922619D01*
X75170238Y-82779762D02*
X75158333Y-82803571D01*
X75146429Y-82815476D01*
X75122619Y-82827381D01*
X75110714Y-82827381D01*
X75086905Y-82815476D01*
X75075000Y-82803571D01*
X75063095Y-82779762D01*
X75063095Y-82732143D01*
X75075000Y-82708333D01*
X75086905Y-82696429D01*
X75110714Y-82684524D01*
X75122619Y-82684524D01*
X75146429Y-82696429D01*
X75158333Y-82708333D01*
X75170238Y-82732143D01*
X75170238Y-82779762D01*
X75182143Y-82803571D01*
X75194048Y-82815476D01*
X75217857Y-82827381D01*
X75265476Y-82827381D01*
X75289286Y-82815476D01*
X75301190Y-82803571D01*
X75313095Y-82779762D01*
X75313095Y-82732143D01*
X75301190Y-82708333D01*
X75289286Y-82696429D01*
X75265476Y-82684524D01*
X75217857Y-82684524D01*
X75194048Y-82696429D01*
X75182143Y-82708333D01*
X75170238Y-82732143D01*
D11*
X85928572Y-84082381D02*
X85357143Y-84082381D01*
X85642857Y-84082381D02*
X85642857Y-83082381D01*
X85547619Y-83225238D01*
X85452381Y-83320476D01*
X85357143Y-83368095D01*
X86547619Y-83082381D02*
X86642858Y-83082381D01*
X86738096Y-83130000D01*
X86785715Y-83177619D01*
X86833334Y-83272857D01*
X86880953Y-83463333D01*
X86880953Y-83701429D01*
X86833334Y-83891905D01*
X86785715Y-83987143D01*
X86738096Y-84034762D01*
X86642858Y-84082381D01*
X86547619Y-84082381D01*
X86452381Y-84034762D01*
X86404762Y-83987143D01*
X86357143Y-83891905D01*
X86309524Y-83701429D01*
X86309524Y-83463333D01*
X86357143Y-83272857D01*
X86404762Y-83177619D01*
X86452381Y-83130000D01*
X86547619Y-83082381D01*
X87309524Y-83415714D02*
X87309524Y-84415714D01*
X87309524Y-83463333D02*
X87404762Y-83415714D01*
X87595239Y-83415714D01*
X87690477Y-83463333D01*
X87738096Y-83510952D01*
X87785715Y-83606190D01*
X87785715Y-83891905D01*
X87738096Y-83987143D01*
X87690477Y-84034762D01*
X87595239Y-84082381D01*
X87404762Y-84082381D01*
X87309524Y-84034762D01*
X88547620Y-83558571D02*
X88214286Y-83558571D01*
X88214286Y-84082381D02*
X88214286Y-83082381D01*
X88690477Y-83082381D01*
D12*
X86839286Y-84889286D02*
X86827381Y-84901190D01*
X86791667Y-84913095D01*
X86767857Y-84913095D01*
X86732143Y-84901190D01*
X86708334Y-84877381D01*
X86696429Y-84853571D01*
X86684524Y-84805952D01*
X86684524Y-84770238D01*
X86696429Y-84722619D01*
X86708334Y-84698810D01*
X86732143Y-84675000D01*
X86767857Y-84663095D01*
X86791667Y-84663095D01*
X86827381Y-84675000D01*
X86839286Y-84686905D01*
X86934524Y-84686905D02*
X86946429Y-84675000D01*
X86970238Y-84663095D01*
X87029762Y-84663095D01*
X87053572Y-84675000D01*
X87065476Y-84686905D01*
X87077381Y-84710714D01*
X87077381Y-84734524D01*
X87065476Y-84770238D01*
X86922619Y-84913095D01*
X87077381Y-84913095D01*
X87196429Y-84913095D02*
X87244048Y-84913095D01*
X87267857Y-84901190D01*
X87279762Y-84889286D01*
X87303571Y-84853571D01*
X87315476Y-84805952D01*
X87315476Y-84710714D01*
X87303571Y-84686905D01*
X87291667Y-84675000D01*
X87267857Y-84663095D01*
X87220238Y-84663095D01*
X87196429Y-84675000D01*
X87184524Y-84686905D01*
X87172619Y-84710714D01*
X87172619Y-84770238D01*
X87184524Y-84794048D01*
X87196429Y-84805952D01*
X87220238Y-84817857D01*
X87267857Y-84817857D01*
X87291667Y-84805952D01*
X87303571Y-84794048D01*
X87315476Y-84770238D01*
D11*
X86852381Y-130932381D02*
X86280952Y-130932381D01*
X86566666Y-130932381D02*
X86566666Y-129932381D01*
X86471428Y-130075238D01*
X86376190Y-130170476D01*
X86280952Y-130218095D01*
X87471428Y-129932381D02*
X87566667Y-129932381D01*
X87661905Y-129980000D01*
X87709524Y-130027619D01*
X87757143Y-130122857D01*
X87804762Y-130313333D01*
X87804762Y-130551429D01*
X87757143Y-130741905D01*
X87709524Y-130837143D01*
X87661905Y-130884762D01*
X87566667Y-130932381D01*
X87471428Y-130932381D01*
X87376190Y-130884762D01*
X87328571Y-130837143D01*
X87280952Y-130741905D01*
X87233333Y-130551429D01*
X87233333Y-130313333D01*
X87280952Y-130122857D01*
X87328571Y-130027619D01*
X87376190Y-129980000D01*
X87471428Y-129932381D01*
X88423809Y-129932381D02*
X88519048Y-129932381D01*
X88614286Y-129980000D01*
X88661905Y-130027619D01*
X88709524Y-130122857D01*
X88757143Y-130313333D01*
X88757143Y-130551429D01*
X88709524Y-130741905D01*
X88661905Y-130837143D01*
X88614286Y-130884762D01*
X88519048Y-130932381D01*
X88423809Y-130932381D01*
X88328571Y-130884762D01*
X88280952Y-130837143D01*
X88233333Y-130741905D01*
X88185714Y-130551429D01*
X88185714Y-130313333D01*
X88233333Y-130122857D01*
X88280952Y-130027619D01*
X88328571Y-129980000D01*
X88423809Y-129932381D01*
X89614286Y-130265714D02*
X89614286Y-130932381D01*
X89185714Y-130265714D02*
X89185714Y-130789524D01*
X89233333Y-130884762D01*
X89328571Y-130932381D01*
X89471429Y-130932381D01*
X89566667Y-130884762D01*
X89614286Y-130837143D01*
X90423810Y-130408571D02*
X90090476Y-130408571D01*
X90090476Y-130932381D02*
X90090476Y-129932381D01*
X90566667Y-129932381D01*
D13*
X87885714Y-128485714D02*
X87847619Y-128523810D01*
X87733333Y-128561905D01*
X87657143Y-128561905D01*
X87542857Y-128523810D01*
X87466666Y-128447619D01*
X87428571Y-128371429D01*
X87390476Y-128219048D01*
X87390476Y-128104762D01*
X87428571Y-127952381D01*
X87466666Y-127876190D01*
X87542857Y-127800000D01*
X87657143Y-127761905D01*
X87733333Y-127761905D01*
X87847619Y-127800000D01*
X87885714Y-127838095D01*
X88152381Y-127761905D02*
X88647619Y-127761905D01*
X88380952Y-128066667D01*
X88495238Y-128066667D01*
X88571428Y-128104762D01*
X88609524Y-128142857D01*
X88647619Y-128219048D01*
X88647619Y-128409524D01*
X88609524Y-128485714D01*
X88571428Y-128523810D01*
X88495238Y-128561905D01*
X88266666Y-128561905D01*
X88190476Y-128523810D01*
X88152381Y-128485714D01*
X89142857Y-127761905D02*
X89219048Y-127761905D01*
X89295238Y-127800000D01*
X89333333Y-127838095D01*
X89371429Y-127914286D01*
X89409524Y-128066667D01*
X89409524Y-128257143D01*
X89371429Y-128409524D01*
X89333333Y-128485714D01*
X89295238Y-128523810D01*
X89219048Y-128561905D01*
X89142857Y-128561905D01*
X89066667Y-128523810D01*
X89028571Y-128485714D01*
X88990476Y-128409524D01*
X88952381Y-128257143D01*
X88952381Y-128066667D01*
X88990476Y-127914286D01*
X89028571Y-127838095D01*
X89066667Y-127800000D01*
X89142857Y-127761905D01*
D11*
X82352381Y-86422381D02*
X81780952Y-86422381D01*
X82066666Y-86422381D02*
X82066666Y-85422381D01*
X81971428Y-85565238D01*
X81876190Y-85660476D01*
X81780952Y-85708095D01*
X82971428Y-85422381D02*
X83066667Y-85422381D01*
X83161905Y-85470000D01*
X83209524Y-85517619D01*
X83257143Y-85612857D01*
X83304762Y-85803333D01*
X83304762Y-86041429D01*
X83257143Y-86231905D01*
X83209524Y-86327143D01*
X83161905Y-86374762D01*
X83066667Y-86422381D01*
X82971428Y-86422381D01*
X82876190Y-86374762D01*
X82828571Y-86327143D01*
X82780952Y-86231905D01*
X82733333Y-86041429D01*
X82733333Y-85803333D01*
X82780952Y-85612857D01*
X82828571Y-85517619D01*
X82876190Y-85470000D01*
X82971428Y-85422381D01*
X83923809Y-85422381D02*
X84019048Y-85422381D01*
X84114286Y-85470000D01*
X84161905Y-85517619D01*
X84209524Y-85612857D01*
X84257143Y-85803333D01*
X84257143Y-86041429D01*
X84209524Y-86231905D01*
X84161905Y-86327143D01*
X84114286Y-86374762D01*
X84019048Y-86422381D01*
X83923809Y-86422381D01*
X83828571Y-86374762D01*
X83780952Y-86327143D01*
X83733333Y-86231905D01*
X83685714Y-86041429D01*
X83685714Y-85803333D01*
X83733333Y-85612857D01*
X83780952Y-85517619D01*
X83828571Y-85470000D01*
X83923809Y-85422381D01*
X84685714Y-85755714D02*
X84685714Y-86422381D01*
X84685714Y-85850952D02*
X84733333Y-85803333D01*
X84828571Y-85755714D01*
X84971429Y-85755714D01*
X85066667Y-85803333D01*
X85114286Y-85898571D01*
X85114286Y-86422381D01*
X85923810Y-85898571D02*
X85590476Y-85898571D01*
X85590476Y-86422381D02*
X85590476Y-85422381D01*
X86066667Y-85422381D01*
D12*
X83739286Y-84889286D02*
X83727381Y-84901190D01*
X83691667Y-84913095D01*
X83667857Y-84913095D01*
X83632143Y-84901190D01*
X83608334Y-84877381D01*
X83596429Y-84853571D01*
X83584524Y-84805952D01*
X83584524Y-84770238D01*
X83596429Y-84722619D01*
X83608334Y-84698810D01*
X83632143Y-84675000D01*
X83667857Y-84663095D01*
X83691667Y-84663095D01*
X83727381Y-84675000D01*
X83739286Y-84686905D01*
X83822619Y-84663095D02*
X83977381Y-84663095D01*
X83894048Y-84758333D01*
X83929762Y-84758333D01*
X83953572Y-84770238D01*
X83965476Y-84782143D01*
X83977381Y-84805952D01*
X83977381Y-84865476D01*
X83965476Y-84889286D01*
X83953572Y-84901190D01*
X83929762Y-84913095D01*
X83858334Y-84913095D01*
X83834524Y-84901190D01*
X83822619Y-84889286D01*
X84072619Y-84686905D02*
X84084524Y-84675000D01*
X84108333Y-84663095D01*
X84167857Y-84663095D01*
X84191667Y-84675000D01*
X84203571Y-84686905D01*
X84215476Y-84710714D01*
X84215476Y-84734524D01*
X84203571Y-84770238D01*
X84060714Y-84913095D01*
X84215476Y-84913095D01*
D11*
X85622381Y-130095238D02*
X85622381Y-130666667D01*
X85622381Y-130380953D02*
X84622381Y-130380953D01*
X84765238Y-130476191D01*
X84860476Y-130571429D01*
X84908095Y-130666667D01*
X84955714Y-129238095D02*
X85622381Y-129238095D01*
X84955714Y-129666667D02*
X85479524Y-129666667D01*
X85574762Y-129619048D01*
X85622381Y-129523810D01*
X85622381Y-129380952D01*
X85574762Y-129285714D01*
X85527143Y-129238095D01*
X85098571Y-128428571D02*
X85098571Y-128761905D01*
X85622381Y-128761905D02*
X84622381Y-128761905D01*
X84622381Y-128285714D01*
D12*
X84089286Y-129660714D02*
X84101190Y-129672619D01*
X84113095Y-129708333D01*
X84113095Y-129732143D01*
X84101190Y-129767857D01*
X84077381Y-129791666D01*
X84053571Y-129803571D01*
X84005952Y-129815476D01*
X83970238Y-129815476D01*
X83922619Y-129803571D01*
X83898810Y-129791666D01*
X83875000Y-129767857D01*
X83863095Y-129732143D01*
X83863095Y-129708333D01*
X83875000Y-129672619D01*
X83886905Y-129660714D01*
X83863095Y-129577381D02*
X83863095Y-129422619D01*
X83958333Y-129505952D01*
X83958333Y-129470238D01*
X83970238Y-129446428D01*
X83982143Y-129434524D01*
X84005952Y-129422619D01*
X84065476Y-129422619D01*
X84089286Y-129434524D01*
X84101190Y-129446428D01*
X84113095Y-129470238D01*
X84113095Y-129541666D01*
X84101190Y-129565476D01*
X84089286Y-129577381D01*
X83863095Y-129339286D02*
X83863095Y-129184524D01*
X83958333Y-129267857D01*
X83958333Y-129232143D01*
X83970238Y-129208333D01*
X83982143Y-129196429D01*
X84005952Y-129184524D01*
X84065476Y-129184524D01*
X84089286Y-129196429D01*
X84101190Y-129208333D01*
X84113095Y-129232143D01*
X84113095Y-129303571D01*
X84101190Y-129327381D01*
X84089286Y-129339286D01*
D11*
X79295239Y-84515714D02*
X79295239Y-85182381D01*
X79057143Y-84134762D02*
X78819048Y-84849048D01*
X79438096Y-84849048D01*
X79819048Y-85087143D02*
X79866667Y-85134762D01*
X79819048Y-85182381D01*
X79771429Y-85134762D01*
X79819048Y-85087143D01*
X79819048Y-85182381D01*
X80200000Y-84182381D02*
X80866667Y-84182381D01*
X80438095Y-85182381D01*
X81676191Y-84515714D02*
X81676191Y-85182381D01*
X81247619Y-84515714D02*
X81247619Y-85039524D01*
X81295238Y-85134762D01*
X81390476Y-85182381D01*
X81533334Y-85182381D01*
X81628572Y-85134762D01*
X81676191Y-85087143D01*
X82485715Y-84658571D02*
X82152381Y-84658571D01*
X82152381Y-85182381D02*
X82152381Y-84182381D01*
X82628572Y-84182381D01*
D12*
X80539286Y-85989286D02*
X80527381Y-86001190D01*
X80491667Y-86013095D01*
X80467857Y-86013095D01*
X80432143Y-86001190D01*
X80408334Y-85977381D01*
X80396429Y-85953571D01*
X80384524Y-85905952D01*
X80384524Y-85870238D01*
X80396429Y-85822619D01*
X80408334Y-85798810D01*
X80432143Y-85775000D01*
X80467857Y-85763095D01*
X80491667Y-85763095D01*
X80527381Y-85775000D01*
X80539286Y-85786905D01*
X80622619Y-85763095D02*
X80777381Y-85763095D01*
X80694048Y-85858333D01*
X80729762Y-85858333D01*
X80753572Y-85870238D01*
X80765476Y-85882143D01*
X80777381Y-85905952D01*
X80777381Y-85965476D01*
X80765476Y-85989286D01*
X80753572Y-86001190D01*
X80729762Y-86013095D01*
X80658334Y-86013095D01*
X80634524Y-86001190D01*
X80622619Y-85989286D01*
X81003571Y-85763095D02*
X80884524Y-85763095D01*
X80872619Y-85882143D01*
X80884524Y-85870238D01*
X80908333Y-85858333D01*
X80967857Y-85858333D01*
X80991667Y-85870238D01*
X81003571Y-85882143D01*
X81015476Y-85905952D01*
X81015476Y-85965476D01*
X81003571Y-85989286D01*
X80991667Y-86001190D01*
X80967857Y-86013095D01*
X80908333Y-86013095D01*
X80884524Y-86001190D01*
X80872619Y-85989286D01*
D11*
X80204762Y-85322381D02*
X79633333Y-85322381D01*
X79919047Y-85322381D02*
X79919047Y-84322381D01*
X79823809Y-84465238D01*
X79728571Y-84560476D01*
X79633333Y-84608095D01*
X81061905Y-84655714D02*
X81061905Y-85322381D01*
X80633333Y-84655714D02*
X80633333Y-85179524D01*
X80680952Y-85274762D01*
X80776190Y-85322381D01*
X80919048Y-85322381D01*
X81014286Y-85274762D01*
X81061905Y-85227143D01*
X81871429Y-84798571D02*
X81538095Y-84798571D01*
X81538095Y-85322381D02*
X81538095Y-84322381D01*
X82014286Y-84322381D01*
D12*
X80639286Y-83789286D02*
X80627381Y-83801190D01*
X80591667Y-83813095D01*
X80567857Y-83813095D01*
X80532143Y-83801190D01*
X80508334Y-83777381D01*
X80496429Y-83753571D01*
X80484524Y-83705952D01*
X80484524Y-83670238D01*
X80496429Y-83622619D01*
X80508334Y-83598810D01*
X80532143Y-83575000D01*
X80567857Y-83563095D01*
X80591667Y-83563095D01*
X80627381Y-83575000D01*
X80639286Y-83586905D01*
X80722619Y-83563095D02*
X80877381Y-83563095D01*
X80794048Y-83658333D01*
X80829762Y-83658333D01*
X80853572Y-83670238D01*
X80865476Y-83682143D01*
X80877381Y-83705952D01*
X80877381Y-83765476D01*
X80865476Y-83789286D01*
X80853572Y-83801190D01*
X80829762Y-83813095D01*
X80758334Y-83813095D01*
X80734524Y-83801190D01*
X80722619Y-83789286D01*
X81091667Y-83563095D02*
X81044048Y-83563095D01*
X81020238Y-83575000D01*
X81008333Y-83586905D01*
X80984524Y-83622619D01*
X80972619Y-83670238D01*
X80972619Y-83765476D01*
X80984524Y-83789286D01*
X80996429Y-83801190D01*
X81020238Y-83813095D01*
X81067857Y-83813095D01*
X81091667Y-83801190D01*
X81103571Y-83789286D01*
X81115476Y-83765476D01*
X81115476Y-83705952D01*
X81103571Y-83682143D01*
X81091667Y-83670238D01*
X81067857Y-83658333D01*
X81020238Y-83658333D01*
X80996429Y-83670238D01*
X80984524Y-83682143D01*
X80972619Y-83705952D01*
D11*
X75814286Y-93022381D02*
X75814286Y-92022381D01*
X76385715Y-93022381D01*
X76385715Y-92022381D01*
X77433334Y-92927143D02*
X77385715Y-92974762D01*
X77242858Y-93022381D01*
X77147620Y-93022381D01*
X77004762Y-92974762D01*
X76909524Y-92879524D01*
X76861905Y-92784286D01*
X76814286Y-92593810D01*
X76814286Y-92450952D01*
X76861905Y-92260476D01*
X76909524Y-92165238D01*
X77004762Y-92070000D01*
X77147620Y-92022381D01*
X77242858Y-92022381D01*
X77385715Y-92070000D01*
X77433334Y-92117619D01*
D12*
X76439286Y-91489286D02*
X76427381Y-91501190D01*
X76391667Y-91513095D01*
X76367857Y-91513095D01*
X76332143Y-91501190D01*
X76308334Y-91477381D01*
X76296429Y-91453571D01*
X76284524Y-91405952D01*
X76284524Y-91370238D01*
X76296429Y-91322619D01*
X76308334Y-91298810D01*
X76332143Y-91275000D01*
X76367857Y-91263095D01*
X76391667Y-91263095D01*
X76427381Y-91275000D01*
X76439286Y-91286905D01*
X76522619Y-91263095D02*
X76677381Y-91263095D01*
X76594048Y-91358333D01*
X76629762Y-91358333D01*
X76653572Y-91370238D01*
X76665476Y-91382143D01*
X76677381Y-91405952D01*
X76677381Y-91465476D01*
X76665476Y-91489286D01*
X76653572Y-91501190D01*
X76629762Y-91513095D01*
X76558334Y-91513095D01*
X76534524Y-91501190D01*
X76522619Y-91489286D01*
X76760714Y-91263095D02*
X76927381Y-91263095D01*
X76820238Y-91513095D01*
D11*
X63422381Y-85971428D02*
X63422381Y-86542857D01*
X63422381Y-86257143D02*
X62422381Y-86257143D01*
X62565238Y-86352381D01*
X62660476Y-86447619D01*
X62708095Y-86542857D01*
X62422381Y-85352381D02*
X62422381Y-85257142D01*
X62470000Y-85161904D01*
X62517619Y-85114285D01*
X62612857Y-85066666D01*
X62803333Y-85019047D01*
X63041429Y-85019047D01*
X63231905Y-85066666D01*
X63327143Y-85114285D01*
X63374762Y-85161904D01*
X63422381Y-85257142D01*
X63422381Y-85352381D01*
X63374762Y-85447619D01*
X63327143Y-85495238D01*
X63231905Y-85542857D01*
X63041429Y-85590476D01*
X62803333Y-85590476D01*
X62612857Y-85542857D01*
X62517619Y-85495238D01*
X62470000Y-85447619D01*
X62422381Y-85352381D01*
X62755714Y-84590476D02*
X63755714Y-84590476D01*
X62803333Y-84590476D02*
X62755714Y-84495238D01*
X62755714Y-84304761D01*
X62803333Y-84209523D01*
X62850952Y-84161904D01*
X62946190Y-84114285D01*
X63231905Y-84114285D01*
X63327143Y-84161904D01*
X63374762Y-84209523D01*
X63422381Y-84304761D01*
X63422381Y-84495238D01*
X63374762Y-84590476D01*
X62898571Y-83352380D02*
X62898571Y-83685714D01*
X63422381Y-83685714D02*
X62422381Y-83685714D01*
X62422381Y-83209523D01*
D12*
X61889286Y-85060714D02*
X61901190Y-85072619D01*
X61913095Y-85108333D01*
X61913095Y-85132143D01*
X61901190Y-85167857D01*
X61877381Y-85191666D01*
X61853571Y-85203571D01*
X61805952Y-85215476D01*
X61770238Y-85215476D01*
X61722619Y-85203571D01*
X61698810Y-85191666D01*
X61675000Y-85167857D01*
X61663095Y-85132143D01*
X61663095Y-85108333D01*
X61675000Y-85072619D01*
X61686905Y-85060714D01*
X61663095Y-84977381D02*
X61663095Y-84822619D01*
X61758333Y-84905952D01*
X61758333Y-84870238D01*
X61770238Y-84846428D01*
X61782143Y-84834524D01*
X61805952Y-84822619D01*
X61865476Y-84822619D01*
X61889286Y-84834524D01*
X61901190Y-84846428D01*
X61913095Y-84870238D01*
X61913095Y-84941666D01*
X61901190Y-84965476D01*
X61889286Y-84977381D01*
X61770238Y-84679762D02*
X61758333Y-84703571D01*
X61746429Y-84715476D01*
X61722619Y-84727381D01*
X61710714Y-84727381D01*
X61686905Y-84715476D01*
X61675000Y-84703571D01*
X61663095Y-84679762D01*
X61663095Y-84632143D01*
X61675000Y-84608333D01*
X61686905Y-84596429D01*
X61710714Y-84584524D01*
X61722619Y-84584524D01*
X61746429Y-84596429D01*
X61758333Y-84608333D01*
X61770238Y-84632143D01*
X61770238Y-84679762D01*
X61782143Y-84703571D01*
X61794048Y-84715476D01*
X61817857Y-84727381D01*
X61865476Y-84727381D01*
X61889286Y-84715476D01*
X61901190Y-84703571D01*
X61913095Y-84679762D01*
X61913095Y-84632143D01*
X61901190Y-84608333D01*
X61889286Y-84596429D01*
X61865476Y-84584524D01*
X61817857Y-84584524D01*
X61794048Y-84596429D01*
X61782143Y-84608333D01*
X61770238Y-84632143D01*
D11*
X86142857Y-87282381D02*
X86142857Y-86282381D01*
X86714286Y-87282381D01*
X86714286Y-86282381D01*
X87190476Y-87282381D02*
X87190476Y-86282381D01*
X87523810Y-86996667D01*
X87857143Y-86282381D01*
X87857143Y-87282381D01*
D12*
X86839286Y-88089286D02*
X86827381Y-88101190D01*
X86791667Y-88113095D01*
X86767857Y-88113095D01*
X86732143Y-88101190D01*
X86708334Y-88077381D01*
X86696429Y-88053571D01*
X86684524Y-88005952D01*
X86684524Y-87970238D01*
X86696429Y-87922619D01*
X86708334Y-87898810D01*
X86732143Y-87875000D01*
X86767857Y-87863095D01*
X86791667Y-87863095D01*
X86827381Y-87875000D01*
X86839286Y-87886905D01*
X86922619Y-87863095D02*
X87077381Y-87863095D01*
X86994048Y-87958333D01*
X87029762Y-87958333D01*
X87053572Y-87970238D01*
X87065476Y-87982143D01*
X87077381Y-88005952D01*
X87077381Y-88065476D01*
X87065476Y-88089286D01*
X87053572Y-88101190D01*
X87029762Y-88113095D01*
X86958334Y-88113095D01*
X86934524Y-88101190D01*
X86922619Y-88089286D01*
X87196429Y-88113095D02*
X87244048Y-88113095D01*
X87267857Y-88101190D01*
X87279762Y-88089286D01*
X87303571Y-88053571D01*
X87315476Y-88005952D01*
X87315476Y-87910714D01*
X87303571Y-87886905D01*
X87291667Y-87875000D01*
X87267857Y-87863095D01*
X87220238Y-87863095D01*
X87196429Y-87875000D01*
X87184524Y-87886905D01*
X87172619Y-87910714D01*
X87172619Y-87970238D01*
X87184524Y-87994048D01*
X87196429Y-88005952D01*
X87220238Y-88017857D01*
X87267857Y-88017857D01*
X87291667Y-88005952D01*
X87303571Y-87994048D01*
X87315476Y-87970238D01*
D11*
X65352381Y-84622381D02*
X64780952Y-84622381D01*
X65066666Y-84622381D02*
X65066666Y-83622381D01*
X64971428Y-83765238D01*
X64876190Y-83860476D01*
X64780952Y-83908095D01*
X65971428Y-83622381D02*
X66066667Y-83622381D01*
X66161905Y-83670000D01*
X66209524Y-83717619D01*
X66257143Y-83812857D01*
X66304762Y-84003333D01*
X66304762Y-84241429D01*
X66257143Y-84431905D01*
X66209524Y-84527143D01*
X66161905Y-84574762D01*
X66066667Y-84622381D01*
X65971428Y-84622381D01*
X65876190Y-84574762D01*
X65828571Y-84527143D01*
X65780952Y-84431905D01*
X65733333Y-84241429D01*
X65733333Y-84003333D01*
X65780952Y-83812857D01*
X65828571Y-83717619D01*
X65876190Y-83670000D01*
X65971428Y-83622381D01*
X66923809Y-83622381D02*
X67019048Y-83622381D01*
X67114286Y-83670000D01*
X67161905Y-83717619D01*
X67209524Y-83812857D01*
X67257143Y-84003333D01*
X67257143Y-84241429D01*
X67209524Y-84431905D01*
X67161905Y-84527143D01*
X67114286Y-84574762D01*
X67019048Y-84622381D01*
X66923809Y-84622381D01*
X66828571Y-84574762D01*
X66780952Y-84527143D01*
X66733333Y-84431905D01*
X66685714Y-84241429D01*
X66685714Y-84003333D01*
X66733333Y-83812857D01*
X66780952Y-83717619D01*
X66828571Y-83670000D01*
X66923809Y-83622381D01*
X67685714Y-83955714D02*
X67685714Y-84622381D01*
X67685714Y-84050952D02*
X67733333Y-84003333D01*
X67828571Y-83955714D01*
X67971429Y-83955714D01*
X68066667Y-84003333D01*
X68114286Y-84098571D01*
X68114286Y-84622381D01*
X68923810Y-84098571D02*
X68590476Y-84098571D01*
X68590476Y-84622381D02*
X68590476Y-83622381D01*
X69066667Y-83622381D01*
D12*
X66739286Y-83089286D02*
X66727381Y-83101190D01*
X66691667Y-83113095D01*
X66667857Y-83113095D01*
X66632143Y-83101190D01*
X66608334Y-83077381D01*
X66596429Y-83053571D01*
X66584524Y-83005952D01*
X66584524Y-82970238D01*
X66596429Y-82922619D01*
X66608334Y-82898810D01*
X66632143Y-82875000D01*
X66667857Y-82863095D01*
X66691667Y-82863095D01*
X66727381Y-82875000D01*
X66739286Y-82886905D01*
X66953572Y-82946429D02*
X66953572Y-83113095D01*
X66894048Y-82851190D02*
X66834524Y-83029762D01*
X66989286Y-83029762D01*
X67132143Y-82863095D02*
X67155952Y-82863095D01*
X67179762Y-82875000D01*
X67191667Y-82886905D01*
X67203571Y-82910714D01*
X67215476Y-82958333D01*
X67215476Y-83017857D01*
X67203571Y-83065476D01*
X67191667Y-83089286D01*
X67179762Y-83101190D01*
X67155952Y-83113095D01*
X67132143Y-83113095D01*
X67108333Y-83101190D01*
X67096429Y-83089286D01*
X67084524Y-83065476D01*
X67072619Y-83017857D01*
X67072619Y-82958333D01*
X67084524Y-82910714D01*
X67096429Y-82886905D01*
X67108333Y-82875000D01*
X67132143Y-82863095D01*
D11*
X63128572Y-93722381D02*
X62557143Y-93722381D01*
X62842857Y-93722381D02*
X62842857Y-92722381D01*
X62747619Y-92865238D01*
X62652381Y-92960476D01*
X62557143Y-93008095D01*
X63747619Y-92722381D02*
X63842858Y-92722381D01*
X63938096Y-92770000D01*
X63985715Y-92817619D01*
X64033334Y-92912857D01*
X64080953Y-93103333D01*
X64080953Y-93341429D01*
X64033334Y-93531905D01*
X63985715Y-93627143D01*
X63938096Y-93674762D01*
X63842858Y-93722381D01*
X63747619Y-93722381D01*
X63652381Y-93674762D01*
X63604762Y-93627143D01*
X63557143Y-93531905D01*
X63509524Y-93341429D01*
X63509524Y-93103333D01*
X63557143Y-92912857D01*
X63604762Y-92817619D01*
X63652381Y-92770000D01*
X63747619Y-92722381D01*
X64509524Y-93055714D02*
X64509524Y-94055714D01*
X64509524Y-93103333D02*
X64604762Y-93055714D01*
X64795239Y-93055714D01*
X64890477Y-93103333D01*
X64938096Y-93150952D01*
X64985715Y-93246190D01*
X64985715Y-93531905D01*
X64938096Y-93627143D01*
X64890477Y-93674762D01*
X64795239Y-93722381D01*
X64604762Y-93722381D01*
X64509524Y-93674762D01*
X65747620Y-93198571D02*
X65414286Y-93198571D01*
X65414286Y-93722381D02*
X65414286Y-92722381D01*
X65890477Y-92722381D01*
D12*
X64039286Y-92189286D02*
X64027381Y-92201190D01*
X63991667Y-92213095D01*
X63967857Y-92213095D01*
X63932143Y-92201190D01*
X63908334Y-92177381D01*
X63896429Y-92153571D01*
X63884524Y-92105952D01*
X63884524Y-92070238D01*
X63896429Y-92022619D01*
X63908334Y-91998810D01*
X63932143Y-91975000D01*
X63967857Y-91963095D01*
X63991667Y-91963095D01*
X64027381Y-91975000D01*
X64039286Y-91986905D01*
X64253572Y-92046429D02*
X64253572Y-92213095D01*
X64194048Y-91951190D02*
X64134524Y-92129762D01*
X64289286Y-92129762D01*
X64515476Y-92213095D02*
X64372619Y-92213095D01*
X64444048Y-92213095D02*
X64444048Y-91963095D01*
X64420238Y-91998810D01*
X64396429Y-92022619D01*
X64372619Y-92034524D01*
D11*
X52682381Y-86071428D02*
X52682381Y-86642857D01*
X52682381Y-86357143D02*
X51682381Y-86357143D01*
X51825238Y-86452381D01*
X51920476Y-86547619D01*
X51968095Y-86642857D01*
X51682381Y-85452381D02*
X51682381Y-85357142D01*
X51730000Y-85261904D01*
X51777619Y-85214285D01*
X51872857Y-85166666D01*
X52063333Y-85119047D01*
X52301429Y-85119047D01*
X52491905Y-85166666D01*
X52587143Y-85214285D01*
X52634762Y-85261904D01*
X52682381Y-85357142D01*
X52682381Y-85452381D01*
X52634762Y-85547619D01*
X52587143Y-85595238D01*
X52491905Y-85642857D01*
X52301429Y-85690476D01*
X52063333Y-85690476D01*
X51872857Y-85642857D01*
X51777619Y-85595238D01*
X51730000Y-85547619D01*
X51682381Y-85452381D01*
X52015714Y-84690476D02*
X53015714Y-84690476D01*
X52063333Y-84690476D02*
X52015714Y-84595238D01*
X52015714Y-84404761D01*
X52063333Y-84309523D01*
X52110952Y-84261904D01*
X52206190Y-84214285D01*
X52491905Y-84214285D01*
X52587143Y-84261904D01*
X52634762Y-84309523D01*
X52682381Y-84404761D01*
X52682381Y-84595238D01*
X52634762Y-84690476D01*
X52158571Y-83452380D02*
X52158571Y-83785714D01*
X52682381Y-83785714D02*
X51682381Y-83785714D01*
X51682381Y-83309523D01*
D12*
X53489286Y-85160714D02*
X53501190Y-85172619D01*
X53513095Y-85208333D01*
X53513095Y-85232143D01*
X53501190Y-85267857D01*
X53477381Y-85291666D01*
X53453571Y-85303571D01*
X53405952Y-85315476D01*
X53370238Y-85315476D01*
X53322619Y-85303571D01*
X53298810Y-85291666D01*
X53275000Y-85267857D01*
X53263095Y-85232143D01*
X53263095Y-85208333D01*
X53275000Y-85172619D01*
X53286905Y-85160714D01*
X53346429Y-84946428D02*
X53513095Y-84946428D01*
X53251190Y-85005952D02*
X53429762Y-85065476D01*
X53429762Y-84910714D01*
X53286905Y-84827381D02*
X53275000Y-84815476D01*
X53263095Y-84791667D01*
X53263095Y-84732143D01*
X53275000Y-84708333D01*
X53286905Y-84696429D01*
X53310714Y-84684524D01*
X53334524Y-84684524D01*
X53370238Y-84696429D01*
X53513095Y-84839286D01*
X53513095Y-84684524D01*
D11*
X56209524Y-83782381D02*
X56828572Y-83782381D01*
X56495238Y-84163333D01*
X56638096Y-84163333D01*
X56733334Y-84210952D01*
X56780953Y-84258571D01*
X56828572Y-84353810D01*
X56828572Y-84591905D01*
X56780953Y-84687143D01*
X56733334Y-84734762D01*
X56638096Y-84782381D01*
X56352381Y-84782381D01*
X56257143Y-84734762D01*
X56209524Y-84687143D01*
X57161905Y-83782381D02*
X57780953Y-83782381D01*
X57447619Y-84163333D01*
X57590477Y-84163333D01*
X57685715Y-84210952D01*
X57733334Y-84258571D01*
X57780953Y-84353810D01*
X57780953Y-84591905D01*
X57733334Y-84687143D01*
X57685715Y-84734762D01*
X57590477Y-84782381D01*
X57304762Y-84782381D01*
X57209524Y-84734762D01*
X57161905Y-84687143D01*
X58209524Y-84115714D02*
X58209524Y-85115714D01*
X58209524Y-84163333D02*
X58304762Y-84115714D01*
X58495239Y-84115714D01*
X58590477Y-84163333D01*
X58638096Y-84210952D01*
X58685715Y-84306190D01*
X58685715Y-84591905D01*
X58638096Y-84687143D01*
X58590477Y-84734762D01*
X58495239Y-84782381D01*
X58304762Y-84782381D01*
X58209524Y-84734762D01*
X59447620Y-84258571D02*
X59114286Y-84258571D01*
X59114286Y-84782381D02*
X59114286Y-83782381D01*
X59590477Y-83782381D01*
D12*
X57739286Y-85589286D02*
X57727381Y-85601190D01*
X57691667Y-85613095D01*
X57667857Y-85613095D01*
X57632143Y-85601190D01*
X57608334Y-85577381D01*
X57596429Y-85553571D01*
X57584524Y-85505952D01*
X57584524Y-85470238D01*
X57596429Y-85422619D01*
X57608334Y-85398810D01*
X57632143Y-85375000D01*
X57667857Y-85363095D01*
X57691667Y-85363095D01*
X57727381Y-85375000D01*
X57739286Y-85386905D01*
X57953572Y-85446429D02*
X57953572Y-85613095D01*
X57894048Y-85351190D02*
X57834524Y-85529762D01*
X57989286Y-85529762D01*
X58060714Y-85363095D02*
X58215476Y-85363095D01*
X58132143Y-85458333D01*
X58167857Y-85458333D01*
X58191667Y-85470238D01*
X58203571Y-85482143D01*
X58215476Y-85505952D01*
X58215476Y-85565476D01*
X58203571Y-85589286D01*
X58191667Y-85601190D01*
X58167857Y-85613095D01*
X58096429Y-85613095D01*
X58072619Y-85601190D01*
X58060714Y-85589286D01*
D11*
X63088572Y-95032381D02*
X62517143Y-95032381D01*
X62802857Y-95032381D02*
X62802857Y-94032381D01*
X62707619Y-94175238D01*
X62612381Y-94270476D01*
X62517143Y-94318095D01*
X63707619Y-94032381D02*
X63802858Y-94032381D01*
X63898096Y-94080000D01*
X63945715Y-94127619D01*
X63993334Y-94222857D01*
X64040953Y-94413333D01*
X64040953Y-94651429D01*
X63993334Y-94841905D01*
X63945715Y-94937143D01*
X63898096Y-94984762D01*
X63802858Y-95032381D01*
X63707619Y-95032381D01*
X63612381Y-94984762D01*
X63564762Y-94937143D01*
X63517143Y-94841905D01*
X63469524Y-94651429D01*
X63469524Y-94413333D01*
X63517143Y-94222857D01*
X63564762Y-94127619D01*
X63612381Y-94080000D01*
X63707619Y-94032381D01*
X64469524Y-94365714D02*
X64469524Y-95365714D01*
X64469524Y-94413333D02*
X64564762Y-94365714D01*
X64755239Y-94365714D01*
X64850477Y-94413333D01*
X64898096Y-94460952D01*
X64945715Y-94556190D01*
X64945715Y-94841905D01*
X64898096Y-94937143D01*
X64850477Y-94984762D01*
X64755239Y-95032381D01*
X64564762Y-95032381D01*
X64469524Y-94984762D01*
X65707620Y-94508571D02*
X65374286Y-94508571D01*
X65374286Y-95032381D02*
X65374286Y-94032381D01*
X65850477Y-94032381D01*
D12*
X63999286Y-93499286D02*
X63987381Y-93511190D01*
X63951667Y-93523095D01*
X63927857Y-93523095D01*
X63892143Y-93511190D01*
X63868334Y-93487381D01*
X63856429Y-93463571D01*
X63844524Y-93415952D01*
X63844524Y-93380238D01*
X63856429Y-93332619D01*
X63868334Y-93308810D01*
X63892143Y-93285000D01*
X63927857Y-93273095D01*
X63951667Y-93273095D01*
X63987381Y-93285000D01*
X63999286Y-93296905D01*
X64213572Y-93356429D02*
X64213572Y-93523095D01*
X64154048Y-93261190D02*
X64094524Y-93439762D01*
X64249286Y-93439762D01*
X64451667Y-93356429D02*
X64451667Y-93523095D01*
X64392143Y-93261190D02*
X64332619Y-93439762D01*
X64487381Y-93439762D01*
D11*
X50282381Y-86690476D02*
X50282381Y-86071428D01*
X50663333Y-86404762D01*
X50663333Y-86261904D01*
X50710952Y-86166666D01*
X50758571Y-86119047D01*
X50853810Y-86071428D01*
X51091905Y-86071428D01*
X51187143Y-86119047D01*
X51234762Y-86166666D01*
X51282381Y-86261904D01*
X51282381Y-86547619D01*
X51234762Y-86642857D01*
X51187143Y-86690476D01*
X50282381Y-85452381D02*
X50282381Y-85357142D01*
X50330000Y-85261904D01*
X50377619Y-85214285D01*
X50472857Y-85166666D01*
X50663333Y-85119047D01*
X50901429Y-85119047D01*
X51091905Y-85166666D01*
X51187143Y-85214285D01*
X51234762Y-85261904D01*
X51282381Y-85357142D01*
X51282381Y-85452381D01*
X51234762Y-85547619D01*
X51187143Y-85595238D01*
X51091905Y-85642857D01*
X50901429Y-85690476D01*
X50663333Y-85690476D01*
X50472857Y-85642857D01*
X50377619Y-85595238D01*
X50330000Y-85547619D01*
X50282381Y-85452381D01*
X50615714Y-84690476D02*
X51615714Y-84690476D01*
X50663333Y-84690476D02*
X50615714Y-84595238D01*
X50615714Y-84404761D01*
X50663333Y-84309523D01*
X50710952Y-84261904D01*
X50806190Y-84214285D01*
X51091905Y-84214285D01*
X51187143Y-84261904D01*
X51234762Y-84309523D01*
X51282381Y-84404761D01*
X51282381Y-84595238D01*
X51234762Y-84690476D01*
X50758571Y-83452380D02*
X50758571Y-83785714D01*
X51282381Y-83785714D02*
X50282381Y-83785714D01*
X50282381Y-83309523D01*
D12*
X52089286Y-85160714D02*
X52101190Y-85172619D01*
X52113095Y-85208333D01*
X52113095Y-85232143D01*
X52101190Y-85267857D01*
X52077381Y-85291666D01*
X52053571Y-85303571D01*
X52005952Y-85315476D01*
X51970238Y-85315476D01*
X51922619Y-85303571D01*
X51898810Y-85291666D01*
X51875000Y-85267857D01*
X51863095Y-85232143D01*
X51863095Y-85208333D01*
X51875000Y-85172619D01*
X51886905Y-85160714D01*
X51946429Y-84946428D02*
X52113095Y-84946428D01*
X51851190Y-85005952D02*
X52029762Y-85065476D01*
X52029762Y-84910714D01*
X51863095Y-84696429D02*
X51863095Y-84815476D01*
X51982143Y-84827381D01*
X51970238Y-84815476D01*
X51958333Y-84791667D01*
X51958333Y-84732143D01*
X51970238Y-84708333D01*
X51982143Y-84696429D01*
X52005952Y-84684524D01*
X52065476Y-84684524D01*
X52089286Y-84696429D01*
X52101190Y-84708333D01*
X52113095Y-84732143D01*
X52113095Y-84791667D01*
X52101190Y-84815476D01*
X52089286Y-84827381D01*
D11*
X51182381Y-89247619D02*
X51182381Y-89819048D01*
X51182381Y-89533334D02*
X50182381Y-89533334D01*
X50325238Y-89628572D01*
X50420476Y-89723810D01*
X50468095Y-89819048D01*
X50182381Y-88628572D02*
X50182381Y-88533333D01*
X50230000Y-88438095D01*
X50277619Y-88390476D01*
X50372857Y-88342857D01*
X50563333Y-88295238D01*
X50801429Y-88295238D01*
X50991905Y-88342857D01*
X51087143Y-88390476D01*
X51134762Y-88438095D01*
X51182381Y-88533333D01*
X51182381Y-88628572D01*
X51134762Y-88723810D01*
X51087143Y-88771429D01*
X50991905Y-88819048D01*
X50801429Y-88866667D01*
X50563333Y-88866667D01*
X50372857Y-88819048D01*
X50277619Y-88771429D01*
X50230000Y-88723810D01*
X50182381Y-88628572D01*
X50182381Y-87676191D02*
X50182381Y-87580952D01*
X50230000Y-87485714D01*
X50277619Y-87438095D01*
X50372857Y-87390476D01*
X50563333Y-87342857D01*
X50801429Y-87342857D01*
X50991905Y-87390476D01*
X51087143Y-87438095D01*
X51134762Y-87485714D01*
X51182381Y-87580952D01*
X51182381Y-87676191D01*
X51134762Y-87771429D01*
X51087143Y-87819048D01*
X50991905Y-87866667D01*
X50801429Y-87914286D01*
X50563333Y-87914286D01*
X50372857Y-87866667D01*
X50277619Y-87819048D01*
X50230000Y-87771429D01*
X50182381Y-87676191D01*
X50515714Y-86914286D02*
X51515714Y-86914286D01*
X50563333Y-86914286D02*
X50515714Y-86819048D01*
X50515714Y-86628571D01*
X50563333Y-86533333D01*
X50610952Y-86485714D01*
X50706190Y-86438095D01*
X50991905Y-86438095D01*
X51087143Y-86485714D01*
X51134762Y-86533333D01*
X51182381Y-86628571D01*
X51182381Y-86819048D01*
X51134762Y-86914286D01*
X50658571Y-85676190D02*
X50658571Y-86009524D01*
X51182381Y-86009524D02*
X50182381Y-86009524D01*
X50182381Y-85533333D01*
D12*
X51989286Y-87860714D02*
X52001190Y-87872619D01*
X52013095Y-87908333D01*
X52013095Y-87932143D01*
X52001190Y-87967857D01*
X51977381Y-87991666D01*
X51953571Y-88003571D01*
X51905952Y-88015476D01*
X51870238Y-88015476D01*
X51822619Y-88003571D01*
X51798810Y-87991666D01*
X51775000Y-87967857D01*
X51763095Y-87932143D01*
X51763095Y-87908333D01*
X51775000Y-87872619D01*
X51786905Y-87860714D01*
X51846429Y-87646428D02*
X52013095Y-87646428D01*
X51751190Y-87705952D02*
X51929762Y-87765476D01*
X51929762Y-87610714D01*
X51763095Y-87408333D02*
X51763095Y-87455952D01*
X51775000Y-87479762D01*
X51786905Y-87491667D01*
X51822619Y-87515476D01*
X51870238Y-87527381D01*
X51965476Y-87527381D01*
X51989286Y-87515476D01*
X52001190Y-87503571D01*
X52013095Y-87479762D01*
X52013095Y-87432143D01*
X52001190Y-87408333D01*
X51989286Y-87396429D01*
X51965476Y-87384524D01*
X51905952Y-87384524D01*
X51882143Y-87396429D01*
X51870238Y-87408333D01*
X51858333Y-87432143D01*
X51858333Y-87479762D01*
X51870238Y-87503571D01*
X51882143Y-87515476D01*
X51905952Y-87527381D01*
D11*
X52909524Y-90422381D02*
X53528572Y-90422381D01*
X53195238Y-90803333D01*
X53338096Y-90803333D01*
X53433334Y-90850952D01*
X53480953Y-90898571D01*
X53528572Y-90993810D01*
X53528572Y-91231905D01*
X53480953Y-91327143D01*
X53433334Y-91374762D01*
X53338096Y-91422381D01*
X53052381Y-91422381D01*
X52957143Y-91374762D01*
X52909524Y-91327143D01*
X54147619Y-90422381D02*
X54242858Y-90422381D01*
X54338096Y-90470000D01*
X54385715Y-90517619D01*
X54433334Y-90612857D01*
X54480953Y-90803333D01*
X54480953Y-91041429D01*
X54433334Y-91231905D01*
X54385715Y-91327143D01*
X54338096Y-91374762D01*
X54242858Y-91422381D01*
X54147619Y-91422381D01*
X54052381Y-91374762D01*
X54004762Y-91327143D01*
X53957143Y-91231905D01*
X53909524Y-91041429D01*
X53909524Y-90803333D01*
X53957143Y-90612857D01*
X54004762Y-90517619D01*
X54052381Y-90470000D01*
X54147619Y-90422381D01*
X54909524Y-90755714D02*
X54909524Y-91755714D01*
X54909524Y-90803333D02*
X55004762Y-90755714D01*
X55195239Y-90755714D01*
X55290477Y-90803333D01*
X55338096Y-90850952D01*
X55385715Y-90946190D01*
X55385715Y-91231905D01*
X55338096Y-91327143D01*
X55290477Y-91374762D01*
X55195239Y-91422381D01*
X55004762Y-91422381D01*
X54909524Y-91374762D01*
X56147620Y-90898571D02*
X55814286Y-90898571D01*
X55814286Y-91422381D02*
X55814286Y-90422381D01*
X56290477Y-90422381D01*
D12*
X54439286Y-89889286D02*
X54427381Y-89901190D01*
X54391667Y-89913095D01*
X54367857Y-89913095D01*
X54332143Y-89901190D01*
X54308334Y-89877381D01*
X54296429Y-89853571D01*
X54284524Y-89805952D01*
X54284524Y-89770238D01*
X54296429Y-89722619D01*
X54308334Y-89698810D01*
X54332143Y-89675000D01*
X54367857Y-89663095D01*
X54391667Y-89663095D01*
X54427381Y-89675000D01*
X54439286Y-89686905D01*
X54653572Y-89746429D02*
X54653572Y-89913095D01*
X54594048Y-89651190D02*
X54534524Y-89829762D01*
X54689286Y-89829762D01*
X54760714Y-89663095D02*
X54927381Y-89663095D01*
X54820238Y-89913095D01*
D11*
X81752381Y-85382381D02*
X81180952Y-85382381D01*
X81466666Y-85382381D02*
X81466666Y-84382381D01*
X81371428Y-84525238D01*
X81276190Y-84620476D01*
X81180952Y-84668095D01*
X82371428Y-84382381D02*
X82466667Y-84382381D01*
X82561905Y-84430000D01*
X82609524Y-84477619D01*
X82657143Y-84572857D01*
X82704762Y-84763333D01*
X82704762Y-85001429D01*
X82657143Y-85191905D01*
X82609524Y-85287143D01*
X82561905Y-85334762D01*
X82466667Y-85382381D01*
X82371428Y-85382381D01*
X82276190Y-85334762D01*
X82228571Y-85287143D01*
X82180952Y-85191905D01*
X82133333Y-85001429D01*
X82133333Y-84763333D01*
X82180952Y-84572857D01*
X82228571Y-84477619D01*
X82276190Y-84430000D01*
X82371428Y-84382381D01*
X83323809Y-84382381D02*
X83419048Y-84382381D01*
X83514286Y-84430000D01*
X83561905Y-84477619D01*
X83609524Y-84572857D01*
X83657143Y-84763333D01*
X83657143Y-85001429D01*
X83609524Y-85191905D01*
X83561905Y-85287143D01*
X83514286Y-85334762D01*
X83419048Y-85382381D01*
X83323809Y-85382381D01*
X83228571Y-85334762D01*
X83180952Y-85287143D01*
X83133333Y-85191905D01*
X83085714Y-85001429D01*
X83085714Y-84763333D01*
X83133333Y-84572857D01*
X83180952Y-84477619D01*
X83228571Y-84430000D01*
X83323809Y-84382381D01*
X84085714Y-84715714D02*
X84085714Y-85382381D01*
X84085714Y-84810952D02*
X84133333Y-84763333D01*
X84228571Y-84715714D01*
X84371429Y-84715714D01*
X84466667Y-84763333D01*
X84514286Y-84858571D01*
X84514286Y-85382381D01*
X85323810Y-84858571D02*
X84990476Y-84858571D01*
X84990476Y-85382381D02*
X84990476Y-84382381D01*
X85466667Y-84382381D01*
D12*
X83139286Y-86189286D02*
X83127381Y-86201190D01*
X83091667Y-86213095D01*
X83067857Y-86213095D01*
X83032143Y-86201190D01*
X83008334Y-86177381D01*
X82996429Y-86153571D01*
X82984524Y-86105952D01*
X82984524Y-86070238D01*
X82996429Y-86022619D01*
X83008334Y-85998810D01*
X83032143Y-85975000D01*
X83067857Y-85963095D01*
X83091667Y-85963095D01*
X83127381Y-85975000D01*
X83139286Y-85986905D01*
X83353572Y-86046429D02*
X83353572Y-86213095D01*
X83294048Y-85951190D02*
X83234524Y-86129762D01*
X83389286Y-86129762D01*
X83520238Y-86070238D02*
X83496429Y-86058333D01*
X83484524Y-86046429D01*
X83472619Y-86022619D01*
X83472619Y-86010714D01*
X83484524Y-85986905D01*
X83496429Y-85975000D01*
X83520238Y-85963095D01*
X83567857Y-85963095D01*
X83591667Y-85975000D01*
X83603571Y-85986905D01*
X83615476Y-86010714D01*
X83615476Y-86022619D01*
X83603571Y-86046429D01*
X83591667Y-86058333D01*
X83567857Y-86070238D01*
X83520238Y-86070238D01*
X83496429Y-86082143D01*
X83484524Y-86094048D01*
X83472619Y-86117857D01*
X83472619Y-86165476D01*
X83484524Y-86189286D01*
X83496429Y-86201190D01*
X83520238Y-86213095D01*
X83567857Y-86213095D01*
X83591667Y-86201190D01*
X83603571Y-86189286D01*
X83615476Y-86165476D01*
X83615476Y-86117857D01*
X83603571Y-86094048D01*
X83591667Y-86082143D01*
X83567857Y-86070238D01*
D11*
X86142857Y-92622381D02*
X86142857Y-91622381D01*
X86714286Y-92622381D01*
X86714286Y-91622381D01*
X87190476Y-92622381D02*
X87190476Y-91622381D01*
X87523810Y-92336667D01*
X87857143Y-91622381D01*
X87857143Y-92622381D01*
D12*
X86839286Y-91089286D02*
X86827381Y-91101190D01*
X86791667Y-91113095D01*
X86767857Y-91113095D01*
X86732143Y-91101190D01*
X86708334Y-91077381D01*
X86696429Y-91053571D01*
X86684524Y-91005952D01*
X86684524Y-90970238D01*
X86696429Y-90922619D01*
X86708334Y-90898810D01*
X86732143Y-90875000D01*
X86767857Y-90863095D01*
X86791667Y-90863095D01*
X86827381Y-90875000D01*
X86839286Y-90886905D01*
X87065476Y-90863095D02*
X86946429Y-90863095D01*
X86934524Y-90982143D01*
X86946429Y-90970238D01*
X86970238Y-90958333D01*
X87029762Y-90958333D01*
X87053572Y-90970238D01*
X87065476Y-90982143D01*
X87077381Y-91005952D01*
X87077381Y-91065476D01*
X87065476Y-91089286D01*
X87053572Y-91101190D01*
X87029762Y-91113095D01*
X86970238Y-91113095D01*
X86946429Y-91101190D01*
X86934524Y-91089286D01*
X87172619Y-90886905D02*
X87184524Y-90875000D01*
X87208333Y-90863095D01*
X87267857Y-90863095D01*
X87291667Y-90875000D01*
X87303571Y-90886905D01*
X87315476Y-90910714D01*
X87315476Y-90934524D01*
X87303571Y-90970238D01*
X87160714Y-91113095D01*
X87315476Y-91113095D01*
D11*
X94705586Y-119487881D02*
X94705586Y-118487881D01*
X95277015Y-119487881D01*
X95277015Y-118487881D01*
X96324634Y-119392643D02*
X96277015Y-119440262D01*
X96134158Y-119487881D01*
X96038920Y-119487881D01*
X95896062Y-119440262D01*
X95800824Y-119345024D01*
X95753205Y-119249786D01*
X95705586Y-119059310D01*
X95705586Y-118916452D01*
X95753205Y-118725976D01*
X95800824Y-118630738D01*
X95896062Y-118535500D01*
X96038920Y-118487881D01*
X96134158Y-118487881D01*
X96277015Y-118535500D01*
X96324634Y-118583119D01*
D12*
X95330586Y-120294786D02*
X95318681Y-120306690D01*
X95282967Y-120318595D01*
X95259157Y-120318595D01*
X95223443Y-120306690D01*
X95199634Y-120282881D01*
X95187729Y-120259071D01*
X95175824Y-120211452D01*
X95175824Y-120175738D01*
X95187729Y-120128119D01*
X95199634Y-120104310D01*
X95223443Y-120080500D01*
X95259157Y-120068595D01*
X95282967Y-120068595D01*
X95318681Y-120080500D01*
X95330586Y-120092405D01*
X95556776Y-120068595D02*
X95437729Y-120068595D01*
X95425824Y-120187643D01*
X95437729Y-120175738D01*
X95461538Y-120163833D01*
X95521062Y-120163833D01*
X95544872Y-120175738D01*
X95556776Y-120187643D01*
X95568681Y-120211452D01*
X95568681Y-120270976D01*
X95556776Y-120294786D01*
X95544872Y-120306690D01*
X95521062Y-120318595D01*
X95461538Y-120318595D01*
X95437729Y-120306690D01*
X95425824Y-120294786D01*
X95652014Y-120068595D02*
X95818681Y-120068595D01*
X95711538Y-120318595D01*
D11*
X95214286Y-101922381D02*
X95214286Y-100922381D01*
X95785715Y-101922381D01*
X95785715Y-100922381D01*
X96833334Y-101827143D02*
X96785715Y-101874762D01*
X96642858Y-101922381D01*
X96547620Y-101922381D01*
X96404762Y-101874762D01*
X96309524Y-101779524D01*
X96261905Y-101684286D01*
X96214286Y-101493810D01*
X96214286Y-101350952D01*
X96261905Y-101160476D01*
X96309524Y-101065238D01*
X96404762Y-100970000D01*
X96547620Y-100922381D01*
X96642858Y-100922381D01*
X96785715Y-100970000D01*
X96833334Y-101017619D01*
D12*
X95839286Y-100389286D02*
X95827381Y-100401190D01*
X95791667Y-100413095D01*
X95767857Y-100413095D01*
X95732143Y-100401190D01*
X95708334Y-100377381D01*
X95696429Y-100353571D01*
X95684524Y-100305952D01*
X95684524Y-100270238D01*
X95696429Y-100222619D01*
X95708334Y-100198810D01*
X95732143Y-100175000D01*
X95767857Y-100163095D01*
X95791667Y-100163095D01*
X95827381Y-100175000D01*
X95839286Y-100186905D01*
X96065476Y-100163095D02*
X95946429Y-100163095D01*
X95934524Y-100282143D01*
X95946429Y-100270238D01*
X95970238Y-100258333D01*
X96029762Y-100258333D01*
X96053572Y-100270238D01*
X96065476Y-100282143D01*
X96077381Y-100305952D01*
X96077381Y-100365476D01*
X96065476Y-100389286D01*
X96053572Y-100401190D01*
X96029762Y-100413095D01*
X95970238Y-100413095D01*
X95946429Y-100401190D01*
X95934524Y-100389286D01*
X96220238Y-100270238D02*
X96196429Y-100258333D01*
X96184524Y-100246429D01*
X96172619Y-100222619D01*
X96172619Y-100210714D01*
X96184524Y-100186905D01*
X96196429Y-100175000D01*
X96220238Y-100163095D01*
X96267857Y-100163095D01*
X96291667Y-100175000D01*
X96303571Y-100186905D01*
X96315476Y-100210714D01*
X96315476Y-100222619D01*
X96303571Y-100246429D01*
X96291667Y-100258333D01*
X96267857Y-100270238D01*
X96220238Y-100270238D01*
X96196429Y-100282143D01*
X96184524Y-100294048D01*
X96172619Y-100317857D01*
X96172619Y-100365476D01*
X96184524Y-100389286D01*
X96196429Y-100401190D01*
X96220238Y-100413095D01*
X96267857Y-100413095D01*
X96291667Y-100401190D01*
X96303571Y-100389286D01*
X96315476Y-100365476D01*
X96315476Y-100317857D01*
X96303571Y-100294048D01*
X96291667Y-100282143D01*
X96267857Y-100270238D01*
D11*
X82309524Y-87782381D02*
X82928572Y-87782381D01*
X82595238Y-88163333D01*
X82738096Y-88163333D01*
X82833334Y-88210952D01*
X82880953Y-88258571D01*
X82928572Y-88353810D01*
X82928572Y-88591905D01*
X82880953Y-88687143D01*
X82833334Y-88734762D01*
X82738096Y-88782381D01*
X82452381Y-88782381D01*
X82357143Y-88734762D01*
X82309524Y-88687143D01*
X83261905Y-87782381D02*
X83880953Y-87782381D01*
X83547619Y-88163333D01*
X83690477Y-88163333D01*
X83785715Y-88210952D01*
X83833334Y-88258571D01*
X83880953Y-88353810D01*
X83880953Y-88591905D01*
X83833334Y-88687143D01*
X83785715Y-88734762D01*
X83690477Y-88782381D01*
X83404762Y-88782381D01*
X83309524Y-88734762D01*
X83261905Y-88687143D01*
X84309524Y-88115714D02*
X84309524Y-89115714D01*
X84309524Y-88163333D02*
X84404762Y-88115714D01*
X84595239Y-88115714D01*
X84690477Y-88163333D01*
X84738096Y-88210952D01*
X84785715Y-88306190D01*
X84785715Y-88591905D01*
X84738096Y-88687143D01*
X84690477Y-88734762D01*
X84595239Y-88782381D01*
X84404762Y-88782381D01*
X84309524Y-88734762D01*
X85547620Y-88258571D02*
X85214286Y-88258571D01*
X85214286Y-88782381D02*
X85214286Y-87782381D01*
X85690477Y-87782381D01*
D12*
X83839286Y-89589286D02*
X83827381Y-89601190D01*
X83791667Y-89613095D01*
X83767857Y-89613095D01*
X83732143Y-89601190D01*
X83708334Y-89577381D01*
X83696429Y-89553571D01*
X83684524Y-89505952D01*
X83684524Y-89470238D01*
X83696429Y-89422619D01*
X83708334Y-89398810D01*
X83732143Y-89375000D01*
X83767857Y-89363095D01*
X83791667Y-89363095D01*
X83827381Y-89375000D01*
X83839286Y-89386905D01*
X84065476Y-89363095D02*
X83946429Y-89363095D01*
X83934524Y-89482143D01*
X83946429Y-89470238D01*
X83970238Y-89458333D01*
X84029762Y-89458333D01*
X84053572Y-89470238D01*
X84065476Y-89482143D01*
X84077381Y-89505952D01*
X84077381Y-89565476D01*
X84065476Y-89589286D01*
X84053572Y-89601190D01*
X84029762Y-89613095D01*
X83970238Y-89613095D01*
X83946429Y-89601190D01*
X83934524Y-89589286D01*
X84196429Y-89613095D02*
X84244048Y-89613095D01*
X84267857Y-89601190D01*
X84279762Y-89589286D01*
X84303571Y-89553571D01*
X84315476Y-89505952D01*
X84315476Y-89410714D01*
X84303571Y-89386905D01*
X84291667Y-89375000D01*
X84267857Y-89363095D01*
X84220238Y-89363095D01*
X84196429Y-89375000D01*
X84184524Y-89386905D01*
X84172619Y-89410714D01*
X84172619Y-89470238D01*
X84184524Y-89494048D01*
X84196429Y-89505952D01*
X84220238Y-89517857D01*
X84267857Y-89517857D01*
X84291667Y-89505952D01*
X84303571Y-89494048D01*
X84315476Y-89470238D01*
D11*
X82309524Y-86582381D02*
X82928572Y-86582381D01*
X82595238Y-86963333D01*
X82738096Y-86963333D01*
X82833334Y-87010952D01*
X82880953Y-87058571D01*
X82928572Y-87153810D01*
X82928572Y-87391905D01*
X82880953Y-87487143D01*
X82833334Y-87534762D01*
X82738096Y-87582381D01*
X82452381Y-87582381D01*
X82357143Y-87534762D01*
X82309524Y-87487143D01*
X83261905Y-86582381D02*
X83880953Y-86582381D01*
X83547619Y-86963333D01*
X83690477Y-86963333D01*
X83785715Y-87010952D01*
X83833334Y-87058571D01*
X83880953Y-87153810D01*
X83880953Y-87391905D01*
X83833334Y-87487143D01*
X83785715Y-87534762D01*
X83690477Y-87582381D01*
X83404762Y-87582381D01*
X83309524Y-87534762D01*
X83261905Y-87487143D01*
X84309524Y-86915714D02*
X84309524Y-87915714D01*
X84309524Y-86963333D02*
X84404762Y-86915714D01*
X84595239Y-86915714D01*
X84690477Y-86963333D01*
X84738096Y-87010952D01*
X84785715Y-87106190D01*
X84785715Y-87391905D01*
X84738096Y-87487143D01*
X84690477Y-87534762D01*
X84595239Y-87582381D01*
X84404762Y-87582381D01*
X84309524Y-87534762D01*
X85547620Y-87058571D02*
X85214286Y-87058571D01*
X85214286Y-87582381D02*
X85214286Y-86582381D01*
X85690477Y-86582381D01*
D12*
X83839286Y-88389286D02*
X83827381Y-88401190D01*
X83791667Y-88413095D01*
X83767857Y-88413095D01*
X83732143Y-88401190D01*
X83708334Y-88377381D01*
X83696429Y-88353571D01*
X83684524Y-88305952D01*
X83684524Y-88270238D01*
X83696429Y-88222619D01*
X83708334Y-88198810D01*
X83732143Y-88175000D01*
X83767857Y-88163095D01*
X83791667Y-88163095D01*
X83827381Y-88175000D01*
X83839286Y-88186905D01*
X84053572Y-88163095D02*
X84005953Y-88163095D01*
X83982143Y-88175000D01*
X83970238Y-88186905D01*
X83946429Y-88222619D01*
X83934524Y-88270238D01*
X83934524Y-88365476D01*
X83946429Y-88389286D01*
X83958334Y-88401190D01*
X83982143Y-88413095D01*
X84029762Y-88413095D01*
X84053572Y-88401190D01*
X84065476Y-88389286D01*
X84077381Y-88365476D01*
X84077381Y-88305952D01*
X84065476Y-88282143D01*
X84053572Y-88270238D01*
X84029762Y-88258333D01*
X83982143Y-88258333D01*
X83958334Y-88270238D01*
X83946429Y-88282143D01*
X83934524Y-88305952D01*
X84232143Y-88163095D02*
X84255952Y-88163095D01*
X84279762Y-88175000D01*
X84291667Y-88186905D01*
X84303571Y-88210714D01*
X84315476Y-88258333D01*
X84315476Y-88317857D01*
X84303571Y-88365476D01*
X84291667Y-88389286D01*
X84279762Y-88401190D01*
X84255952Y-88413095D01*
X84232143Y-88413095D01*
X84208333Y-88401190D01*
X84196429Y-88389286D01*
X84184524Y-88365476D01*
X84172619Y-88317857D01*
X84172619Y-88258333D01*
X84184524Y-88210714D01*
X84196429Y-88186905D01*
X84208333Y-88175000D01*
X84232143Y-88163095D01*
D11*
X94714286Y-115782381D02*
X94714286Y-114782381D01*
X95285715Y-115782381D01*
X95285715Y-114782381D01*
X96333334Y-115687143D02*
X96285715Y-115734762D01*
X96142858Y-115782381D01*
X96047620Y-115782381D01*
X95904762Y-115734762D01*
X95809524Y-115639524D01*
X95761905Y-115544286D01*
X95714286Y-115353810D01*
X95714286Y-115210952D01*
X95761905Y-115020476D01*
X95809524Y-114925238D01*
X95904762Y-114830000D01*
X96047620Y-114782381D01*
X96142858Y-114782381D01*
X96285715Y-114830000D01*
X96333334Y-114877619D01*
D12*
X95339286Y-116589286D02*
X95327381Y-116601190D01*
X95291667Y-116613095D01*
X95267857Y-116613095D01*
X95232143Y-116601190D01*
X95208334Y-116577381D01*
X95196429Y-116553571D01*
X95184524Y-116505952D01*
X95184524Y-116470238D01*
X95196429Y-116422619D01*
X95208334Y-116398810D01*
X95232143Y-116375000D01*
X95267857Y-116363095D01*
X95291667Y-116363095D01*
X95327381Y-116375000D01*
X95339286Y-116386905D01*
X95553572Y-116363095D02*
X95505953Y-116363095D01*
X95482143Y-116375000D01*
X95470238Y-116386905D01*
X95446429Y-116422619D01*
X95434524Y-116470238D01*
X95434524Y-116565476D01*
X95446429Y-116589286D01*
X95458334Y-116601190D01*
X95482143Y-116613095D01*
X95529762Y-116613095D01*
X95553572Y-116601190D01*
X95565476Y-116589286D01*
X95577381Y-116565476D01*
X95577381Y-116505952D01*
X95565476Y-116482143D01*
X95553572Y-116470238D01*
X95529762Y-116458333D01*
X95482143Y-116458333D01*
X95458334Y-116470238D01*
X95446429Y-116482143D01*
X95434524Y-116505952D01*
X95815476Y-116613095D02*
X95672619Y-116613095D01*
X95744048Y-116613095D02*
X95744048Y-116363095D01*
X95720238Y-116398810D01*
X95696429Y-116422619D01*
X95672619Y-116434524D01*
D11*
X95214286Y-96782381D02*
X95214286Y-95782381D01*
X95785715Y-96782381D01*
X95785715Y-95782381D01*
X96833334Y-96687143D02*
X96785715Y-96734762D01*
X96642858Y-96782381D01*
X96547620Y-96782381D01*
X96404762Y-96734762D01*
X96309524Y-96639524D01*
X96261905Y-96544286D01*
X96214286Y-96353810D01*
X96214286Y-96210952D01*
X96261905Y-96020476D01*
X96309524Y-95925238D01*
X96404762Y-95830000D01*
X96547620Y-95782381D01*
X96642858Y-95782381D01*
X96785715Y-95830000D01*
X96833334Y-95877619D01*
D12*
X95839286Y-97589286D02*
X95827381Y-97601190D01*
X95791667Y-97613095D01*
X95767857Y-97613095D01*
X95732143Y-97601190D01*
X95708334Y-97577381D01*
X95696429Y-97553571D01*
X95684524Y-97505952D01*
X95684524Y-97470238D01*
X95696429Y-97422619D01*
X95708334Y-97398810D01*
X95732143Y-97375000D01*
X95767857Y-97363095D01*
X95791667Y-97363095D01*
X95827381Y-97375000D01*
X95839286Y-97386905D01*
X96053572Y-97363095D02*
X96005953Y-97363095D01*
X95982143Y-97375000D01*
X95970238Y-97386905D01*
X95946429Y-97422619D01*
X95934524Y-97470238D01*
X95934524Y-97565476D01*
X95946429Y-97589286D01*
X95958334Y-97601190D01*
X95982143Y-97613095D01*
X96029762Y-97613095D01*
X96053572Y-97601190D01*
X96065476Y-97589286D01*
X96077381Y-97565476D01*
X96077381Y-97505952D01*
X96065476Y-97482143D01*
X96053572Y-97470238D01*
X96029762Y-97458333D01*
X95982143Y-97458333D01*
X95958334Y-97470238D01*
X95946429Y-97482143D01*
X95934524Y-97505952D01*
X96172619Y-97386905D02*
X96184524Y-97375000D01*
X96208333Y-97363095D01*
X96267857Y-97363095D01*
X96291667Y-97375000D01*
X96303571Y-97386905D01*
X96315476Y-97410714D01*
X96315476Y-97434524D01*
X96303571Y-97470238D01*
X96160714Y-97613095D01*
X96315476Y-97613095D01*
D11*
X54004762Y-91482381D02*
X53433333Y-91482381D01*
X53719047Y-91482381D02*
X53719047Y-90482381D01*
X53623809Y-90625238D01*
X53528571Y-90720476D01*
X53433333Y-90768095D01*
X54861905Y-90815714D02*
X54861905Y-91482381D01*
X54433333Y-90815714D02*
X54433333Y-91339524D01*
X54480952Y-91434762D01*
X54576190Y-91482381D01*
X54719048Y-91482381D01*
X54814286Y-91434762D01*
X54861905Y-91387143D01*
X55671429Y-90958571D02*
X55338095Y-90958571D01*
X55338095Y-91482381D02*
X55338095Y-90482381D01*
X55814286Y-90482381D01*
D12*
X54439286Y-92289286D02*
X54427381Y-92301190D01*
X54391667Y-92313095D01*
X54367857Y-92313095D01*
X54332143Y-92301190D01*
X54308334Y-92277381D01*
X54296429Y-92253571D01*
X54284524Y-92205952D01*
X54284524Y-92170238D01*
X54296429Y-92122619D01*
X54308334Y-92098810D01*
X54332143Y-92075000D01*
X54367857Y-92063095D01*
X54391667Y-92063095D01*
X54427381Y-92075000D01*
X54439286Y-92086905D01*
X54653572Y-92063095D02*
X54605953Y-92063095D01*
X54582143Y-92075000D01*
X54570238Y-92086905D01*
X54546429Y-92122619D01*
X54534524Y-92170238D01*
X54534524Y-92265476D01*
X54546429Y-92289286D01*
X54558334Y-92301190D01*
X54582143Y-92313095D01*
X54629762Y-92313095D01*
X54653572Y-92301190D01*
X54665476Y-92289286D01*
X54677381Y-92265476D01*
X54677381Y-92205952D01*
X54665476Y-92182143D01*
X54653572Y-92170238D01*
X54629762Y-92158333D01*
X54582143Y-92158333D01*
X54558334Y-92170238D01*
X54546429Y-92182143D01*
X54534524Y-92205952D01*
X54891667Y-92146429D02*
X54891667Y-92313095D01*
X54832143Y-92051190D02*
X54772619Y-92229762D01*
X54927381Y-92229762D01*
D11*
X73690476Y-127852381D02*
X73690476Y-126852381D01*
X74023810Y-127566667D01*
X74357143Y-126852381D01*
X74357143Y-127852381D01*
X74833333Y-127852381D02*
X74833333Y-126852381D01*
X75166667Y-127566667D01*
X75500000Y-126852381D01*
X75500000Y-127852381D01*
X75928571Y-127804762D02*
X76071428Y-127852381D01*
X76309524Y-127852381D01*
X76404762Y-127804762D01*
X76452381Y-127757143D01*
X76500000Y-127661905D01*
X76500000Y-127566667D01*
X76452381Y-127471429D01*
X76404762Y-127423810D01*
X76309524Y-127376190D01*
X76119047Y-127328571D01*
X76023809Y-127280952D01*
X75976190Y-127233333D01*
X75928571Y-127138095D01*
X75928571Y-127042857D01*
X75976190Y-126947619D01*
X76023809Y-126900000D01*
X76119047Y-126852381D01*
X76357143Y-126852381D01*
X76500000Y-126900000D01*
X76833333Y-126852381D02*
X77500000Y-126852381D01*
X76833333Y-127852381D01*
X77500000Y-127852381D01*
X78357143Y-126852381D02*
X77880952Y-126852381D01*
X77833333Y-127328571D01*
X77880952Y-127280952D01*
X77976190Y-127233333D01*
X78214286Y-127233333D01*
X78309524Y-127280952D01*
X78357143Y-127328571D01*
X78404762Y-127423810D01*
X78404762Y-127661905D01*
X78357143Y-127757143D01*
X78309524Y-127804762D01*
X78214286Y-127852381D01*
X77976190Y-127852381D01*
X77880952Y-127804762D01*
X77833333Y-127757143D01*
X78785714Y-126947619D02*
X78833333Y-126900000D01*
X78928571Y-126852381D01*
X79166667Y-126852381D01*
X79261905Y-126900000D01*
X79309524Y-126947619D01*
X79357143Y-127042857D01*
X79357143Y-127138095D01*
X79309524Y-127280952D01*
X78738095Y-127852381D01*
X79357143Y-127852381D01*
X79690476Y-126852381D02*
X80309524Y-126852381D01*
X79976190Y-127233333D01*
X80119048Y-127233333D01*
X80214286Y-127280952D01*
X80261905Y-127328571D01*
X80309524Y-127423810D01*
X80309524Y-127661905D01*
X80261905Y-127757143D01*
X80214286Y-127804762D01*
X80119048Y-127852381D01*
X79833333Y-127852381D01*
X79738095Y-127804762D01*
X79690476Y-127757143D01*
X81261905Y-127852381D02*
X80690476Y-127852381D01*
X80976190Y-127852381D02*
X80976190Y-126852381D01*
X80880952Y-126995238D01*
X80785714Y-127090476D01*
X80690476Y-127138095D01*
X82023810Y-127328571D02*
X82166667Y-127376190D01*
X82214286Y-127423810D01*
X82261905Y-127519048D01*
X82261905Y-127661905D01*
X82214286Y-127757143D01*
X82166667Y-127804762D01*
X82071429Y-127852381D01*
X81690476Y-127852381D01*
X81690476Y-126852381D01*
X82023810Y-126852381D01*
X82119048Y-126900000D01*
X82166667Y-126947619D01*
X82214286Y-127042857D01*
X82214286Y-127138095D01*
X82166667Y-127233333D01*
X82119048Y-127280952D01*
X82023810Y-127328571D01*
X81690476Y-127328571D01*
X82690476Y-127471429D02*
X83452381Y-127471429D01*
X83928571Y-127328571D02*
X84261905Y-127328571D01*
X84404762Y-127852381D02*
X83928571Y-127852381D01*
X83928571Y-126852381D01*
X84404762Y-126852381D01*
X84738095Y-126852381D02*
X85357143Y-126852381D01*
X85023809Y-127233333D01*
X85166667Y-127233333D01*
X85261905Y-127280952D01*
X85309524Y-127328571D01*
X85357143Y-127423810D01*
X85357143Y-127661905D01*
X85309524Y-127757143D01*
X85261905Y-127804762D01*
X85166667Y-127852381D01*
X84880952Y-127852381D01*
X84785714Y-127804762D01*
X84738095Y-127757143D01*
X78761905Y-128152381D02*
X78761905Y-127152381D01*
X79000000Y-127152381D01*
X79142858Y-127200000D01*
X79238096Y-127295238D01*
X79285715Y-127390476D01*
X79333334Y-127580952D01*
X79333334Y-127723810D01*
X79285715Y-127914286D01*
X79238096Y-128009524D01*
X79142858Y-128104762D01*
X79000000Y-128152381D01*
X78761905Y-128152381D01*
X80285715Y-128152381D02*
X79714286Y-128152381D01*
X80000000Y-128152381D02*
X80000000Y-127152381D01*
X79904762Y-127295238D01*
X79809524Y-127390476D01*
X79714286Y-127438095D01*
X75447620Y-90622381D02*
X74971429Y-90622381D01*
X74923810Y-91098571D01*
X74971429Y-91050952D01*
X75066667Y-91003333D01*
X75304763Y-91003333D01*
X75400001Y-91050952D01*
X75447620Y-91098571D01*
X75495239Y-91193810D01*
X75495239Y-91431905D01*
X75447620Y-91527143D01*
X75400001Y-91574762D01*
X75304763Y-91622381D01*
X75066667Y-91622381D01*
X74971429Y-91574762D01*
X74923810Y-91527143D01*
X75923810Y-91527143D02*
X75971429Y-91574762D01*
X75923810Y-91622381D01*
X75876191Y-91574762D01*
X75923810Y-91527143D01*
X75923810Y-91622381D01*
X76828572Y-90622381D02*
X76638095Y-90622381D01*
X76542857Y-90670000D01*
X76495238Y-90717619D01*
X76400000Y-90860476D01*
X76352381Y-91050952D01*
X76352381Y-91431905D01*
X76400000Y-91527143D01*
X76447619Y-91574762D01*
X76542857Y-91622381D01*
X76733334Y-91622381D01*
X76828572Y-91574762D01*
X76876191Y-91527143D01*
X76923810Y-91431905D01*
X76923810Y-91193810D01*
X76876191Y-91098571D01*
X76828572Y-91050952D01*
X76733334Y-91003333D01*
X76542857Y-91003333D01*
X76447619Y-91050952D01*
X76400000Y-91098571D01*
X76352381Y-91193810D01*
X77352381Y-90955714D02*
X77352381Y-91622381D01*
X77352381Y-91050952D02*
X77400000Y-91003333D01*
X77495238Y-90955714D01*
X77638096Y-90955714D01*
X77733334Y-91003333D01*
X77780953Y-91098571D01*
X77780953Y-91622381D01*
X78257143Y-91622381D02*
X78257143Y-90622381D01*
X78257143Y-91098571D02*
X78828572Y-91098571D01*
X78828572Y-91622381D02*
X78828572Y-90622381D01*
D12*
X76858333Y-90113095D02*
X76739286Y-90113095D01*
X76739286Y-89863095D01*
X76929762Y-89886905D02*
X76941667Y-89875000D01*
X76965476Y-89863095D01*
X77025000Y-89863095D01*
X77048810Y-89875000D01*
X77060714Y-89886905D01*
X77072619Y-89910714D01*
X77072619Y-89934524D01*
X77060714Y-89970238D01*
X76917857Y-90113095D01*
X77072619Y-90113095D01*
D11*
X56133334Y-82882381D02*
X55561905Y-82882381D01*
X55847619Y-82882381D02*
X55847619Y-81882381D01*
X55752381Y-82025238D01*
X55657143Y-82120476D01*
X55561905Y-82168095D01*
X56514286Y-81977619D02*
X56561905Y-81930000D01*
X56657143Y-81882381D01*
X56895239Y-81882381D01*
X56990477Y-81930000D01*
X57038096Y-81977619D01*
X57085715Y-82072857D01*
X57085715Y-82168095D01*
X57038096Y-82310952D01*
X56466667Y-82882381D01*
X57085715Y-82882381D01*
X57704762Y-81882381D02*
X57800001Y-81882381D01*
X57895239Y-81930000D01*
X57942858Y-81977619D01*
X57990477Y-82072857D01*
X58038096Y-82263333D01*
X58038096Y-82501429D01*
X57990477Y-82691905D01*
X57942858Y-82787143D01*
X57895239Y-82834762D01*
X57800001Y-82882381D01*
X57704762Y-82882381D01*
X57609524Y-82834762D01*
X57561905Y-82787143D01*
X57514286Y-82691905D01*
X57466667Y-82501429D01*
X57466667Y-82263333D01*
X57514286Y-82072857D01*
X57561905Y-81977619D01*
X57609524Y-81930000D01*
X57704762Y-81882381D01*
X59038096Y-82882381D02*
X58704762Y-82406190D01*
X58466667Y-82882381D02*
X58466667Y-81882381D01*
X58847620Y-81882381D01*
X58942858Y-81930000D01*
X58990477Y-81977619D01*
X59038096Y-82072857D01*
X59038096Y-82215714D01*
X58990477Y-82310952D01*
X58942858Y-82358571D01*
X58847620Y-82406190D01*
X58466667Y-82406190D01*
D12*
X57258333Y-83713095D02*
X57139286Y-83713095D01*
X57139286Y-83463095D01*
X57317857Y-83463095D02*
X57472619Y-83463095D01*
X57389286Y-83558333D01*
X57425000Y-83558333D01*
X57448810Y-83570238D01*
X57460714Y-83582143D01*
X57472619Y-83605952D01*
X57472619Y-83665476D01*
X57460714Y-83689286D01*
X57448810Y-83701190D01*
X57425000Y-83713095D01*
X57353572Y-83713095D01*
X57329762Y-83701190D01*
X57317857Y-83689286D01*
D11*
X58382381Y-93466666D02*
X58382381Y-94038095D01*
X58382381Y-93752381D02*
X57382381Y-93752381D01*
X57525238Y-93847619D01*
X57620476Y-93942857D01*
X57668095Y-94038095D01*
X57477619Y-93085714D02*
X57430000Y-93038095D01*
X57382381Y-92942857D01*
X57382381Y-92704761D01*
X57430000Y-92609523D01*
X57477619Y-92561904D01*
X57572857Y-92514285D01*
X57668095Y-92514285D01*
X57810952Y-92561904D01*
X58382381Y-93133333D01*
X58382381Y-92514285D01*
X57382381Y-91895238D02*
X57382381Y-91799999D01*
X57430000Y-91704761D01*
X57477619Y-91657142D01*
X57572857Y-91609523D01*
X57763333Y-91561904D01*
X58001429Y-91561904D01*
X58191905Y-91609523D01*
X58287143Y-91657142D01*
X58334762Y-91704761D01*
X58382381Y-91799999D01*
X58382381Y-91895238D01*
X58334762Y-91990476D01*
X58287143Y-92038095D01*
X58191905Y-92085714D01*
X58001429Y-92133333D01*
X57763333Y-92133333D01*
X57572857Y-92085714D01*
X57477619Y-92038095D01*
X57430000Y-91990476D01*
X57382381Y-91895238D01*
X58382381Y-90561904D02*
X57906190Y-90895238D01*
X58382381Y-91133333D02*
X57382381Y-91133333D01*
X57382381Y-90752380D01*
X57430000Y-90657142D01*
X57477619Y-90609523D01*
X57572857Y-90561904D01*
X57715714Y-90561904D01*
X57810952Y-90609523D01*
X57858571Y-90657142D01*
X57906190Y-90752380D01*
X57906190Y-91133333D01*
D12*
X59213095Y-92341667D02*
X59213095Y-92460714D01*
X58963095Y-92460714D01*
X59046429Y-92151190D02*
X59213095Y-92151190D01*
X58951190Y-92210714D02*
X59129762Y-92270238D01*
X59129762Y-92115476D01*
D11*
X63033334Y-91322381D02*
X62461905Y-91322381D01*
X62747619Y-91322381D02*
X62747619Y-90322381D01*
X62652381Y-90465238D01*
X62557143Y-90560476D01*
X62461905Y-90608095D01*
X63414286Y-90417619D02*
X63461905Y-90370000D01*
X63557143Y-90322381D01*
X63795239Y-90322381D01*
X63890477Y-90370000D01*
X63938096Y-90417619D01*
X63985715Y-90512857D01*
X63985715Y-90608095D01*
X63938096Y-90750952D01*
X63366667Y-91322381D01*
X63985715Y-91322381D01*
X64604762Y-90322381D02*
X64700001Y-90322381D01*
X64795239Y-90370000D01*
X64842858Y-90417619D01*
X64890477Y-90512857D01*
X64938096Y-90703333D01*
X64938096Y-90941429D01*
X64890477Y-91131905D01*
X64842858Y-91227143D01*
X64795239Y-91274762D01*
X64700001Y-91322381D01*
X64604762Y-91322381D01*
X64509524Y-91274762D01*
X64461905Y-91227143D01*
X64414286Y-91131905D01*
X64366667Y-90941429D01*
X64366667Y-90703333D01*
X64414286Y-90512857D01*
X64461905Y-90417619D01*
X64509524Y-90370000D01*
X64604762Y-90322381D01*
X65938096Y-91322381D02*
X65604762Y-90846190D01*
X65366667Y-91322381D02*
X65366667Y-90322381D01*
X65747620Y-90322381D01*
X65842858Y-90370000D01*
X65890477Y-90417619D01*
X65938096Y-90512857D01*
X65938096Y-90655714D01*
X65890477Y-90750952D01*
X65842858Y-90798571D01*
X65747620Y-90846190D01*
X65366667Y-90846190D01*
D12*
X64158333Y-89813095D02*
X64039286Y-89813095D01*
X64039286Y-89563095D01*
X64360714Y-89563095D02*
X64241667Y-89563095D01*
X64229762Y-89682143D01*
X64241667Y-89670238D01*
X64265476Y-89658333D01*
X64325000Y-89658333D01*
X64348810Y-89670238D01*
X64360714Y-89682143D01*
X64372619Y-89705952D01*
X64372619Y-89765476D01*
X64360714Y-89789286D01*
X64348810Y-89801190D01*
X64325000Y-89813095D01*
X64265476Y-89813095D01*
X64241667Y-89801190D01*
X64229762Y-89789286D01*
D11*
X89738096Y-86155714D02*
X89738096Y-86822381D01*
X89500000Y-85774762D02*
X89261905Y-86489048D01*
X89880953Y-86489048D01*
X90166667Y-85822381D02*
X90833334Y-85822381D01*
X90404762Y-86822381D01*
X91214286Y-86155714D02*
X91214286Y-86822381D01*
X91214286Y-86250952D02*
X91261905Y-86203333D01*
X91357143Y-86155714D01*
X91500001Y-86155714D01*
X91595239Y-86203333D01*
X91642858Y-86298571D01*
X91642858Y-86822381D01*
X92119048Y-86822381D02*
X92119048Y-85822381D01*
X92119048Y-86298571D02*
X92690477Y-86298571D01*
X92690477Y-86822381D02*
X92690477Y-85822381D01*
D14*
X90933333Y-87980952D02*
X90742857Y-87980952D01*
X90742857Y-87580952D01*
X91238096Y-87580952D02*
X91161905Y-87580952D01*
X91123810Y-87600000D01*
X91104762Y-87619048D01*
X91066667Y-87676190D01*
X91047619Y-87752381D01*
X91047619Y-87904762D01*
X91066667Y-87942857D01*
X91085715Y-87961905D01*
X91123810Y-87980952D01*
X91200000Y-87980952D01*
X91238096Y-87961905D01*
X91257143Y-87942857D01*
X91276191Y-87904762D01*
X91276191Y-87809524D01*
X91257143Y-87771429D01*
X91238096Y-87752381D01*
X91200000Y-87733333D01*
X91123810Y-87733333D01*
X91085715Y-87752381D01*
X91066667Y-87771429D01*
X91047619Y-87809524D01*
D11*
X73252381Y-89222381D02*
X73347620Y-89222381D01*
X73442858Y-89270000D01*
X73490477Y-89317619D01*
X73538096Y-89412857D01*
X73585715Y-89603333D01*
X73585715Y-89841429D01*
X73538096Y-90031905D01*
X73490477Y-90127143D01*
X73442858Y-90174762D01*
X73347620Y-90222381D01*
X73252381Y-90222381D01*
X73157143Y-90174762D01*
X73109524Y-90127143D01*
X73061905Y-90031905D01*
X73014286Y-89841429D01*
X73014286Y-89603333D01*
X73061905Y-89412857D01*
X73109524Y-89317619D01*
X73157143Y-89270000D01*
X73252381Y-89222381D01*
X74585715Y-90222381D02*
X74252381Y-89746190D01*
X74014286Y-90222381D02*
X74014286Y-89222381D01*
X74395239Y-89222381D01*
X74490477Y-89270000D01*
X74538096Y-89317619D01*
X74585715Y-89412857D01*
X74585715Y-89555714D01*
X74538096Y-89650952D01*
X74490477Y-89698571D01*
X74395239Y-89746190D01*
X74014286Y-89746190D01*
D12*
X73758334Y-88713095D02*
X73675001Y-88594048D01*
X73615477Y-88713095D02*
X73615477Y-88463095D01*
X73710715Y-88463095D01*
X73734524Y-88475000D01*
X73746429Y-88486905D01*
X73758334Y-88510714D01*
X73758334Y-88546429D01*
X73746429Y-88570238D01*
X73734524Y-88582143D01*
X73710715Y-88594048D01*
X73615477Y-88594048D01*
X73853572Y-88486905D02*
X73865477Y-88475000D01*
X73889286Y-88463095D01*
X73948810Y-88463095D01*
X73972620Y-88475000D01*
X73984524Y-88486905D01*
X73996429Y-88510714D01*
X73996429Y-88534524D01*
X73984524Y-88570238D01*
X73841667Y-88713095D01*
X73996429Y-88713095D01*
D11*
X59938095Y-90517619D02*
X59985714Y-90470000D01*
X60080952Y-90422381D01*
X60319048Y-90422381D01*
X60414286Y-90470000D01*
X60461905Y-90517619D01*
X60509524Y-90612857D01*
X60509524Y-90708095D01*
X60461905Y-90850952D01*
X59890476Y-91422381D01*
X60509524Y-91422381D01*
X60938095Y-91422381D02*
X60938095Y-90422381D01*
X61509524Y-91422381D02*
X61080952Y-90850952D01*
X61509524Y-90422381D02*
X60938095Y-90993810D01*
X61890476Y-90517619D02*
X61938095Y-90470000D01*
X62033333Y-90422381D01*
X62271429Y-90422381D01*
X62366667Y-90470000D01*
X62414286Y-90517619D01*
X62461905Y-90612857D01*
X62461905Y-90708095D01*
X62414286Y-90850952D01*
X61842857Y-91422381D01*
X62461905Y-91422381D01*
D12*
X61158334Y-89913095D02*
X61075001Y-89794048D01*
X61015477Y-89913095D02*
X61015477Y-89663095D01*
X61110715Y-89663095D01*
X61134524Y-89675000D01*
X61146429Y-89686905D01*
X61158334Y-89710714D01*
X61158334Y-89746429D01*
X61146429Y-89770238D01*
X61134524Y-89782143D01*
X61110715Y-89794048D01*
X61015477Y-89794048D01*
X61372620Y-89663095D02*
X61325001Y-89663095D01*
X61301191Y-89675000D01*
X61289286Y-89686905D01*
X61265477Y-89722619D01*
X61253572Y-89770238D01*
X61253572Y-89865476D01*
X61265477Y-89889286D01*
X61277382Y-89901190D01*
X61301191Y-89913095D01*
X61348810Y-89913095D01*
X61372620Y-89901190D01*
X61384524Y-89889286D01*
X61396429Y-89865476D01*
X61396429Y-89805952D01*
X61384524Y-89782143D01*
X61372620Y-89770238D01*
X61348810Y-89758333D01*
X61301191Y-89758333D01*
X61277382Y-89770238D01*
X61265477Y-89782143D01*
X61253572Y-89805952D01*
D11*
X58877619Y-86161905D02*
X58830000Y-86114286D01*
X58782381Y-86019048D01*
X58782381Y-85780952D01*
X58830000Y-85685714D01*
X58877619Y-85638095D01*
X58972857Y-85590476D01*
X59068095Y-85590476D01*
X59210952Y-85638095D01*
X59782381Y-86209524D01*
X59782381Y-85590476D01*
X59782381Y-85161905D02*
X58782381Y-85161905D01*
X59782381Y-84590476D02*
X59210952Y-85019048D01*
X58782381Y-84590476D02*
X59353810Y-85161905D01*
X58877619Y-84209524D02*
X58830000Y-84161905D01*
X58782381Y-84066667D01*
X58782381Y-83828571D01*
X58830000Y-83733333D01*
X58877619Y-83685714D01*
X58972857Y-83638095D01*
X59068095Y-83638095D01*
X59210952Y-83685714D01*
X59782381Y-84257143D01*
X59782381Y-83638095D01*
D12*
X60613095Y-84941666D02*
X60494048Y-85024999D01*
X60613095Y-85084523D02*
X60363095Y-85084523D01*
X60363095Y-84989285D01*
X60375000Y-84965476D01*
X60386905Y-84953571D01*
X60410714Y-84941666D01*
X60446429Y-84941666D01*
X60470238Y-84953571D01*
X60482143Y-84965476D01*
X60494048Y-84989285D01*
X60494048Y-85084523D01*
X60363095Y-84858333D02*
X60363095Y-84691666D01*
X60613095Y-84798809D01*
D11*
X94738095Y-100477619D02*
X94785714Y-100430000D01*
X94880952Y-100382381D01*
X95119048Y-100382381D01*
X95214286Y-100430000D01*
X95261905Y-100477619D01*
X95309524Y-100572857D01*
X95309524Y-100668095D01*
X95261905Y-100810952D01*
X94690476Y-101382381D01*
X95309524Y-101382381D01*
X95738095Y-101382381D02*
X95738095Y-100382381D01*
X96309524Y-101382381D02*
X95880952Y-100810952D01*
X96309524Y-100382381D02*
X95738095Y-100953810D01*
X96690476Y-100477619D02*
X96738095Y-100430000D01*
X96833333Y-100382381D01*
X97071429Y-100382381D01*
X97166667Y-100430000D01*
X97214286Y-100477619D01*
X97261905Y-100572857D01*
X97261905Y-100668095D01*
X97214286Y-100810952D01*
X96642857Y-101382381D01*
X97261905Y-101382381D01*
D12*
X95904386Y-102316295D02*
X95821053Y-102197248D01*
X95761529Y-102316295D02*
X95761529Y-102066295D01*
X95856767Y-102066295D01*
X95880576Y-102078200D01*
X95892481Y-102090105D01*
X95904386Y-102113914D01*
X95904386Y-102149629D01*
X95892481Y-102173438D01*
X95880576Y-102185343D01*
X95856767Y-102197248D01*
X95761529Y-102197248D01*
X96142481Y-102316295D02*
X95999624Y-102316295D01*
X96071053Y-102316295D02*
X96071053Y-102066295D01*
X96047243Y-102102010D01*
X96023434Y-102125819D01*
X95999624Y-102137724D01*
X96297243Y-102066295D02*
X96321052Y-102066295D01*
X96344862Y-102078200D01*
X96356767Y-102090105D01*
X96368671Y-102113914D01*
X96380576Y-102161533D01*
X96380576Y-102221057D01*
X96368671Y-102268676D01*
X96356767Y-102292486D01*
X96344862Y-102304390D01*
X96321052Y-102316295D01*
X96297243Y-102316295D01*
X96273433Y-102304390D01*
X96261529Y-102292486D01*
X96249624Y-102268676D01*
X96237719Y-102221057D01*
X96237719Y-102161533D01*
X96249624Y-102113914D01*
X96261529Y-102090105D01*
X96273433Y-102078200D01*
X96297243Y-102066295D01*
D11*
X94738095Y-102577619D02*
X94785714Y-102530000D01*
X94880952Y-102482381D01*
X95119048Y-102482381D01*
X95214286Y-102530000D01*
X95261905Y-102577619D01*
X95309524Y-102672857D01*
X95309524Y-102768095D01*
X95261905Y-102910952D01*
X94690476Y-103482381D01*
X95309524Y-103482381D01*
X95738095Y-103482381D02*
X95738095Y-102482381D01*
X96309524Y-103482381D02*
X95880952Y-102910952D01*
X96309524Y-102482381D02*
X95738095Y-103053810D01*
X96690476Y-102577619D02*
X96738095Y-102530000D01*
X96833333Y-102482381D01*
X97071429Y-102482381D01*
X97166667Y-102530000D01*
X97214286Y-102577619D01*
X97261905Y-102672857D01*
X97261905Y-102768095D01*
X97214286Y-102910952D01*
X96642857Y-103482381D01*
X97261905Y-103482381D01*
D12*
X95839286Y-104313095D02*
X95755953Y-104194048D01*
X95696429Y-104313095D02*
X95696429Y-104063095D01*
X95791667Y-104063095D01*
X95815476Y-104075000D01*
X95827381Y-104086905D01*
X95839286Y-104110714D01*
X95839286Y-104146429D01*
X95827381Y-104170238D01*
X95815476Y-104182143D01*
X95791667Y-104194048D01*
X95696429Y-104194048D01*
X96077381Y-104313095D02*
X95934524Y-104313095D01*
X96005953Y-104313095D02*
X96005953Y-104063095D01*
X95982143Y-104098810D01*
X95958334Y-104122619D01*
X95934524Y-104134524D01*
X96315476Y-104313095D02*
X96172619Y-104313095D01*
X96244048Y-104313095D02*
X96244048Y-104063095D01*
X96220238Y-104098810D01*
X96196429Y-104122619D01*
X96172619Y-104134524D01*
D11*
X54282381Y-85690476D02*
X54282381Y-86261905D01*
X54282381Y-85976191D02*
X53282381Y-85976191D01*
X53425238Y-86071429D01*
X53520476Y-86166667D01*
X53568095Y-86261905D01*
X53282381Y-85071429D02*
X53282381Y-84976190D01*
X53330000Y-84880952D01*
X53377619Y-84833333D01*
X53472857Y-84785714D01*
X53663333Y-84738095D01*
X53901429Y-84738095D01*
X54091905Y-84785714D01*
X54187143Y-84833333D01*
X54234762Y-84880952D01*
X54282381Y-84976190D01*
X54282381Y-85071429D01*
X54234762Y-85166667D01*
X54187143Y-85214286D01*
X54091905Y-85261905D01*
X53901429Y-85309524D01*
X53663333Y-85309524D01*
X53472857Y-85261905D01*
X53377619Y-85214286D01*
X53330000Y-85166667D01*
X53282381Y-85071429D01*
X54282381Y-83738095D02*
X53806190Y-84071429D01*
X54282381Y-84309524D02*
X53282381Y-84309524D01*
X53282381Y-83928571D01*
X53330000Y-83833333D01*
X53377619Y-83785714D01*
X53472857Y-83738095D01*
X53615714Y-83738095D01*
X53710952Y-83785714D01*
X53758571Y-83833333D01*
X53806190Y-83928571D01*
X53806190Y-84309524D01*
D12*
X55113095Y-85160714D02*
X54994048Y-85244047D01*
X55113095Y-85303571D02*
X54863095Y-85303571D01*
X54863095Y-85208333D01*
X54875000Y-85184524D01*
X54886905Y-85172619D01*
X54910714Y-85160714D01*
X54946429Y-85160714D01*
X54970238Y-85172619D01*
X54982143Y-85184524D01*
X54994048Y-85208333D01*
X54994048Y-85303571D01*
X55113095Y-84922619D02*
X55113095Y-85065476D01*
X55113095Y-84994047D02*
X54863095Y-84994047D01*
X54898810Y-85017857D01*
X54922619Y-85041666D01*
X54934524Y-85065476D01*
X54886905Y-84827381D02*
X54875000Y-84815476D01*
X54863095Y-84791667D01*
X54863095Y-84732143D01*
X54875000Y-84708333D01*
X54886905Y-84696429D01*
X54910714Y-84684524D01*
X54934524Y-84684524D01*
X54970238Y-84696429D01*
X55113095Y-84839286D01*
X55113095Y-84684524D01*
D11*
X60409524Y-93622381D02*
X59838095Y-93622381D01*
X60123809Y-93622381D02*
X60123809Y-92622381D01*
X60028571Y-92765238D01*
X59933333Y-92860476D01*
X59838095Y-92908095D01*
X61028571Y-92622381D02*
X61123810Y-92622381D01*
X61219048Y-92670000D01*
X61266667Y-92717619D01*
X61314286Y-92812857D01*
X61361905Y-93003333D01*
X61361905Y-93241429D01*
X61314286Y-93431905D01*
X61266667Y-93527143D01*
X61219048Y-93574762D01*
X61123810Y-93622381D01*
X61028571Y-93622381D01*
X60933333Y-93574762D01*
X60885714Y-93527143D01*
X60838095Y-93431905D01*
X60790476Y-93241429D01*
X60790476Y-93003333D01*
X60838095Y-92812857D01*
X60885714Y-92717619D01*
X60933333Y-92670000D01*
X61028571Y-92622381D01*
X62361905Y-93622381D02*
X62028571Y-93146190D01*
X61790476Y-93622381D02*
X61790476Y-92622381D01*
X62171429Y-92622381D01*
X62266667Y-92670000D01*
X62314286Y-92717619D01*
X62361905Y-92812857D01*
X62361905Y-92955714D01*
X62314286Y-93050952D01*
X62266667Y-93098571D01*
X62171429Y-93146190D01*
X61790476Y-93146190D01*
D12*
X60939286Y-92113095D02*
X60855953Y-91994048D01*
X60796429Y-92113095D02*
X60796429Y-91863095D01*
X60891667Y-91863095D01*
X60915476Y-91875000D01*
X60927381Y-91886905D01*
X60939286Y-91910714D01*
X60939286Y-91946429D01*
X60927381Y-91970238D01*
X60915476Y-91982143D01*
X60891667Y-91994048D01*
X60796429Y-91994048D01*
X61177381Y-92113095D02*
X61034524Y-92113095D01*
X61105953Y-92113095D02*
X61105953Y-91863095D01*
X61082143Y-91898810D01*
X61058334Y-91922619D01*
X61034524Y-91934524D01*
X61260714Y-91863095D02*
X61415476Y-91863095D01*
X61332143Y-91958333D01*
X61367857Y-91958333D01*
X61391667Y-91970238D01*
X61403571Y-91982143D01*
X61415476Y-92005952D01*
X61415476Y-92065476D01*
X61403571Y-92089286D01*
X61391667Y-92101190D01*
X61367857Y-92113095D01*
X61296429Y-92113095D01*
X61272619Y-92101190D01*
X61260714Y-92089286D01*
D11*
X57514286Y-86982381D02*
X57323809Y-86982381D01*
X57228571Y-87030000D01*
X57180952Y-87077619D01*
X57085714Y-87220476D01*
X57038095Y-87410952D01*
X57038095Y-87791905D01*
X57085714Y-87887143D01*
X57133333Y-87934762D01*
X57228571Y-87982381D01*
X57419048Y-87982381D01*
X57514286Y-87934762D01*
X57561905Y-87887143D01*
X57609524Y-87791905D01*
X57609524Y-87553810D01*
X57561905Y-87458571D01*
X57514286Y-87410952D01*
X57419048Y-87363333D01*
X57228571Y-87363333D01*
X57133333Y-87410952D01*
X57085714Y-87458571D01*
X57038095Y-87553810D01*
X58180952Y-87410952D02*
X58085714Y-87363333D01*
X58038095Y-87315714D01*
X57990476Y-87220476D01*
X57990476Y-87172857D01*
X58038095Y-87077619D01*
X58085714Y-87030000D01*
X58180952Y-86982381D01*
X58371429Y-86982381D01*
X58466667Y-87030000D01*
X58514286Y-87077619D01*
X58561905Y-87172857D01*
X58561905Y-87220476D01*
X58514286Y-87315714D01*
X58466667Y-87363333D01*
X58371429Y-87410952D01*
X58180952Y-87410952D01*
X58085714Y-87458571D01*
X58038095Y-87506190D01*
X57990476Y-87601429D01*
X57990476Y-87791905D01*
X58038095Y-87887143D01*
X58085714Y-87934762D01*
X58180952Y-87982381D01*
X58371429Y-87982381D01*
X58466667Y-87934762D01*
X58514286Y-87887143D01*
X58561905Y-87791905D01*
X58561905Y-87601429D01*
X58514286Y-87506190D01*
X58466667Y-87458571D01*
X58371429Y-87410952D01*
X59561905Y-87982381D02*
X59228571Y-87506190D01*
X58990476Y-87982381D02*
X58990476Y-86982381D01*
X59371429Y-86982381D01*
X59466667Y-87030000D01*
X59514286Y-87077619D01*
X59561905Y-87172857D01*
X59561905Y-87315714D01*
X59514286Y-87410952D01*
X59466667Y-87458571D01*
X59371429Y-87506190D01*
X58990476Y-87506190D01*
D12*
X58139286Y-88813095D02*
X58055953Y-88694048D01*
X57996429Y-88813095D02*
X57996429Y-88563095D01*
X58091667Y-88563095D01*
X58115476Y-88575000D01*
X58127381Y-88586905D01*
X58139286Y-88610714D01*
X58139286Y-88646429D01*
X58127381Y-88670238D01*
X58115476Y-88682143D01*
X58091667Y-88694048D01*
X57996429Y-88694048D01*
X58377381Y-88813095D02*
X58234524Y-88813095D01*
X58305953Y-88813095D02*
X58305953Y-88563095D01*
X58282143Y-88598810D01*
X58258334Y-88622619D01*
X58234524Y-88634524D01*
X58591667Y-88646429D02*
X58591667Y-88813095D01*
X58532143Y-88551190D02*
X58472619Y-88729762D01*
X58627381Y-88729762D01*
D11*
X95214286Y-106455714D02*
X95214286Y-107122381D01*
X94976190Y-106074762D02*
X94738095Y-106789048D01*
X95357143Y-106789048D01*
X95738095Y-107122381D02*
X95738095Y-106122381D01*
X96309524Y-107122381D02*
X95880952Y-106550952D01*
X96309524Y-106122381D02*
X95738095Y-106693810D01*
X96642857Y-106122381D02*
X97309524Y-106122381D01*
X96880952Y-107122381D01*
D12*
X96221486Y-105535295D02*
X96138153Y-105416248D01*
X96078629Y-105535295D02*
X96078629Y-105285295D01*
X96173867Y-105285295D01*
X96197676Y-105297200D01*
X96209581Y-105309105D01*
X96221486Y-105332914D01*
X96221486Y-105368629D01*
X96209581Y-105392438D01*
X96197676Y-105404343D01*
X96173867Y-105416248D01*
X96078629Y-105416248D01*
X96459581Y-105535295D02*
X96316724Y-105535295D01*
X96388153Y-105535295D02*
X96388153Y-105285295D01*
X96364343Y-105321010D01*
X96340534Y-105344819D01*
X96316724Y-105356724D01*
X96578629Y-105535295D02*
X96626248Y-105535295D01*
X96650057Y-105523390D01*
X96661962Y-105511486D01*
X96685771Y-105475771D01*
X96697676Y-105428152D01*
X96697676Y-105332914D01*
X96685771Y-105309105D01*
X96673867Y-105297200D01*
X96650057Y-105285295D01*
X96602438Y-105285295D01*
X96578629Y-105297200D01*
X96566724Y-105309105D01*
X96554819Y-105332914D01*
X96554819Y-105392438D01*
X96566724Y-105416248D01*
X96578629Y-105428152D01*
X96602438Y-105440057D01*
X96650057Y-105440057D01*
X96673867Y-105428152D01*
X96685771Y-105416248D01*
X96697676Y-105392438D01*
D11*
X76109524Y-85782381D02*
X75538095Y-85782381D01*
X75823809Y-85782381D02*
X75823809Y-84782381D01*
X75728571Y-84925238D01*
X75633333Y-85020476D01*
X75538095Y-85068095D01*
X76728571Y-84782381D02*
X76823810Y-84782381D01*
X76919048Y-84830000D01*
X76966667Y-84877619D01*
X77014286Y-84972857D01*
X77061905Y-85163333D01*
X77061905Y-85401429D01*
X77014286Y-85591905D01*
X76966667Y-85687143D01*
X76919048Y-85734762D01*
X76823810Y-85782381D01*
X76728571Y-85782381D01*
X76633333Y-85734762D01*
X76585714Y-85687143D01*
X76538095Y-85591905D01*
X76490476Y-85401429D01*
X76490476Y-85163333D01*
X76538095Y-84972857D01*
X76585714Y-84877619D01*
X76633333Y-84830000D01*
X76728571Y-84782381D01*
X78061905Y-85782381D02*
X77728571Y-85306190D01*
X77490476Y-85782381D02*
X77490476Y-84782381D01*
X77871429Y-84782381D01*
X77966667Y-84830000D01*
X78014286Y-84877619D01*
X78061905Y-84972857D01*
X78061905Y-85115714D01*
X78014286Y-85210952D01*
X77966667Y-85258571D01*
X77871429Y-85306190D01*
X77490476Y-85306190D01*
D12*
X76639286Y-86613095D02*
X76555953Y-86494048D01*
X76496429Y-86613095D02*
X76496429Y-86363095D01*
X76591667Y-86363095D01*
X76615476Y-86375000D01*
X76627381Y-86386905D01*
X76639286Y-86410714D01*
X76639286Y-86446429D01*
X76627381Y-86470238D01*
X76615476Y-86482143D01*
X76591667Y-86494048D01*
X76496429Y-86494048D01*
X76734524Y-86386905D02*
X76746429Y-86375000D01*
X76770238Y-86363095D01*
X76829762Y-86363095D01*
X76853572Y-86375000D01*
X76865476Y-86386905D01*
X76877381Y-86410714D01*
X76877381Y-86434524D01*
X76865476Y-86470238D01*
X76722619Y-86613095D01*
X76877381Y-86613095D01*
X77032143Y-86363095D02*
X77055952Y-86363095D01*
X77079762Y-86375000D01*
X77091667Y-86386905D01*
X77103571Y-86410714D01*
X77115476Y-86458333D01*
X77115476Y-86517857D01*
X77103571Y-86565476D01*
X77091667Y-86589286D01*
X77079762Y-86601190D01*
X77055952Y-86613095D01*
X77032143Y-86613095D01*
X77008333Y-86601190D01*
X76996429Y-86589286D01*
X76984524Y-86565476D01*
X76972619Y-86517857D01*
X76972619Y-86458333D01*
X76984524Y-86410714D01*
X76996429Y-86386905D01*
X77008333Y-86375000D01*
X77032143Y-86363095D01*
D11*
X86452381Y-90122381D02*
X86547620Y-90122381D01*
X86642858Y-90170000D01*
X86690477Y-90217619D01*
X86738096Y-90312857D01*
X86785715Y-90503333D01*
X86785715Y-90741429D01*
X86738096Y-90931905D01*
X86690477Y-91027143D01*
X86642858Y-91074762D01*
X86547620Y-91122381D01*
X86452381Y-91122381D01*
X86357143Y-91074762D01*
X86309524Y-91027143D01*
X86261905Y-90931905D01*
X86214286Y-90741429D01*
X86214286Y-90503333D01*
X86261905Y-90312857D01*
X86309524Y-90217619D01*
X86357143Y-90170000D01*
X86452381Y-90122381D01*
X87785715Y-91122381D02*
X87452381Y-90646190D01*
X87214286Y-91122381D02*
X87214286Y-90122381D01*
X87595239Y-90122381D01*
X87690477Y-90170000D01*
X87738096Y-90217619D01*
X87785715Y-90312857D01*
X87785715Y-90455714D01*
X87738096Y-90550952D01*
X87690477Y-90598571D01*
X87595239Y-90646190D01*
X87214286Y-90646190D01*
D12*
X86839286Y-89613095D02*
X86755953Y-89494048D01*
X86696429Y-89613095D02*
X86696429Y-89363095D01*
X86791667Y-89363095D01*
X86815476Y-89375000D01*
X86827381Y-89386905D01*
X86839286Y-89410714D01*
X86839286Y-89446429D01*
X86827381Y-89470238D01*
X86815476Y-89482143D01*
X86791667Y-89494048D01*
X86696429Y-89494048D01*
X86934524Y-89386905D02*
X86946429Y-89375000D01*
X86970238Y-89363095D01*
X87029762Y-89363095D01*
X87053572Y-89375000D01*
X87065476Y-89386905D01*
X87077381Y-89410714D01*
X87077381Y-89434524D01*
X87065476Y-89470238D01*
X86922619Y-89613095D01*
X87077381Y-89613095D01*
X87315476Y-89613095D02*
X87172619Y-89613095D01*
X87244048Y-89613095D02*
X87244048Y-89363095D01*
X87220238Y-89398810D01*
X87196429Y-89422619D01*
X87172619Y-89434524D01*
D11*
X94952381Y-116782381D02*
X95047620Y-116782381D01*
X95142858Y-116830000D01*
X95190477Y-116877619D01*
X95238096Y-116972857D01*
X95285715Y-117163333D01*
X95285715Y-117401429D01*
X95238096Y-117591905D01*
X95190477Y-117687143D01*
X95142858Y-117734762D01*
X95047620Y-117782381D01*
X94952381Y-117782381D01*
X94857143Y-117734762D01*
X94809524Y-117687143D01*
X94761905Y-117591905D01*
X94714286Y-117401429D01*
X94714286Y-117163333D01*
X94761905Y-116972857D01*
X94809524Y-116877619D01*
X94857143Y-116830000D01*
X94952381Y-116782381D01*
X96285715Y-117782381D02*
X95952381Y-117306190D01*
X95714286Y-117782381D02*
X95714286Y-116782381D01*
X96095239Y-116782381D01*
X96190477Y-116830000D01*
X96238096Y-116877619D01*
X96285715Y-116972857D01*
X96285715Y-117115714D01*
X96238096Y-117210952D01*
X96190477Y-117258571D01*
X96095239Y-117306190D01*
X95714286Y-117306190D01*
D12*
X95339286Y-118613095D02*
X95255953Y-118494048D01*
X95196429Y-118613095D02*
X95196429Y-118363095D01*
X95291667Y-118363095D01*
X95315476Y-118375000D01*
X95327381Y-118386905D01*
X95339286Y-118410714D01*
X95339286Y-118446429D01*
X95327381Y-118470238D01*
X95315476Y-118482143D01*
X95291667Y-118494048D01*
X95196429Y-118494048D01*
X95434524Y-118386905D02*
X95446429Y-118375000D01*
X95470238Y-118363095D01*
X95529762Y-118363095D01*
X95553572Y-118375000D01*
X95565476Y-118386905D01*
X95577381Y-118410714D01*
X95577381Y-118434524D01*
X95565476Y-118470238D01*
X95422619Y-118613095D01*
X95577381Y-118613095D01*
X95791667Y-118446429D02*
X95791667Y-118613095D01*
X95732143Y-118351190D02*
X95672619Y-118529762D01*
X95827381Y-118529762D01*
D11*
X95452381Y-97282381D02*
X95547620Y-97282381D01*
X95642858Y-97330000D01*
X95690477Y-97377619D01*
X95738096Y-97472857D01*
X95785715Y-97663333D01*
X95785715Y-97901429D01*
X95738096Y-98091905D01*
X95690477Y-98187143D01*
X95642858Y-98234762D01*
X95547620Y-98282381D01*
X95452381Y-98282381D01*
X95357143Y-98234762D01*
X95309524Y-98187143D01*
X95261905Y-98091905D01*
X95214286Y-97901429D01*
X95214286Y-97663333D01*
X95261905Y-97472857D01*
X95309524Y-97377619D01*
X95357143Y-97330000D01*
X95452381Y-97282381D01*
X96785715Y-98282381D02*
X96452381Y-97806190D01*
X96214286Y-98282381D02*
X96214286Y-97282381D01*
X96595239Y-97282381D01*
X96690477Y-97330000D01*
X96738096Y-97377619D01*
X96785715Y-97472857D01*
X96785715Y-97615714D01*
X96738096Y-97710952D01*
X96690477Y-97758571D01*
X96595239Y-97806190D01*
X96214286Y-97806190D01*
D12*
X95839286Y-99113095D02*
X95755953Y-98994048D01*
X95696429Y-99113095D02*
X95696429Y-98863095D01*
X95791667Y-98863095D01*
X95815476Y-98875000D01*
X95827381Y-98886905D01*
X95839286Y-98910714D01*
X95839286Y-98946429D01*
X95827381Y-98970238D01*
X95815476Y-98982143D01*
X95791667Y-98994048D01*
X95696429Y-98994048D01*
X95934524Y-98886905D02*
X95946429Y-98875000D01*
X95970238Y-98863095D01*
X96029762Y-98863095D01*
X96053572Y-98875000D01*
X96065476Y-98886905D01*
X96077381Y-98910714D01*
X96077381Y-98934524D01*
X96065476Y-98970238D01*
X95922619Y-99113095D01*
X96077381Y-99113095D01*
X96291667Y-98863095D02*
X96244048Y-98863095D01*
X96220238Y-98875000D01*
X96208333Y-98886905D01*
X96184524Y-98922619D01*
X96172619Y-98970238D01*
X96172619Y-99065476D01*
X96184524Y-99089286D01*
X96196429Y-99101190D01*
X96220238Y-99113095D01*
X96267857Y-99113095D01*
X96291667Y-99101190D01*
X96303571Y-99089286D01*
X96315476Y-99065476D01*
X96315476Y-99005952D01*
X96303571Y-98982143D01*
X96291667Y-98970238D01*
X96267857Y-98958333D01*
X96220238Y-98958333D01*
X96196429Y-98970238D01*
X96184524Y-98982143D01*
X96172619Y-99005952D01*
D11*
X89809524Y-88882381D02*
X89238095Y-88882381D01*
X89523809Y-88882381D02*
X89523809Y-87882381D01*
X89428571Y-88025238D01*
X89333333Y-88120476D01*
X89238095Y-88168095D01*
X90428571Y-87882381D02*
X90523810Y-87882381D01*
X90619048Y-87930000D01*
X90666667Y-87977619D01*
X90714286Y-88072857D01*
X90761905Y-88263333D01*
X90761905Y-88501429D01*
X90714286Y-88691905D01*
X90666667Y-88787143D01*
X90619048Y-88834762D01*
X90523810Y-88882381D01*
X90428571Y-88882381D01*
X90333333Y-88834762D01*
X90285714Y-88787143D01*
X90238095Y-88691905D01*
X90190476Y-88501429D01*
X90190476Y-88263333D01*
X90238095Y-88072857D01*
X90285714Y-87977619D01*
X90333333Y-87930000D01*
X90428571Y-87882381D01*
X91761905Y-88882381D02*
X91428571Y-88406190D01*
X91190476Y-88882381D02*
X91190476Y-87882381D01*
X91571429Y-87882381D01*
X91666667Y-87930000D01*
X91714286Y-87977619D01*
X91761905Y-88072857D01*
X91761905Y-88215714D01*
X91714286Y-88310952D01*
X91666667Y-88358571D01*
X91571429Y-88406190D01*
X91190476Y-88406190D01*
D12*
X90339286Y-89713095D02*
X90255953Y-89594048D01*
X90196429Y-89713095D02*
X90196429Y-89463095D01*
X90291667Y-89463095D01*
X90315476Y-89475000D01*
X90327381Y-89486905D01*
X90339286Y-89510714D01*
X90339286Y-89546429D01*
X90327381Y-89570238D01*
X90315476Y-89582143D01*
X90291667Y-89594048D01*
X90196429Y-89594048D01*
X90434524Y-89486905D02*
X90446429Y-89475000D01*
X90470238Y-89463095D01*
X90529762Y-89463095D01*
X90553572Y-89475000D01*
X90565476Y-89486905D01*
X90577381Y-89510714D01*
X90577381Y-89534524D01*
X90565476Y-89570238D01*
X90422619Y-89713095D01*
X90577381Y-89713095D01*
X90660714Y-89463095D02*
X90827381Y-89463095D01*
X90720238Y-89713095D01*
D11*
X62382381Y-97437142D02*
X62382381Y-98008571D01*
X62382381Y-97722857D02*
X61382381Y-97722857D01*
X61525238Y-97818095D01*
X61620476Y-97913333D01*
X61668095Y-98008571D01*
X62382381Y-97008571D02*
X61382381Y-97008571D01*
X62382381Y-96437142D02*
X61810952Y-96865714D01*
X61382381Y-96437142D02*
X61953810Y-97008571D01*
X61382381Y-95818095D02*
X61382381Y-95627618D01*
X61430000Y-95532380D01*
X61525238Y-95437142D01*
X61715714Y-95389523D01*
X62049048Y-95389523D01*
X62239524Y-95437142D01*
X62334762Y-95532380D01*
X62382381Y-95627618D01*
X62382381Y-95818095D01*
X62334762Y-95913333D01*
X62239524Y-96008571D01*
X62049048Y-96056190D01*
X61715714Y-96056190D01*
X61525238Y-96008571D01*
X61430000Y-95913333D01*
X61382381Y-95818095D01*
X62382381Y-94960952D02*
X61382381Y-94960952D01*
X62382381Y-94532380D02*
X61858571Y-94532380D01*
X61763333Y-94579999D01*
X61715714Y-94675237D01*
X61715714Y-94818095D01*
X61763333Y-94913333D01*
X61810952Y-94960952D01*
X62382381Y-94056190D02*
X61715714Y-94056190D01*
X61810952Y-94056190D02*
X61763333Y-94008571D01*
X61715714Y-93913333D01*
X61715714Y-93770475D01*
X61763333Y-93675237D01*
X61858571Y-93627618D01*
X62382381Y-93627618D01*
X61858571Y-93627618D02*
X61763333Y-93579999D01*
X61715714Y-93484761D01*
X61715714Y-93341904D01*
X61763333Y-93246666D01*
X61858571Y-93199047D01*
X62382381Y-93199047D01*
D14*
X60680952Y-95646667D02*
X60680952Y-95837143D01*
X60280952Y-95837143D01*
X60280952Y-95551428D02*
X60280952Y-95284761D01*
X60680952Y-95456190D01*
D11*
X88992858Y-86772381D02*
X88421429Y-86772381D01*
X88707143Y-86772381D02*
X88707143Y-85772381D01*
X88611905Y-85915238D01*
X88516667Y-86010476D01*
X88421429Y-86058095D01*
X89421429Y-86772381D02*
X89421429Y-85772381D01*
X89992858Y-86772381D02*
X89564286Y-86200952D01*
X89992858Y-85772381D02*
X89421429Y-86343810D01*
X90611905Y-85772381D02*
X90802382Y-85772381D01*
X90897620Y-85820000D01*
X90992858Y-85915238D01*
X91040477Y-86105714D01*
X91040477Y-86439048D01*
X90992858Y-86629524D01*
X90897620Y-86724762D01*
X90802382Y-86772381D01*
X90611905Y-86772381D01*
X90516667Y-86724762D01*
X90421429Y-86629524D01*
X90373810Y-86439048D01*
X90373810Y-86105714D01*
X90421429Y-85915238D01*
X90516667Y-85820000D01*
X90611905Y-85772381D01*
X91469048Y-86772381D02*
X91469048Y-85772381D01*
X91897620Y-86772381D02*
X91897620Y-86248571D01*
X91850001Y-86153333D01*
X91754763Y-86105714D01*
X91611905Y-86105714D01*
X91516667Y-86153333D01*
X91469048Y-86200952D01*
X92373810Y-86772381D02*
X92373810Y-86105714D01*
X92373810Y-86200952D02*
X92421429Y-86153333D01*
X92516667Y-86105714D01*
X92659525Y-86105714D01*
X92754763Y-86153333D01*
X92802382Y-86248571D01*
X92802382Y-86772381D01*
X92802382Y-86248571D02*
X92850001Y-86153333D01*
X92945239Y-86105714D01*
X93088096Y-86105714D01*
X93183334Y-86153333D01*
X93230953Y-86248571D01*
X93230953Y-86772381D01*
D14*
X90783333Y-85070952D02*
X90592857Y-85070952D01*
X90592857Y-84670952D01*
X90935715Y-85070952D02*
X91011905Y-85070952D01*
X91050000Y-85051905D01*
X91069048Y-85032857D01*
X91107143Y-84975714D01*
X91126191Y-84899524D01*
X91126191Y-84747143D01*
X91107143Y-84709048D01*
X91088096Y-84690000D01*
X91050000Y-84670952D01*
X90973810Y-84670952D01*
X90935715Y-84690000D01*
X90916667Y-84709048D01*
X90897619Y-84747143D01*
X90897619Y-84842381D01*
X90916667Y-84880476D01*
X90935715Y-84899524D01*
X90973810Y-84918571D01*
X91050000Y-84918571D01*
X91088096Y-84899524D01*
X91107143Y-84880476D01*
X91126191Y-84842381D01*
D11*
X49872381Y-111779048D02*
X48872381Y-111779048D01*
X49348571Y-111779048D02*
X49348571Y-111207619D01*
X49872381Y-111207619D02*
X48872381Y-111207619D01*
X49348571Y-110731429D02*
X49348571Y-110398095D01*
X49872381Y-110255238D02*
X49872381Y-110731429D01*
X48872381Y-110731429D01*
X48872381Y-110255238D01*
X49586667Y-109874286D02*
X49586667Y-109398095D01*
X49872381Y-109969524D02*
X48872381Y-109636191D01*
X49872381Y-109302857D01*
X49872381Y-108969524D02*
X48872381Y-108969524D01*
X48872381Y-108731429D01*
X48920000Y-108588571D01*
X49015238Y-108493333D01*
X49110476Y-108445714D01*
X49300952Y-108398095D01*
X49443810Y-108398095D01*
X49634286Y-108445714D01*
X49729524Y-108493333D01*
X49824762Y-108588571D01*
X49872381Y-108731429D01*
X49872381Y-108969524D01*
X49348571Y-107969524D02*
X49348571Y-107636190D01*
X49872381Y-107493333D02*
X49872381Y-107969524D01*
X48872381Y-107969524D01*
X48872381Y-107493333D01*
X49872381Y-106493333D02*
X49396190Y-106826667D01*
X49872381Y-107064762D02*
X48872381Y-107064762D01*
X48872381Y-106683809D01*
X48920000Y-106588571D01*
X48967619Y-106540952D01*
X49062857Y-106493333D01*
X49205714Y-106493333D01*
X49300952Y-106540952D01*
X49348571Y-106588571D01*
X49396190Y-106683809D01*
X49396190Y-107064762D01*
X56172381Y-109898095D02*
X55172381Y-109898095D01*
X55172381Y-109517142D01*
X55220000Y-109421904D01*
X55267619Y-109374285D01*
X55362857Y-109326666D01*
X55505714Y-109326666D01*
X55600952Y-109374285D01*
X55648571Y-109421904D01*
X55696190Y-109517142D01*
X55696190Y-109898095D01*
X55267619Y-108945714D02*
X55220000Y-108898095D01*
X55172381Y-108802857D01*
X55172381Y-108564761D01*
X55220000Y-108469523D01*
X55267619Y-108421904D01*
X55362857Y-108374285D01*
X55458095Y-108374285D01*
X55600952Y-108421904D01*
X56172381Y-108993333D01*
X56172381Y-108374285D01*
X92904762Y-127785714D02*
X92952381Y-127642857D01*
X92952381Y-127404761D01*
X92904762Y-127309523D01*
X92857143Y-127261904D01*
X92761905Y-127214285D01*
X92666667Y-127214285D01*
X92571429Y-127261904D01*
X92523810Y-127309523D01*
X92476190Y-127404761D01*
X92428571Y-127595238D01*
X92380952Y-127690476D01*
X92333333Y-127738095D01*
X92238095Y-127785714D01*
X92142857Y-127785714D01*
X92047619Y-127738095D01*
X92000000Y-127690476D01*
X91952381Y-127595238D01*
X91952381Y-127357142D01*
X92000000Y-127214285D01*
X92952381Y-126785714D02*
X91952381Y-126785714D01*
X92666667Y-126452380D01*
X91952381Y-126119047D01*
X92952381Y-126119047D01*
X92666667Y-125690476D02*
X92666667Y-125214285D01*
X92952381Y-125785714D02*
X91952381Y-125452381D01*
X92952381Y-125119047D01*
X96952381Y-126833333D02*
X97666667Y-126833333D01*
X97809524Y-126880953D01*
X97904762Y-126976191D01*
X97952381Y-127119048D01*
X97952381Y-127214286D01*
X97047619Y-126404762D02*
X97000000Y-126357143D01*
X96952381Y-126261905D01*
X96952381Y-126023809D01*
X97000000Y-125928571D01*
X97047619Y-125880952D01*
X97142857Y-125833333D01*
X97238095Y-125833333D01*
X97380952Y-125880952D01*
X97952381Y-126452381D01*
X97952381Y-125833333D01*
X92904762Y-88285714D02*
X92952381Y-88142857D01*
X92952381Y-87904761D01*
X92904762Y-87809523D01*
X92857143Y-87761904D01*
X92761905Y-87714285D01*
X92666667Y-87714285D01*
X92571429Y-87761904D01*
X92523810Y-87809523D01*
X92476190Y-87904761D01*
X92428571Y-88095238D01*
X92380952Y-88190476D01*
X92333333Y-88238095D01*
X92238095Y-88285714D01*
X92142857Y-88285714D01*
X92047619Y-88238095D01*
X92000000Y-88190476D01*
X91952381Y-88095238D01*
X91952381Y-87857142D01*
X92000000Y-87714285D01*
X92952381Y-87285714D02*
X91952381Y-87285714D01*
X92666667Y-86952380D01*
X91952381Y-86619047D01*
X92952381Y-86619047D01*
X92666667Y-86190476D02*
X92666667Y-85714285D01*
X92952381Y-86285714D02*
X91952381Y-85952381D01*
X92952381Y-85619047D01*
X96952381Y-87333333D02*
X97666667Y-87333333D01*
X97809524Y-87380953D01*
X97904762Y-87476191D01*
X97952381Y-87619048D01*
X97952381Y-87714286D01*
X96952381Y-86952381D02*
X96952381Y-86333333D01*
X97333333Y-86666667D01*
X97333333Y-86523809D01*
X97380952Y-86428571D01*
X97428571Y-86380952D01*
X97523810Y-86333333D01*
X97761905Y-86333333D01*
X97857143Y-86380952D01*
X97904762Y-86428571D01*
X97952381Y-86523809D01*
X97952381Y-86809524D01*
X97904762Y-86904762D01*
X97857143Y-86952381D01*
X49552381Y-129861905D02*
X48552381Y-129861905D01*
X49266667Y-129528571D01*
X48552381Y-129195238D01*
X49552381Y-129195238D01*
X49552381Y-128719048D02*
X48885714Y-128719048D01*
X48552381Y-128719048D02*
X48600000Y-128766667D01*
X48647619Y-128719048D01*
X48600000Y-128671429D01*
X48552381Y-128719048D01*
X48647619Y-128719048D01*
X49504762Y-127814286D02*
X49552381Y-127909524D01*
X49552381Y-128100001D01*
X49504762Y-128195239D01*
X49457143Y-128242858D01*
X49361905Y-128290477D01*
X49076190Y-128290477D01*
X48980952Y-128242858D01*
X48933333Y-128195239D01*
X48885714Y-128100001D01*
X48885714Y-127909524D01*
X48933333Y-127814286D01*
X49552381Y-127385715D02*
X48885714Y-127385715D01*
X49076190Y-127385715D02*
X48980952Y-127338096D01*
X48933333Y-127290477D01*
X48885714Y-127195239D01*
X48885714Y-127100000D01*
X49552381Y-126623810D02*
X49504762Y-126719048D01*
X49457143Y-126766667D01*
X49361905Y-126814286D01*
X49076190Y-126814286D01*
X48980952Y-126766667D01*
X48933333Y-126719048D01*
X48885714Y-126623810D01*
X48885714Y-126480952D01*
X48933333Y-126385714D01*
X48980952Y-126338095D01*
X49076190Y-126290476D01*
X49361905Y-126290476D01*
X49457143Y-126338095D01*
X49504762Y-126385714D01*
X49552381Y-126480952D01*
X49552381Y-126623810D01*
X48552381Y-125861905D02*
X49361905Y-125861905D01*
X49457143Y-125814286D01*
X49504762Y-125766667D01*
X49552381Y-125671429D01*
X49552381Y-125480952D01*
X49504762Y-125385714D01*
X49457143Y-125338095D01*
X49361905Y-125290476D01*
X48552381Y-125290476D01*
X49504762Y-124861905D02*
X49552381Y-124719048D01*
X49552381Y-124480952D01*
X49504762Y-124385714D01*
X49457143Y-124338095D01*
X49361905Y-124290476D01*
X49266667Y-124290476D01*
X49171429Y-124338095D01*
X49123810Y-124385714D01*
X49076190Y-124480952D01*
X49028571Y-124671429D01*
X48980952Y-124766667D01*
X48933333Y-124814286D01*
X48838095Y-124861905D01*
X48742857Y-124861905D01*
X48647619Y-124814286D01*
X48600000Y-124766667D01*
X48552381Y-124671429D01*
X48552381Y-124433333D01*
X48600000Y-124290476D01*
X49028571Y-123528571D02*
X49076190Y-123385714D01*
X49123810Y-123338095D01*
X49219048Y-123290476D01*
X49361905Y-123290476D01*
X49457143Y-123338095D01*
X49504762Y-123385714D01*
X49552381Y-123480952D01*
X49552381Y-123861905D01*
X48552381Y-123861905D01*
X48552381Y-123528571D01*
X48600000Y-123433333D01*
X48647619Y-123385714D01*
X48742857Y-123338095D01*
X48838095Y-123338095D01*
X48933333Y-123385714D01*
X48980952Y-123433333D01*
X49028571Y-123528571D01*
X49028571Y-123861905D01*
X52952381Y-127338095D02*
X51952381Y-127338095D01*
X51952381Y-126957142D01*
X52000000Y-126861904D01*
X52047619Y-126814285D01*
X52142857Y-126766666D01*
X52285714Y-126766666D01*
X52380952Y-126814285D01*
X52428571Y-126861904D01*
X52476190Y-126957142D01*
X52476190Y-127338095D01*
X52952381Y-125814285D02*
X52952381Y-126385714D01*
X52952381Y-126100000D02*
X51952381Y-126100000D01*
X52095238Y-126195238D01*
X52190476Y-126290476D01*
X52238095Y-126385714D01*
X62354762Y-126752381D02*
X62354762Y-125752381D01*
X62735715Y-125752381D01*
X62830953Y-125800000D01*
X62878572Y-125847619D01*
X62926191Y-125942857D01*
X62926191Y-126085714D01*
X62878572Y-126180952D01*
X62830953Y-126228571D01*
X62735715Y-126276190D01*
X62354762Y-126276190D01*
X63259524Y-125752381D02*
X63497619Y-126752381D01*
X63688096Y-126038095D01*
X63878572Y-126752381D01*
X64116667Y-125752381D01*
X65069048Y-126752381D02*
X64735714Y-126276190D01*
X64497619Y-126752381D02*
X64497619Y-125752381D01*
X64878572Y-125752381D01*
X64973810Y-125800000D01*
X65021429Y-125847619D01*
X65069048Y-125942857D01*
X65069048Y-126085714D01*
X65021429Y-126180952D01*
X64973810Y-126228571D01*
X64878572Y-126276190D01*
X64497619Y-126276190D01*
X65259524Y-126847619D02*
X66021429Y-126847619D01*
X66259524Y-126752381D02*
X66259524Y-125752381D01*
X66830953Y-126752381D02*
X66402381Y-126180952D01*
X66830953Y-125752381D02*
X66259524Y-126323810D01*
X67259524Y-126228571D02*
X67592858Y-126228571D01*
X67735715Y-126752381D02*
X67259524Y-126752381D01*
X67259524Y-125752381D01*
X67735715Y-125752381D01*
X68354762Y-126276190D02*
X68354762Y-126752381D01*
X68021429Y-125752381D02*
X68354762Y-126276190D01*
X68688096Y-125752381D01*
X64714286Y-131678571D02*
X64857143Y-131726190D01*
X64904762Y-131773810D01*
X64952381Y-131869048D01*
X64952381Y-132011905D01*
X64904762Y-132107143D01*
X64857143Y-132154762D01*
X64761905Y-132202381D01*
X64380952Y-132202381D01*
X64380952Y-131202381D01*
X64714286Y-131202381D01*
X64809524Y-131250000D01*
X64857143Y-131297619D01*
X64904762Y-131392857D01*
X64904762Y-131488095D01*
X64857143Y-131583333D01*
X64809524Y-131630952D01*
X64714286Y-131678571D01*
X64380952Y-131678571D01*
X65238095Y-131202381D02*
X65809524Y-131202381D01*
X65523809Y-132202381D02*
X65523809Y-131202381D01*
X66666667Y-132202381D02*
X66095238Y-132202381D01*
X66380952Y-132202381D02*
X66380952Y-131202381D01*
X66285714Y-131345238D01*
X66190476Y-131440476D01*
X66095238Y-131488095D01*
X97415529Y-113050581D02*
X97415529Y-112050581D01*
X97891719Y-113050581D02*
X97891719Y-112050581D01*
X98272672Y-112050581D01*
X98367910Y-112098200D01*
X98415529Y-112145819D01*
X98463148Y-112241057D01*
X98463148Y-112383914D01*
X98415529Y-112479152D01*
X98367910Y-112526771D01*
X98272672Y-112574390D01*
X97891719Y-112574390D01*
X98891719Y-112526771D02*
X99225053Y-112526771D01*
X99367910Y-113050581D02*
X98891719Y-113050581D01*
X98891719Y-112050581D01*
X99367910Y-112050581D01*
X99701243Y-112050581D02*
X100367910Y-113050581D01*
X100367910Y-112050581D02*
X99701243Y-113050581D01*
X98510767Y-105248581D02*
X98510767Y-105962867D01*
X98463147Y-106105724D01*
X98367909Y-106200962D01*
X98225052Y-106248581D01*
X98129814Y-106248581D01*
X99415529Y-105581914D02*
X99415529Y-106248581D01*
X99177433Y-105200962D02*
X98939338Y-105915248D01*
X99558386Y-105915248D01*
X73047619Y-128404762D02*
X73190476Y-128452381D01*
X73428572Y-128452381D01*
X73523810Y-128404762D01*
X73571429Y-128357143D01*
X73619048Y-128261905D01*
X73619048Y-128166667D01*
X73571429Y-128071429D01*
X73523810Y-128023810D01*
X73428572Y-127976190D01*
X73238095Y-127928571D01*
X73142857Y-127880952D01*
X73095238Y-127833333D01*
X73047619Y-127738095D01*
X73047619Y-127642857D01*
X73095238Y-127547619D01*
X73142857Y-127500000D01*
X73238095Y-127452381D01*
X73476191Y-127452381D01*
X73619048Y-127500000D01*
X74047619Y-128452381D02*
X74047619Y-127452381D01*
X74523809Y-128452381D02*
X74523809Y-127452381D01*
X74857143Y-128166667D01*
X75190476Y-127452381D01*
X75190476Y-128452381D01*
X75571428Y-127452381D02*
X76238095Y-127452381D01*
X75809523Y-128452381D01*
X77047619Y-127452381D02*
X76857142Y-127452381D01*
X76761904Y-127500000D01*
X76714285Y-127547619D01*
X76619047Y-127690476D01*
X76571428Y-127880952D01*
X76571428Y-128261905D01*
X76619047Y-128357143D01*
X76666666Y-128404762D01*
X76761904Y-128452381D01*
X76952381Y-128452381D01*
X77047619Y-128404762D01*
X77095238Y-128357143D01*
X77142857Y-128261905D01*
X77142857Y-128023810D01*
X77095238Y-127928571D01*
X77047619Y-127880952D01*
X76952381Y-127833333D01*
X76761904Y-127833333D01*
X76666666Y-127880952D01*
X76619047Y-127928571D01*
X76571428Y-128023810D01*
X77761904Y-127452381D02*
X77857143Y-127452381D01*
X77952381Y-127500000D01*
X78000000Y-127547619D01*
X78047619Y-127642857D01*
X78095238Y-127833333D01*
X78095238Y-128071429D01*
X78047619Y-128261905D01*
X78000000Y-128357143D01*
X77952381Y-128404762D01*
X77857143Y-128452381D01*
X77761904Y-128452381D01*
X77666666Y-128404762D01*
X77619047Y-128357143D01*
X77571428Y-128261905D01*
X77523809Y-128071429D01*
X77523809Y-127833333D01*
X77571428Y-127642857D01*
X77619047Y-127547619D01*
X77666666Y-127500000D01*
X77761904Y-127452381D01*
X78714285Y-127452381D02*
X78809524Y-127452381D01*
X78904762Y-127500000D01*
X78952381Y-127547619D01*
X79000000Y-127642857D01*
X79047619Y-127833333D01*
X79047619Y-128071429D01*
X79000000Y-128261905D01*
X78952381Y-128357143D01*
X78904762Y-128404762D01*
X78809524Y-128452381D01*
X78714285Y-128452381D01*
X78619047Y-128404762D01*
X78571428Y-128357143D01*
X78523809Y-128261905D01*
X78476190Y-128071429D01*
X78476190Y-127833333D01*
X78523809Y-127642857D01*
X78571428Y-127547619D01*
X78619047Y-127500000D01*
X78714285Y-127452381D01*
X79476190Y-127928571D02*
X79809524Y-127928571D01*
X79952381Y-128452381D02*
X79476190Y-128452381D01*
X79476190Y-127452381D01*
X79952381Y-127452381D01*
X71642858Y-88728571D02*
X71785715Y-88776190D01*
X71833334Y-88823810D01*
X71880953Y-88919048D01*
X71880953Y-89061905D01*
X71833334Y-89157143D01*
X71785715Y-89204762D01*
X71690477Y-89252381D01*
X71309524Y-89252381D01*
X71309524Y-88252381D01*
X71642858Y-88252381D01*
X71738096Y-88300000D01*
X71785715Y-88347619D01*
X71833334Y-88442857D01*
X71833334Y-88538095D01*
X71785715Y-88633333D01*
X71738096Y-88680952D01*
X71642858Y-88728571D01*
X71309524Y-88728571D01*
X72833334Y-88300000D02*
X72738096Y-88252381D01*
X72595239Y-88252381D01*
X72452381Y-88300000D01*
X72357143Y-88395238D01*
X72309524Y-88490476D01*
X72261905Y-88680952D01*
X72261905Y-88823810D01*
X72309524Y-89014286D01*
X72357143Y-89109524D01*
X72452381Y-89204762D01*
X72595239Y-89252381D01*
X72690477Y-89252381D01*
X72833334Y-89204762D01*
X72880953Y-89157143D01*
X72880953Y-88823810D01*
X72690477Y-88823810D01*
X73309524Y-88252381D02*
X73309524Y-89061905D01*
X73357143Y-89157143D01*
X73404762Y-89204762D01*
X73500000Y-89252381D01*
X73690477Y-89252381D01*
X73785715Y-89204762D01*
X73833334Y-89157143D01*
X73880953Y-89061905D01*
X73880953Y-88252381D01*
X74500000Y-88680952D02*
X74404762Y-88633333D01*
X74357143Y-88585714D01*
X74309524Y-88490476D01*
X74309524Y-88442857D01*
X74357143Y-88347619D01*
X74404762Y-88300000D01*
X74500000Y-88252381D01*
X74690477Y-88252381D01*
X74785715Y-88300000D01*
X74833334Y-88347619D01*
X74880953Y-88442857D01*
X74880953Y-88490476D01*
X74833334Y-88585714D01*
X74785715Y-88633333D01*
X74690477Y-88680952D01*
X74500000Y-88680952D01*
X74404762Y-88728571D01*
X74357143Y-88776190D01*
X74309524Y-88871429D01*
X74309524Y-89061905D01*
X74357143Y-89157143D01*
X74404762Y-89204762D01*
X74500000Y-89252381D01*
X74690477Y-89252381D01*
X74785715Y-89204762D01*
X74833334Y-89157143D01*
X74880953Y-89061905D01*
X74880953Y-88871429D01*
X74833334Y-88776190D01*
X74785715Y-88728571D01*
X74690477Y-88680952D01*
X75500000Y-88252381D02*
X75595239Y-88252381D01*
X75690477Y-88300000D01*
X75738096Y-88347619D01*
X75785715Y-88442857D01*
X75833334Y-88633333D01*
X75833334Y-88871429D01*
X75785715Y-89061905D01*
X75738096Y-89157143D01*
X75690477Y-89204762D01*
X75595239Y-89252381D01*
X75500000Y-89252381D01*
X75404762Y-89204762D01*
X75357143Y-89157143D01*
X75309524Y-89061905D01*
X75261905Y-88871429D01*
X75261905Y-88633333D01*
X75309524Y-88442857D01*
X75357143Y-88347619D01*
X75404762Y-88300000D01*
X75500000Y-88252381D01*
X76452381Y-88252381D02*
X76547620Y-88252381D01*
X76642858Y-88300000D01*
X76690477Y-88347619D01*
X76738096Y-88442857D01*
X76785715Y-88633333D01*
X76785715Y-88871429D01*
X76738096Y-89061905D01*
X76690477Y-89157143D01*
X76642858Y-89204762D01*
X76547620Y-89252381D01*
X76452381Y-89252381D01*
X76357143Y-89204762D01*
X76309524Y-89157143D01*
X76261905Y-89061905D01*
X76214286Y-88871429D01*
X76214286Y-88633333D01*
X76261905Y-88442857D01*
X76309524Y-88347619D01*
X76357143Y-88300000D01*
X76452381Y-88252381D01*
X77119048Y-88252381D02*
X77785715Y-88252381D01*
X77357143Y-89252381D01*
D15*
X74280952Y-90904762D02*
X74604762Y-90904762D01*
X74642857Y-90885714D01*
X74661905Y-90866667D01*
X74680952Y-90828571D01*
X74680952Y-90752381D01*
X74661905Y-90714286D01*
X74642857Y-90695238D01*
X74604762Y-90676190D01*
X74280952Y-90676190D01*
X74280952Y-90295238D02*
X74280952Y-90485714D01*
X74471429Y-90504762D01*
X74452381Y-90485714D01*
X74433333Y-90447619D01*
X74433333Y-90352381D01*
X74452381Y-90314285D01*
X74471429Y-90295238D01*
X74509524Y-90276190D01*
X74604762Y-90276190D01*
X74642857Y-90295238D01*
X74661905Y-90314285D01*
X74680952Y-90352381D01*
X74680952Y-90447619D01*
X74661905Y-90485714D01*
X74642857Y-90504762D01*
D11*
X65757143Y-92052381D02*
X65757143Y-91052381D01*
X66328572Y-92052381D01*
X66328572Y-91052381D01*
X66757143Y-91766667D02*
X67233334Y-91766667D01*
X66661905Y-92052381D02*
X66995238Y-91052381D01*
X67328572Y-92052381D01*
X67661905Y-91052381D02*
X67661905Y-91861905D01*
X67709524Y-91957143D01*
X67757143Y-92004762D01*
X67852381Y-92052381D01*
X68042858Y-92052381D01*
X68138096Y-92004762D01*
X68185715Y-91957143D01*
X68233334Y-91861905D01*
X68233334Y-91052381D01*
X68852381Y-91480952D02*
X68757143Y-91433333D01*
X68709524Y-91385714D01*
X68661905Y-91290476D01*
X68661905Y-91242857D01*
X68709524Y-91147619D01*
X68757143Y-91100000D01*
X68852381Y-91052381D01*
X69042858Y-91052381D01*
X69138096Y-91100000D01*
X69185715Y-91147619D01*
X69233334Y-91242857D01*
X69233334Y-91290476D01*
X69185715Y-91385714D01*
X69138096Y-91433333D01*
X69042858Y-91480952D01*
X68852381Y-91480952D01*
X68757143Y-91528571D01*
X68709524Y-91576190D01*
X68661905Y-91671429D01*
X68661905Y-91861905D01*
X68709524Y-91957143D01*
X68757143Y-92004762D01*
X68852381Y-92052381D01*
X69042858Y-92052381D01*
X69138096Y-92004762D01*
X69185715Y-91957143D01*
X69233334Y-91861905D01*
X69233334Y-91671429D01*
X69185715Y-91576190D01*
X69138096Y-91528571D01*
X69042858Y-91480952D01*
X69804762Y-91480952D02*
X69709524Y-91433333D01*
X69661905Y-91385714D01*
X69614286Y-91290476D01*
X69614286Y-91242857D01*
X69661905Y-91147619D01*
X69709524Y-91100000D01*
X69804762Y-91052381D01*
X69995239Y-91052381D01*
X70090477Y-91100000D01*
X70138096Y-91147619D01*
X70185715Y-91242857D01*
X70185715Y-91290476D01*
X70138096Y-91385714D01*
X70090477Y-91433333D01*
X69995239Y-91480952D01*
X69804762Y-91480952D01*
X69709524Y-91528571D01*
X69661905Y-91576190D01*
X69614286Y-91671429D01*
X69614286Y-91861905D01*
X69661905Y-91957143D01*
X69709524Y-92004762D01*
X69804762Y-92052381D01*
X69995239Y-92052381D01*
X70090477Y-92004762D01*
X70138096Y-91957143D01*
X70185715Y-91861905D01*
X70185715Y-91671429D01*
X70138096Y-91576190D01*
X70090477Y-91528571D01*
X69995239Y-91480952D01*
X71138096Y-92052381D02*
X70566667Y-92052381D01*
X70852381Y-92052381D02*
X70852381Y-91052381D01*
X70757143Y-91195238D01*
X70661905Y-91290476D01*
X70566667Y-91338095D01*
X71757143Y-91052381D02*
X71852382Y-91052381D01*
X71947620Y-91100000D01*
X71995239Y-91147619D01*
X72042858Y-91242857D01*
X72090477Y-91433333D01*
X72090477Y-91671429D01*
X72042858Y-91861905D01*
X71995239Y-91957143D01*
X71947620Y-92004762D01*
X71852382Y-92052381D01*
X71757143Y-92052381D01*
X71661905Y-92004762D01*
X71614286Y-91957143D01*
X71566667Y-91861905D01*
X71519048Y-91671429D01*
X71519048Y-91433333D01*
X71566667Y-91242857D01*
X71614286Y-91147619D01*
X71661905Y-91100000D01*
X71757143Y-91052381D01*
X68138095Y-87752381D02*
X68138095Y-88561905D01*
X68185714Y-88657143D01*
X68233333Y-88704762D01*
X68328571Y-88752381D01*
X68519048Y-88752381D01*
X68614286Y-88704762D01*
X68661905Y-88657143D01*
X68709524Y-88561905D01*
X68709524Y-87752381D01*
X69090476Y-87752381D02*
X69709524Y-87752381D01*
X69376190Y-88133333D01*
X69519048Y-88133333D01*
X69614286Y-88180952D01*
X69661905Y-88228571D01*
X69709524Y-88323810D01*
X69709524Y-88561905D01*
X69661905Y-88657143D01*
X69614286Y-88704762D01*
X69519048Y-88752381D01*
X69233333Y-88752381D01*
X69138095Y-88704762D01*
X69090476Y-88657143D01*
M02*
