G04 #@! TF.FileFunction,Soldermask,Bot*
%FSLAX46Y46*%
G04 Gerber Fmt 4.6, Leading zero omitted, Abs format (unit mm)*
G04 Created by KiCad (PCBNEW 4.0.5+dfsg1-4) date Tue Aug 14 14:25:04 2018*
%MOMM*%
%LPD*%
G01*
G04 APERTURE LIST*
%ADD10C,0.100000*%
%ADD11R,1.825000X3.050000*%
%ADD12R,1.040000X0.990000*%
%ADD13R,0.990000X1.040000*%
%ADD14R,1.600000X1.300000*%
%ADD15R,1.275000X1.350000*%
%ADD16R,1.350000X1.275000*%
%ADD17R,2.800000X1.900000*%
%ADD18R,1.200000X1.300000*%
%ADD19R,1.300000X1.200000*%
%ADD20R,1.050000X1.960000*%
%ADD21R,1.100000X0.800000*%
%ADD22R,1.400000X1.500000*%
%ADD23R,1.400000X3.400000*%
%ADD24C,1.100000*%
%ADD25R,1.350000X1.450000*%
%ADD26R,1.900000X2.400000*%
%ADD27C,1.900000*%
%ADD28R,2.600000X2.140000*%
%ADD29O,2.600000X2.140000*%
%ADD30C,2.450000*%
%ADD31C,2.650000*%
%ADD32R,0.850000X1.850000*%
%ADD33R,1.950000X1.000000*%
G04 APERTURE END LIST*
D10*
D11*
X58512500Y-99600000D03*
X61487500Y-99600000D03*
D12*
X60500000Y-103015000D03*
X60500000Y-103985000D03*
X59600000Y-110985000D03*
X59600000Y-110015000D03*
D11*
X59512500Y-107000000D03*
X62487500Y-107000000D03*
D13*
X65313700Y-104140000D03*
X66283700Y-104140000D03*
X65485000Y-107500000D03*
X64515000Y-107500000D03*
D12*
X60900000Y-110985000D03*
X60900000Y-110015000D03*
D13*
X65485000Y-106000000D03*
X64515000Y-106000000D03*
D12*
X70600000Y-111215000D03*
X70600000Y-112185000D03*
D13*
X73515000Y-99700000D03*
X74485000Y-99700000D03*
D11*
X88512500Y-98600000D03*
X91487500Y-98600000D03*
X88512500Y-102600000D03*
X91487500Y-102600000D03*
X87112500Y-89700000D03*
X90087500Y-89700000D03*
X86212500Y-84700000D03*
X89187500Y-84700000D03*
D13*
X63015000Y-117500000D03*
X63985000Y-117500000D03*
X63985000Y-119000000D03*
X63015000Y-119000000D03*
X63015000Y-116001800D03*
X63985000Y-116001800D03*
X66315000Y-123400000D03*
X67285000Y-123400000D03*
X74485000Y-102500000D03*
X73515000Y-102500000D03*
D12*
X59000000Y-103015000D03*
X59000000Y-103985000D03*
D14*
X77100000Y-86150000D03*
X77100000Y-89450000D03*
D15*
X95112500Y-117400000D03*
X96687500Y-117400000D03*
D16*
X60400000Y-123712500D03*
X60400000Y-125287500D03*
D17*
X86144100Y-109543400D03*
X86144100Y-115043400D03*
D18*
X93550000Y-113000000D03*
X95450000Y-113000000D03*
X94500000Y-115000000D03*
D19*
X75000000Y-128050000D03*
X75000000Y-129950000D03*
X73000000Y-129000000D03*
D12*
X62000000Y-103985000D03*
X62000000Y-103015000D03*
D13*
X73515000Y-101000000D03*
X74485000Y-101000000D03*
X71115000Y-96400000D03*
X72085000Y-96400000D03*
X74485000Y-98400000D03*
X73515000Y-98400000D03*
D12*
X93500000Y-109515000D03*
X93500000Y-110485000D03*
X92087700Y-118666400D03*
X92087700Y-119636400D03*
D13*
X82015000Y-93000000D03*
X82985000Y-93000000D03*
X66485000Y-117500000D03*
X65515000Y-117500000D03*
X63985000Y-120500000D03*
X63015000Y-120500000D03*
X66485000Y-116000000D03*
X65515000Y-116000000D03*
D12*
X84600000Y-104085000D03*
X84600000Y-103115000D03*
X59900000Y-116715000D03*
X59900000Y-117685000D03*
X60000000Y-119985000D03*
X60000000Y-119015000D03*
D13*
X96085000Y-119500000D03*
X95115000Y-119500000D03*
D12*
X60400000Y-127785000D03*
X60400000Y-126815000D03*
D20*
X67752000Y-113084600D03*
X66802000Y-113084600D03*
X65852000Y-113084600D03*
X65852000Y-110384600D03*
X67752000Y-110384600D03*
D21*
X65877400Y-121808000D03*
X65877400Y-121158000D03*
X65877400Y-120508000D03*
X67777400Y-120508000D03*
X67777400Y-121808000D03*
X67777400Y-121158000D03*
D22*
X78841600Y-111307500D03*
X76301600Y-111307500D03*
X73761600Y-111307500D03*
X78841600Y-123007500D03*
X76301600Y-123007500D03*
X73761600Y-123007500D03*
D23*
X81601600Y-117157500D03*
X71001600Y-117157500D03*
D24*
X71801600Y-113007500D03*
X80801600Y-121307500D03*
D25*
X52200000Y-91225000D03*
X52200000Y-92975000D03*
D26*
X63200000Y-84000000D03*
X57700000Y-84000000D03*
X54300000Y-84000000D03*
X63700000Y-91000000D03*
X61500000Y-91000000D03*
D27*
X54700000Y-87500000D03*
X61700000Y-87500000D03*
D26*
X54300000Y-91000000D03*
D28*
X53500000Y-99000000D03*
D29*
X53500000Y-101540000D03*
X53500000Y-104080000D03*
X53500000Y-106620000D03*
X53500000Y-109160000D03*
X53500000Y-111700000D03*
X53500000Y-114240000D03*
X53500000Y-116780000D03*
X53500000Y-119320000D03*
D30*
X97500000Y-126500000D03*
D31*
X94960000Y-129040000D03*
X100040000Y-129040000D03*
X100040000Y-123960000D03*
X94960000Y-123960000D03*
D30*
X97500000Y-87000000D03*
D31*
X94960000Y-89540000D03*
X100040000Y-89540000D03*
X100040000Y-84460000D03*
X94960000Y-84460000D03*
D32*
X76575000Y-100950000D03*
X77225000Y-100950000D03*
X77875000Y-100950000D03*
X78525000Y-100950000D03*
X79175000Y-100950000D03*
X79825000Y-100950000D03*
X80475000Y-100950000D03*
X81125000Y-100950000D03*
X81775000Y-100950000D03*
X82425000Y-100950000D03*
X82425000Y-106850000D03*
X81775000Y-106850000D03*
X81125000Y-106850000D03*
X80475000Y-106850000D03*
X79825000Y-106850000D03*
X79175000Y-106850000D03*
X78525000Y-106850000D03*
X77875000Y-106850000D03*
X77225000Y-106850000D03*
X76575000Y-106850000D03*
D33*
X65800000Y-101905000D03*
X65800000Y-100635000D03*
X65800000Y-99365000D03*
X65800000Y-98095000D03*
X71200000Y-98095000D03*
X71200000Y-99365000D03*
X71200000Y-100635000D03*
X71200000Y-101905000D03*
M02*
