G04 #@! TF.FileFunction,Paste,Top*
%FSLAX46Y46*%
G04 Gerber Fmt 4.6, Leading zero omitted, Abs format (unit mm)*
G04 Created by KiCad (PCBNEW 4.0.5+dfsg1-4) date Tue Aug 14 14:25:04 2018*
%MOMM*%
%LPD*%
G01*
G04 APERTURE LIST*
%ADD10C,0.100000*%
%ADD11R,0.590000X0.640000*%
%ADD12R,0.640000X0.590000*%
%ADD13R,1.425000X2.650000*%
%ADD14R,0.900000X1.200000*%
%ADD15R,0.300000X0.400000*%
%ADD16R,1.050000X0.950000*%
%ADD17R,1.700000X0.810000*%
%ADD18R,1.050000X0.810000*%
%ADD19R,0.950000X1.050000*%
%ADD20R,1.380000X0.450000*%
%ADD21R,2.100000X1.475000*%
%ADD22R,1.900000X2.375000*%
%ADD23R,1.900000X1.175000*%
%ADD24R,2.500000X2.000000*%
%ADD25R,1.050000X2.200000*%
%ADD26R,1.000000X1.000000*%
%ADD27R,1.800000X0.600000*%
%ADD28R,0.600000X1.800000*%
%ADD29R,0.330000X0.270000*%
%ADD30R,1.080000X1.080000*%
%ADD31R,0.825000X0.250000*%
%ADD32R,0.250000X0.825000*%
G04 APERTURE END LIST*
D10*
D11*
X69815000Y-83700000D03*
X70785000Y-83700000D03*
X53115000Y-94700000D03*
X54085000Y-94700000D03*
X56485000Y-94450000D03*
X55515000Y-94450000D03*
X63715000Y-88400000D03*
X64685000Y-88400000D03*
X53115000Y-96000000D03*
X54085000Y-96000000D03*
X56495000Y-96010000D03*
X55525000Y-96010000D03*
X57915000Y-94460000D03*
X58885000Y-94460000D03*
X57915000Y-95920000D03*
X58885000Y-95920000D03*
D12*
X74200000Y-87185000D03*
X74200000Y-86215000D03*
D11*
X71815000Y-91900000D03*
X72785000Y-91900000D03*
D12*
X51400000Y-94915000D03*
X51400000Y-95885000D03*
D11*
X64685000Y-85500000D03*
X63715000Y-85500000D03*
X64585000Y-83900000D03*
X63615000Y-83900000D03*
X76415000Y-84800000D03*
X77385000Y-84800000D03*
X87485000Y-86400000D03*
X86515000Y-86400000D03*
D12*
X75200000Y-83485000D03*
X75200000Y-82515000D03*
D11*
X87485000Y-84800000D03*
X86515000Y-84800000D03*
D13*
X86912500Y-128200000D03*
X89887500Y-128200000D03*
D11*
X83415000Y-84800000D03*
X84385000Y-84800000D03*
D12*
X84000000Y-129985000D03*
X84000000Y-129015000D03*
D11*
X81185000Y-85900000D03*
X80215000Y-85900000D03*
X80315000Y-83700000D03*
X81285000Y-83700000D03*
X76115000Y-91400000D03*
X77085000Y-91400000D03*
D12*
X61800000Y-85385000D03*
X61800000Y-84415000D03*
D11*
X87485000Y-88000000D03*
X86515000Y-88000000D03*
X66415000Y-83000000D03*
X67385000Y-83000000D03*
X63715000Y-92100000D03*
X64685000Y-92100000D03*
D12*
X53400000Y-84515000D03*
X53400000Y-85485000D03*
D11*
X58385000Y-85500000D03*
X57415000Y-85500000D03*
X63675000Y-93410000D03*
X64645000Y-93410000D03*
D12*
X52000000Y-84515000D03*
X52000000Y-85485000D03*
X51900000Y-87215000D03*
X51900000Y-88185000D03*
D11*
X54115000Y-89800000D03*
X55085000Y-89800000D03*
X83785000Y-86100000D03*
X82815000Y-86100000D03*
X86515000Y-91000000D03*
X87485000Y-91000000D03*
X95976300Y-120205500D03*
X95006300Y-120205500D03*
X95515000Y-100300000D03*
X96485000Y-100300000D03*
X84485000Y-89500000D03*
X83515000Y-89500000D03*
X84485000Y-88300000D03*
X83515000Y-88300000D03*
X95985000Y-116500000D03*
X95015000Y-116500000D03*
X96485000Y-97500000D03*
X95515000Y-97500000D03*
X55085000Y-92200000D03*
X54115000Y-92200000D03*
D14*
X81150000Y-129500000D03*
X77850000Y-129500000D03*
D15*
X90750000Y-91800000D03*
X89850000Y-91800000D03*
D11*
X76415000Y-90000000D03*
X77385000Y-90000000D03*
X57785000Y-83600000D03*
X56815000Y-83600000D03*
D12*
X59100000Y-91815000D03*
X59100000Y-92785000D03*
D11*
X63715000Y-89700000D03*
X64685000Y-89700000D03*
D16*
X91875000Y-87800000D03*
X90125000Y-87800000D03*
D11*
X73315000Y-88600000D03*
X74285000Y-88600000D03*
X60715000Y-89800000D03*
X61685000Y-89800000D03*
D12*
X60500000Y-84415000D03*
X60500000Y-85385000D03*
D11*
X96485000Y-102100000D03*
X95515000Y-102100000D03*
X96485000Y-104200000D03*
X95515000Y-104200000D03*
D12*
X55000000Y-84515000D03*
X55000000Y-85485000D03*
D11*
X60615000Y-92000000D03*
X61585000Y-92000000D03*
X58785000Y-88700000D03*
X57815000Y-88700000D03*
X95515000Y-105500000D03*
X96485000Y-105500000D03*
X77285000Y-86500000D03*
X76315000Y-86500000D03*
X86515000Y-89500000D03*
X87485000Y-89500000D03*
X95985000Y-118500000D03*
X95015000Y-118500000D03*
X96485000Y-99000000D03*
X95515000Y-99000000D03*
X90985000Y-89600000D03*
X90015000Y-89600000D03*
D17*
X81275000Y-91290000D03*
D18*
X81600000Y-90100000D03*
X81600000Y-88910000D03*
X79450000Y-88910000D03*
X79450000Y-90100000D03*
X79450000Y-91290000D03*
D19*
X60500000Y-96455000D03*
X60500000Y-94705000D03*
D16*
X89975000Y-84890000D03*
X91725000Y-84890000D03*
D20*
X55160000Y-125300000D03*
X55160000Y-125950000D03*
X55160000Y-126600000D03*
X55160000Y-127250000D03*
X55160000Y-127900000D03*
D21*
X54800000Y-124137500D03*
X54800000Y-129062500D03*
D22*
X52500000Y-123690000D03*
X52500000Y-129510000D03*
D23*
X52500000Y-125760000D03*
X52500000Y-127440000D03*
D24*
X69780000Y-129000000D03*
X61220000Y-129000000D03*
D25*
X100319100Y-109296200D03*
X97369100Y-109296200D03*
D26*
X98844100Y-110796200D03*
X98844100Y-107796200D03*
D27*
X61400000Y-100500000D03*
X61400000Y-101500000D03*
X61400000Y-102500000D03*
X61400000Y-103500000D03*
X61400000Y-104500000D03*
X61400000Y-105500000D03*
X61400000Y-106500000D03*
X61400000Y-107500000D03*
X61400000Y-108500000D03*
X61400000Y-109500000D03*
X61400000Y-110500000D03*
X61400000Y-111500000D03*
X61400000Y-112500000D03*
X61400000Y-113500000D03*
X61400000Y-114500000D03*
X61400000Y-115500000D03*
X61400000Y-116500000D03*
X61400000Y-117500000D03*
X61400000Y-118500000D03*
X61400000Y-119500000D03*
X61400000Y-120500000D03*
D28*
X66000000Y-125100000D03*
X67000000Y-125100000D03*
X68000000Y-125100000D03*
X69000000Y-125100000D03*
X70000000Y-125100000D03*
X71000000Y-125100000D03*
X72000000Y-125100000D03*
X73000000Y-125100000D03*
X74000000Y-125100000D03*
X75000000Y-125100000D03*
X76000000Y-125100000D03*
X77000000Y-125100000D03*
X78000000Y-125100000D03*
X79000000Y-125100000D03*
X80000000Y-125100000D03*
X81000000Y-125100000D03*
X82000000Y-125100000D03*
X83000000Y-125100000D03*
X84000000Y-125100000D03*
X85000000Y-125100000D03*
X86000000Y-125100000D03*
X87000000Y-125100000D03*
D27*
X91600000Y-120500000D03*
X91600000Y-119500000D03*
X91600000Y-118500000D03*
X91600000Y-117500000D03*
X91600000Y-116500000D03*
X91600000Y-115500000D03*
X91600000Y-114500000D03*
X91600000Y-113500000D03*
X91600000Y-112500000D03*
X91600000Y-111500000D03*
X91600000Y-110500000D03*
X91600000Y-109500000D03*
X91600000Y-108500000D03*
X91600000Y-107500000D03*
X91600000Y-106500000D03*
X91600000Y-105500000D03*
X91600000Y-104500000D03*
X91600000Y-103500000D03*
X91600000Y-102500000D03*
X91600000Y-101500000D03*
X91600000Y-100500000D03*
X91600000Y-99500000D03*
D28*
X87000000Y-94900000D03*
X86000000Y-94900000D03*
X85000000Y-94900000D03*
X84000000Y-94900000D03*
X83000000Y-94900000D03*
X82000000Y-94900000D03*
X81000000Y-94900000D03*
X80000000Y-94900000D03*
X79000000Y-94900000D03*
X78000000Y-94900000D03*
X77000000Y-94900000D03*
X76000000Y-94900000D03*
X75000000Y-94900000D03*
X74000000Y-94900000D03*
X73000000Y-94900000D03*
X72000000Y-94900000D03*
X71000000Y-94900000D03*
X70000000Y-94900000D03*
X69000000Y-94900000D03*
X68000000Y-94900000D03*
X67000000Y-94900000D03*
X66000000Y-94900000D03*
D29*
X74840000Y-91100000D03*
X74840000Y-90600000D03*
X74840000Y-90100000D03*
X74160000Y-90100000D03*
X74160000Y-90600000D03*
X74160000Y-91100000D03*
D30*
X68275000Y-87675000D03*
X68275000Y-88925000D03*
X69525000Y-87675000D03*
X69525000Y-88925000D03*
D31*
X66962500Y-87300000D03*
X66962500Y-87800000D03*
X66962500Y-88300000D03*
X66962500Y-88800000D03*
X66962500Y-89300000D03*
D32*
X67900000Y-90237500D03*
X68400000Y-90237500D03*
X68900000Y-90237500D03*
X69400000Y-90237500D03*
X69900000Y-90237500D03*
D31*
X70837500Y-89300000D03*
X70837500Y-88800000D03*
X70837500Y-88300000D03*
X70837500Y-87800000D03*
X70837500Y-87300000D03*
D32*
X69900000Y-86362500D03*
X69400000Y-86362500D03*
X68900000Y-86362500D03*
X68400000Y-86362500D03*
X67900000Y-86362500D03*
M02*
