M48
;DRILL file {KiCad 4.0.5+dfsg1-4} date Mon Aug 13 15:56:22 2018
;FORMAT={-:-/ absolute / inch / decimal}
FMAT,2
INCH,TZ
T1C0.008
T2C0.020
T3C0.028
T4C0.031
T5C0.047
T6C0.059
T7C0.067
%
G90
G05
M72
T1
X2.6732Y-3.437
X2.6732Y-3.5157
X2.752Y-3.437
X2.752Y-3.5157
T2
X1.9961Y-3.5906
X2.0079Y-3.2717
X2.0315Y-4.0354
X2.0591Y-3.2283
X2.0669Y-4.8697
X2.0669Y-5.0984
X2.122Y-3.6811
X2.1378Y-3.5827
X2.185Y-4.6614
X2.2126Y-3.4173
X2.2441Y-3.9331
X2.25Y-5.0657
X2.2516Y-5.1228
X2.252Y-4.0118
X2.2598Y-3.8268
X2.2638Y-4.1024
X2.2717Y-3.4252
X2.2953Y-4.5315
X2.3189Y-5.0394
X2.323Y-4.02
X2.3307Y-3.4291
X2.3425Y-3.2874
X2.3425Y-4.5079
X2.415Y-4.776
X2.4331Y-3.6732
X2.4528Y-4.8701
X2.4528Y-4.9291
X2.4528Y-4.9843
X2.48Y-4.7905
X2.4843Y-3.6929
X2.4961Y-3.8465
X2.5Y-4.3268
X2.5039Y-4.4843
X2.518Y-4.114
X2.5197Y-5.1063
X2.5276Y-4.063
X2.5285Y-4.2775
X2.537Y-4.8175
X2.5394Y-4.3661
X2.5394Y-4.9291
X2.5472Y-4.5197
X2.5472Y-4.8701
X2.5787Y-3.437
X2.5827Y-4.6811
X2.5984Y-3.5512
X2.6189Y-3.6567
X2.6417Y-4.185
X2.6638Y-3.626
X2.693Y-4.675
X2.702Y-4.2455
X2.7165Y-3.6063
X2.7205Y-4.8504
X2.7441Y-4.0669
X2.752Y-3.3425
X2.7559Y-4.4724
X2.7787Y-3.6559
X2.7992Y-4.0709
X2.8189Y-4.8031
X2.8228Y-3.3898
X2.8315Y-5.0785
X2.8425Y-3.5276
X2.8543Y-3.6614
X2.8543Y-4.126
X2.878Y-3.3268
X2.8819Y-4.6102
X2.8957Y-3.8236
X2.9079Y-3.6669
X2.939Y-4.727
X2.9567Y-3.3307
X2.9646Y-3.4528
X2.992Y-3.8005
X2.9921Y-4.6142
X3.0065Y-5.121
X3.0197Y-3.6535
X3.0787Y-4.0906
X3.0984Y-4.6181
X3.1102Y-3.378
X3.1181Y-3.6575
X3.122Y-3.4409
X3.1417Y-4.0433
X3.1496Y-3.811
X3.1675Y-3.643
X3.1693Y-3.8976
X3.2008Y-4.4173
X3.2205Y-3.2165
X3.2205Y-3.437
X3.2244Y-3.878
X3.2953Y-3.5906
X3.2953Y-4.4173
X3.2992Y-4.6181
X3.2992Y-4.7402
X3.3425Y-3.4252
X3.3605Y-4.746
X3.3661Y-3.9764
X3.3976Y-4.4173
X3.4843Y-3.4291
X3.4882Y-3.6535
X3.5079Y-4.1535
X3.5118Y-4.937
X3.5315Y-4.2717
X3.537Y-4.6865
X3.5709Y-3.7717
X3.6181Y-3.6575
X3.626Y-3.5709
X3.6654Y-3.7165
X3.677Y-4.71
X3.7008Y-3.9213
X3.7205Y-4.311
X3.7638Y-3.7362
X3.8497Y-4.4488
X3.8504Y-4.0748
X3.8819Y-3.2323
X3.9331Y-4.5197
X3.9331Y-4.6299
X3.9331Y-4.7402
X3.9622Y-3.6709
X3.9638Y-3.7724
X3.9646Y-3.2283
X3.9685Y-3.8661
X3.9803Y-3.9803
X3.9803Y-4.0945
X3.9803Y-4.1772
T3
X2.842Y-5.0185
X3.055Y-5.0005
X3.1102Y-3.2953
X3.2559Y-5.0315
X3.3819Y-3.6378
X3.3858Y-3.8583
X3.4606Y-4.811
X3.6024Y-3.2598
X3.622Y-4.815
T4
X2.1969Y-4.0472
X2.2638Y-4.1693
X2.2717Y-4.3937
X2.5236Y-4.4213
T5
X2.1063Y-3.8976
X2.1063Y-3.9976
X2.1063Y-4.0976
X2.1063Y-4.1976
X2.1063Y-4.2976
X2.1063Y-4.3976
X2.1063Y-4.4976
X2.1063Y-4.5976
X2.1063Y-4.6976
T6
X3.8386Y-3.4252
X3.8386Y-4.9803
T7
X3.7386Y-3.3252
X3.7386Y-3.5252
X3.7386Y-4.8803
X3.7386Y-5.0803
X3.9386Y-3.3252
X3.9386Y-3.5252
X3.9386Y-4.8803
X3.9386Y-5.0803
T0
M30
