%FSLAX45Y45*%
G04 Gerber Fmt 4.5, Leading zero omitted, Abs format (unit mm)*
G04 Created by KiCad (PCBNEW 4.0.5+dfsg1-4) date Mon Aug 13 15:56:23 2018*
%MOMM*%
%LPD*%
G01*
G04 APERTURE LIST*
%ADD10C,0.127000*%
%ADD11C,0.150000*%
%ADD12C,0.200000*%
%ADD13C,0.300000*%
G04 APERTURE END LIST*
D10*
D11*
X4950000Y-8200000D02*
X4950000Y-13150000D01*
X10250000Y-8050000D02*
X10250000Y-8200000D01*
X4950000Y-8050000D02*
X4950000Y-8200000D01*
X10250000Y-8050000D02*
X4950000Y-8050000D01*
X10250000Y-13150000D02*
X4950000Y-13150000D01*
X10250000Y-8200000D02*
X10250000Y-13150000D01*
D12*
X6780000Y-8720000D02*
X6800000Y-8740000D01*
X6800000Y-8720000D02*
X6780000Y-8740000D01*
X6780000Y-8920000D02*
X6800000Y-8940000D01*
X6800000Y-8920000D02*
X6780000Y-8940000D01*
X6980000Y-8720000D02*
X7000000Y-8740000D01*
X7000000Y-8720000D02*
X6980000Y-8740000D01*
X6980000Y-8920000D02*
X7000000Y-8940000D01*
X7000000Y-8920000D02*
X6980000Y-8940000D01*
X5095000Y-9120000D02*
G75*
G03X5095000Y-9120000I-25000J0D01*
G01*
X5125000Y-8310000D02*
G75*
G03X5125000Y-8310000I-25000J0D01*
G01*
X5185000Y-10250000D02*
G75*
G03X5185000Y-10250000I-25000J0D01*
G01*
X5255000Y-8200000D02*
G75*
G03X5255000Y-8200000I-25000J0D01*
G01*
X5275000Y-12369000D02*
G75*
G03X5275000Y-12369000I-25000J0D01*
G01*
X5275000Y-12950000D02*
G75*
G03X5275000Y-12950000I-25000J0D01*
G01*
X5415000Y-9350000D02*
G75*
G03X5415000Y-9350000I-25000J0D01*
G01*
X5455000Y-9100000D02*
G75*
G03X5455000Y-9100000I-25000J0D01*
G01*
X5575000Y-11840000D02*
G75*
G03X5575000Y-11840000I-25000J0D01*
G01*
X5645000Y-8680000D02*
G75*
G03X5645000Y-8680000I-25000J0D01*
G01*
X5725000Y-9990000D02*
G75*
G03X5725000Y-9990000I-25000J0D01*
G01*
X5740000Y-12867000D02*
G75*
G03X5740000Y-12867000I-25000J0D01*
G01*
X5744000Y-13012000D02*
G75*
G03X5744000Y-13012000I-25000J0D01*
G01*
X5745000Y-10190000D02*
G75*
G03X5745000Y-10190000I-25000J0D01*
G01*
X5765000Y-9720000D02*
G75*
G03X5765000Y-9720000I-25000J0D01*
G01*
X5775000Y-10420000D02*
G75*
G03X5775000Y-10420000I-25000J0D01*
G01*
X5795000Y-8700000D02*
G75*
G03X5795000Y-8700000I-25000J0D01*
G01*
X5855000Y-11510000D02*
G75*
G03X5855000Y-11510000I-25000J0D01*
G01*
X5915000Y-12800000D02*
G75*
G03X5915000Y-12800000I-25000J0D01*
G01*
X5925420Y-10210800D02*
G75*
G03X5925420Y-10210800I-25000J0D01*
G01*
X5945000Y-8710000D02*
G75*
G03X5945000Y-8710000I-25000J0D01*
G01*
X5975000Y-8350000D02*
G75*
G03X5975000Y-8350000I-25000J0D01*
G01*
X5975000Y-11450000D02*
G75*
G03X5975000Y-11450000I-25000J0D01*
G01*
X6159100Y-12131040D02*
G75*
G03X6159100Y-12131040I-25000J0D01*
G01*
X6205000Y-9330000D02*
G75*
G03X6205000Y-9330000I-25000J0D01*
G01*
X6255000Y-12370000D02*
G75*
G03X6255000Y-12370000I-25000J0D01*
G01*
X6255000Y-12520000D02*
G75*
G03X6255000Y-12520000I-25000J0D01*
G01*
X6255000Y-12660000D02*
G75*
G03X6255000Y-12660000I-25000J0D01*
G01*
X6324200Y-12167870D02*
G75*
G03X6324200Y-12167870I-25000J0D01*
G01*
X6335000Y-9380000D02*
G75*
G03X6335000Y-9380000I-25000J0D01*
G01*
X6365000Y-9770000D02*
G75*
G03X6365000Y-9770000I-25000J0D01*
G01*
X6375000Y-10990000D02*
G75*
G03X6375000Y-10990000I-25000J0D01*
G01*
X6385000Y-11390000D02*
G75*
G03X6385000Y-11390000I-25000J0D01*
G01*
X6420720Y-10449560D02*
G75*
G03X6420720Y-10449560I-25000J0D01*
G01*
X6425000Y-12970000D02*
G75*
G03X6425000Y-12970000I-25000J0D01*
G01*
X6445000Y-10320000D02*
G75*
G03X6445000Y-10320000I-25000J0D01*
G01*
X6447390Y-10864850D02*
G75*
G03X6447390Y-10864850I-25000J0D01*
G01*
X6468980Y-12236450D02*
G75*
G03X6468980Y-12236450I-25000J0D01*
G01*
X6475000Y-11090000D02*
G75*
G03X6475000Y-11090000I-25000J0D01*
G01*
X6475000Y-12520000D02*
G75*
G03X6475000Y-12520000I-25000J0D01*
G01*
X6495000Y-11480000D02*
G75*
G03X6495000Y-11480000I-25000J0D01*
G01*
X6495000Y-12370000D02*
G75*
G03X6495000Y-12370000I-25000J0D01*
G01*
X6575000Y-8730000D02*
G75*
G03X6575000Y-8730000I-25000J0D01*
G01*
X6585000Y-11890000D02*
G75*
G03X6585000Y-11890000I-25000J0D01*
G01*
X6625000Y-9020000D02*
G75*
G03X6625000Y-9020000I-25000J0D01*
G01*
X6677000Y-9288000D02*
G75*
G03X6677000Y-9288000I-25000J0D01*
G01*
X6735000Y-10630000D02*
G75*
G03X6735000Y-10630000I-25000J0D01*
G01*
X6791000Y-9210000D02*
G75*
G03X6791000Y-9210000I-25000J0D01*
G01*
X6865220Y-11874500D02*
G75*
G03X6865220Y-11874500I-25000J0D01*
G01*
X6888080Y-10783570D02*
G75*
G03X6888080Y-10783570I-25000J0D01*
G01*
X6925000Y-9160000D02*
G75*
G03X6925000Y-9160000I-25000J0D01*
G01*
X6935000Y-12320000D02*
G75*
G03X6935000Y-12320000I-25000J0D01*
G01*
X6995000Y-10330000D02*
G75*
G03X6995000Y-10330000I-25000J0D01*
G01*
X7015000Y-8490000D02*
G75*
G03X7015000Y-8490000I-25000J0D01*
G01*
X7025000Y-11360000D02*
G75*
G03X7025000Y-11360000I-25000J0D01*
G01*
X7083000Y-9286000D02*
G75*
G03X7083000Y-9286000I-25000J0D01*
G01*
X7135000Y-10340000D02*
G75*
G03X7135000Y-10340000I-25000J0D01*
G01*
X7185000Y-12200000D02*
G75*
G03X7185000Y-12200000I-25000J0D01*
G01*
X7195000Y-8610000D02*
G75*
G03X7195000Y-8610000I-25000J0D01*
G01*
X7217010Y-12899390D02*
G75*
G03X7217010Y-12899390I-25000J0D01*
G01*
X7245000Y-8960000D02*
G75*
G03X7245000Y-8960000I-25000J0D01*
G01*
X7275000Y-9300000D02*
G75*
G03X7275000Y-9300000I-25000J0D01*
G01*
X7275000Y-10480000D02*
G75*
G03X7275000Y-10480000I-25000J0D01*
G01*
X7335000Y-8450000D02*
G75*
G03X7335000Y-8450000I-25000J0D01*
G01*
X7345000Y-11710000D02*
G75*
G03X7345000Y-11710000I-25000J0D01*
G01*
X7380000Y-9712000D02*
G75*
G03X7380000Y-9712000I-25000J0D01*
G01*
X7411000Y-9314000D02*
G75*
G03X7411000Y-9314000I-25000J0D01*
G01*
X7490060Y-12006580D02*
G75*
G03X7490060Y-12006580I-25000J0D01*
G01*
X7535000Y-8460000D02*
G75*
G03X7535000Y-8460000I-25000J0D01*
G01*
X7555000Y-8770000D02*
G75*
G03X7555000Y-8770000I-25000J0D01*
G01*
X7624680Y-9653270D02*
G75*
G03X7624680Y-9653270I-25000J0D01*
G01*
X7625000Y-11720000D02*
G75*
G03X7625000Y-11720000I-25000J0D01*
G01*
X7661510Y-13007340D02*
G75*
G03X7661510Y-13007340I-25000J0D01*
G01*
X7695000Y-9280000D02*
G75*
G03X7695000Y-9280000I-25000J0D01*
G01*
X7845000Y-10390000D02*
G75*
G03X7845000Y-10390000I-25000J0D01*
G01*
X7895000Y-11730000D02*
G75*
G03X7895000Y-11730000I-25000J0D01*
G01*
X7925000Y-8580000D02*
G75*
G03X7925000Y-8580000I-25000J0D01*
G01*
X7945000Y-9290000D02*
G75*
G03X7945000Y-9290000I-25000J0D01*
G01*
X7955000Y-8740000D02*
G75*
G03X7955000Y-8740000I-25000J0D01*
G01*
X8005000Y-10270000D02*
G75*
G03X8005000Y-10270000I-25000J0D01*
G01*
X8025000Y-9680000D02*
G75*
G03X8025000Y-9680000I-25000J0D01*
G01*
X8070450Y-9253220D02*
G75*
G03X8070450Y-9253220I-25000J0D01*
G01*
X8075000Y-9900000D02*
G75*
G03X8075000Y-9900000I-25000J0D01*
G01*
X8155000Y-11220000D02*
G75*
G03X8155000Y-11220000I-25000J0D01*
G01*
X8205000Y-8170000D02*
G75*
G03X8205000Y-8170000I-25000J0D01*
G01*
X8205000Y-8730000D02*
G75*
G03X8205000Y-8730000I-25000J0D01*
G01*
X8215000Y-9850000D02*
G75*
G03X8215000Y-9850000I-25000J0D01*
G01*
X8395000Y-9120000D02*
G75*
G03X8395000Y-9120000I-25000J0D01*
G01*
X8395000Y-11220000D02*
G75*
G03X8395000Y-11220000I-25000J0D01*
G01*
X8405000Y-11730000D02*
G75*
G03X8405000Y-11730000I-25000J0D01*
G01*
X8405000Y-12040000D02*
G75*
G03X8405000Y-12040000I-25000J0D01*
G01*
X8515000Y-8700000D02*
G75*
G03X8515000Y-8700000I-25000J0D01*
G01*
X8560670Y-12054840D02*
G75*
G03X8560670Y-12054840I-25000J0D01*
G01*
X8575000Y-10100000D02*
G75*
G03X8575000Y-10100000I-25000J0D01*
G01*
X8655000Y-11220000D02*
G75*
G03X8655000Y-11220000I-25000J0D01*
G01*
X8875000Y-8710000D02*
G75*
G03X8875000Y-8710000I-25000J0D01*
G01*
X8885000Y-9280000D02*
G75*
G03X8885000Y-9280000I-25000J0D01*
G01*
X8935000Y-10550000D02*
G75*
G03X8935000Y-10550000I-25000J0D01*
G01*
X8945000Y-12540000D02*
G75*
G03X8945000Y-12540000I-25000J0D01*
G01*
X8995000Y-10850000D02*
G75*
G03X8995000Y-10850000I-25000J0D01*
G01*
X9008980Y-11903710D02*
G75*
G03X9008980Y-11903710I-25000J0D01*
G01*
X9095000Y-9580000D02*
G75*
G03X9095000Y-9580000I-25000J0D01*
G01*
X9215000Y-9290000D02*
G75*
G03X9215000Y-9290000I-25000J0D01*
G01*
X9235000Y-9070000D02*
G75*
G03X9235000Y-9070000I-25000J0D01*
G01*
X9335000Y-9440000D02*
G75*
G03X9335000Y-9440000I-25000J0D01*
G01*
X9364580Y-11963400D02*
G75*
G03X9364580Y-11963400I-25000J0D01*
G01*
X9425000Y-9960000D02*
G75*
G03X9425000Y-9960000I-25000J0D01*
G01*
X9475000Y-10950000D02*
G75*
G03X9475000Y-10950000I-25000J0D01*
G01*
X9585000Y-9490000D02*
G75*
G03X9585000Y-9490000I-25000J0D01*
G01*
X9803190Y-11300000D02*
G75*
G03X9803190Y-11300000I-25000J0D01*
G01*
X9805000Y-10350000D02*
G75*
G03X9805000Y-10350000I-25000J0D01*
G01*
X9885000Y-8210000D02*
G75*
G03X9885000Y-8210000I-25000J0D01*
G01*
X10015000Y-11480000D02*
G75*
G03X10015000Y-11480000I-25000J0D01*
G01*
X10015000Y-11760000D02*
G75*
G03X10015000Y-11760000I-25000J0D01*
G01*
X10015000Y-12040000D02*
G75*
G03X10015000Y-12040000I-25000J0D01*
G01*
X10089000Y-9324000D02*
G75*
G03X10089000Y-9324000I-25000J0D01*
G01*
X10093000Y-9582000D02*
G75*
G03X10093000Y-9582000I-25000J0D01*
G01*
X10095000Y-8200000D02*
G75*
G03X10095000Y-8200000I-25000J0D01*
G01*
X10105000Y-9820000D02*
G75*
G03X10105000Y-9820000I-25000J0D01*
G01*
X10135000Y-10110000D02*
G75*
G03X10135000Y-10110000I-25000J0D01*
G01*
X10135000Y-10400000D02*
G75*
G03X10135000Y-10400000I-25000J0D01*
G01*
X10135000Y-10610000D02*
G75*
G03X10135000Y-10610000I-25000J0D01*
G01*
X7218680Y-12711990D02*
X7218680Y-12781990D01*
X7183680Y-12746990D02*
X7253680Y-12746990D01*
X7759700Y-12666270D02*
X7759700Y-12736270D01*
X7724700Y-12701270D02*
X7794700Y-12701270D01*
X7900000Y-8335000D02*
X7900000Y-8405000D01*
X7865000Y-8370000D02*
X7935000Y-8370000D01*
X8270000Y-12745000D02*
X8270000Y-12815000D01*
X8235000Y-12780000D02*
X8305000Y-12780000D01*
X8590000Y-9205000D02*
X8590000Y-9275000D01*
X8555000Y-9240000D02*
X8625000Y-9240000D01*
X8600000Y-9765000D02*
X8600000Y-9835000D01*
X8565000Y-9800000D02*
X8635000Y-9800000D01*
X8790000Y-12185000D02*
X8790000Y-12255000D01*
X8755000Y-12220000D02*
X8825000Y-12220000D01*
X9150000Y-8245000D02*
X9150000Y-8315000D01*
X9115000Y-8280000D02*
X9185000Y-8280000D01*
X9200000Y-12195000D02*
X9200000Y-12265000D01*
X9165000Y-12230000D02*
X9235000Y-12230000D01*
X5608284Y-10308285D02*
X5608284Y-10251716D01*
X5551716Y-10251716D01*
X5551716Y-10308285D01*
X5608284Y-10308285D01*
X5778284Y-10618285D02*
X5778284Y-10561716D01*
X5721715Y-10561716D01*
X5721715Y-10618285D01*
X5778284Y-10618285D01*
X5798284Y-11188284D02*
X5798284Y-11131716D01*
X5741715Y-11131716D01*
X5741715Y-11188284D01*
X5798284Y-11188284D01*
X6438284Y-11258284D02*
X6438284Y-11201715D01*
X6381715Y-11201715D01*
X6381715Y-11258284D01*
X6438284Y-11258284D01*
X5350000Y-9960000D02*
X5410000Y-9900000D01*
X5350000Y-9840000D01*
X5290000Y-9900000D01*
X5350000Y-9960000D01*
X5350000Y-10214000D02*
X5410000Y-10154000D01*
X5350000Y-10094000D01*
X5290000Y-10154000D01*
X5350000Y-10214000D01*
X5350000Y-10468000D02*
X5410000Y-10408000D01*
X5350000Y-10348000D01*
X5290000Y-10408000D01*
X5350000Y-10468000D01*
X5350000Y-10722000D02*
X5410000Y-10662000D01*
X5350000Y-10602000D01*
X5290000Y-10662000D01*
X5350000Y-10722000D01*
X5350000Y-10976000D02*
X5410000Y-10916000D01*
X5350000Y-10856000D01*
X5290000Y-10916000D01*
X5350000Y-10976000D01*
X5350000Y-11230000D02*
X5410000Y-11170000D01*
X5350000Y-11110000D01*
X5290000Y-11170000D01*
X5350000Y-11230000D01*
X5350000Y-11484000D02*
X5410000Y-11424000D01*
X5350000Y-11364000D01*
X5290000Y-11424000D01*
X5350000Y-11484000D01*
X5350000Y-11738000D02*
X5410000Y-11678000D01*
X5350000Y-11618000D01*
X5290000Y-11678000D01*
X5350000Y-11738000D01*
X5350000Y-11992000D02*
X5410000Y-11932000D01*
X5350000Y-11872000D01*
X5290000Y-11932000D01*
X5350000Y-11992000D01*
X9675000Y-8625000D02*
X9825000Y-8775000D01*
X9825000Y-8625000D02*
X9675000Y-8775000D01*
X9825000Y-8700000D02*
G75*
G03X9825000Y-8700000I-75000J0D01*
G01*
X9675000Y-12575000D02*
X9825000Y-12725000D01*
X9825000Y-12575000D02*
X9675000Y-12725000D01*
X9825000Y-12650000D02*
G75*
G03X9825000Y-12650000I-75000J0D01*
G01*
X9411000Y-8361000D02*
X9581000Y-8531000D01*
X9581000Y-8361000D02*
X9411000Y-8531000D01*
X9496000Y-8361000D02*
X9496000Y-8531000D01*
X9411000Y-8446000D02*
X9581000Y-8446000D01*
X9411000Y-8869000D02*
X9581000Y-9039000D01*
X9581000Y-8869000D02*
X9411000Y-9039000D01*
X9496000Y-8869000D02*
X9496000Y-9039000D01*
X9411000Y-8954000D02*
X9581000Y-8954000D01*
X9411000Y-12311000D02*
X9581000Y-12481000D01*
X9581000Y-12311000D02*
X9411000Y-12481000D01*
X9496000Y-12311000D02*
X9496000Y-12481000D01*
X9411000Y-12396000D02*
X9581000Y-12396000D01*
X9411000Y-12819000D02*
X9581000Y-12989000D01*
X9581000Y-12819000D02*
X9411000Y-12989000D01*
X9496000Y-12819000D02*
X9496000Y-12989000D01*
X9411000Y-12904000D02*
X9581000Y-12904000D01*
X9919000Y-8361000D02*
X10089000Y-8531000D01*
X10089000Y-8361000D02*
X9919000Y-8531000D01*
X10004000Y-8361000D02*
X10004000Y-8531000D01*
X9919000Y-8446000D02*
X10089000Y-8446000D01*
X9919000Y-8869000D02*
X10089000Y-9039000D01*
X10089000Y-8869000D02*
X9919000Y-9039000D01*
X10004000Y-8869000D02*
X10004000Y-9039000D01*
X9919000Y-8954000D02*
X10089000Y-8954000D01*
X9919000Y-12311000D02*
X10089000Y-12481000D01*
X10089000Y-12311000D02*
X9919000Y-12481000D01*
X10004000Y-12311000D02*
X10004000Y-12481000D01*
X9919000Y-12396000D02*
X10089000Y-12396000D01*
X9919000Y-12819000D02*
X10089000Y-12989000D01*
X10089000Y-12819000D02*
X9919000Y-12989000D01*
X10004000Y-12819000D02*
X10004000Y-12989000D01*
X9919000Y-12904000D02*
X10089000Y-12904000D01*
D13*
X5213929Y-13623214D02*
X5213929Y-13323214D01*
X5285357Y-13323214D01*
X5328214Y-13337500D01*
X5356786Y-13366071D01*
X5371071Y-13394643D01*
X5385357Y-13451786D01*
X5385357Y-13494643D01*
X5371071Y-13551786D01*
X5356786Y-13580357D01*
X5328214Y-13608929D01*
X5285357Y-13623214D01*
X5213929Y-13623214D01*
X5513929Y-13623214D02*
X5513929Y-13423214D01*
X5513929Y-13480357D02*
X5528214Y-13451786D01*
X5542500Y-13437500D01*
X5571071Y-13423214D01*
X5599643Y-13423214D01*
X5699643Y-13623214D02*
X5699643Y-13423214D01*
X5699643Y-13323214D02*
X5685357Y-13337500D01*
X5699643Y-13351786D01*
X5713928Y-13337500D01*
X5699643Y-13323214D01*
X5699643Y-13351786D01*
X5885357Y-13623214D02*
X5856786Y-13608929D01*
X5842500Y-13580357D01*
X5842500Y-13323214D01*
X6042500Y-13623214D02*
X6013928Y-13608929D01*
X5999643Y-13580357D01*
X5999643Y-13323214D01*
X6385357Y-13623214D02*
X6385357Y-13323214D01*
X6485357Y-13537500D01*
X6585357Y-13323214D01*
X6585357Y-13623214D01*
X6856786Y-13623214D02*
X6856786Y-13466071D01*
X6842500Y-13437500D01*
X6813928Y-13423214D01*
X6756786Y-13423214D01*
X6728214Y-13437500D01*
X6856786Y-13608929D02*
X6828214Y-13623214D01*
X6756786Y-13623214D01*
X6728214Y-13608929D01*
X6713928Y-13580357D01*
X6713928Y-13551786D01*
X6728214Y-13523214D01*
X6756786Y-13508929D01*
X6828214Y-13508929D01*
X6856786Y-13494643D01*
X6999643Y-13423214D02*
X6999643Y-13723214D01*
X6999643Y-13437500D02*
X7028214Y-13423214D01*
X7085357Y-13423214D01*
X7113928Y-13437500D01*
X7128214Y-13451786D01*
X7142500Y-13480357D01*
X7142500Y-13566071D01*
X7128214Y-13594643D01*
X7113928Y-13608929D01*
X7085357Y-13623214D01*
X7028214Y-13623214D01*
X6999643Y-13608929D01*
X7271071Y-13594643D02*
X7285357Y-13608929D01*
X7271071Y-13623214D01*
X7256786Y-13608929D01*
X7271071Y-13594643D01*
X7271071Y-13623214D01*
X7271071Y-13437500D02*
X7285357Y-13451786D01*
X7271071Y-13466071D01*
X7256786Y-13451786D01*
X7271071Y-13437500D01*
X7271071Y-13466071D01*
X4922500Y-14107500D02*
X4942500Y-14127500D01*
X4942500Y-14107500D02*
X4922500Y-14127500D01*
X5271071Y-13953214D02*
X5299643Y-13953214D01*
X5328214Y-13967500D01*
X5342500Y-13981786D01*
X5356786Y-14010357D01*
X5371071Y-14067500D01*
X5371071Y-14138929D01*
X5356786Y-14196071D01*
X5342500Y-14224643D01*
X5328214Y-14238929D01*
X5299643Y-14253214D01*
X5271071Y-14253214D01*
X5242500Y-14238929D01*
X5228214Y-14224643D01*
X5213929Y-14196071D01*
X5199643Y-14138929D01*
X5199643Y-14067500D01*
X5213929Y-14010357D01*
X5228214Y-13981786D01*
X5242500Y-13967500D01*
X5271071Y-13953214D01*
X5499643Y-14224643D02*
X5513929Y-14238929D01*
X5499643Y-14253214D01*
X5485357Y-14238929D01*
X5499643Y-14224643D01*
X5499643Y-14253214D01*
X5628214Y-13981786D02*
X5642500Y-13967500D01*
X5671071Y-13953214D01*
X5742500Y-13953214D01*
X5771071Y-13967500D01*
X5785357Y-13981786D01*
X5799643Y-14010357D01*
X5799643Y-14038929D01*
X5785357Y-14081786D01*
X5613928Y-14253214D01*
X5799643Y-14253214D01*
X5985357Y-13953214D02*
X6013928Y-13953214D01*
X6042500Y-13967500D01*
X6056786Y-13981786D01*
X6071071Y-14010357D01*
X6085357Y-14067500D01*
X6085357Y-14138929D01*
X6071071Y-14196071D01*
X6056786Y-14224643D01*
X6042500Y-14238929D01*
X6013928Y-14253214D01*
X5985357Y-14253214D01*
X5956786Y-14238929D01*
X5942500Y-14224643D01*
X5928214Y-14196071D01*
X5913928Y-14138929D01*
X5913928Y-14067500D01*
X5928214Y-14010357D01*
X5942500Y-13981786D01*
X5956786Y-13967500D01*
X5985357Y-13953214D01*
X6213928Y-14253214D02*
X6213928Y-14053214D01*
X6213928Y-14081786D02*
X6228214Y-14067500D01*
X6256786Y-14053214D01*
X6299643Y-14053214D01*
X6328214Y-14067500D01*
X6342500Y-14096071D01*
X6342500Y-14253214D01*
X6342500Y-14096071D02*
X6356786Y-14067500D01*
X6385357Y-14053214D01*
X6428214Y-14053214D01*
X6456786Y-14067500D01*
X6471071Y-14096071D01*
X6471071Y-14253214D01*
X6613928Y-14253214D02*
X6613928Y-14053214D01*
X6613928Y-14081786D02*
X6628214Y-14067500D01*
X6656786Y-14053214D01*
X6699643Y-14053214D01*
X6728214Y-14067500D01*
X6742500Y-14096071D01*
X6742500Y-14253214D01*
X6742500Y-14096071D02*
X6756786Y-14067500D01*
X6785357Y-14053214D01*
X6828214Y-14053214D01*
X6856786Y-14067500D01*
X6871071Y-14096071D01*
X6871071Y-14253214D01*
X7456786Y-13938929D02*
X7199643Y-14324643D01*
X7842500Y-13953214D02*
X7871071Y-13953214D01*
X7899643Y-13967500D01*
X7913928Y-13981786D01*
X7928214Y-14010357D01*
X7942500Y-14067500D01*
X7942500Y-14138929D01*
X7928214Y-14196071D01*
X7913928Y-14224643D01*
X7899643Y-14238929D01*
X7871071Y-14253214D01*
X7842500Y-14253214D01*
X7813928Y-14238929D01*
X7799643Y-14224643D01*
X7785357Y-14196071D01*
X7771071Y-14138929D01*
X7771071Y-14067500D01*
X7785357Y-14010357D01*
X7799643Y-13981786D01*
X7813928Y-13967500D01*
X7842500Y-13953214D01*
X8071071Y-14224643D02*
X8085357Y-14238929D01*
X8071071Y-14253214D01*
X8056786Y-14238929D01*
X8071071Y-14224643D01*
X8071071Y-14253214D01*
X8271071Y-13953214D02*
X8299643Y-13953214D01*
X8328214Y-13967500D01*
X8342500Y-13981786D01*
X8356785Y-14010357D01*
X8371071Y-14067500D01*
X8371071Y-14138929D01*
X8356785Y-14196071D01*
X8342500Y-14224643D01*
X8328214Y-14238929D01*
X8299643Y-14253214D01*
X8271071Y-14253214D01*
X8242500Y-14238929D01*
X8228214Y-14224643D01*
X8213928Y-14196071D01*
X8199643Y-14138929D01*
X8199643Y-14067500D01*
X8213928Y-14010357D01*
X8228214Y-13981786D01*
X8242500Y-13967500D01*
X8271071Y-13953214D01*
X8556786Y-13953214D02*
X8585357Y-13953214D01*
X8613928Y-13967500D01*
X8628214Y-13981786D01*
X8642500Y-14010357D01*
X8656786Y-14067500D01*
X8656786Y-14138929D01*
X8642500Y-14196071D01*
X8628214Y-14224643D01*
X8613928Y-14238929D01*
X8585357Y-14253214D01*
X8556786Y-14253214D01*
X8528214Y-14238929D01*
X8513928Y-14224643D01*
X8499643Y-14196071D01*
X8485357Y-14138929D01*
X8485357Y-14067500D01*
X8499643Y-14010357D01*
X8513928Y-13981786D01*
X8528214Y-13967500D01*
X8556786Y-13953214D01*
X8828214Y-14081786D02*
X8799643Y-14067500D01*
X8785357Y-14053214D01*
X8771071Y-14024643D01*
X8771071Y-14010357D01*
X8785357Y-13981786D01*
X8799643Y-13967500D01*
X8828214Y-13953214D01*
X8885357Y-13953214D01*
X8913928Y-13967500D01*
X8928214Y-13981786D01*
X8942500Y-14010357D01*
X8942500Y-14024643D01*
X8928214Y-14053214D01*
X8913928Y-14067500D01*
X8885357Y-14081786D01*
X8828214Y-14081786D01*
X8799643Y-14096071D01*
X8785357Y-14110357D01*
X8771071Y-14138929D01*
X8771071Y-14196071D01*
X8785357Y-14224643D01*
X8799643Y-14238929D01*
X8828214Y-14253214D01*
X8885357Y-14253214D01*
X8913928Y-14238929D01*
X8928214Y-14224643D01*
X8942500Y-14196071D01*
X8942500Y-14138929D01*
X8928214Y-14110357D01*
X8913928Y-14096071D01*
X8885357Y-14081786D01*
X9056786Y-13953214D02*
X9056786Y-14010357D01*
X9171071Y-13953214D02*
X9171071Y-14010357D01*
X9613928Y-14367500D02*
X9599643Y-14353214D01*
X9571071Y-14310357D01*
X9556786Y-14281786D01*
X9542500Y-14238929D01*
X9528214Y-14167500D01*
X9528214Y-14110357D01*
X9542500Y-14038929D01*
X9556786Y-13996071D01*
X9571071Y-13967500D01*
X9599643Y-13924643D01*
X9613928Y-13910357D01*
X9856786Y-14053214D02*
X9856786Y-14253214D01*
X9785357Y-13938929D02*
X9713928Y-14153214D01*
X9899643Y-14153214D01*
X10242500Y-14253214D02*
X10242500Y-13953214D01*
X10371071Y-14253214D02*
X10371071Y-14096071D01*
X10356786Y-14067500D01*
X10328214Y-14053214D01*
X10285357Y-14053214D01*
X10256786Y-14067500D01*
X10242500Y-14081786D01*
X10556786Y-14253214D02*
X10528214Y-14238929D01*
X10513928Y-14224643D01*
X10499643Y-14196071D01*
X10499643Y-14110357D01*
X10513928Y-14081786D01*
X10528214Y-14067500D01*
X10556786Y-14053214D01*
X10599643Y-14053214D01*
X10628214Y-14067500D01*
X10642500Y-14081786D01*
X10656786Y-14110357D01*
X10656786Y-14196071D01*
X10642500Y-14224643D01*
X10628214Y-14238929D01*
X10599643Y-14253214D01*
X10556786Y-14253214D01*
X10828214Y-14253214D02*
X10799643Y-14238929D01*
X10785357Y-14210357D01*
X10785357Y-13953214D01*
X11056786Y-14238929D02*
X11028214Y-14253214D01*
X10971071Y-14253214D01*
X10942500Y-14238929D01*
X10928214Y-14210357D01*
X10928214Y-14096071D01*
X10942500Y-14067500D01*
X10971071Y-14053214D01*
X11028214Y-14053214D01*
X11056786Y-14067500D01*
X11071071Y-14096071D01*
X11071071Y-14124643D01*
X10928214Y-14153214D01*
X11185357Y-14238929D02*
X11213928Y-14253214D01*
X11271071Y-14253214D01*
X11299643Y-14238929D01*
X11313928Y-14210357D01*
X11313928Y-14196071D01*
X11299643Y-14167500D01*
X11271071Y-14153214D01*
X11228214Y-14153214D01*
X11199643Y-14138929D01*
X11185357Y-14110357D01*
X11185357Y-14096071D01*
X11199643Y-14067500D01*
X11228214Y-14053214D01*
X11271071Y-14053214D01*
X11299643Y-14067500D01*
X11413928Y-14367500D02*
X11428214Y-14353214D01*
X11456786Y-14310357D01*
X11471071Y-14281786D01*
X11485357Y-14238929D01*
X11499643Y-14167500D01*
X11499643Y-14110357D01*
X11485357Y-14038929D01*
X11471071Y-13996071D01*
X11456786Y-13967500D01*
X11428214Y-13924643D01*
X11413928Y-13910357D01*
X4942500Y-14513500D02*
G75*
G03X4942500Y-14513500I-25000J0D01*
G01*
X5271071Y-14349214D02*
X5299643Y-14349214D01*
X5328214Y-14363500D01*
X5342500Y-14377786D01*
X5356786Y-14406357D01*
X5371071Y-14463500D01*
X5371071Y-14534929D01*
X5356786Y-14592071D01*
X5342500Y-14620643D01*
X5328214Y-14634929D01*
X5299643Y-14649214D01*
X5271071Y-14649214D01*
X5242500Y-14634929D01*
X5228214Y-14620643D01*
X5213929Y-14592071D01*
X5199643Y-14534929D01*
X5199643Y-14463500D01*
X5213929Y-14406357D01*
X5228214Y-14377786D01*
X5242500Y-14363500D01*
X5271071Y-14349214D01*
X5499643Y-14620643D02*
X5513929Y-14634929D01*
X5499643Y-14649214D01*
X5485357Y-14634929D01*
X5499643Y-14620643D01*
X5499643Y-14649214D01*
X5785357Y-14349214D02*
X5642500Y-14349214D01*
X5628214Y-14492071D01*
X5642500Y-14477786D01*
X5671071Y-14463500D01*
X5742500Y-14463500D01*
X5771071Y-14477786D01*
X5785357Y-14492071D01*
X5799643Y-14520643D01*
X5799643Y-14592071D01*
X5785357Y-14620643D01*
X5771071Y-14634929D01*
X5742500Y-14649214D01*
X5671071Y-14649214D01*
X5642500Y-14634929D01*
X5628214Y-14620643D01*
X5985357Y-14349214D02*
X6013928Y-14349214D01*
X6042500Y-14363500D01*
X6056786Y-14377786D01*
X6071071Y-14406357D01*
X6085357Y-14463500D01*
X6085357Y-14534929D01*
X6071071Y-14592071D01*
X6056786Y-14620643D01*
X6042500Y-14634929D01*
X6013928Y-14649214D01*
X5985357Y-14649214D01*
X5956786Y-14634929D01*
X5942500Y-14620643D01*
X5928214Y-14592071D01*
X5913928Y-14534929D01*
X5913928Y-14463500D01*
X5928214Y-14406357D01*
X5942500Y-14377786D01*
X5956786Y-14363500D01*
X5985357Y-14349214D01*
X6213928Y-14649214D02*
X6213928Y-14449214D01*
X6213928Y-14477786D02*
X6228214Y-14463500D01*
X6256786Y-14449214D01*
X6299643Y-14449214D01*
X6328214Y-14463500D01*
X6342500Y-14492071D01*
X6342500Y-14649214D01*
X6342500Y-14492071D02*
X6356786Y-14463500D01*
X6385357Y-14449214D01*
X6428214Y-14449214D01*
X6456786Y-14463500D01*
X6471071Y-14492071D01*
X6471071Y-14649214D01*
X6613928Y-14649214D02*
X6613928Y-14449214D01*
X6613928Y-14477786D02*
X6628214Y-14463500D01*
X6656786Y-14449214D01*
X6699643Y-14449214D01*
X6728214Y-14463500D01*
X6742500Y-14492071D01*
X6742500Y-14649214D01*
X6742500Y-14492071D02*
X6756786Y-14463500D01*
X6785357Y-14449214D01*
X6828214Y-14449214D01*
X6856786Y-14463500D01*
X6871071Y-14492071D01*
X6871071Y-14649214D01*
X7456786Y-14334929D02*
X7199643Y-14720643D01*
X7842500Y-14349214D02*
X7871071Y-14349214D01*
X7899643Y-14363500D01*
X7913928Y-14377786D01*
X7928214Y-14406357D01*
X7942500Y-14463500D01*
X7942500Y-14534929D01*
X7928214Y-14592071D01*
X7913928Y-14620643D01*
X7899643Y-14634929D01*
X7871071Y-14649214D01*
X7842500Y-14649214D01*
X7813928Y-14634929D01*
X7799643Y-14620643D01*
X7785357Y-14592071D01*
X7771071Y-14534929D01*
X7771071Y-14463500D01*
X7785357Y-14406357D01*
X7799643Y-14377786D01*
X7813928Y-14363500D01*
X7842500Y-14349214D01*
X8071071Y-14620643D02*
X8085357Y-14634929D01*
X8071071Y-14649214D01*
X8056786Y-14634929D01*
X8071071Y-14620643D01*
X8071071Y-14649214D01*
X8271071Y-14349214D02*
X8299643Y-14349214D01*
X8328214Y-14363500D01*
X8342500Y-14377786D01*
X8356785Y-14406357D01*
X8371071Y-14463500D01*
X8371071Y-14534929D01*
X8356785Y-14592071D01*
X8342500Y-14620643D01*
X8328214Y-14634929D01*
X8299643Y-14649214D01*
X8271071Y-14649214D01*
X8242500Y-14634929D01*
X8228214Y-14620643D01*
X8213928Y-14592071D01*
X8199643Y-14534929D01*
X8199643Y-14463500D01*
X8213928Y-14406357D01*
X8228214Y-14377786D01*
X8242500Y-14363500D01*
X8271071Y-14349214D01*
X8485357Y-14377786D02*
X8499643Y-14363500D01*
X8528214Y-14349214D01*
X8599643Y-14349214D01*
X8628214Y-14363500D01*
X8642500Y-14377786D01*
X8656786Y-14406357D01*
X8656786Y-14434929D01*
X8642500Y-14477786D01*
X8471071Y-14649214D01*
X8656786Y-14649214D01*
X8842500Y-14349214D02*
X8871071Y-14349214D01*
X8899643Y-14363500D01*
X8913928Y-14377786D01*
X8928214Y-14406357D01*
X8942500Y-14463500D01*
X8942500Y-14534929D01*
X8928214Y-14592071D01*
X8913928Y-14620643D01*
X8899643Y-14634929D01*
X8871071Y-14649214D01*
X8842500Y-14649214D01*
X8813928Y-14634929D01*
X8799643Y-14620643D01*
X8785357Y-14592071D01*
X8771071Y-14534929D01*
X8771071Y-14463500D01*
X8785357Y-14406357D01*
X8799643Y-14377786D01*
X8813928Y-14363500D01*
X8842500Y-14349214D01*
X9056786Y-14349214D02*
X9056786Y-14406357D01*
X9171071Y-14349214D02*
X9171071Y-14406357D01*
X9613928Y-14763500D02*
X9599643Y-14749214D01*
X9571071Y-14706357D01*
X9556786Y-14677786D01*
X9542500Y-14634929D01*
X9528214Y-14563500D01*
X9528214Y-14506357D01*
X9542500Y-14434929D01*
X9556786Y-14392071D01*
X9571071Y-14363500D01*
X9599643Y-14320643D01*
X9613928Y-14306357D01*
X9885357Y-14649214D02*
X9713928Y-14649214D01*
X9799643Y-14649214D02*
X9799643Y-14349214D01*
X9771071Y-14392071D01*
X9742500Y-14420643D01*
X9713928Y-14434929D01*
X9999643Y-14377786D02*
X10013928Y-14363500D01*
X10042500Y-14349214D01*
X10113928Y-14349214D01*
X10142500Y-14363500D01*
X10156786Y-14377786D01*
X10171071Y-14406357D01*
X10171071Y-14434929D01*
X10156786Y-14477786D01*
X9985357Y-14649214D01*
X10171071Y-14649214D01*
X10285357Y-14377786D02*
X10299643Y-14363500D01*
X10328214Y-14349214D01*
X10399643Y-14349214D01*
X10428214Y-14363500D01*
X10442500Y-14377786D01*
X10456786Y-14406357D01*
X10456786Y-14434929D01*
X10442500Y-14477786D01*
X10271071Y-14649214D01*
X10456786Y-14649214D01*
X10813928Y-14649214D02*
X10813928Y-14349214D01*
X10942500Y-14649214D02*
X10942500Y-14492071D01*
X10928214Y-14463500D01*
X10899643Y-14449214D01*
X10856786Y-14449214D01*
X10828214Y-14463500D01*
X10813928Y-14477786D01*
X11128214Y-14649214D02*
X11099643Y-14634929D01*
X11085357Y-14620643D01*
X11071071Y-14592071D01*
X11071071Y-14506357D01*
X11085357Y-14477786D01*
X11099643Y-14463500D01*
X11128214Y-14449214D01*
X11171071Y-14449214D01*
X11199643Y-14463500D01*
X11213928Y-14477786D01*
X11228214Y-14506357D01*
X11228214Y-14592071D01*
X11213928Y-14620643D01*
X11199643Y-14634929D01*
X11171071Y-14649214D01*
X11128214Y-14649214D01*
X11399643Y-14649214D02*
X11371071Y-14634929D01*
X11356786Y-14606357D01*
X11356786Y-14349214D01*
X11628214Y-14634929D02*
X11599643Y-14649214D01*
X11542500Y-14649214D01*
X11513928Y-14634929D01*
X11499643Y-14606357D01*
X11499643Y-14492071D01*
X11513928Y-14463500D01*
X11542500Y-14449214D01*
X11599643Y-14449214D01*
X11628214Y-14463500D01*
X11642500Y-14492071D01*
X11642500Y-14520643D01*
X11499643Y-14549214D01*
X11756786Y-14634929D02*
X11785357Y-14649214D01*
X11842500Y-14649214D01*
X11871071Y-14634929D01*
X11885357Y-14606357D01*
X11885357Y-14592071D01*
X11871071Y-14563500D01*
X11842500Y-14549214D01*
X11799643Y-14549214D01*
X11771071Y-14534929D01*
X11756786Y-14506357D01*
X11756786Y-14492071D01*
X11771071Y-14463500D01*
X11799643Y-14449214D01*
X11842500Y-14449214D01*
X11871071Y-14463500D01*
X11985357Y-14763500D02*
X11999643Y-14749214D01*
X12028214Y-14706357D01*
X12042500Y-14677786D01*
X12056786Y-14634929D01*
X12071071Y-14563500D01*
X12071071Y-14506357D01*
X12056786Y-14434929D01*
X12042500Y-14392071D01*
X12028214Y-14363500D01*
X11999643Y-14320643D01*
X11985357Y-14306357D01*
X4907500Y-14874500D02*
X4907500Y-14944500D01*
X4872500Y-14909500D02*
X4942500Y-14909500D01*
X5271071Y-14745214D02*
X5299643Y-14745214D01*
X5328214Y-14759500D01*
X5342500Y-14773786D01*
X5356786Y-14802357D01*
X5371071Y-14859500D01*
X5371071Y-14930929D01*
X5356786Y-14988071D01*
X5342500Y-15016643D01*
X5328214Y-15030929D01*
X5299643Y-15045214D01*
X5271071Y-15045214D01*
X5242500Y-15030929D01*
X5228214Y-15016643D01*
X5213929Y-14988071D01*
X5199643Y-14930929D01*
X5199643Y-14859500D01*
X5213929Y-14802357D01*
X5228214Y-14773786D01*
X5242500Y-14759500D01*
X5271071Y-14745214D01*
X5499643Y-15016643D02*
X5513929Y-15030929D01*
X5499643Y-15045214D01*
X5485357Y-15030929D01*
X5499643Y-15016643D01*
X5499643Y-15045214D01*
X5613928Y-14745214D02*
X5813928Y-14745214D01*
X5685357Y-15045214D01*
X5985357Y-14745214D02*
X6013928Y-14745214D01*
X6042500Y-14759500D01*
X6056786Y-14773786D01*
X6071071Y-14802357D01*
X6085357Y-14859500D01*
X6085357Y-14930929D01*
X6071071Y-14988071D01*
X6056786Y-15016643D01*
X6042500Y-15030929D01*
X6013928Y-15045214D01*
X5985357Y-15045214D01*
X5956786Y-15030929D01*
X5942500Y-15016643D01*
X5928214Y-14988071D01*
X5913928Y-14930929D01*
X5913928Y-14859500D01*
X5928214Y-14802357D01*
X5942500Y-14773786D01*
X5956786Y-14759500D01*
X5985357Y-14745214D01*
X6213928Y-15045214D02*
X6213928Y-14845214D01*
X6213928Y-14873786D02*
X6228214Y-14859500D01*
X6256786Y-14845214D01*
X6299643Y-14845214D01*
X6328214Y-14859500D01*
X6342500Y-14888071D01*
X6342500Y-15045214D01*
X6342500Y-14888071D02*
X6356786Y-14859500D01*
X6385357Y-14845214D01*
X6428214Y-14845214D01*
X6456786Y-14859500D01*
X6471071Y-14888071D01*
X6471071Y-15045214D01*
X6613928Y-15045214D02*
X6613928Y-14845214D01*
X6613928Y-14873786D02*
X6628214Y-14859500D01*
X6656786Y-14845214D01*
X6699643Y-14845214D01*
X6728214Y-14859500D01*
X6742500Y-14888071D01*
X6742500Y-15045214D01*
X6742500Y-14888071D02*
X6756786Y-14859500D01*
X6785357Y-14845214D01*
X6828214Y-14845214D01*
X6856786Y-14859500D01*
X6871071Y-14888071D01*
X6871071Y-15045214D01*
X7456786Y-14730929D02*
X7199643Y-15116643D01*
X7842500Y-14745214D02*
X7871071Y-14745214D01*
X7899643Y-14759500D01*
X7913928Y-14773786D01*
X7928214Y-14802357D01*
X7942500Y-14859500D01*
X7942500Y-14930929D01*
X7928214Y-14988071D01*
X7913928Y-15016643D01*
X7899643Y-15030929D01*
X7871071Y-15045214D01*
X7842500Y-15045214D01*
X7813928Y-15030929D01*
X7799643Y-15016643D01*
X7785357Y-14988071D01*
X7771071Y-14930929D01*
X7771071Y-14859500D01*
X7785357Y-14802357D01*
X7799643Y-14773786D01*
X7813928Y-14759500D01*
X7842500Y-14745214D01*
X8071071Y-15016643D02*
X8085357Y-15030929D01*
X8071071Y-15045214D01*
X8056786Y-15030929D01*
X8071071Y-15016643D01*
X8071071Y-15045214D01*
X8271071Y-14745214D02*
X8299643Y-14745214D01*
X8328214Y-14759500D01*
X8342500Y-14773786D01*
X8356785Y-14802357D01*
X8371071Y-14859500D01*
X8371071Y-14930929D01*
X8356785Y-14988071D01*
X8342500Y-15016643D01*
X8328214Y-15030929D01*
X8299643Y-15045214D01*
X8271071Y-15045214D01*
X8242500Y-15030929D01*
X8228214Y-15016643D01*
X8213928Y-14988071D01*
X8199643Y-14930929D01*
X8199643Y-14859500D01*
X8213928Y-14802357D01*
X8228214Y-14773786D01*
X8242500Y-14759500D01*
X8271071Y-14745214D01*
X8485357Y-14773786D02*
X8499643Y-14759500D01*
X8528214Y-14745214D01*
X8599643Y-14745214D01*
X8628214Y-14759500D01*
X8642500Y-14773786D01*
X8656786Y-14802357D01*
X8656786Y-14830929D01*
X8642500Y-14873786D01*
X8471071Y-15045214D01*
X8656786Y-15045214D01*
X8828214Y-14873786D02*
X8799643Y-14859500D01*
X8785357Y-14845214D01*
X8771071Y-14816643D01*
X8771071Y-14802357D01*
X8785357Y-14773786D01*
X8799643Y-14759500D01*
X8828214Y-14745214D01*
X8885357Y-14745214D01*
X8913928Y-14759500D01*
X8928214Y-14773786D01*
X8942500Y-14802357D01*
X8942500Y-14816643D01*
X8928214Y-14845214D01*
X8913928Y-14859500D01*
X8885357Y-14873786D01*
X8828214Y-14873786D01*
X8799643Y-14888071D01*
X8785357Y-14902357D01*
X8771071Y-14930929D01*
X8771071Y-14988071D01*
X8785357Y-15016643D01*
X8799643Y-15030929D01*
X8828214Y-15045214D01*
X8885357Y-15045214D01*
X8913928Y-15030929D01*
X8928214Y-15016643D01*
X8942500Y-14988071D01*
X8942500Y-14930929D01*
X8928214Y-14902357D01*
X8913928Y-14888071D01*
X8885357Y-14873786D01*
X9056786Y-14745214D02*
X9056786Y-14802357D01*
X9171071Y-14745214D02*
X9171071Y-14802357D01*
X9613928Y-15159500D02*
X9599643Y-15145214D01*
X9571071Y-15102357D01*
X9556786Y-15073786D01*
X9542500Y-15030929D01*
X9528214Y-14959500D01*
X9528214Y-14902357D01*
X9542500Y-14830929D01*
X9556786Y-14788071D01*
X9571071Y-14759500D01*
X9599643Y-14716643D01*
X9613928Y-14702357D01*
X9742500Y-15045214D02*
X9799643Y-15045214D01*
X9828214Y-15030929D01*
X9842500Y-15016643D01*
X9871071Y-14973786D01*
X9885357Y-14916643D01*
X9885357Y-14802357D01*
X9871071Y-14773786D01*
X9856786Y-14759500D01*
X9828214Y-14745214D01*
X9771071Y-14745214D01*
X9742500Y-14759500D01*
X9728214Y-14773786D01*
X9713928Y-14802357D01*
X9713928Y-14873786D01*
X9728214Y-14902357D01*
X9742500Y-14916643D01*
X9771071Y-14930929D01*
X9828214Y-14930929D01*
X9856786Y-14916643D01*
X9871071Y-14902357D01*
X9885357Y-14873786D01*
X10242500Y-15045214D02*
X10242500Y-14745214D01*
X10371071Y-15045214D02*
X10371071Y-14888071D01*
X10356786Y-14859500D01*
X10328214Y-14845214D01*
X10285357Y-14845214D01*
X10256786Y-14859500D01*
X10242500Y-14873786D01*
X10556786Y-15045214D02*
X10528214Y-15030929D01*
X10513928Y-15016643D01*
X10499643Y-14988071D01*
X10499643Y-14902357D01*
X10513928Y-14873786D01*
X10528214Y-14859500D01*
X10556786Y-14845214D01*
X10599643Y-14845214D01*
X10628214Y-14859500D01*
X10642500Y-14873786D01*
X10656786Y-14902357D01*
X10656786Y-14988071D01*
X10642500Y-15016643D01*
X10628214Y-15030929D01*
X10599643Y-15045214D01*
X10556786Y-15045214D01*
X10828214Y-15045214D02*
X10799643Y-15030929D01*
X10785357Y-15002357D01*
X10785357Y-14745214D01*
X11056786Y-15030929D02*
X11028214Y-15045214D01*
X10971071Y-15045214D01*
X10942500Y-15030929D01*
X10928214Y-15002357D01*
X10928214Y-14888071D01*
X10942500Y-14859500D01*
X10971071Y-14845214D01*
X11028214Y-14845214D01*
X11056786Y-14859500D01*
X11071071Y-14888071D01*
X11071071Y-14916643D01*
X10928214Y-14945214D01*
X11185357Y-15030929D02*
X11213928Y-15045214D01*
X11271071Y-15045214D01*
X11299643Y-15030929D01*
X11313928Y-15002357D01*
X11313928Y-14988071D01*
X11299643Y-14959500D01*
X11271071Y-14945214D01*
X11228214Y-14945214D01*
X11199643Y-14930929D01*
X11185357Y-14902357D01*
X11185357Y-14888071D01*
X11199643Y-14859500D01*
X11228214Y-14845214D01*
X11271071Y-14845214D01*
X11299643Y-14859500D01*
X11413928Y-15159500D02*
X11428214Y-15145214D01*
X11456786Y-15102357D01*
X11471071Y-15073786D01*
X11485357Y-15030929D01*
X11499643Y-14959500D01*
X11499643Y-14902357D01*
X11485357Y-14830929D01*
X11471071Y-14788071D01*
X11456786Y-14759500D01*
X11428214Y-14716643D01*
X11413928Y-14702357D01*
X4930784Y-15333785D02*
X4930784Y-15277216D01*
X4874215Y-15277216D01*
X4874215Y-15333785D01*
X4930784Y-15333785D01*
X5271071Y-15141214D02*
X5299643Y-15141214D01*
X5328214Y-15155500D01*
X5342500Y-15169786D01*
X5356786Y-15198357D01*
X5371071Y-15255500D01*
X5371071Y-15326929D01*
X5356786Y-15384071D01*
X5342500Y-15412643D01*
X5328214Y-15426929D01*
X5299643Y-15441214D01*
X5271071Y-15441214D01*
X5242500Y-15426929D01*
X5228214Y-15412643D01*
X5213929Y-15384071D01*
X5199643Y-15326929D01*
X5199643Y-15255500D01*
X5213929Y-15198357D01*
X5228214Y-15169786D01*
X5242500Y-15155500D01*
X5271071Y-15141214D01*
X5499643Y-15412643D02*
X5513929Y-15426929D01*
X5499643Y-15441214D01*
X5485357Y-15426929D01*
X5499643Y-15412643D01*
X5499643Y-15441214D01*
X5685357Y-15269786D02*
X5656786Y-15255500D01*
X5642500Y-15241214D01*
X5628214Y-15212643D01*
X5628214Y-15198357D01*
X5642500Y-15169786D01*
X5656786Y-15155500D01*
X5685357Y-15141214D01*
X5742500Y-15141214D01*
X5771071Y-15155500D01*
X5785357Y-15169786D01*
X5799643Y-15198357D01*
X5799643Y-15212643D01*
X5785357Y-15241214D01*
X5771071Y-15255500D01*
X5742500Y-15269786D01*
X5685357Y-15269786D01*
X5656786Y-15284071D01*
X5642500Y-15298357D01*
X5628214Y-15326929D01*
X5628214Y-15384071D01*
X5642500Y-15412643D01*
X5656786Y-15426929D01*
X5685357Y-15441214D01*
X5742500Y-15441214D01*
X5771071Y-15426929D01*
X5785357Y-15412643D01*
X5799643Y-15384071D01*
X5799643Y-15326929D01*
X5785357Y-15298357D01*
X5771071Y-15284071D01*
X5742500Y-15269786D01*
X5985357Y-15141214D02*
X6013928Y-15141214D01*
X6042500Y-15155500D01*
X6056786Y-15169786D01*
X6071071Y-15198357D01*
X6085357Y-15255500D01*
X6085357Y-15326929D01*
X6071071Y-15384071D01*
X6056786Y-15412643D01*
X6042500Y-15426929D01*
X6013928Y-15441214D01*
X5985357Y-15441214D01*
X5956786Y-15426929D01*
X5942500Y-15412643D01*
X5928214Y-15384071D01*
X5913928Y-15326929D01*
X5913928Y-15255500D01*
X5928214Y-15198357D01*
X5942500Y-15169786D01*
X5956786Y-15155500D01*
X5985357Y-15141214D01*
X6213928Y-15441214D02*
X6213928Y-15241214D01*
X6213928Y-15269786D02*
X6228214Y-15255500D01*
X6256786Y-15241214D01*
X6299643Y-15241214D01*
X6328214Y-15255500D01*
X6342500Y-15284071D01*
X6342500Y-15441214D01*
X6342500Y-15284071D02*
X6356786Y-15255500D01*
X6385357Y-15241214D01*
X6428214Y-15241214D01*
X6456786Y-15255500D01*
X6471071Y-15284071D01*
X6471071Y-15441214D01*
X6613928Y-15441214D02*
X6613928Y-15241214D01*
X6613928Y-15269786D02*
X6628214Y-15255500D01*
X6656786Y-15241214D01*
X6699643Y-15241214D01*
X6728214Y-15255500D01*
X6742500Y-15284071D01*
X6742500Y-15441214D01*
X6742500Y-15284071D02*
X6756786Y-15255500D01*
X6785357Y-15241214D01*
X6828214Y-15241214D01*
X6856786Y-15255500D01*
X6871071Y-15284071D01*
X6871071Y-15441214D01*
X7456786Y-15126929D02*
X7199643Y-15512643D01*
X7842500Y-15141214D02*
X7871071Y-15141214D01*
X7899643Y-15155500D01*
X7913928Y-15169786D01*
X7928214Y-15198357D01*
X7942500Y-15255500D01*
X7942500Y-15326929D01*
X7928214Y-15384071D01*
X7913928Y-15412643D01*
X7899643Y-15426929D01*
X7871071Y-15441214D01*
X7842500Y-15441214D01*
X7813928Y-15426929D01*
X7799643Y-15412643D01*
X7785357Y-15384071D01*
X7771071Y-15326929D01*
X7771071Y-15255500D01*
X7785357Y-15198357D01*
X7799643Y-15169786D01*
X7813928Y-15155500D01*
X7842500Y-15141214D01*
X8071071Y-15412643D02*
X8085357Y-15426929D01*
X8071071Y-15441214D01*
X8056786Y-15426929D01*
X8071071Y-15412643D01*
X8071071Y-15441214D01*
X8271071Y-15141214D02*
X8299643Y-15141214D01*
X8328214Y-15155500D01*
X8342500Y-15169786D01*
X8356785Y-15198357D01*
X8371071Y-15255500D01*
X8371071Y-15326929D01*
X8356785Y-15384071D01*
X8342500Y-15412643D01*
X8328214Y-15426929D01*
X8299643Y-15441214D01*
X8271071Y-15441214D01*
X8242500Y-15426929D01*
X8228214Y-15412643D01*
X8213928Y-15384071D01*
X8199643Y-15326929D01*
X8199643Y-15255500D01*
X8213928Y-15198357D01*
X8228214Y-15169786D01*
X8242500Y-15155500D01*
X8271071Y-15141214D01*
X8471071Y-15141214D02*
X8656786Y-15141214D01*
X8556786Y-15255500D01*
X8599643Y-15255500D01*
X8628214Y-15269786D01*
X8642500Y-15284071D01*
X8656786Y-15312643D01*
X8656786Y-15384071D01*
X8642500Y-15412643D01*
X8628214Y-15426929D01*
X8599643Y-15441214D01*
X8513928Y-15441214D01*
X8485357Y-15426929D01*
X8471071Y-15412643D01*
X8942500Y-15441214D02*
X8771071Y-15441214D01*
X8856786Y-15441214D02*
X8856786Y-15141214D01*
X8828214Y-15184071D01*
X8799643Y-15212643D01*
X8771071Y-15226929D01*
X9056786Y-15141214D02*
X9056786Y-15198357D01*
X9171071Y-15141214D02*
X9171071Y-15198357D01*
X9613928Y-15555500D02*
X9599643Y-15541214D01*
X9571071Y-15498357D01*
X9556786Y-15469786D01*
X9542500Y-15426929D01*
X9528214Y-15355500D01*
X9528214Y-15298357D01*
X9542500Y-15226929D01*
X9556786Y-15184071D01*
X9571071Y-15155500D01*
X9599643Y-15112643D01*
X9613928Y-15098357D01*
X9856786Y-15241214D02*
X9856786Y-15441214D01*
X9785357Y-15126929D02*
X9713928Y-15341214D01*
X9899643Y-15341214D01*
X10242500Y-15441214D02*
X10242500Y-15141214D01*
X10371071Y-15441214D02*
X10371071Y-15284071D01*
X10356786Y-15255500D01*
X10328214Y-15241214D01*
X10285357Y-15241214D01*
X10256786Y-15255500D01*
X10242500Y-15269786D01*
X10556786Y-15441214D02*
X10528214Y-15426929D01*
X10513928Y-15412643D01*
X10499643Y-15384071D01*
X10499643Y-15298357D01*
X10513928Y-15269786D01*
X10528214Y-15255500D01*
X10556786Y-15241214D01*
X10599643Y-15241214D01*
X10628214Y-15255500D01*
X10642500Y-15269786D01*
X10656786Y-15298357D01*
X10656786Y-15384071D01*
X10642500Y-15412643D01*
X10628214Y-15426929D01*
X10599643Y-15441214D01*
X10556786Y-15441214D01*
X10828214Y-15441214D02*
X10799643Y-15426929D01*
X10785357Y-15398357D01*
X10785357Y-15141214D01*
X11056786Y-15426929D02*
X11028214Y-15441214D01*
X10971071Y-15441214D01*
X10942500Y-15426929D01*
X10928214Y-15398357D01*
X10928214Y-15284071D01*
X10942500Y-15255500D01*
X10971071Y-15241214D01*
X11028214Y-15241214D01*
X11056786Y-15255500D01*
X11071071Y-15284071D01*
X11071071Y-15312643D01*
X10928214Y-15341214D01*
X11185357Y-15426929D02*
X11213928Y-15441214D01*
X11271071Y-15441214D01*
X11299643Y-15426929D01*
X11313928Y-15398357D01*
X11313928Y-15384071D01*
X11299643Y-15355500D01*
X11271071Y-15341214D01*
X11228214Y-15341214D01*
X11199643Y-15326929D01*
X11185357Y-15298357D01*
X11185357Y-15284071D01*
X11199643Y-15255500D01*
X11228214Y-15241214D01*
X11271071Y-15241214D01*
X11299643Y-15255500D01*
X11413928Y-15555500D02*
X11428214Y-15541214D01*
X11456786Y-15498357D01*
X11471071Y-15469786D01*
X11485357Y-15426929D01*
X11499643Y-15355500D01*
X11499643Y-15298357D01*
X11485357Y-15226929D01*
X11471071Y-15184071D01*
X11456786Y-15155500D01*
X11428214Y-15112643D01*
X11413928Y-15098357D01*
X4882500Y-15761500D02*
X4942500Y-15701500D01*
X4882500Y-15641500D01*
X4822500Y-15701500D01*
X4882500Y-15761500D01*
X5371071Y-15837214D02*
X5199643Y-15837214D01*
X5285357Y-15837214D02*
X5285357Y-15537214D01*
X5256786Y-15580071D01*
X5228214Y-15608643D01*
X5199643Y-15622929D01*
X5499643Y-15808643D02*
X5513929Y-15822929D01*
X5499643Y-15837214D01*
X5485357Y-15822929D01*
X5499643Y-15808643D01*
X5499643Y-15837214D01*
X5628214Y-15565786D02*
X5642500Y-15551500D01*
X5671071Y-15537214D01*
X5742500Y-15537214D01*
X5771071Y-15551500D01*
X5785357Y-15565786D01*
X5799643Y-15594357D01*
X5799643Y-15622929D01*
X5785357Y-15665786D01*
X5613928Y-15837214D01*
X5799643Y-15837214D01*
X5985357Y-15537214D02*
X6013928Y-15537214D01*
X6042500Y-15551500D01*
X6056786Y-15565786D01*
X6071071Y-15594357D01*
X6085357Y-15651500D01*
X6085357Y-15722929D01*
X6071071Y-15780071D01*
X6056786Y-15808643D01*
X6042500Y-15822929D01*
X6013928Y-15837214D01*
X5985357Y-15837214D01*
X5956786Y-15822929D01*
X5942500Y-15808643D01*
X5928214Y-15780071D01*
X5913928Y-15722929D01*
X5913928Y-15651500D01*
X5928214Y-15594357D01*
X5942500Y-15565786D01*
X5956786Y-15551500D01*
X5985357Y-15537214D01*
X6213928Y-15837214D02*
X6213928Y-15637214D01*
X6213928Y-15665786D02*
X6228214Y-15651500D01*
X6256786Y-15637214D01*
X6299643Y-15637214D01*
X6328214Y-15651500D01*
X6342500Y-15680071D01*
X6342500Y-15837214D01*
X6342500Y-15680071D02*
X6356786Y-15651500D01*
X6385357Y-15637214D01*
X6428214Y-15637214D01*
X6456786Y-15651500D01*
X6471071Y-15680071D01*
X6471071Y-15837214D01*
X6613928Y-15837214D02*
X6613928Y-15637214D01*
X6613928Y-15665786D02*
X6628214Y-15651500D01*
X6656786Y-15637214D01*
X6699643Y-15637214D01*
X6728214Y-15651500D01*
X6742500Y-15680071D01*
X6742500Y-15837214D01*
X6742500Y-15680071D02*
X6756786Y-15651500D01*
X6785357Y-15637214D01*
X6828214Y-15637214D01*
X6856786Y-15651500D01*
X6871071Y-15680071D01*
X6871071Y-15837214D01*
X7456786Y-15522929D02*
X7199643Y-15908643D01*
X7842500Y-15537214D02*
X7871071Y-15537214D01*
X7899643Y-15551500D01*
X7913928Y-15565786D01*
X7928214Y-15594357D01*
X7942500Y-15651500D01*
X7942500Y-15722929D01*
X7928214Y-15780071D01*
X7913928Y-15808643D01*
X7899643Y-15822929D01*
X7871071Y-15837214D01*
X7842500Y-15837214D01*
X7813928Y-15822929D01*
X7799643Y-15808643D01*
X7785357Y-15780071D01*
X7771071Y-15722929D01*
X7771071Y-15651500D01*
X7785357Y-15594357D01*
X7799643Y-15565786D01*
X7813928Y-15551500D01*
X7842500Y-15537214D01*
X8071071Y-15808643D02*
X8085357Y-15822929D01*
X8071071Y-15837214D01*
X8056786Y-15822929D01*
X8071071Y-15808643D01*
X8071071Y-15837214D01*
X8271071Y-15537214D02*
X8299643Y-15537214D01*
X8328214Y-15551500D01*
X8342500Y-15565786D01*
X8356785Y-15594357D01*
X8371071Y-15651500D01*
X8371071Y-15722929D01*
X8356785Y-15780071D01*
X8342500Y-15808643D01*
X8328214Y-15822929D01*
X8299643Y-15837214D01*
X8271071Y-15837214D01*
X8242500Y-15822929D01*
X8228214Y-15808643D01*
X8213928Y-15780071D01*
X8199643Y-15722929D01*
X8199643Y-15651500D01*
X8213928Y-15594357D01*
X8228214Y-15565786D01*
X8242500Y-15551500D01*
X8271071Y-15537214D01*
X8628214Y-15637214D02*
X8628214Y-15837214D01*
X8556786Y-15522929D02*
X8485357Y-15737214D01*
X8671071Y-15737214D01*
X8756786Y-15537214D02*
X8956786Y-15537214D01*
X8828214Y-15837214D01*
X9056786Y-15537214D02*
X9056786Y-15594357D01*
X9171071Y-15537214D02*
X9171071Y-15594357D01*
X9613928Y-15951500D02*
X9599643Y-15937214D01*
X9571071Y-15894357D01*
X9556786Y-15865786D01*
X9542500Y-15822929D01*
X9528214Y-15751500D01*
X9528214Y-15694357D01*
X9542500Y-15622929D01*
X9556786Y-15580071D01*
X9571071Y-15551500D01*
X9599643Y-15508643D01*
X9613928Y-15494357D01*
X9742500Y-15837214D02*
X9799643Y-15837214D01*
X9828214Y-15822929D01*
X9842500Y-15808643D01*
X9871071Y-15765786D01*
X9885357Y-15708643D01*
X9885357Y-15594357D01*
X9871071Y-15565786D01*
X9856786Y-15551500D01*
X9828214Y-15537214D01*
X9771071Y-15537214D01*
X9742500Y-15551500D01*
X9728214Y-15565786D01*
X9713928Y-15594357D01*
X9713928Y-15665786D01*
X9728214Y-15694357D01*
X9742500Y-15708643D01*
X9771071Y-15722929D01*
X9828214Y-15722929D01*
X9856786Y-15708643D01*
X9871071Y-15694357D01*
X9885357Y-15665786D01*
X10242500Y-15837214D02*
X10242500Y-15537214D01*
X10371071Y-15837214D02*
X10371071Y-15680071D01*
X10356786Y-15651500D01*
X10328214Y-15637214D01*
X10285357Y-15637214D01*
X10256786Y-15651500D01*
X10242500Y-15665786D01*
X10556786Y-15837214D02*
X10528214Y-15822929D01*
X10513928Y-15808643D01*
X10499643Y-15780071D01*
X10499643Y-15694357D01*
X10513928Y-15665786D01*
X10528214Y-15651500D01*
X10556786Y-15637214D01*
X10599643Y-15637214D01*
X10628214Y-15651500D01*
X10642500Y-15665786D01*
X10656786Y-15694357D01*
X10656786Y-15780071D01*
X10642500Y-15808643D01*
X10628214Y-15822929D01*
X10599643Y-15837214D01*
X10556786Y-15837214D01*
X10828214Y-15837214D02*
X10799643Y-15822929D01*
X10785357Y-15794357D01*
X10785357Y-15537214D01*
X11056786Y-15822929D02*
X11028214Y-15837214D01*
X10971071Y-15837214D01*
X10942500Y-15822929D01*
X10928214Y-15794357D01*
X10928214Y-15680071D01*
X10942500Y-15651500D01*
X10971071Y-15637214D01*
X11028214Y-15637214D01*
X11056786Y-15651500D01*
X11071071Y-15680071D01*
X11071071Y-15708643D01*
X10928214Y-15737214D01*
X11185357Y-15822929D02*
X11213928Y-15837214D01*
X11271071Y-15837214D01*
X11299643Y-15822929D01*
X11313928Y-15794357D01*
X11313928Y-15780071D01*
X11299643Y-15751500D01*
X11271071Y-15737214D01*
X11228214Y-15737214D01*
X11199643Y-15722929D01*
X11185357Y-15694357D01*
X11185357Y-15680071D01*
X11199643Y-15651500D01*
X11228214Y-15637214D01*
X11271071Y-15637214D01*
X11299643Y-15651500D01*
X11413928Y-15951500D02*
X11428214Y-15937214D01*
X11456786Y-15894357D01*
X11471071Y-15865786D01*
X11485357Y-15822929D01*
X11499643Y-15751500D01*
X11499643Y-15694357D01*
X11485357Y-15622929D01*
X11471071Y-15580071D01*
X11456786Y-15551500D01*
X11428214Y-15508643D01*
X11413928Y-15494357D01*
X4792500Y-16022500D02*
X4942500Y-16172500D01*
X4942500Y-16022500D02*
X4792500Y-16172500D01*
X4942500Y-16097500D02*
G75*
G03X4942500Y-16097500I-75000J0D01*
G01*
X5371071Y-16233214D02*
X5199643Y-16233214D01*
X5285357Y-16233214D02*
X5285357Y-15933214D01*
X5256786Y-15976071D01*
X5228214Y-16004643D01*
X5199643Y-16018929D01*
X5499643Y-16204643D02*
X5513929Y-16218929D01*
X5499643Y-16233214D01*
X5485357Y-16218929D01*
X5499643Y-16204643D01*
X5499643Y-16233214D01*
X5785357Y-15933214D02*
X5642500Y-15933214D01*
X5628214Y-16076071D01*
X5642500Y-16061786D01*
X5671071Y-16047500D01*
X5742500Y-16047500D01*
X5771071Y-16061786D01*
X5785357Y-16076071D01*
X5799643Y-16104643D01*
X5799643Y-16176071D01*
X5785357Y-16204643D01*
X5771071Y-16218929D01*
X5742500Y-16233214D01*
X5671071Y-16233214D01*
X5642500Y-16218929D01*
X5628214Y-16204643D01*
X5985357Y-15933214D02*
X6013928Y-15933214D01*
X6042500Y-15947500D01*
X6056786Y-15961786D01*
X6071071Y-15990357D01*
X6085357Y-16047500D01*
X6085357Y-16118929D01*
X6071071Y-16176071D01*
X6056786Y-16204643D01*
X6042500Y-16218929D01*
X6013928Y-16233214D01*
X5985357Y-16233214D01*
X5956786Y-16218929D01*
X5942500Y-16204643D01*
X5928214Y-16176071D01*
X5913928Y-16118929D01*
X5913928Y-16047500D01*
X5928214Y-15990357D01*
X5942500Y-15961786D01*
X5956786Y-15947500D01*
X5985357Y-15933214D01*
X6213928Y-16233214D02*
X6213928Y-16033214D01*
X6213928Y-16061786D02*
X6228214Y-16047500D01*
X6256786Y-16033214D01*
X6299643Y-16033214D01*
X6328214Y-16047500D01*
X6342500Y-16076071D01*
X6342500Y-16233214D01*
X6342500Y-16076071D02*
X6356786Y-16047500D01*
X6385357Y-16033214D01*
X6428214Y-16033214D01*
X6456786Y-16047500D01*
X6471071Y-16076071D01*
X6471071Y-16233214D01*
X6613928Y-16233214D02*
X6613928Y-16033214D01*
X6613928Y-16061786D02*
X6628214Y-16047500D01*
X6656786Y-16033214D01*
X6699643Y-16033214D01*
X6728214Y-16047500D01*
X6742500Y-16076071D01*
X6742500Y-16233214D01*
X6742500Y-16076071D02*
X6756786Y-16047500D01*
X6785357Y-16033214D01*
X6828214Y-16033214D01*
X6856786Y-16047500D01*
X6871071Y-16076071D01*
X6871071Y-16233214D01*
X7456786Y-15918929D02*
X7199643Y-16304643D01*
X7842500Y-15933214D02*
X7871071Y-15933214D01*
X7899643Y-15947500D01*
X7913928Y-15961786D01*
X7928214Y-15990357D01*
X7942500Y-16047500D01*
X7942500Y-16118929D01*
X7928214Y-16176071D01*
X7913928Y-16204643D01*
X7899643Y-16218929D01*
X7871071Y-16233214D01*
X7842500Y-16233214D01*
X7813928Y-16218929D01*
X7799643Y-16204643D01*
X7785357Y-16176071D01*
X7771071Y-16118929D01*
X7771071Y-16047500D01*
X7785357Y-15990357D01*
X7799643Y-15961786D01*
X7813928Y-15947500D01*
X7842500Y-15933214D01*
X8071071Y-16204643D02*
X8085357Y-16218929D01*
X8071071Y-16233214D01*
X8056786Y-16218929D01*
X8071071Y-16204643D01*
X8071071Y-16233214D01*
X8271071Y-15933214D02*
X8299643Y-15933214D01*
X8328214Y-15947500D01*
X8342500Y-15961786D01*
X8356785Y-15990357D01*
X8371071Y-16047500D01*
X8371071Y-16118929D01*
X8356785Y-16176071D01*
X8342500Y-16204643D01*
X8328214Y-16218929D01*
X8299643Y-16233214D01*
X8271071Y-16233214D01*
X8242500Y-16218929D01*
X8228214Y-16204643D01*
X8213928Y-16176071D01*
X8199643Y-16118929D01*
X8199643Y-16047500D01*
X8213928Y-15990357D01*
X8228214Y-15961786D01*
X8242500Y-15947500D01*
X8271071Y-15933214D01*
X8642500Y-15933214D02*
X8499643Y-15933214D01*
X8485357Y-16076071D01*
X8499643Y-16061786D01*
X8528214Y-16047500D01*
X8599643Y-16047500D01*
X8628214Y-16061786D01*
X8642500Y-16076071D01*
X8656786Y-16104643D01*
X8656786Y-16176071D01*
X8642500Y-16204643D01*
X8628214Y-16218929D01*
X8599643Y-16233214D01*
X8528214Y-16233214D01*
X8499643Y-16218929D01*
X8485357Y-16204643D01*
X8799643Y-16233214D02*
X8856786Y-16233214D01*
X8885357Y-16218929D01*
X8899643Y-16204643D01*
X8928214Y-16161786D01*
X8942500Y-16104643D01*
X8942500Y-15990357D01*
X8928214Y-15961786D01*
X8913928Y-15947500D01*
X8885357Y-15933214D01*
X8828214Y-15933214D01*
X8799643Y-15947500D01*
X8785357Y-15961786D01*
X8771071Y-15990357D01*
X8771071Y-16061786D01*
X8785357Y-16090357D01*
X8799643Y-16104643D01*
X8828214Y-16118929D01*
X8885357Y-16118929D01*
X8913928Y-16104643D01*
X8928214Y-16090357D01*
X8942500Y-16061786D01*
X9056786Y-15933214D02*
X9056786Y-15990357D01*
X9171071Y-15933214D02*
X9171071Y-15990357D01*
X9613928Y-16347500D02*
X9599643Y-16333214D01*
X9571071Y-16290357D01*
X9556786Y-16261786D01*
X9542500Y-16218929D01*
X9528214Y-16147500D01*
X9528214Y-16090357D01*
X9542500Y-16018929D01*
X9556786Y-15976071D01*
X9571071Y-15947500D01*
X9599643Y-15904643D01*
X9613928Y-15890357D01*
X9713928Y-15961786D02*
X9728214Y-15947500D01*
X9756786Y-15933214D01*
X9828214Y-15933214D01*
X9856786Y-15947500D01*
X9871071Y-15961786D01*
X9885357Y-15990357D01*
X9885357Y-16018929D01*
X9871071Y-16061786D01*
X9699643Y-16233214D01*
X9885357Y-16233214D01*
X10242500Y-16233214D02*
X10242500Y-15933214D01*
X10371071Y-16233214D02*
X10371071Y-16076071D01*
X10356786Y-16047500D01*
X10328214Y-16033214D01*
X10285357Y-16033214D01*
X10256786Y-16047500D01*
X10242500Y-16061786D01*
X10556786Y-16233214D02*
X10528214Y-16218929D01*
X10513928Y-16204643D01*
X10499643Y-16176071D01*
X10499643Y-16090357D01*
X10513928Y-16061786D01*
X10528214Y-16047500D01*
X10556786Y-16033214D01*
X10599643Y-16033214D01*
X10628214Y-16047500D01*
X10642500Y-16061786D01*
X10656786Y-16090357D01*
X10656786Y-16176071D01*
X10642500Y-16204643D01*
X10628214Y-16218929D01*
X10599643Y-16233214D01*
X10556786Y-16233214D01*
X10828214Y-16233214D02*
X10799643Y-16218929D01*
X10785357Y-16190357D01*
X10785357Y-15933214D01*
X11056786Y-16218929D02*
X11028214Y-16233214D01*
X10971071Y-16233214D01*
X10942500Y-16218929D01*
X10928214Y-16190357D01*
X10928214Y-16076071D01*
X10942500Y-16047500D01*
X10971071Y-16033214D01*
X11028214Y-16033214D01*
X11056786Y-16047500D01*
X11071071Y-16076071D01*
X11071071Y-16104643D01*
X10928214Y-16133214D01*
X11185357Y-16218929D02*
X11213928Y-16233214D01*
X11271071Y-16233214D01*
X11299643Y-16218929D01*
X11313928Y-16190357D01*
X11313928Y-16176071D01*
X11299643Y-16147500D01*
X11271071Y-16133214D01*
X11228214Y-16133214D01*
X11199643Y-16118929D01*
X11185357Y-16090357D01*
X11185357Y-16076071D01*
X11199643Y-16047500D01*
X11228214Y-16033214D01*
X11271071Y-16033214D01*
X11299643Y-16047500D01*
X11413928Y-16347500D02*
X11428214Y-16333214D01*
X11456786Y-16290357D01*
X11471071Y-16261786D01*
X11485357Y-16218929D01*
X11499643Y-16147500D01*
X11499643Y-16090357D01*
X11485357Y-16018929D01*
X11471071Y-15976071D01*
X11456786Y-15947500D01*
X11428214Y-15904643D01*
X11413928Y-15890357D01*
X4772500Y-16408500D02*
X4942500Y-16578500D01*
X4942500Y-16408500D02*
X4772500Y-16578500D01*
X4857500Y-16408500D02*
X4857500Y-16578500D01*
X4772500Y-16493500D02*
X4942500Y-16493500D01*
X5371071Y-16629214D02*
X5199643Y-16629214D01*
X5285357Y-16629214D02*
X5285357Y-16329214D01*
X5256786Y-16372071D01*
X5228214Y-16400643D01*
X5199643Y-16414929D01*
X5499643Y-16600643D02*
X5513929Y-16614929D01*
X5499643Y-16629214D01*
X5485357Y-16614929D01*
X5499643Y-16600643D01*
X5499643Y-16629214D01*
X5613928Y-16329214D02*
X5813928Y-16329214D01*
X5685357Y-16629214D01*
X5985357Y-16329214D02*
X6013928Y-16329214D01*
X6042500Y-16343500D01*
X6056786Y-16357786D01*
X6071071Y-16386357D01*
X6085357Y-16443500D01*
X6085357Y-16514929D01*
X6071071Y-16572071D01*
X6056786Y-16600643D01*
X6042500Y-16614929D01*
X6013928Y-16629214D01*
X5985357Y-16629214D01*
X5956786Y-16614929D01*
X5942500Y-16600643D01*
X5928214Y-16572071D01*
X5913928Y-16514929D01*
X5913928Y-16443500D01*
X5928214Y-16386357D01*
X5942500Y-16357786D01*
X5956786Y-16343500D01*
X5985357Y-16329214D01*
X6213928Y-16629214D02*
X6213928Y-16429214D01*
X6213928Y-16457786D02*
X6228214Y-16443500D01*
X6256786Y-16429214D01*
X6299643Y-16429214D01*
X6328214Y-16443500D01*
X6342500Y-16472071D01*
X6342500Y-16629214D01*
X6342500Y-16472071D02*
X6356786Y-16443500D01*
X6385357Y-16429214D01*
X6428214Y-16429214D01*
X6456786Y-16443500D01*
X6471071Y-16472071D01*
X6471071Y-16629214D01*
X6613928Y-16629214D02*
X6613928Y-16429214D01*
X6613928Y-16457786D02*
X6628214Y-16443500D01*
X6656786Y-16429214D01*
X6699643Y-16429214D01*
X6728214Y-16443500D01*
X6742500Y-16472071D01*
X6742500Y-16629214D01*
X6742500Y-16472071D02*
X6756786Y-16443500D01*
X6785357Y-16429214D01*
X6828214Y-16429214D01*
X6856786Y-16443500D01*
X6871071Y-16472071D01*
X6871071Y-16629214D01*
X7456786Y-16314929D02*
X7199643Y-16700643D01*
X7842500Y-16329214D02*
X7871071Y-16329214D01*
X7899643Y-16343500D01*
X7913928Y-16357786D01*
X7928214Y-16386357D01*
X7942500Y-16443500D01*
X7942500Y-16514929D01*
X7928214Y-16572071D01*
X7913928Y-16600643D01*
X7899643Y-16614929D01*
X7871071Y-16629214D01*
X7842500Y-16629214D01*
X7813928Y-16614929D01*
X7799643Y-16600643D01*
X7785357Y-16572071D01*
X7771071Y-16514929D01*
X7771071Y-16443500D01*
X7785357Y-16386357D01*
X7799643Y-16357786D01*
X7813928Y-16343500D01*
X7842500Y-16329214D01*
X8071071Y-16600643D02*
X8085357Y-16614929D01*
X8071071Y-16629214D01*
X8056786Y-16614929D01*
X8071071Y-16600643D01*
X8071071Y-16629214D01*
X8271071Y-16329214D02*
X8299643Y-16329214D01*
X8328214Y-16343500D01*
X8342500Y-16357786D01*
X8356785Y-16386357D01*
X8371071Y-16443500D01*
X8371071Y-16514929D01*
X8356785Y-16572071D01*
X8342500Y-16600643D01*
X8328214Y-16614929D01*
X8299643Y-16629214D01*
X8271071Y-16629214D01*
X8242500Y-16614929D01*
X8228214Y-16600643D01*
X8213928Y-16572071D01*
X8199643Y-16514929D01*
X8199643Y-16443500D01*
X8213928Y-16386357D01*
X8228214Y-16357786D01*
X8242500Y-16343500D01*
X8271071Y-16329214D01*
X8628214Y-16329214D02*
X8571071Y-16329214D01*
X8542500Y-16343500D01*
X8528214Y-16357786D01*
X8499643Y-16400643D01*
X8485357Y-16457786D01*
X8485357Y-16572071D01*
X8499643Y-16600643D01*
X8513928Y-16614929D01*
X8542500Y-16629214D01*
X8599643Y-16629214D01*
X8628214Y-16614929D01*
X8642500Y-16600643D01*
X8656786Y-16572071D01*
X8656786Y-16500643D01*
X8642500Y-16472071D01*
X8628214Y-16457786D01*
X8599643Y-16443500D01*
X8542500Y-16443500D01*
X8513928Y-16457786D01*
X8499643Y-16472071D01*
X8485357Y-16500643D01*
X8756786Y-16329214D02*
X8956786Y-16329214D01*
X8828214Y-16629214D01*
X9056786Y-16329214D02*
X9056786Y-16386357D01*
X9171071Y-16329214D02*
X9171071Y-16386357D01*
X9613928Y-16743500D02*
X9599643Y-16729214D01*
X9571071Y-16686357D01*
X9556786Y-16657786D01*
X9542500Y-16614929D01*
X9528214Y-16543500D01*
X9528214Y-16486357D01*
X9542500Y-16414929D01*
X9556786Y-16372071D01*
X9571071Y-16343500D01*
X9599643Y-16300643D01*
X9613928Y-16286357D01*
X9771071Y-16457786D02*
X9742500Y-16443500D01*
X9728214Y-16429214D01*
X9713928Y-16400643D01*
X9713928Y-16386357D01*
X9728214Y-16357786D01*
X9742500Y-16343500D01*
X9771071Y-16329214D01*
X9828214Y-16329214D01*
X9856786Y-16343500D01*
X9871071Y-16357786D01*
X9885357Y-16386357D01*
X9885357Y-16400643D01*
X9871071Y-16429214D01*
X9856786Y-16443500D01*
X9828214Y-16457786D01*
X9771071Y-16457786D01*
X9742500Y-16472071D01*
X9728214Y-16486357D01*
X9713928Y-16514929D01*
X9713928Y-16572071D01*
X9728214Y-16600643D01*
X9742500Y-16614929D01*
X9771071Y-16629214D01*
X9828214Y-16629214D01*
X9856786Y-16614929D01*
X9871071Y-16600643D01*
X9885357Y-16572071D01*
X9885357Y-16514929D01*
X9871071Y-16486357D01*
X9856786Y-16472071D01*
X9828214Y-16457786D01*
X10242500Y-16629214D02*
X10242500Y-16329214D01*
X10371071Y-16629214D02*
X10371071Y-16472071D01*
X10356786Y-16443500D01*
X10328214Y-16429214D01*
X10285357Y-16429214D01*
X10256786Y-16443500D01*
X10242500Y-16457786D01*
X10556786Y-16629214D02*
X10528214Y-16614929D01*
X10513928Y-16600643D01*
X10499643Y-16572071D01*
X10499643Y-16486357D01*
X10513928Y-16457786D01*
X10528214Y-16443500D01*
X10556786Y-16429214D01*
X10599643Y-16429214D01*
X10628214Y-16443500D01*
X10642500Y-16457786D01*
X10656786Y-16486357D01*
X10656786Y-16572071D01*
X10642500Y-16600643D01*
X10628214Y-16614929D01*
X10599643Y-16629214D01*
X10556786Y-16629214D01*
X10828214Y-16629214D02*
X10799643Y-16614929D01*
X10785357Y-16586357D01*
X10785357Y-16329214D01*
X11056786Y-16614929D02*
X11028214Y-16629214D01*
X10971071Y-16629214D01*
X10942500Y-16614929D01*
X10928214Y-16586357D01*
X10928214Y-16472071D01*
X10942500Y-16443500D01*
X10971071Y-16429214D01*
X11028214Y-16429214D01*
X11056786Y-16443500D01*
X11071071Y-16472071D01*
X11071071Y-16500643D01*
X10928214Y-16529214D01*
X11185357Y-16614929D02*
X11213928Y-16629214D01*
X11271071Y-16629214D01*
X11299643Y-16614929D01*
X11313928Y-16586357D01*
X11313928Y-16572071D01*
X11299643Y-16543500D01*
X11271071Y-16529214D01*
X11228214Y-16529214D01*
X11199643Y-16514929D01*
X11185357Y-16486357D01*
X11185357Y-16472071D01*
X11199643Y-16443500D01*
X11228214Y-16429214D01*
X11271071Y-16429214D01*
X11299643Y-16443500D01*
X11413928Y-16743500D02*
X11428214Y-16729214D01*
X11456786Y-16686357D01*
X11471071Y-16657786D01*
X11485357Y-16614929D01*
X11499643Y-16543500D01*
X11499643Y-16486357D01*
X11485357Y-16414929D01*
X11471071Y-16372071D01*
X11456786Y-16343500D01*
X11428214Y-16300643D01*
X11413928Y-16286357D01*
M02*
