G04 #@! TF.FileFunction,Other,User*
%FSLAX46Y46*%
G04 Gerber Fmt 4.6, Leading zero omitted, Abs format (unit mm)*
G04 Created by KiCad (PCBNEW 4.0.5+dfsg1-4) date Tue Aug 14 14:25:04 2018*
%MOMM*%
%LPD*%
G01*
G04 APERTURE LIST*
%ADD10C,0.100000*%
%ADD11C,0.050000*%
G04 APERTURE END LIST*
D10*
D11*
X69370000Y-84170000D02*
X69370000Y-83230000D01*
X69370000Y-83230000D02*
X71230000Y-83230000D01*
X71230000Y-83230000D02*
X71230000Y-84170000D01*
X71230000Y-84170000D02*
X69370000Y-84170000D01*
X52670000Y-95170000D02*
X52670000Y-94230000D01*
X52670000Y-94230000D02*
X54530000Y-94230000D01*
X54530000Y-94230000D02*
X54530000Y-95170000D01*
X54530000Y-95170000D02*
X52670000Y-95170000D01*
X56930000Y-93980000D02*
X56930000Y-94920000D01*
X56930000Y-94920000D02*
X55070000Y-94920000D01*
X55070000Y-94920000D02*
X55070000Y-93980000D01*
X55070000Y-93980000D02*
X56930000Y-93980000D01*
X63270000Y-88870000D02*
X63270000Y-87930000D01*
X63270000Y-87930000D02*
X65130000Y-87930000D01*
X65130000Y-87930000D02*
X65130000Y-88870000D01*
X65130000Y-88870000D02*
X63270000Y-88870000D01*
X52670000Y-96470000D02*
X52670000Y-95530000D01*
X52670000Y-95530000D02*
X54530000Y-95530000D01*
X54530000Y-95530000D02*
X54530000Y-96470000D01*
X54530000Y-96470000D02*
X52670000Y-96470000D01*
X56940000Y-95540000D02*
X56940000Y-96480000D01*
X56940000Y-96480000D02*
X55080000Y-96480000D01*
X55080000Y-96480000D02*
X55080000Y-95540000D01*
X55080000Y-95540000D02*
X56940000Y-95540000D01*
X57470000Y-94930000D02*
X57470000Y-93990000D01*
X57470000Y-93990000D02*
X59330000Y-93990000D01*
X59330000Y-93990000D02*
X59330000Y-94930000D01*
X59330000Y-94930000D02*
X57470000Y-94930000D01*
X57470000Y-96390000D02*
X57470000Y-95450000D01*
X57470000Y-95450000D02*
X59330000Y-95450000D01*
X59330000Y-95450000D02*
X59330000Y-96390000D01*
X59330000Y-96390000D02*
X57470000Y-96390000D01*
X74670000Y-87630000D02*
X73730000Y-87630000D01*
X73730000Y-87630000D02*
X73730000Y-85770000D01*
X73730000Y-85770000D02*
X74670000Y-85770000D01*
X74670000Y-85770000D02*
X74670000Y-87630000D01*
X71370000Y-92370000D02*
X71370000Y-91430000D01*
X71370000Y-91430000D02*
X73230000Y-91430000D01*
X73230000Y-91430000D02*
X73230000Y-92370000D01*
X73230000Y-92370000D02*
X71370000Y-92370000D01*
X50930000Y-94470000D02*
X51870000Y-94470000D01*
X51870000Y-94470000D02*
X51870000Y-96330000D01*
X51870000Y-96330000D02*
X50930000Y-96330000D01*
X50930000Y-96330000D02*
X50930000Y-94470000D01*
X65130000Y-85030000D02*
X65130000Y-85970000D01*
X65130000Y-85970000D02*
X63270000Y-85970000D01*
X63270000Y-85970000D02*
X63270000Y-85030000D01*
X63270000Y-85030000D02*
X65130000Y-85030000D01*
X65030000Y-83430000D02*
X65030000Y-84370000D01*
X65030000Y-84370000D02*
X63170000Y-84370000D01*
X63170000Y-84370000D02*
X63170000Y-83430000D01*
X63170000Y-83430000D02*
X65030000Y-83430000D01*
X75970000Y-85270000D02*
X75970000Y-84330000D01*
X75970000Y-84330000D02*
X77830000Y-84330000D01*
X77830000Y-84330000D02*
X77830000Y-85270000D01*
X77830000Y-85270000D02*
X75970000Y-85270000D01*
X87930000Y-85930000D02*
X87930000Y-86870000D01*
X87930000Y-86870000D02*
X86070000Y-86870000D01*
X86070000Y-86870000D02*
X86070000Y-85930000D01*
X86070000Y-85930000D02*
X87930000Y-85930000D01*
X75670000Y-83930000D02*
X74730000Y-83930000D01*
X74730000Y-83930000D02*
X74730000Y-82070000D01*
X74730000Y-82070000D02*
X75670000Y-82070000D01*
X75670000Y-82070000D02*
X75670000Y-83930000D01*
X87930000Y-84330000D02*
X87930000Y-85270000D01*
X87930000Y-85270000D02*
X86070000Y-85270000D01*
X86070000Y-85270000D02*
X86070000Y-84330000D01*
X86070000Y-84330000D02*
X87930000Y-84330000D01*
X85950000Y-129780000D02*
X85950000Y-126620000D01*
X85950000Y-126620000D02*
X90850000Y-126620000D01*
X90850000Y-126620000D02*
X90850000Y-129780000D01*
X90850000Y-129780000D02*
X85950000Y-129780000D01*
X82970000Y-85270000D02*
X82970000Y-84330000D01*
X82970000Y-84330000D02*
X84830000Y-84330000D01*
X84830000Y-84330000D02*
X84830000Y-85270000D01*
X84830000Y-85270000D02*
X82970000Y-85270000D01*
X84470000Y-130430000D02*
X83530000Y-130430000D01*
X83530000Y-130430000D02*
X83530000Y-128570000D01*
X83530000Y-128570000D02*
X84470000Y-128570000D01*
X84470000Y-128570000D02*
X84470000Y-130430000D01*
X81630000Y-85430000D02*
X81630000Y-86370000D01*
X81630000Y-86370000D02*
X79770000Y-86370000D01*
X79770000Y-86370000D02*
X79770000Y-85430000D01*
X79770000Y-85430000D02*
X81630000Y-85430000D01*
X79870000Y-84170000D02*
X79870000Y-83230000D01*
X79870000Y-83230000D02*
X81730000Y-83230000D01*
X81730000Y-83230000D02*
X81730000Y-84170000D01*
X81730000Y-84170000D02*
X79870000Y-84170000D01*
X75670000Y-91870000D02*
X75670000Y-90930000D01*
X75670000Y-90930000D02*
X77530000Y-90930000D01*
X77530000Y-90930000D02*
X77530000Y-91870000D01*
X77530000Y-91870000D02*
X75670000Y-91870000D01*
X62270000Y-85830000D02*
X61330000Y-85830000D01*
X61330000Y-85830000D02*
X61330000Y-83970000D01*
X61330000Y-83970000D02*
X62270000Y-83970000D01*
X62270000Y-83970000D02*
X62270000Y-85830000D01*
X87930000Y-87530000D02*
X87930000Y-88470000D01*
X87930000Y-88470000D02*
X86070000Y-88470000D01*
X86070000Y-88470000D02*
X86070000Y-87530000D01*
X86070000Y-87530000D02*
X87930000Y-87530000D01*
X65970000Y-83470000D02*
X65970000Y-82530000D01*
X65970000Y-82530000D02*
X67830000Y-82530000D01*
X67830000Y-82530000D02*
X67830000Y-83470000D01*
X67830000Y-83470000D02*
X65970000Y-83470000D01*
X63270000Y-92570000D02*
X63270000Y-91630000D01*
X63270000Y-91630000D02*
X65130000Y-91630000D01*
X65130000Y-91630000D02*
X65130000Y-92570000D01*
X65130000Y-92570000D02*
X63270000Y-92570000D01*
X52930000Y-84070000D02*
X53870000Y-84070000D01*
X53870000Y-84070000D02*
X53870000Y-85930000D01*
X53870000Y-85930000D02*
X52930000Y-85930000D01*
X52930000Y-85930000D02*
X52930000Y-84070000D01*
X58830000Y-85030000D02*
X58830000Y-85970000D01*
X58830000Y-85970000D02*
X56970000Y-85970000D01*
X56970000Y-85970000D02*
X56970000Y-85030000D01*
X56970000Y-85030000D02*
X58830000Y-85030000D01*
X63230000Y-93880000D02*
X63230000Y-92940000D01*
X63230000Y-92940000D02*
X65090000Y-92940000D01*
X65090000Y-92940000D02*
X65090000Y-93880000D01*
X65090000Y-93880000D02*
X63230000Y-93880000D01*
X51530000Y-84070000D02*
X52470000Y-84070000D01*
X52470000Y-84070000D02*
X52470000Y-85930000D01*
X52470000Y-85930000D02*
X51530000Y-85930000D01*
X51530000Y-85930000D02*
X51530000Y-84070000D01*
X51430000Y-86770000D02*
X52370000Y-86770000D01*
X52370000Y-86770000D02*
X52370000Y-88630000D01*
X52370000Y-88630000D02*
X51430000Y-88630000D01*
X51430000Y-88630000D02*
X51430000Y-86770000D01*
X53670000Y-90270000D02*
X53670000Y-89330000D01*
X53670000Y-89330000D02*
X55530000Y-89330000D01*
X55530000Y-89330000D02*
X55530000Y-90270000D01*
X55530000Y-90270000D02*
X53670000Y-90270000D01*
X84230000Y-85630000D02*
X84230000Y-86570000D01*
X84230000Y-86570000D02*
X82370000Y-86570000D01*
X82370000Y-86570000D02*
X82370000Y-85630000D01*
X82370000Y-85630000D02*
X84230000Y-85630000D01*
X86070000Y-91470000D02*
X86070000Y-90530000D01*
X86070000Y-90530000D02*
X87930000Y-90530000D01*
X87930000Y-90530000D02*
X87930000Y-91470000D01*
X87930000Y-91470000D02*
X86070000Y-91470000D01*
X96421300Y-119735500D02*
X96421300Y-120675500D01*
X96421300Y-120675500D02*
X94561300Y-120675500D01*
X94561300Y-120675500D02*
X94561300Y-119735500D01*
X94561300Y-119735500D02*
X96421300Y-119735500D01*
X95070000Y-100770000D02*
X95070000Y-99830000D01*
X95070000Y-99830000D02*
X96930000Y-99830000D01*
X96930000Y-99830000D02*
X96930000Y-100770000D01*
X96930000Y-100770000D02*
X95070000Y-100770000D01*
X84930000Y-89030000D02*
X84930000Y-89970000D01*
X84930000Y-89970000D02*
X83070000Y-89970000D01*
X83070000Y-89970000D02*
X83070000Y-89030000D01*
X83070000Y-89030000D02*
X84930000Y-89030000D01*
X84930000Y-87830000D02*
X84930000Y-88770000D01*
X84930000Y-88770000D02*
X83070000Y-88770000D01*
X83070000Y-88770000D02*
X83070000Y-87830000D01*
X83070000Y-87830000D02*
X84930000Y-87830000D01*
X96430000Y-116030000D02*
X96430000Y-116970000D01*
X96430000Y-116970000D02*
X94570000Y-116970000D01*
X94570000Y-116970000D02*
X94570000Y-116030000D01*
X94570000Y-116030000D02*
X96430000Y-116030000D01*
X96930000Y-97030000D02*
X96930000Y-97970000D01*
X96930000Y-97970000D02*
X95070000Y-97970000D01*
X95070000Y-97970000D02*
X95070000Y-97030000D01*
X95070000Y-97030000D02*
X96930000Y-97030000D01*
X55530000Y-91730000D02*
X55530000Y-92670000D01*
X55530000Y-92670000D02*
X53670000Y-92670000D01*
X53670000Y-92670000D02*
X53670000Y-91730000D01*
X53670000Y-91730000D02*
X55530000Y-91730000D01*
X81850000Y-130650000D02*
X77150000Y-130650000D01*
X77150000Y-130650000D02*
X77150000Y-128350000D01*
X77150000Y-128350000D02*
X81850000Y-128350000D01*
X81850000Y-130650000D02*
X81850000Y-128350000D01*
X90950000Y-92250000D02*
X89650000Y-92250000D01*
X89650000Y-92250000D02*
X89650000Y-91350000D01*
X89650000Y-91350000D02*
X90950000Y-91350000D01*
X90950000Y-91350000D02*
X90950000Y-92250000D01*
X75970000Y-90470000D02*
X75970000Y-89530000D01*
X75970000Y-89530000D02*
X77830000Y-89530000D01*
X77830000Y-89530000D02*
X77830000Y-90470000D01*
X77830000Y-90470000D02*
X75970000Y-90470000D01*
X58230000Y-83130000D02*
X58230000Y-84070000D01*
X58230000Y-84070000D02*
X56370000Y-84070000D01*
X56370000Y-84070000D02*
X56370000Y-83130000D01*
X56370000Y-83130000D02*
X58230000Y-83130000D01*
X58630000Y-91370000D02*
X59570000Y-91370000D01*
X59570000Y-91370000D02*
X59570000Y-93230000D01*
X59570000Y-93230000D02*
X58630000Y-93230000D01*
X58630000Y-93230000D02*
X58630000Y-91370000D01*
X63270000Y-90170000D02*
X63270000Y-89230000D01*
X63270000Y-89230000D02*
X65130000Y-89230000D01*
X65130000Y-89230000D02*
X65130000Y-90170000D01*
X65130000Y-90170000D02*
X63270000Y-90170000D01*
X92650000Y-87070000D02*
X92650000Y-88530000D01*
X92650000Y-88530000D02*
X89350000Y-88530000D01*
X89350000Y-88530000D02*
X89350000Y-87070000D01*
X89350000Y-87070000D02*
X92650000Y-87070000D01*
X72870000Y-89070000D02*
X72870000Y-88130000D01*
X72870000Y-88130000D02*
X74730000Y-88130000D01*
X74730000Y-88130000D02*
X74730000Y-89070000D01*
X74730000Y-89070000D02*
X72870000Y-89070000D01*
X60270000Y-90270000D02*
X60270000Y-89330000D01*
X60270000Y-89330000D02*
X62130000Y-89330000D01*
X62130000Y-89330000D02*
X62130000Y-90270000D01*
X62130000Y-90270000D02*
X60270000Y-90270000D01*
X60030000Y-83970000D02*
X60970000Y-83970000D01*
X60970000Y-83970000D02*
X60970000Y-85830000D01*
X60970000Y-85830000D02*
X60030000Y-85830000D01*
X60030000Y-85830000D02*
X60030000Y-83970000D01*
X96930000Y-101630000D02*
X96930000Y-102570000D01*
X96930000Y-102570000D02*
X95070000Y-102570000D01*
X95070000Y-102570000D02*
X95070000Y-101630000D01*
X95070000Y-101630000D02*
X96930000Y-101630000D01*
X96930000Y-103730000D02*
X96930000Y-104670000D01*
X96930000Y-104670000D02*
X95070000Y-104670000D01*
X95070000Y-104670000D02*
X95070000Y-103730000D01*
X95070000Y-103730000D02*
X96930000Y-103730000D01*
X54530000Y-84070000D02*
X55470000Y-84070000D01*
X55470000Y-84070000D02*
X55470000Y-85930000D01*
X55470000Y-85930000D02*
X54530000Y-85930000D01*
X54530000Y-85930000D02*
X54530000Y-84070000D01*
X60170000Y-92470000D02*
X60170000Y-91530000D01*
X60170000Y-91530000D02*
X62030000Y-91530000D01*
X62030000Y-91530000D02*
X62030000Y-92470000D01*
X62030000Y-92470000D02*
X60170000Y-92470000D01*
X59230000Y-88230000D02*
X59230000Y-89170000D01*
X59230000Y-89170000D02*
X57370000Y-89170000D01*
X57370000Y-89170000D02*
X57370000Y-88230000D01*
X57370000Y-88230000D02*
X59230000Y-88230000D01*
X95070000Y-105970000D02*
X95070000Y-105030000D01*
X95070000Y-105030000D02*
X96930000Y-105030000D01*
X96930000Y-105030000D02*
X96930000Y-105970000D01*
X96930000Y-105970000D02*
X95070000Y-105970000D01*
X77730000Y-86030000D02*
X77730000Y-86970000D01*
X77730000Y-86970000D02*
X75870000Y-86970000D01*
X75870000Y-86970000D02*
X75870000Y-86030000D01*
X75870000Y-86030000D02*
X77730000Y-86030000D01*
X86070000Y-89970000D02*
X86070000Y-89030000D01*
X86070000Y-89030000D02*
X87930000Y-89030000D01*
X87930000Y-89030000D02*
X87930000Y-89970000D01*
X87930000Y-89970000D02*
X86070000Y-89970000D01*
X96430000Y-118030000D02*
X96430000Y-118970000D01*
X96430000Y-118970000D02*
X94570000Y-118970000D01*
X94570000Y-118970000D02*
X94570000Y-118030000D01*
X94570000Y-118030000D02*
X96430000Y-118030000D01*
X96930000Y-98530000D02*
X96930000Y-99470000D01*
X96930000Y-99470000D02*
X95070000Y-99470000D01*
X95070000Y-99470000D02*
X95070000Y-98530000D01*
X95070000Y-98530000D02*
X96930000Y-98530000D01*
X91430000Y-89130000D02*
X91430000Y-90070000D01*
X91430000Y-90070000D02*
X89570000Y-90070000D01*
X89570000Y-90070000D02*
X89570000Y-89130000D01*
X89570000Y-89130000D02*
X91430000Y-89130000D01*
X61230000Y-97230000D02*
X59770000Y-97230000D01*
X59770000Y-97230000D02*
X59770000Y-93930000D01*
X59770000Y-93930000D02*
X61230000Y-93930000D01*
X61230000Y-93930000D02*
X61230000Y-97230000D01*
X89200000Y-85620000D02*
X89200000Y-84160000D01*
X89200000Y-84160000D02*
X92500000Y-84160000D01*
X92500000Y-84160000D02*
X92500000Y-85620000D01*
X92500000Y-85620000D02*
X89200000Y-85620000D01*
X56920000Y-97230000D02*
X50120000Y-97230000D01*
X50120000Y-97230000D02*
X50120000Y-121090000D01*
X50120000Y-121090000D02*
X56920000Y-121090000D01*
X56920000Y-121090000D02*
X56920000Y-97230000D01*
X93330000Y-130670000D02*
X93330000Y-122330000D01*
X93330000Y-130670000D02*
X101670000Y-130670000D01*
X101670000Y-122330000D02*
X93330000Y-122330000D01*
X101670000Y-122330000D02*
X101670000Y-130670000D01*
X93330000Y-91170000D02*
X93330000Y-82830000D01*
X93330000Y-91170000D02*
X101670000Y-91170000D01*
X101670000Y-82830000D02*
X93330000Y-82830000D01*
X101670000Y-82830000D02*
X101670000Y-91170000D01*
X49800000Y-131200000D02*
X49800000Y-122000000D01*
X56400000Y-131200000D02*
X49800000Y-131200000D01*
X56400000Y-122000000D02*
X56400000Y-131200000D01*
X49800000Y-122000000D02*
X56400000Y-122000000D01*
X59700000Y-131000000D02*
X59700000Y-127000000D01*
X59700000Y-127000000D02*
X71300000Y-127000000D01*
X71300000Y-127000000D02*
X71300000Y-131000000D01*
X71300000Y-131000000D02*
X59700000Y-131000000D01*
X101344100Y-111796200D02*
X101344100Y-106796200D01*
X101344100Y-106796200D02*
X96344100Y-106796200D01*
X96344100Y-106796200D02*
X96344100Y-111796200D01*
X96344100Y-111796200D02*
X101344100Y-111796200D01*
X75250000Y-91600000D02*
X73750000Y-91600000D01*
X75250000Y-91600000D02*
X75250000Y-89600000D01*
X73750000Y-89600000D02*
X73750000Y-91600000D01*
X73750000Y-89600000D02*
X75250000Y-89600000D01*
X66300000Y-85700000D02*
X66300000Y-90900000D01*
X66300000Y-90900000D02*
X71500000Y-90900000D01*
X71500000Y-90900000D02*
X71500000Y-85700000D01*
X71500000Y-85700000D02*
X66300000Y-85700000D01*
M02*
