G04 #@! TF.FileFunction,Other,Fab,Bot*
%FSLAX46Y46*%
G04 Gerber Fmt 4.6, Leading zero omitted, Abs format (unit mm)*
G04 Created by KiCad (PCBNEW 4.0.5+dfsg1-4) date Tue Aug 14 14:25:04 2018*
%MOMM*%
%LPD*%
G01*
G04 APERTURE LIST*
%ADD10C,0.100000*%
%ADD11C,0.150000*%
%ADD12C,0.120000*%
%ADD13C,0.040000*%
%ADD14C,0.060000*%
%ADD15C,0.075000*%
G04 APERTURE END LIST*
D10*
X58400000Y-98350000D02*
X58400000Y-100850000D01*
X58400000Y-100850000D02*
X61600000Y-100850000D01*
X61600000Y-100850000D02*
X61600000Y-98350000D01*
X61600000Y-98350000D02*
X58400000Y-98350000D01*
X60750000Y-103000000D02*
X60250000Y-103000000D01*
X60250000Y-103000000D02*
X60250000Y-104000000D01*
X60250000Y-104000000D02*
X60750000Y-104000000D01*
X60750000Y-104000000D02*
X60750000Y-103000000D01*
X59350000Y-111000000D02*
X59850000Y-111000000D01*
X59850000Y-111000000D02*
X59850000Y-110000000D01*
X59850000Y-110000000D02*
X59350000Y-110000000D01*
X59350000Y-110000000D02*
X59350000Y-111000000D01*
X59400000Y-105750000D02*
X59400000Y-108250000D01*
X59400000Y-108250000D02*
X62600000Y-108250000D01*
X62600000Y-108250000D02*
X62600000Y-105750000D01*
X62600000Y-105750000D02*
X59400000Y-105750000D01*
X65298700Y-103890000D02*
X65298700Y-104390000D01*
X65298700Y-104390000D02*
X66298700Y-104390000D01*
X66298700Y-104390000D02*
X66298700Y-103890000D01*
X66298700Y-103890000D02*
X65298700Y-103890000D01*
X65500000Y-107750000D02*
X65500000Y-107250000D01*
X65500000Y-107250000D02*
X64500000Y-107250000D01*
X64500000Y-107250000D02*
X64500000Y-107750000D01*
X64500000Y-107750000D02*
X65500000Y-107750000D01*
X60650000Y-111000000D02*
X61150000Y-111000000D01*
X61150000Y-111000000D02*
X61150000Y-110000000D01*
X61150000Y-110000000D02*
X60650000Y-110000000D01*
X60650000Y-110000000D02*
X60650000Y-111000000D01*
X65500000Y-106250000D02*
X65500000Y-105750000D01*
X65500000Y-105750000D02*
X64500000Y-105750000D01*
X64500000Y-105750000D02*
X64500000Y-106250000D01*
X64500000Y-106250000D02*
X65500000Y-106250000D01*
X70850000Y-111200000D02*
X70350000Y-111200000D01*
X70350000Y-111200000D02*
X70350000Y-112200000D01*
X70350000Y-112200000D02*
X70850000Y-112200000D01*
X70850000Y-112200000D02*
X70850000Y-111200000D01*
X73500000Y-99450000D02*
X73500000Y-99950000D01*
X73500000Y-99950000D02*
X74500000Y-99950000D01*
X74500000Y-99950000D02*
X74500000Y-99450000D01*
X74500000Y-99450000D02*
X73500000Y-99450000D01*
X88400000Y-97350000D02*
X88400000Y-99850000D01*
X88400000Y-99850000D02*
X91600000Y-99850000D01*
X91600000Y-99850000D02*
X91600000Y-97350000D01*
X91600000Y-97350000D02*
X88400000Y-97350000D01*
X88400000Y-101350000D02*
X88400000Y-103850000D01*
X88400000Y-103850000D02*
X91600000Y-103850000D01*
X91600000Y-103850000D02*
X91600000Y-101350000D01*
X91600000Y-101350000D02*
X88400000Y-101350000D01*
X87000000Y-88450000D02*
X87000000Y-90950000D01*
X87000000Y-90950000D02*
X90200000Y-90950000D01*
X90200000Y-90950000D02*
X90200000Y-88450000D01*
X90200000Y-88450000D02*
X87000000Y-88450000D01*
X86100000Y-83450000D02*
X86100000Y-85950000D01*
X86100000Y-85950000D02*
X89300000Y-85950000D01*
X89300000Y-85950000D02*
X89300000Y-83450000D01*
X89300000Y-83450000D02*
X86100000Y-83450000D01*
X63000000Y-117250000D02*
X63000000Y-117750000D01*
X63000000Y-117750000D02*
X64000000Y-117750000D01*
X64000000Y-117750000D02*
X64000000Y-117250000D01*
X64000000Y-117250000D02*
X63000000Y-117250000D01*
X64000000Y-119250000D02*
X64000000Y-118750000D01*
X64000000Y-118750000D02*
X63000000Y-118750000D01*
X63000000Y-118750000D02*
X63000000Y-119250000D01*
X63000000Y-119250000D02*
X64000000Y-119250000D01*
X63000000Y-115751800D02*
X63000000Y-116251800D01*
X63000000Y-116251800D02*
X64000000Y-116251800D01*
X64000000Y-116251800D02*
X64000000Y-115751800D01*
X64000000Y-115751800D02*
X63000000Y-115751800D01*
X66300000Y-123150000D02*
X66300000Y-123650000D01*
X66300000Y-123650000D02*
X67300000Y-123650000D01*
X67300000Y-123650000D02*
X67300000Y-123150000D01*
X67300000Y-123150000D02*
X66300000Y-123150000D01*
X74500000Y-102750000D02*
X74500000Y-102250000D01*
X74500000Y-102250000D02*
X73500000Y-102250000D01*
X73500000Y-102250000D02*
X73500000Y-102750000D01*
X73500000Y-102750000D02*
X74500000Y-102750000D01*
X59250000Y-103000000D02*
X58750000Y-103000000D01*
X58750000Y-103000000D02*
X58750000Y-104000000D01*
X58750000Y-104000000D02*
X59250000Y-104000000D01*
X59250000Y-104000000D02*
X59250000Y-103000000D01*
X77100000Y-88050000D02*
X77100000Y-88550000D01*
X77500000Y-88050000D02*
X77100000Y-87450000D01*
X76700000Y-88050000D02*
X77500000Y-88050000D01*
X77100000Y-87450000D02*
X76700000Y-88050000D01*
X77100000Y-87450000D02*
X77650000Y-87450000D01*
X77100000Y-87450000D02*
X76550000Y-87450000D01*
X77100000Y-87050000D02*
X77100000Y-87450000D01*
X78000000Y-86400000D02*
X76200000Y-86400000D01*
X78000000Y-89200000D02*
X78000000Y-86400000D01*
X76200000Y-89200000D02*
X78000000Y-89200000D01*
X76200000Y-86400000D02*
X76200000Y-89200000D01*
X96700000Y-117800000D02*
X95400000Y-117800000D01*
X95400000Y-117800000D02*
X95100000Y-117500000D01*
X95100000Y-117500000D02*
X95100000Y-117000000D01*
X95100000Y-117000000D02*
X96700000Y-117000000D01*
X96700000Y-117000000D02*
X96700000Y-117800000D01*
X60000000Y-125300000D02*
X60000000Y-124000000D01*
X60000000Y-124000000D02*
X60300000Y-123700000D01*
X60300000Y-123700000D02*
X60800000Y-123700000D01*
X60800000Y-123700000D02*
X60800000Y-125300000D01*
X60800000Y-125300000D02*
X60000000Y-125300000D01*
X89294100Y-115443400D02*
X87644100Y-115443400D01*
X82994100Y-115443400D02*
X84644100Y-115443400D01*
X89294100Y-109143400D02*
X87644100Y-109143400D01*
X82994100Y-109143400D02*
X84644100Y-109143400D01*
X82994100Y-109143400D02*
X82994100Y-115443400D01*
X89294100Y-109143400D02*
X89294100Y-115443400D01*
X84234100Y-114203400D02*
G75*
G02X84234100Y-110383400I1910000J1910000D01*
G01*
X88054100Y-110383400D02*
G75*
G02X88054100Y-114203400I-1910000J-1910000D01*
G01*
X93550000Y-113300000D02*
X96000000Y-113300000D01*
X92980000Y-113850000D02*
X92980000Y-114700000D01*
X93550000Y-113300000D02*
X92980000Y-113850000D01*
X92980000Y-114700000D02*
X96020000Y-114700000D01*
X96020000Y-113300000D02*
X96020000Y-114700000D01*
X74700000Y-128050000D02*
X74700000Y-130500000D01*
X74150000Y-127480000D02*
X73300000Y-127480000D01*
X74700000Y-128050000D02*
X74150000Y-127480000D01*
X73300000Y-127480000D02*
X73300000Y-130520000D01*
X74700000Y-130520000D02*
X73300000Y-130520000D01*
X61750000Y-104000000D02*
X62250000Y-104000000D01*
X62250000Y-104000000D02*
X62250000Y-103000000D01*
X62250000Y-103000000D02*
X61750000Y-103000000D01*
X61750000Y-103000000D02*
X61750000Y-104000000D01*
X73500000Y-100750000D02*
X73500000Y-101250000D01*
X73500000Y-101250000D02*
X74500000Y-101250000D01*
X74500000Y-101250000D02*
X74500000Y-100750000D01*
X74500000Y-100750000D02*
X73500000Y-100750000D01*
X71100000Y-96150000D02*
X71100000Y-96650000D01*
X71100000Y-96650000D02*
X72100000Y-96650000D01*
X72100000Y-96650000D02*
X72100000Y-96150000D01*
X72100000Y-96150000D02*
X71100000Y-96150000D01*
X74500000Y-98650000D02*
X74500000Y-98150000D01*
X74500000Y-98150000D02*
X73500000Y-98150000D01*
X73500000Y-98150000D02*
X73500000Y-98650000D01*
X73500000Y-98650000D02*
X74500000Y-98650000D01*
X93750000Y-109500000D02*
X93250000Y-109500000D01*
X93250000Y-109500000D02*
X93250000Y-110500000D01*
X93250000Y-110500000D02*
X93750000Y-110500000D01*
X93750000Y-110500000D02*
X93750000Y-109500000D01*
X92337700Y-118651400D02*
X91837700Y-118651400D01*
X91837700Y-118651400D02*
X91837700Y-119651400D01*
X91837700Y-119651400D02*
X92337700Y-119651400D01*
X92337700Y-119651400D02*
X92337700Y-118651400D01*
X82000000Y-92750000D02*
X82000000Y-93250000D01*
X82000000Y-93250000D02*
X83000000Y-93250000D01*
X83000000Y-93250000D02*
X83000000Y-92750000D01*
X83000000Y-92750000D02*
X82000000Y-92750000D01*
X66500000Y-117750000D02*
X66500000Y-117250000D01*
X66500000Y-117250000D02*
X65500000Y-117250000D01*
X65500000Y-117250000D02*
X65500000Y-117750000D01*
X65500000Y-117750000D02*
X66500000Y-117750000D01*
X64000000Y-120750000D02*
X64000000Y-120250000D01*
X64000000Y-120250000D02*
X63000000Y-120250000D01*
X63000000Y-120250000D02*
X63000000Y-120750000D01*
X63000000Y-120750000D02*
X64000000Y-120750000D01*
X66500000Y-116250000D02*
X66500000Y-115750000D01*
X66500000Y-115750000D02*
X65500000Y-115750000D01*
X65500000Y-115750000D02*
X65500000Y-116250000D01*
X65500000Y-116250000D02*
X66500000Y-116250000D01*
X84350000Y-104100000D02*
X84850000Y-104100000D01*
X84850000Y-104100000D02*
X84850000Y-103100000D01*
X84850000Y-103100000D02*
X84350000Y-103100000D01*
X84350000Y-103100000D02*
X84350000Y-104100000D01*
X60150000Y-116700000D02*
X59650000Y-116700000D01*
X59650000Y-116700000D02*
X59650000Y-117700000D01*
X59650000Y-117700000D02*
X60150000Y-117700000D01*
X60150000Y-117700000D02*
X60150000Y-116700000D01*
X59750000Y-120000000D02*
X60250000Y-120000000D01*
X60250000Y-120000000D02*
X60250000Y-119000000D01*
X60250000Y-119000000D02*
X59750000Y-119000000D01*
X59750000Y-119000000D02*
X59750000Y-120000000D01*
X96100000Y-119750000D02*
X96100000Y-119250000D01*
X96100000Y-119250000D02*
X95100000Y-119250000D01*
X95100000Y-119250000D02*
X95100000Y-119750000D01*
X95100000Y-119750000D02*
X96100000Y-119750000D01*
X60150000Y-127800000D02*
X60650000Y-127800000D01*
X60650000Y-127800000D02*
X60650000Y-126800000D01*
X60650000Y-126800000D02*
X60150000Y-126800000D01*
X60150000Y-126800000D02*
X60150000Y-127800000D01*
X67702000Y-112634600D02*
X68352000Y-111984600D01*
X68352000Y-110834600D02*
X68352000Y-111984600D01*
X67702000Y-112634600D02*
X65252000Y-112634600D01*
X65252000Y-110834600D02*
X65252000Y-112634600D01*
X68352000Y-110834600D02*
X65252000Y-110834600D01*
D11*
X66727400Y-121858000D02*
G75*
G03X66727400Y-121858000I-100000J0D01*
G01*
X67427400Y-122158000D02*
X67427400Y-120158000D01*
X67427400Y-120158000D02*
X66227400Y-120158000D01*
X66227400Y-120158000D02*
X66227400Y-122158000D01*
X66227400Y-122158000D02*
X67427400Y-122158000D01*
D10*
X52600000Y-91300000D02*
X51800000Y-91300000D01*
X51800000Y-91300000D02*
X51800000Y-92900000D01*
X51800000Y-92900000D02*
X52600000Y-92900000D01*
X52600000Y-92900000D02*
X52600000Y-91300000D01*
D11*
X76250000Y-102700000D02*
X76250000Y-106100000D01*
X76250000Y-106100000D02*
X82750000Y-106100000D01*
X82750000Y-106100000D02*
X82750000Y-101700000D01*
X82750000Y-101700000D02*
X77250000Y-101700000D01*
X77250000Y-101700000D02*
X76250000Y-102700000D01*
D10*
X67550000Y-102450000D02*
X70450000Y-102450000D01*
X70450000Y-102450000D02*
X70450000Y-97550000D01*
X70450000Y-97550000D02*
X66550000Y-97550000D01*
X66550000Y-97550000D02*
X66550000Y-101450000D01*
X66550000Y-101450000D02*
X67550000Y-102450000D01*
D11*
X61547619Y-97772381D02*
X62119048Y-97772381D01*
X61833334Y-97772381D02*
X61833334Y-96772381D01*
X61928572Y-96915238D01*
X62023810Y-97010476D01*
X62119048Y-97058095D01*
X60928572Y-96772381D02*
X60833333Y-96772381D01*
X60738095Y-96820000D01*
X60690476Y-96867619D01*
X60642857Y-96962857D01*
X60595238Y-97153333D01*
X60595238Y-97391429D01*
X60642857Y-97581905D01*
X60690476Y-97677143D01*
X60738095Y-97724762D01*
X60833333Y-97772381D01*
X60928572Y-97772381D01*
X61023810Y-97724762D01*
X61071429Y-97677143D01*
X61119048Y-97581905D01*
X61166667Y-97391429D01*
X61166667Y-97153333D01*
X61119048Y-96962857D01*
X61071429Y-96867619D01*
X61023810Y-96820000D01*
X60928572Y-96772381D01*
X59976191Y-96772381D02*
X59880952Y-96772381D01*
X59785714Y-96820000D01*
X59738095Y-96867619D01*
X59690476Y-96962857D01*
X59642857Y-97153333D01*
X59642857Y-97391429D01*
X59690476Y-97581905D01*
X59738095Y-97677143D01*
X59785714Y-97724762D01*
X59880952Y-97772381D01*
X59976191Y-97772381D01*
X60071429Y-97724762D01*
X60119048Y-97677143D01*
X60166667Y-97581905D01*
X60214286Y-97391429D01*
X60214286Y-97153333D01*
X60166667Y-96962857D01*
X60119048Y-96867619D01*
X60071429Y-96820000D01*
X59976191Y-96772381D01*
X58785714Y-97105714D02*
X58785714Y-97772381D01*
X59214286Y-97105714D02*
X59214286Y-97629524D01*
X59166667Y-97724762D01*
X59071429Y-97772381D01*
X58928571Y-97772381D01*
X58833333Y-97724762D01*
X58785714Y-97677143D01*
X57976190Y-97248571D02*
X58309524Y-97248571D01*
X58309524Y-97772381D02*
X58309524Y-96772381D01*
X57833333Y-96772381D01*
D12*
X60133333Y-99885714D02*
X60171428Y-99923810D01*
X60285714Y-99961905D01*
X60361904Y-99961905D01*
X60476190Y-99923810D01*
X60552381Y-99847619D01*
X60590476Y-99771429D01*
X60628571Y-99619048D01*
X60628571Y-99504762D01*
X60590476Y-99352381D01*
X60552381Y-99276190D01*
X60476190Y-99200000D01*
X60361904Y-99161905D01*
X60285714Y-99161905D01*
X60171428Y-99200000D01*
X60133333Y-99238095D01*
X59371428Y-99961905D02*
X59828571Y-99961905D01*
X59600000Y-99961905D02*
X59600000Y-99161905D01*
X59676190Y-99276190D01*
X59752381Y-99352381D01*
X59828571Y-99390476D01*
D11*
X62122381Y-102428572D02*
X62122381Y-101857143D01*
X62122381Y-102142857D02*
X61122381Y-102142857D01*
X61265238Y-102047619D01*
X61360476Y-101952381D01*
X61408095Y-101857143D01*
X61122381Y-103047619D02*
X61122381Y-103142858D01*
X61170000Y-103238096D01*
X61217619Y-103285715D01*
X61312857Y-103333334D01*
X61503333Y-103380953D01*
X61741429Y-103380953D01*
X61931905Y-103333334D01*
X62027143Y-103285715D01*
X62074762Y-103238096D01*
X62122381Y-103142858D01*
X62122381Y-103047619D01*
X62074762Y-102952381D01*
X62027143Y-102904762D01*
X61931905Y-102857143D01*
X61741429Y-102809524D01*
X61503333Y-102809524D01*
X61312857Y-102857143D01*
X61217619Y-102904762D01*
X61170000Y-102952381D01*
X61122381Y-103047619D01*
X61455714Y-104238096D02*
X62122381Y-104238096D01*
X61455714Y-103809524D02*
X61979524Y-103809524D01*
X62074762Y-103857143D01*
X62122381Y-103952381D01*
X62122381Y-104095239D01*
X62074762Y-104190477D01*
X62027143Y-104238096D01*
X61598571Y-105047620D02*
X61598571Y-104714286D01*
X62122381Y-104714286D02*
X61122381Y-104714286D01*
X61122381Y-105190477D01*
D13*
X60589286Y-103458334D02*
X60601190Y-103446429D01*
X60613095Y-103410715D01*
X60613095Y-103386905D01*
X60601190Y-103351191D01*
X60577381Y-103327382D01*
X60553571Y-103315477D01*
X60505952Y-103303572D01*
X60470238Y-103303572D01*
X60422619Y-103315477D01*
X60398810Y-103327382D01*
X60375000Y-103351191D01*
X60363095Y-103386905D01*
X60363095Y-103410715D01*
X60375000Y-103446429D01*
X60386905Y-103458334D01*
X60386905Y-103553572D02*
X60375000Y-103565477D01*
X60363095Y-103589286D01*
X60363095Y-103648810D01*
X60375000Y-103672620D01*
X60386905Y-103684524D01*
X60410714Y-103696429D01*
X60434524Y-103696429D01*
X60470238Y-103684524D01*
X60613095Y-103541667D01*
X60613095Y-103696429D01*
D11*
X58882381Y-109904762D02*
X58882381Y-109333333D01*
X58882381Y-109619047D02*
X57882381Y-109619047D01*
X58025238Y-109523809D01*
X58120476Y-109428571D01*
X58168095Y-109333333D01*
X58215714Y-110761905D02*
X58882381Y-110761905D01*
X58215714Y-110333333D02*
X58739524Y-110333333D01*
X58834762Y-110380952D01*
X58882381Y-110476190D01*
X58882381Y-110619048D01*
X58834762Y-110714286D01*
X58787143Y-110761905D01*
X58358571Y-111571429D02*
X58358571Y-111238095D01*
X58882381Y-111238095D02*
X57882381Y-111238095D01*
X57882381Y-111714286D01*
D13*
X59689286Y-110458334D02*
X59701190Y-110446429D01*
X59713095Y-110410715D01*
X59713095Y-110386905D01*
X59701190Y-110351191D01*
X59677381Y-110327382D01*
X59653571Y-110315477D01*
X59605952Y-110303572D01*
X59570238Y-110303572D01*
X59522619Y-110315477D01*
X59498810Y-110327382D01*
X59475000Y-110351191D01*
X59463095Y-110386905D01*
X59463095Y-110410715D01*
X59475000Y-110446429D01*
X59486905Y-110458334D01*
X59463095Y-110541667D02*
X59463095Y-110696429D01*
X59558333Y-110613096D01*
X59558333Y-110648810D01*
X59570238Y-110672620D01*
X59582143Y-110684524D01*
X59605952Y-110696429D01*
X59665476Y-110696429D01*
X59689286Y-110684524D01*
X59701190Y-110672620D01*
X59713095Y-110648810D01*
X59713095Y-110577382D01*
X59701190Y-110553572D01*
X59689286Y-110541667D01*
D11*
X62547619Y-105172381D02*
X63119048Y-105172381D01*
X62833334Y-105172381D02*
X62833334Y-104172381D01*
X62928572Y-104315238D01*
X63023810Y-104410476D01*
X63119048Y-104458095D01*
X61928572Y-104172381D02*
X61833333Y-104172381D01*
X61738095Y-104220000D01*
X61690476Y-104267619D01*
X61642857Y-104362857D01*
X61595238Y-104553333D01*
X61595238Y-104791429D01*
X61642857Y-104981905D01*
X61690476Y-105077143D01*
X61738095Y-105124762D01*
X61833333Y-105172381D01*
X61928572Y-105172381D01*
X62023810Y-105124762D01*
X62071429Y-105077143D01*
X62119048Y-104981905D01*
X62166667Y-104791429D01*
X62166667Y-104553333D01*
X62119048Y-104362857D01*
X62071429Y-104267619D01*
X62023810Y-104220000D01*
X61928572Y-104172381D01*
X60976191Y-104172381D02*
X60880952Y-104172381D01*
X60785714Y-104220000D01*
X60738095Y-104267619D01*
X60690476Y-104362857D01*
X60642857Y-104553333D01*
X60642857Y-104791429D01*
X60690476Y-104981905D01*
X60738095Y-105077143D01*
X60785714Y-105124762D01*
X60880952Y-105172381D01*
X60976191Y-105172381D01*
X61071429Y-105124762D01*
X61119048Y-105077143D01*
X61166667Y-104981905D01*
X61214286Y-104791429D01*
X61214286Y-104553333D01*
X61166667Y-104362857D01*
X61119048Y-104267619D01*
X61071429Y-104220000D01*
X60976191Y-104172381D01*
X59785714Y-104505714D02*
X59785714Y-105172381D01*
X60214286Y-104505714D02*
X60214286Y-105029524D01*
X60166667Y-105124762D01*
X60071429Y-105172381D01*
X59928571Y-105172381D01*
X59833333Y-105124762D01*
X59785714Y-105077143D01*
X58976190Y-104648571D02*
X59309524Y-104648571D01*
X59309524Y-105172381D02*
X59309524Y-104172381D01*
X58833333Y-104172381D01*
D12*
X61133333Y-107285714D02*
X61171428Y-107323810D01*
X61285714Y-107361905D01*
X61361904Y-107361905D01*
X61476190Y-107323810D01*
X61552381Y-107247619D01*
X61590476Y-107171429D01*
X61628571Y-107019048D01*
X61628571Y-106904762D01*
X61590476Y-106752381D01*
X61552381Y-106676190D01*
X61476190Y-106600000D01*
X61361904Y-106561905D01*
X61285714Y-106561905D01*
X61171428Y-106600000D01*
X61133333Y-106638095D01*
X60447619Y-106828571D02*
X60447619Y-107361905D01*
X60638095Y-106523810D02*
X60828571Y-107095238D01*
X60333333Y-107095238D01*
D11*
X66870128Y-103422381D02*
X67441557Y-103422381D01*
X67155843Y-103422381D02*
X67155843Y-102422381D01*
X67251081Y-102565238D01*
X67346319Y-102660476D01*
X67441557Y-102708095D01*
X66251081Y-102422381D02*
X66155842Y-102422381D01*
X66060604Y-102470000D01*
X66012985Y-102517619D01*
X65965366Y-102612857D01*
X65917747Y-102803333D01*
X65917747Y-103041429D01*
X65965366Y-103231905D01*
X66012985Y-103327143D01*
X66060604Y-103374762D01*
X66155842Y-103422381D01*
X66251081Y-103422381D01*
X66346319Y-103374762D01*
X66393938Y-103327143D01*
X66441557Y-103231905D01*
X66489176Y-103041429D01*
X66489176Y-102803333D01*
X66441557Y-102612857D01*
X66393938Y-102517619D01*
X66346319Y-102470000D01*
X66251081Y-102422381D01*
X65489176Y-102755714D02*
X65489176Y-103422381D01*
X65489176Y-102850952D02*
X65441557Y-102803333D01*
X65346319Y-102755714D01*
X65203461Y-102755714D01*
X65108223Y-102803333D01*
X65060604Y-102898571D01*
X65060604Y-103422381D01*
X64251080Y-102898571D02*
X64584414Y-102898571D01*
X64584414Y-103422381D02*
X64584414Y-102422381D01*
X64108223Y-102422381D01*
D13*
X65840366Y-104229286D02*
X65852271Y-104241190D01*
X65887985Y-104253095D01*
X65911795Y-104253095D01*
X65947509Y-104241190D01*
X65971318Y-104217381D01*
X65983223Y-104193571D01*
X65995128Y-104145952D01*
X65995128Y-104110238D01*
X65983223Y-104062619D01*
X65971318Y-104038810D01*
X65947509Y-104015000D01*
X65911795Y-104003095D01*
X65887985Y-104003095D01*
X65852271Y-104015000D01*
X65840366Y-104026905D01*
X65757033Y-104003095D02*
X65590366Y-104003095D01*
X65697509Y-104253095D01*
D11*
X66642857Y-108217619D02*
X66595238Y-108170000D01*
X66500000Y-108122381D01*
X66261904Y-108122381D01*
X66166666Y-108170000D01*
X66119047Y-108217619D01*
X66071428Y-108312857D01*
X66071428Y-108408095D01*
X66119047Y-108550952D01*
X66690476Y-109122381D01*
X66071428Y-109122381D01*
X65690476Y-108217619D02*
X65642857Y-108170000D01*
X65547619Y-108122381D01*
X65309523Y-108122381D01*
X65214285Y-108170000D01*
X65166666Y-108217619D01*
X65119047Y-108312857D01*
X65119047Y-108408095D01*
X65166666Y-108550952D01*
X65738095Y-109122381D01*
X65119047Y-109122381D01*
X64690476Y-108455714D02*
X64690476Y-109122381D01*
X64690476Y-108550952D02*
X64642857Y-108503333D01*
X64547619Y-108455714D01*
X64404761Y-108455714D01*
X64309523Y-108503333D01*
X64261904Y-108598571D01*
X64261904Y-109122381D01*
X63452380Y-108598571D02*
X63785714Y-108598571D01*
X63785714Y-109122381D02*
X63785714Y-108122381D01*
X63309523Y-108122381D01*
D13*
X65160714Y-107589286D02*
X65172619Y-107601190D01*
X65208333Y-107613095D01*
X65232143Y-107613095D01*
X65267857Y-107601190D01*
X65291666Y-107577381D01*
X65303571Y-107553571D01*
X65315476Y-107505952D01*
X65315476Y-107470238D01*
X65303571Y-107422619D01*
X65291666Y-107398810D01*
X65267857Y-107375000D01*
X65232143Y-107363095D01*
X65208333Y-107363095D01*
X65172619Y-107375000D01*
X65160714Y-107386905D01*
X64922619Y-107613095D02*
X65065476Y-107613095D01*
X64994047Y-107613095D02*
X64994047Y-107363095D01*
X65017857Y-107398810D01*
X65041666Y-107422619D01*
X65065476Y-107434524D01*
X64827381Y-107386905D02*
X64815476Y-107375000D01*
X64791667Y-107363095D01*
X64732143Y-107363095D01*
X64708333Y-107375000D01*
X64696429Y-107386905D01*
X64684524Y-107410714D01*
X64684524Y-107434524D01*
X64696429Y-107470238D01*
X64839286Y-107613095D01*
X64684524Y-107613095D01*
D11*
X60182381Y-109428572D02*
X60182381Y-108857143D01*
X60182381Y-109142857D02*
X59182381Y-109142857D01*
X59325238Y-109047619D01*
X59420476Y-108952381D01*
X59468095Y-108857143D01*
X59182381Y-110047619D02*
X59182381Y-110142858D01*
X59230000Y-110238096D01*
X59277619Y-110285715D01*
X59372857Y-110333334D01*
X59563333Y-110380953D01*
X59801429Y-110380953D01*
X59991905Y-110333334D01*
X60087143Y-110285715D01*
X60134762Y-110238096D01*
X60182381Y-110142858D01*
X60182381Y-110047619D01*
X60134762Y-109952381D01*
X60087143Y-109904762D01*
X59991905Y-109857143D01*
X59801429Y-109809524D01*
X59563333Y-109809524D01*
X59372857Y-109857143D01*
X59277619Y-109904762D01*
X59230000Y-109952381D01*
X59182381Y-110047619D01*
X59515714Y-111238096D02*
X60182381Y-111238096D01*
X59515714Y-110809524D02*
X60039524Y-110809524D01*
X60134762Y-110857143D01*
X60182381Y-110952381D01*
X60182381Y-111095239D01*
X60134762Y-111190477D01*
X60087143Y-111238096D01*
X59658571Y-112047620D02*
X59658571Y-111714286D01*
X60182381Y-111714286D02*
X59182381Y-111714286D01*
X59182381Y-112190477D01*
D13*
X60989286Y-110339286D02*
X61001190Y-110327381D01*
X61013095Y-110291667D01*
X61013095Y-110267857D01*
X61001190Y-110232143D01*
X60977381Y-110208334D01*
X60953571Y-110196429D01*
X60905952Y-110184524D01*
X60870238Y-110184524D01*
X60822619Y-110196429D01*
X60798810Y-110208334D01*
X60775000Y-110232143D01*
X60763095Y-110267857D01*
X60763095Y-110291667D01*
X60775000Y-110327381D01*
X60786905Y-110339286D01*
X61013095Y-110577381D02*
X61013095Y-110434524D01*
X61013095Y-110505953D02*
X60763095Y-110505953D01*
X60798810Y-110482143D01*
X60822619Y-110458334D01*
X60834524Y-110434524D01*
X60763095Y-110660714D02*
X60763095Y-110815476D01*
X60858333Y-110732143D01*
X60858333Y-110767857D01*
X60870238Y-110791667D01*
X60882143Y-110803571D01*
X60905952Y-110815476D01*
X60965476Y-110815476D01*
X60989286Y-110803571D01*
X61001190Y-110791667D01*
X61013095Y-110767857D01*
X61013095Y-110696429D01*
X61001190Y-110672619D01*
X60989286Y-110660714D01*
D11*
X66547619Y-107622381D02*
X67119048Y-107622381D01*
X66833334Y-107622381D02*
X66833334Y-106622381D01*
X66928572Y-106765238D01*
X67023810Y-106860476D01*
X67119048Y-106908095D01*
X65928572Y-106622381D02*
X65833333Y-106622381D01*
X65738095Y-106670000D01*
X65690476Y-106717619D01*
X65642857Y-106812857D01*
X65595238Y-107003333D01*
X65595238Y-107241429D01*
X65642857Y-107431905D01*
X65690476Y-107527143D01*
X65738095Y-107574762D01*
X65833333Y-107622381D01*
X65928572Y-107622381D01*
X66023810Y-107574762D01*
X66071429Y-107527143D01*
X66119048Y-107431905D01*
X66166667Y-107241429D01*
X66166667Y-107003333D01*
X66119048Y-106812857D01*
X66071429Y-106717619D01*
X66023810Y-106670000D01*
X65928572Y-106622381D01*
X64976191Y-106622381D02*
X64880952Y-106622381D01*
X64785714Y-106670000D01*
X64738095Y-106717619D01*
X64690476Y-106812857D01*
X64642857Y-107003333D01*
X64642857Y-107241429D01*
X64690476Y-107431905D01*
X64738095Y-107527143D01*
X64785714Y-107574762D01*
X64880952Y-107622381D01*
X64976191Y-107622381D01*
X65071429Y-107574762D01*
X65119048Y-107527143D01*
X65166667Y-107431905D01*
X65214286Y-107241429D01*
X65214286Y-107003333D01*
X65166667Y-106812857D01*
X65119048Y-106717619D01*
X65071429Y-106670000D01*
X64976191Y-106622381D01*
X64214286Y-106955714D02*
X64214286Y-107622381D01*
X64214286Y-107050952D02*
X64166667Y-107003333D01*
X64071429Y-106955714D01*
X63928571Y-106955714D01*
X63833333Y-107003333D01*
X63785714Y-107098571D01*
X63785714Y-107622381D01*
X62976190Y-107098571D02*
X63309524Y-107098571D01*
X63309524Y-107622381D02*
X63309524Y-106622381D01*
X62833333Y-106622381D01*
D13*
X65160714Y-106089286D02*
X65172619Y-106101190D01*
X65208333Y-106113095D01*
X65232143Y-106113095D01*
X65267857Y-106101190D01*
X65291666Y-106077381D01*
X65303571Y-106053571D01*
X65315476Y-106005952D01*
X65315476Y-105970238D01*
X65303571Y-105922619D01*
X65291666Y-105898810D01*
X65267857Y-105875000D01*
X65232143Y-105863095D01*
X65208333Y-105863095D01*
X65172619Y-105875000D01*
X65160714Y-105886905D01*
X64922619Y-106113095D02*
X65065476Y-106113095D01*
X64994047Y-106113095D02*
X64994047Y-105863095D01*
X65017857Y-105898810D01*
X65041666Y-105922619D01*
X65065476Y-105934524D01*
X64708333Y-105863095D02*
X64755952Y-105863095D01*
X64779762Y-105875000D01*
X64791667Y-105886905D01*
X64815476Y-105922619D01*
X64827381Y-105970238D01*
X64827381Y-106065476D01*
X64815476Y-106089286D01*
X64803571Y-106101190D01*
X64779762Y-106113095D01*
X64732143Y-106113095D01*
X64708333Y-106101190D01*
X64696429Y-106089286D01*
X64684524Y-106065476D01*
X64684524Y-106005952D01*
X64696429Y-105982143D01*
X64708333Y-105970238D01*
X64732143Y-105958333D01*
X64779762Y-105958333D01*
X64803571Y-105970238D01*
X64815476Y-105982143D01*
X64827381Y-106005952D01*
D11*
X72222381Y-110152381D02*
X72222381Y-109580952D01*
X72222381Y-109866666D02*
X71222381Y-109866666D01*
X71365238Y-109771428D01*
X71460476Y-109676190D01*
X71508095Y-109580952D01*
X71222381Y-110771428D02*
X71222381Y-110866667D01*
X71270000Y-110961905D01*
X71317619Y-111009524D01*
X71412857Y-111057143D01*
X71603333Y-111104762D01*
X71841429Y-111104762D01*
X72031905Y-111057143D01*
X72127143Y-111009524D01*
X72174762Y-110961905D01*
X72222381Y-110866667D01*
X72222381Y-110771428D01*
X72174762Y-110676190D01*
X72127143Y-110628571D01*
X72031905Y-110580952D01*
X71841429Y-110533333D01*
X71603333Y-110533333D01*
X71412857Y-110580952D01*
X71317619Y-110628571D01*
X71270000Y-110676190D01*
X71222381Y-110771428D01*
X71222381Y-111723809D02*
X71222381Y-111819048D01*
X71270000Y-111914286D01*
X71317619Y-111961905D01*
X71412857Y-112009524D01*
X71603333Y-112057143D01*
X71841429Y-112057143D01*
X72031905Y-112009524D01*
X72127143Y-111961905D01*
X72174762Y-111914286D01*
X72222381Y-111819048D01*
X72222381Y-111723809D01*
X72174762Y-111628571D01*
X72127143Y-111580952D01*
X72031905Y-111533333D01*
X71841429Y-111485714D01*
X71603333Y-111485714D01*
X71412857Y-111533333D01*
X71317619Y-111580952D01*
X71270000Y-111628571D01*
X71222381Y-111723809D01*
X71555714Y-112485714D02*
X72222381Y-112485714D01*
X71650952Y-112485714D02*
X71603333Y-112533333D01*
X71555714Y-112628571D01*
X71555714Y-112771429D01*
X71603333Y-112866667D01*
X71698571Y-112914286D01*
X72222381Y-112914286D01*
X71698571Y-113723810D02*
X71698571Y-113390476D01*
X72222381Y-113390476D02*
X71222381Y-113390476D01*
X71222381Y-113866667D01*
D13*
X70689286Y-111539286D02*
X70701190Y-111527381D01*
X70713095Y-111491667D01*
X70713095Y-111467857D01*
X70701190Y-111432143D01*
X70677381Y-111408334D01*
X70653571Y-111396429D01*
X70605952Y-111384524D01*
X70570238Y-111384524D01*
X70522619Y-111396429D01*
X70498810Y-111408334D01*
X70475000Y-111432143D01*
X70463095Y-111467857D01*
X70463095Y-111491667D01*
X70475000Y-111527381D01*
X70486905Y-111539286D01*
X70713095Y-111777381D02*
X70713095Y-111634524D01*
X70713095Y-111705953D02*
X70463095Y-111705953D01*
X70498810Y-111682143D01*
X70522619Y-111658334D01*
X70534524Y-111634524D01*
X70463095Y-111860714D02*
X70463095Y-112027381D01*
X70713095Y-111920238D01*
D11*
X75928571Y-97982381D02*
X75309523Y-97982381D01*
X75642857Y-98363333D01*
X75499999Y-98363333D01*
X75404761Y-98410952D01*
X75357142Y-98458571D01*
X75309523Y-98553810D01*
X75309523Y-98791905D01*
X75357142Y-98887143D01*
X75404761Y-98934762D01*
X75499999Y-98982381D01*
X75785714Y-98982381D01*
X75880952Y-98934762D01*
X75928571Y-98887143D01*
X74880952Y-98887143D02*
X74833333Y-98934762D01*
X74880952Y-98982381D01*
X74928571Y-98934762D01*
X74880952Y-98887143D01*
X74880952Y-98982381D01*
X74500000Y-97982381D02*
X73880952Y-97982381D01*
X74214286Y-98363333D01*
X74071428Y-98363333D01*
X73976190Y-98410952D01*
X73928571Y-98458571D01*
X73880952Y-98553810D01*
X73880952Y-98791905D01*
X73928571Y-98887143D01*
X73976190Y-98934762D01*
X74071428Y-98982381D01*
X74357143Y-98982381D01*
X74452381Y-98934762D01*
X74500000Y-98887143D01*
X73452381Y-98315714D02*
X73452381Y-98982381D01*
X73452381Y-98410952D02*
X73404762Y-98363333D01*
X73309524Y-98315714D01*
X73166666Y-98315714D01*
X73071428Y-98363333D01*
X73023809Y-98458571D01*
X73023809Y-98982381D01*
X72214285Y-98458571D02*
X72547619Y-98458571D01*
X72547619Y-98982381D02*
X72547619Y-97982381D01*
X72071428Y-97982381D01*
D13*
X74160714Y-99789286D02*
X74172619Y-99801190D01*
X74208333Y-99813095D01*
X74232143Y-99813095D01*
X74267857Y-99801190D01*
X74291666Y-99777381D01*
X74303571Y-99753571D01*
X74315476Y-99705952D01*
X74315476Y-99670238D01*
X74303571Y-99622619D01*
X74291666Y-99598810D01*
X74267857Y-99575000D01*
X74232143Y-99563095D01*
X74208333Y-99563095D01*
X74172619Y-99575000D01*
X74160714Y-99586905D01*
X73922619Y-99813095D02*
X74065476Y-99813095D01*
X73994047Y-99813095D02*
X73994047Y-99563095D01*
X74017857Y-99598810D01*
X74041666Y-99622619D01*
X74065476Y-99634524D01*
X73779762Y-99670238D02*
X73803571Y-99658333D01*
X73815476Y-99646429D01*
X73827381Y-99622619D01*
X73827381Y-99610714D01*
X73815476Y-99586905D01*
X73803571Y-99575000D01*
X73779762Y-99563095D01*
X73732143Y-99563095D01*
X73708333Y-99575000D01*
X73696429Y-99586905D01*
X73684524Y-99610714D01*
X73684524Y-99622619D01*
X73696429Y-99646429D01*
X73708333Y-99658333D01*
X73732143Y-99670238D01*
X73779762Y-99670238D01*
X73803571Y-99682143D01*
X73815476Y-99694048D01*
X73827381Y-99717857D01*
X73827381Y-99765476D01*
X73815476Y-99789286D01*
X73803571Y-99801190D01*
X73779762Y-99813095D01*
X73732143Y-99813095D01*
X73708333Y-99801190D01*
X73696429Y-99789286D01*
X73684524Y-99765476D01*
X73684524Y-99717857D01*
X73696429Y-99694048D01*
X73708333Y-99682143D01*
X73732143Y-99670238D01*
D11*
X91547619Y-96772381D02*
X92119048Y-96772381D01*
X91833334Y-96772381D02*
X91833334Y-95772381D01*
X91928572Y-95915238D01*
X92023810Y-96010476D01*
X92119048Y-96058095D01*
X90928572Y-95772381D02*
X90833333Y-95772381D01*
X90738095Y-95820000D01*
X90690476Y-95867619D01*
X90642857Y-95962857D01*
X90595238Y-96153333D01*
X90595238Y-96391429D01*
X90642857Y-96581905D01*
X90690476Y-96677143D01*
X90738095Y-96724762D01*
X90833333Y-96772381D01*
X90928572Y-96772381D01*
X91023810Y-96724762D01*
X91071429Y-96677143D01*
X91119048Y-96581905D01*
X91166667Y-96391429D01*
X91166667Y-96153333D01*
X91119048Y-95962857D01*
X91071429Y-95867619D01*
X91023810Y-95820000D01*
X90928572Y-95772381D01*
X89976191Y-95772381D02*
X89880952Y-95772381D01*
X89785714Y-95820000D01*
X89738095Y-95867619D01*
X89690476Y-95962857D01*
X89642857Y-96153333D01*
X89642857Y-96391429D01*
X89690476Y-96581905D01*
X89738095Y-96677143D01*
X89785714Y-96724762D01*
X89880952Y-96772381D01*
X89976191Y-96772381D01*
X90071429Y-96724762D01*
X90119048Y-96677143D01*
X90166667Y-96581905D01*
X90214286Y-96391429D01*
X90214286Y-96153333D01*
X90166667Y-95962857D01*
X90119048Y-95867619D01*
X90071429Y-95820000D01*
X89976191Y-95772381D01*
X88785714Y-96105714D02*
X88785714Y-96772381D01*
X89214286Y-96105714D02*
X89214286Y-96629524D01*
X89166667Y-96724762D01*
X89071429Y-96772381D01*
X88928571Y-96772381D01*
X88833333Y-96724762D01*
X88785714Y-96677143D01*
X87976190Y-96248571D02*
X88309524Y-96248571D01*
X88309524Y-96772381D02*
X88309524Y-95772381D01*
X87833333Y-95772381D01*
D12*
X90514286Y-98885714D02*
X90552381Y-98923810D01*
X90666667Y-98961905D01*
X90742857Y-98961905D01*
X90857143Y-98923810D01*
X90933334Y-98847619D01*
X90971429Y-98771429D01*
X91009524Y-98619048D01*
X91009524Y-98504762D01*
X90971429Y-98352381D01*
X90933334Y-98276190D01*
X90857143Y-98200000D01*
X90742857Y-98161905D01*
X90666667Y-98161905D01*
X90552381Y-98200000D01*
X90514286Y-98238095D01*
X89752381Y-98961905D02*
X90209524Y-98961905D01*
X89980953Y-98961905D02*
X89980953Y-98161905D01*
X90057143Y-98276190D01*
X90133334Y-98352381D01*
X90209524Y-98390476D01*
X89371429Y-98961905D02*
X89219048Y-98961905D01*
X89142857Y-98923810D01*
X89104762Y-98885714D01*
X89028571Y-98771429D01*
X88990476Y-98619048D01*
X88990476Y-98314286D01*
X89028571Y-98238095D01*
X89066667Y-98200000D01*
X89142857Y-98161905D01*
X89295238Y-98161905D01*
X89371429Y-98200000D01*
X89409524Y-98238095D01*
X89447619Y-98314286D01*
X89447619Y-98504762D01*
X89409524Y-98580952D01*
X89371429Y-98619048D01*
X89295238Y-98657143D01*
X89142857Y-98657143D01*
X89066667Y-98619048D01*
X89028571Y-98580952D01*
X88990476Y-98504762D01*
D11*
X91547619Y-100772381D02*
X92119048Y-100772381D01*
X91833334Y-100772381D02*
X91833334Y-99772381D01*
X91928572Y-99915238D01*
X92023810Y-100010476D01*
X92119048Y-100058095D01*
X90928572Y-99772381D02*
X90833333Y-99772381D01*
X90738095Y-99820000D01*
X90690476Y-99867619D01*
X90642857Y-99962857D01*
X90595238Y-100153333D01*
X90595238Y-100391429D01*
X90642857Y-100581905D01*
X90690476Y-100677143D01*
X90738095Y-100724762D01*
X90833333Y-100772381D01*
X90928572Y-100772381D01*
X91023810Y-100724762D01*
X91071429Y-100677143D01*
X91119048Y-100581905D01*
X91166667Y-100391429D01*
X91166667Y-100153333D01*
X91119048Y-99962857D01*
X91071429Y-99867619D01*
X91023810Y-99820000D01*
X90928572Y-99772381D01*
X89976191Y-99772381D02*
X89880952Y-99772381D01*
X89785714Y-99820000D01*
X89738095Y-99867619D01*
X89690476Y-99962857D01*
X89642857Y-100153333D01*
X89642857Y-100391429D01*
X89690476Y-100581905D01*
X89738095Y-100677143D01*
X89785714Y-100724762D01*
X89880952Y-100772381D01*
X89976191Y-100772381D01*
X90071429Y-100724762D01*
X90119048Y-100677143D01*
X90166667Y-100581905D01*
X90214286Y-100391429D01*
X90214286Y-100153333D01*
X90166667Y-99962857D01*
X90119048Y-99867619D01*
X90071429Y-99820000D01*
X89976191Y-99772381D01*
X88785714Y-100105714D02*
X88785714Y-100772381D01*
X89214286Y-100105714D02*
X89214286Y-100629524D01*
X89166667Y-100724762D01*
X89071429Y-100772381D01*
X88928571Y-100772381D01*
X88833333Y-100724762D01*
X88785714Y-100677143D01*
X87976190Y-100248571D02*
X88309524Y-100248571D01*
X88309524Y-100772381D02*
X88309524Y-99772381D01*
X87833333Y-99772381D01*
D12*
X90514286Y-102885714D02*
X90552381Y-102923810D01*
X90666667Y-102961905D01*
X90742857Y-102961905D01*
X90857143Y-102923810D01*
X90933334Y-102847619D01*
X90971429Y-102771429D01*
X91009524Y-102619048D01*
X91009524Y-102504762D01*
X90971429Y-102352381D01*
X90933334Y-102276190D01*
X90857143Y-102200000D01*
X90742857Y-102161905D01*
X90666667Y-102161905D01*
X90552381Y-102200000D01*
X90514286Y-102238095D01*
X90209524Y-102238095D02*
X90171429Y-102200000D01*
X90095238Y-102161905D01*
X89904762Y-102161905D01*
X89828572Y-102200000D01*
X89790476Y-102238095D01*
X89752381Y-102314286D01*
X89752381Y-102390476D01*
X89790476Y-102504762D01*
X90247619Y-102961905D01*
X89752381Y-102961905D01*
X88990476Y-102961905D02*
X89447619Y-102961905D01*
X89219048Y-102961905D02*
X89219048Y-102161905D01*
X89295238Y-102276190D01*
X89371429Y-102352381D01*
X89447619Y-102390476D01*
D11*
X90147619Y-87872381D02*
X90719048Y-87872381D01*
X90433334Y-87872381D02*
X90433334Y-86872381D01*
X90528572Y-87015238D01*
X90623810Y-87110476D01*
X90719048Y-87158095D01*
X89528572Y-86872381D02*
X89433333Y-86872381D01*
X89338095Y-86920000D01*
X89290476Y-86967619D01*
X89242857Y-87062857D01*
X89195238Y-87253333D01*
X89195238Y-87491429D01*
X89242857Y-87681905D01*
X89290476Y-87777143D01*
X89338095Y-87824762D01*
X89433333Y-87872381D01*
X89528572Y-87872381D01*
X89623810Y-87824762D01*
X89671429Y-87777143D01*
X89719048Y-87681905D01*
X89766667Y-87491429D01*
X89766667Y-87253333D01*
X89719048Y-87062857D01*
X89671429Y-86967619D01*
X89623810Y-86920000D01*
X89528572Y-86872381D01*
X88576191Y-86872381D02*
X88480952Y-86872381D01*
X88385714Y-86920000D01*
X88338095Y-86967619D01*
X88290476Y-87062857D01*
X88242857Y-87253333D01*
X88242857Y-87491429D01*
X88290476Y-87681905D01*
X88338095Y-87777143D01*
X88385714Y-87824762D01*
X88480952Y-87872381D01*
X88576191Y-87872381D01*
X88671429Y-87824762D01*
X88719048Y-87777143D01*
X88766667Y-87681905D01*
X88814286Y-87491429D01*
X88814286Y-87253333D01*
X88766667Y-87062857D01*
X88719048Y-86967619D01*
X88671429Y-86920000D01*
X88576191Y-86872381D01*
X87385714Y-87205714D02*
X87385714Y-87872381D01*
X87814286Y-87205714D02*
X87814286Y-87729524D01*
X87766667Y-87824762D01*
X87671429Y-87872381D01*
X87528571Y-87872381D01*
X87433333Y-87824762D01*
X87385714Y-87777143D01*
X86576190Y-87348571D02*
X86909524Y-87348571D01*
X86909524Y-87872381D02*
X86909524Y-86872381D01*
X86433333Y-86872381D01*
D12*
X89114286Y-89985714D02*
X89152381Y-90023810D01*
X89266667Y-90061905D01*
X89342857Y-90061905D01*
X89457143Y-90023810D01*
X89533334Y-89947619D01*
X89571429Y-89871429D01*
X89609524Y-89719048D01*
X89609524Y-89604762D01*
X89571429Y-89452381D01*
X89533334Y-89376190D01*
X89457143Y-89300000D01*
X89342857Y-89261905D01*
X89266667Y-89261905D01*
X89152381Y-89300000D01*
X89114286Y-89338095D01*
X88847619Y-89261905D02*
X88352381Y-89261905D01*
X88619048Y-89566667D01*
X88504762Y-89566667D01*
X88428572Y-89604762D01*
X88390476Y-89642857D01*
X88352381Y-89719048D01*
X88352381Y-89909524D01*
X88390476Y-89985714D01*
X88428572Y-90023810D01*
X88504762Y-90061905D01*
X88733334Y-90061905D01*
X88809524Y-90023810D01*
X88847619Y-89985714D01*
X87590476Y-90061905D02*
X88047619Y-90061905D01*
X87819048Y-90061905D02*
X87819048Y-89261905D01*
X87895238Y-89376190D01*
X87971429Y-89452381D01*
X88047619Y-89490476D01*
D11*
X89247619Y-82872381D02*
X89819048Y-82872381D01*
X89533334Y-82872381D02*
X89533334Y-81872381D01*
X89628572Y-82015238D01*
X89723810Y-82110476D01*
X89819048Y-82158095D01*
X88628572Y-81872381D02*
X88533333Y-81872381D01*
X88438095Y-81920000D01*
X88390476Y-81967619D01*
X88342857Y-82062857D01*
X88295238Y-82253333D01*
X88295238Y-82491429D01*
X88342857Y-82681905D01*
X88390476Y-82777143D01*
X88438095Y-82824762D01*
X88533333Y-82872381D01*
X88628572Y-82872381D01*
X88723810Y-82824762D01*
X88771429Y-82777143D01*
X88819048Y-82681905D01*
X88866667Y-82491429D01*
X88866667Y-82253333D01*
X88819048Y-82062857D01*
X88771429Y-81967619D01*
X88723810Y-81920000D01*
X88628572Y-81872381D01*
X87676191Y-81872381D02*
X87580952Y-81872381D01*
X87485714Y-81920000D01*
X87438095Y-81967619D01*
X87390476Y-82062857D01*
X87342857Y-82253333D01*
X87342857Y-82491429D01*
X87390476Y-82681905D01*
X87438095Y-82777143D01*
X87485714Y-82824762D01*
X87580952Y-82872381D01*
X87676191Y-82872381D01*
X87771429Y-82824762D01*
X87819048Y-82777143D01*
X87866667Y-82681905D01*
X87914286Y-82491429D01*
X87914286Y-82253333D01*
X87866667Y-82062857D01*
X87819048Y-81967619D01*
X87771429Y-81920000D01*
X87676191Y-81872381D01*
X86485714Y-82205714D02*
X86485714Y-82872381D01*
X86914286Y-82205714D02*
X86914286Y-82729524D01*
X86866667Y-82824762D01*
X86771429Y-82872381D01*
X86628571Y-82872381D01*
X86533333Y-82824762D01*
X86485714Y-82777143D01*
X85676190Y-82348571D02*
X86009524Y-82348571D01*
X86009524Y-82872381D02*
X86009524Y-81872381D01*
X85533333Y-81872381D01*
D12*
X88214286Y-84985714D02*
X88252381Y-85023810D01*
X88366667Y-85061905D01*
X88442857Y-85061905D01*
X88557143Y-85023810D01*
X88633334Y-84947619D01*
X88671429Y-84871429D01*
X88709524Y-84719048D01*
X88709524Y-84604762D01*
X88671429Y-84452381D01*
X88633334Y-84376190D01*
X88557143Y-84300000D01*
X88442857Y-84261905D01*
X88366667Y-84261905D01*
X88252381Y-84300000D01*
X88214286Y-84338095D01*
X87947619Y-84261905D02*
X87452381Y-84261905D01*
X87719048Y-84566667D01*
X87604762Y-84566667D01*
X87528572Y-84604762D01*
X87490476Y-84642857D01*
X87452381Y-84719048D01*
X87452381Y-84909524D01*
X87490476Y-84985714D01*
X87528572Y-85023810D01*
X87604762Y-85061905D01*
X87833334Y-85061905D01*
X87909524Y-85023810D01*
X87947619Y-84985714D01*
X86766667Y-84528571D02*
X86766667Y-85061905D01*
X86957143Y-84223810D02*
X87147619Y-84795238D01*
X86652381Y-84795238D01*
D11*
X65190476Y-115782381D02*
X64571428Y-115782381D01*
X64904762Y-116163333D01*
X64761904Y-116163333D01*
X64666666Y-116210952D01*
X64619047Y-116258571D01*
X64571428Y-116353810D01*
X64571428Y-116591905D01*
X64619047Y-116687143D01*
X64666666Y-116734762D01*
X64761904Y-116782381D01*
X65047619Y-116782381D01*
X65142857Y-116734762D01*
X65190476Y-116687143D01*
X64238095Y-115782381D02*
X63619047Y-115782381D01*
X63952381Y-116163333D01*
X63809523Y-116163333D01*
X63714285Y-116210952D01*
X63666666Y-116258571D01*
X63619047Y-116353810D01*
X63619047Y-116591905D01*
X63666666Y-116687143D01*
X63714285Y-116734762D01*
X63809523Y-116782381D01*
X64095238Y-116782381D01*
X64190476Y-116734762D01*
X64238095Y-116687143D01*
X63190476Y-116115714D02*
X63190476Y-117115714D01*
X63190476Y-116163333D02*
X63095238Y-116115714D01*
X62904761Y-116115714D01*
X62809523Y-116163333D01*
X62761904Y-116210952D01*
X62714285Y-116306190D01*
X62714285Y-116591905D01*
X62761904Y-116687143D01*
X62809523Y-116734762D01*
X62904761Y-116782381D01*
X63095238Y-116782381D01*
X63190476Y-116734762D01*
X61952380Y-116258571D02*
X62285714Y-116258571D01*
X62285714Y-116782381D02*
X62285714Y-115782381D01*
X61809523Y-115782381D01*
D13*
X63660714Y-117589286D02*
X63672619Y-117601190D01*
X63708333Y-117613095D01*
X63732143Y-117613095D01*
X63767857Y-117601190D01*
X63791666Y-117577381D01*
X63803571Y-117553571D01*
X63815476Y-117505952D01*
X63815476Y-117470238D01*
X63803571Y-117422619D01*
X63791666Y-117398810D01*
X63767857Y-117375000D01*
X63732143Y-117363095D01*
X63708333Y-117363095D01*
X63672619Y-117375000D01*
X63660714Y-117386905D01*
X63446428Y-117446429D02*
X63446428Y-117613095D01*
X63505952Y-117351190D02*
X63565476Y-117529762D01*
X63410714Y-117529762D01*
X63303571Y-117613095D02*
X63255952Y-117613095D01*
X63232143Y-117601190D01*
X63220238Y-117589286D01*
X63196429Y-117553571D01*
X63184524Y-117505952D01*
X63184524Y-117410714D01*
X63196429Y-117386905D01*
X63208333Y-117375000D01*
X63232143Y-117363095D01*
X63279762Y-117363095D01*
X63303571Y-117375000D01*
X63315476Y-117386905D01*
X63327381Y-117410714D01*
X63327381Y-117470238D01*
X63315476Y-117494048D01*
X63303571Y-117505952D01*
X63279762Y-117517857D01*
X63232143Y-117517857D01*
X63208333Y-117505952D01*
X63196429Y-117494048D01*
X63184524Y-117470238D01*
D11*
X65190476Y-119622381D02*
X64571428Y-119622381D01*
X64904762Y-120003333D01*
X64761904Y-120003333D01*
X64666666Y-120050952D01*
X64619047Y-120098571D01*
X64571428Y-120193810D01*
X64571428Y-120431905D01*
X64619047Y-120527143D01*
X64666666Y-120574762D01*
X64761904Y-120622381D01*
X65047619Y-120622381D01*
X65142857Y-120574762D01*
X65190476Y-120527143D01*
X64238095Y-119622381D02*
X63619047Y-119622381D01*
X63952381Y-120003333D01*
X63809523Y-120003333D01*
X63714285Y-120050952D01*
X63666666Y-120098571D01*
X63619047Y-120193810D01*
X63619047Y-120431905D01*
X63666666Y-120527143D01*
X63714285Y-120574762D01*
X63809523Y-120622381D01*
X64095238Y-120622381D01*
X64190476Y-120574762D01*
X64238095Y-120527143D01*
X63190476Y-119955714D02*
X63190476Y-120955714D01*
X63190476Y-120003333D02*
X63095238Y-119955714D01*
X62904761Y-119955714D01*
X62809523Y-120003333D01*
X62761904Y-120050952D01*
X62714285Y-120146190D01*
X62714285Y-120431905D01*
X62761904Y-120527143D01*
X62809523Y-120574762D01*
X62904761Y-120622381D01*
X63095238Y-120622381D01*
X63190476Y-120574762D01*
X61952380Y-120098571D02*
X62285714Y-120098571D01*
X62285714Y-120622381D02*
X62285714Y-119622381D01*
X61809523Y-119622381D01*
D13*
X63660714Y-119089286D02*
X63672619Y-119101190D01*
X63708333Y-119113095D01*
X63732143Y-119113095D01*
X63767857Y-119101190D01*
X63791666Y-119077381D01*
X63803571Y-119053571D01*
X63815476Y-119005952D01*
X63815476Y-118970238D01*
X63803571Y-118922619D01*
X63791666Y-118898810D01*
X63767857Y-118875000D01*
X63732143Y-118863095D01*
X63708333Y-118863095D01*
X63672619Y-118875000D01*
X63660714Y-118886905D01*
X63434524Y-118863095D02*
X63553571Y-118863095D01*
X63565476Y-118982143D01*
X63553571Y-118970238D01*
X63529762Y-118958333D01*
X63470238Y-118958333D01*
X63446428Y-118970238D01*
X63434524Y-118982143D01*
X63422619Y-119005952D01*
X63422619Y-119065476D01*
X63434524Y-119089286D01*
X63446428Y-119101190D01*
X63470238Y-119113095D01*
X63529762Y-119113095D01*
X63553571Y-119101190D01*
X63565476Y-119089286D01*
X63267857Y-118863095D02*
X63244048Y-118863095D01*
X63220238Y-118875000D01*
X63208333Y-118886905D01*
X63196429Y-118910714D01*
X63184524Y-118958333D01*
X63184524Y-119017857D01*
X63196429Y-119065476D01*
X63208333Y-119089286D01*
X63220238Y-119101190D01*
X63244048Y-119113095D01*
X63267857Y-119113095D01*
X63291667Y-119101190D01*
X63303571Y-119089286D01*
X63315476Y-119065476D01*
X63327381Y-119017857D01*
X63327381Y-118958333D01*
X63315476Y-118910714D01*
X63303571Y-118886905D01*
X63291667Y-118875000D01*
X63267857Y-118863095D01*
D11*
X65190476Y-114284181D02*
X64571428Y-114284181D01*
X64904762Y-114665133D01*
X64761904Y-114665133D01*
X64666666Y-114712752D01*
X64619047Y-114760371D01*
X64571428Y-114855610D01*
X64571428Y-115093705D01*
X64619047Y-115188943D01*
X64666666Y-115236562D01*
X64761904Y-115284181D01*
X65047619Y-115284181D01*
X65142857Y-115236562D01*
X65190476Y-115188943D01*
X64238095Y-114284181D02*
X63619047Y-114284181D01*
X63952381Y-114665133D01*
X63809523Y-114665133D01*
X63714285Y-114712752D01*
X63666666Y-114760371D01*
X63619047Y-114855610D01*
X63619047Y-115093705D01*
X63666666Y-115188943D01*
X63714285Y-115236562D01*
X63809523Y-115284181D01*
X64095238Y-115284181D01*
X64190476Y-115236562D01*
X64238095Y-115188943D01*
X63190476Y-114617514D02*
X63190476Y-115617514D01*
X63190476Y-114665133D02*
X63095238Y-114617514D01*
X62904761Y-114617514D01*
X62809523Y-114665133D01*
X62761904Y-114712752D01*
X62714285Y-114807990D01*
X62714285Y-115093705D01*
X62761904Y-115188943D01*
X62809523Y-115236562D01*
X62904761Y-115284181D01*
X63095238Y-115284181D01*
X63190476Y-115236562D01*
X61952380Y-114760371D02*
X62285714Y-114760371D01*
X62285714Y-115284181D02*
X62285714Y-114284181D01*
X61809523Y-114284181D01*
D13*
X63660714Y-116091086D02*
X63672619Y-116102990D01*
X63708333Y-116114895D01*
X63732143Y-116114895D01*
X63767857Y-116102990D01*
X63791666Y-116079181D01*
X63803571Y-116055371D01*
X63815476Y-116007752D01*
X63815476Y-115972038D01*
X63803571Y-115924419D01*
X63791666Y-115900610D01*
X63767857Y-115876800D01*
X63732143Y-115864895D01*
X63708333Y-115864895D01*
X63672619Y-115876800D01*
X63660714Y-115888705D01*
X63434524Y-115864895D02*
X63553571Y-115864895D01*
X63565476Y-115983943D01*
X63553571Y-115972038D01*
X63529762Y-115960133D01*
X63470238Y-115960133D01*
X63446428Y-115972038D01*
X63434524Y-115983943D01*
X63422619Y-116007752D01*
X63422619Y-116067276D01*
X63434524Y-116091086D01*
X63446428Y-116102990D01*
X63470238Y-116114895D01*
X63529762Y-116114895D01*
X63553571Y-116102990D01*
X63565476Y-116091086D01*
X63184524Y-116114895D02*
X63327381Y-116114895D01*
X63255952Y-116114895D02*
X63255952Y-115864895D01*
X63279762Y-115900610D01*
X63303571Y-115924419D01*
X63327381Y-115936324D01*
D11*
X67466666Y-122682381D02*
X68038095Y-122682381D01*
X67752381Y-122682381D02*
X67752381Y-121682381D01*
X67847619Y-121825238D01*
X67942857Y-121920476D01*
X68038095Y-121968095D01*
X66847619Y-121682381D02*
X66752380Y-121682381D01*
X66657142Y-121730000D01*
X66609523Y-121777619D01*
X66561904Y-121872857D01*
X66514285Y-122063333D01*
X66514285Y-122301429D01*
X66561904Y-122491905D01*
X66609523Y-122587143D01*
X66657142Y-122634762D01*
X66752380Y-122682381D01*
X66847619Y-122682381D01*
X66942857Y-122634762D01*
X66990476Y-122587143D01*
X67038095Y-122491905D01*
X67085714Y-122301429D01*
X67085714Y-122063333D01*
X67038095Y-121872857D01*
X66990476Y-121777619D01*
X66942857Y-121730000D01*
X66847619Y-121682381D01*
X65657142Y-122015714D02*
X65657142Y-122682381D01*
X65895238Y-121634762D02*
X66133333Y-122349048D01*
X65514285Y-122349048D01*
D13*
X66960714Y-123489286D02*
X66972619Y-123501190D01*
X67008333Y-123513095D01*
X67032143Y-123513095D01*
X67067857Y-123501190D01*
X67091666Y-123477381D01*
X67103571Y-123453571D01*
X67115476Y-123405952D01*
X67115476Y-123370238D01*
X67103571Y-123322619D01*
X67091666Y-123298810D01*
X67067857Y-123275000D01*
X67032143Y-123263095D01*
X67008333Y-123263095D01*
X66972619Y-123275000D01*
X66960714Y-123286905D01*
X66734524Y-123263095D02*
X66853571Y-123263095D01*
X66865476Y-123382143D01*
X66853571Y-123370238D01*
X66829762Y-123358333D01*
X66770238Y-123358333D01*
X66746428Y-123370238D01*
X66734524Y-123382143D01*
X66722619Y-123405952D01*
X66722619Y-123465476D01*
X66734524Y-123489286D01*
X66746428Y-123501190D01*
X66770238Y-123513095D01*
X66829762Y-123513095D01*
X66853571Y-123501190D01*
X66865476Y-123489286D01*
X66508333Y-123346429D02*
X66508333Y-123513095D01*
X66567857Y-123251190D02*
X66627381Y-123429762D01*
X66472619Y-123429762D01*
D11*
X75547619Y-104122381D02*
X76119048Y-104122381D01*
X75833334Y-104122381D02*
X75833334Y-103122381D01*
X75928572Y-103265238D01*
X76023810Y-103360476D01*
X76119048Y-103408095D01*
X74928572Y-103122381D02*
X74833333Y-103122381D01*
X74738095Y-103170000D01*
X74690476Y-103217619D01*
X74642857Y-103312857D01*
X74595238Y-103503333D01*
X74595238Y-103741429D01*
X74642857Y-103931905D01*
X74690476Y-104027143D01*
X74738095Y-104074762D01*
X74833333Y-104122381D01*
X74928572Y-104122381D01*
X75023810Y-104074762D01*
X75071429Y-104027143D01*
X75119048Y-103931905D01*
X75166667Y-103741429D01*
X75166667Y-103503333D01*
X75119048Y-103312857D01*
X75071429Y-103217619D01*
X75023810Y-103170000D01*
X74928572Y-103122381D01*
X73976191Y-103122381D02*
X73880952Y-103122381D01*
X73785714Y-103170000D01*
X73738095Y-103217619D01*
X73690476Y-103312857D01*
X73642857Y-103503333D01*
X73642857Y-103741429D01*
X73690476Y-103931905D01*
X73738095Y-104027143D01*
X73785714Y-104074762D01*
X73880952Y-104122381D01*
X73976191Y-104122381D01*
X74071429Y-104074762D01*
X74119048Y-104027143D01*
X74166667Y-103931905D01*
X74214286Y-103741429D01*
X74214286Y-103503333D01*
X74166667Y-103312857D01*
X74119048Y-103217619D01*
X74071429Y-103170000D01*
X73976191Y-103122381D01*
X73214286Y-103455714D02*
X73214286Y-104122381D01*
X73214286Y-103550952D02*
X73166667Y-103503333D01*
X73071429Y-103455714D01*
X72928571Y-103455714D01*
X72833333Y-103503333D01*
X72785714Y-103598571D01*
X72785714Y-104122381D01*
X71976190Y-103598571D02*
X72309524Y-103598571D01*
X72309524Y-104122381D02*
X72309524Y-103122381D01*
X71833333Y-103122381D01*
D13*
X74160714Y-102589286D02*
X74172619Y-102601190D01*
X74208333Y-102613095D01*
X74232143Y-102613095D01*
X74267857Y-102601190D01*
X74291666Y-102577381D01*
X74303571Y-102553571D01*
X74315476Y-102505952D01*
X74315476Y-102470238D01*
X74303571Y-102422619D01*
X74291666Y-102398810D01*
X74267857Y-102375000D01*
X74232143Y-102363095D01*
X74208333Y-102363095D01*
X74172619Y-102375000D01*
X74160714Y-102386905D01*
X73934524Y-102363095D02*
X74053571Y-102363095D01*
X74065476Y-102482143D01*
X74053571Y-102470238D01*
X74029762Y-102458333D01*
X73970238Y-102458333D01*
X73946428Y-102470238D01*
X73934524Y-102482143D01*
X73922619Y-102505952D01*
X73922619Y-102565476D01*
X73934524Y-102589286D01*
X73946428Y-102601190D01*
X73970238Y-102613095D01*
X74029762Y-102613095D01*
X74053571Y-102601190D01*
X74065476Y-102589286D01*
X73708333Y-102363095D02*
X73755952Y-102363095D01*
X73779762Y-102375000D01*
X73791667Y-102386905D01*
X73815476Y-102422619D01*
X73827381Y-102470238D01*
X73827381Y-102565476D01*
X73815476Y-102589286D01*
X73803571Y-102601190D01*
X73779762Y-102613095D01*
X73732143Y-102613095D01*
X73708333Y-102601190D01*
X73696429Y-102589286D01*
X73684524Y-102565476D01*
X73684524Y-102505952D01*
X73696429Y-102482143D01*
X73708333Y-102470238D01*
X73732143Y-102458333D01*
X73779762Y-102458333D01*
X73803571Y-102470238D01*
X73815476Y-102482143D01*
X73827381Y-102505952D01*
D11*
X60622381Y-101952381D02*
X60622381Y-101380952D01*
X60622381Y-101666666D02*
X59622381Y-101666666D01*
X59765238Y-101571428D01*
X59860476Y-101476190D01*
X59908095Y-101380952D01*
X59622381Y-102571428D02*
X59622381Y-102666667D01*
X59670000Y-102761905D01*
X59717619Y-102809524D01*
X59812857Y-102857143D01*
X60003333Y-102904762D01*
X60241429Y-102904762D01*
X60431905Y-102857143D01*
X60527143Y-102809524D01*
X60574762Y-102761905D01*
X60622381Y-102666667D01*
X60622381Y-102571428D01*
X60574762Y-102476190D01*
X60527143Y-102428571D01*
X60431905Y-102380952D01*
X60241429Y-102333333D01*
X60003333Y-102333333D01*
X59812857Y-102380952D01*
X59717619Y-102428571D01*
X59670000Y-102476190D01*
X59622381Y-102571428D01*
X59622381Y-103523809D02*
X59622381Y-103619048D01*
X59670000Y-103714286D01*
X59717619Y-103761905D01*
X59812857Y-103809524D01*
X60003333Y-103857143D01*
X60241429Y-103857143D01*
X60431905Y-103809524D01*
X60527143Y-103761905D01*
X60574762Y-103714286D01*
X60622381Y-103619048D01*
X60622381Y-103523809D01*
X60574762Y-103428571D01*
X60527143Y-103380952D01*
X60431905Y-103333333D01*
X60241429Y-103285714D01*
X60003333Y-103285714D01*
X59812857Y-103333333D01*
X59717619Y-103380952D01*
X59670000Y-103428571D01*
X59622381Y-103523809D01*
X59955714Y-104285714D02*
X60622381Y-104285714D01*
X60050952Y-104285714D02*
X60003333Y-104333333D01*
X59955714Y-104428571D01*
X59955714Y-104571429D01*
X60003333Y-104666667D01*
X60098571Y-104714286D01*
X60622381Y-104714286D01*
X60098571Y-105523810D02*
X60098571Y-105190476D01*
X60622381Y-105190476D02*
X59622381Y-105190476D01*
X59622381Y-105666667D01*
D13*
X59089286Y-103339286D02*
X59101190Y-103327381D01*
X59113095Y-103291667D01*
X59113095Y-103267857D01*
X59101190Y-103232143D01*
X59077381Y-103208334D01*
X59053571Y-103196429D01*
X59005952Y-103184524D01*
X58970238Y-103184524D01*
X58922619Y-103196429D01*
X58898810Y-103208334D01*
X58875000Y-103232143D01*
X58863095Y-103267857D01*
X58863095Y-103291667D01*
X58875000Y-103327381D01*
X58886905Y-103339286D01*
X58863095Y-103553572D02*
X58863095Y-103505953D01*
X58875000Y-103482143D01*
X58886905Y-103470238D01*
X58922619Y-103446429D01*
X58970238Y-103434524D01*
X59065476Y-103434524D01*
X59089286Y-103446429D01*
X59101190Y-103458334D01*
X59113095Y-103482143D01*
X59113095Y-103529762D01*
X59101190Y-103553572D01*
X59089286Y-103565476D01*
X59065476Y-103577381D01*
X59005952Y-103577381D01*
X58982143Y-103565476D01*
X58970238Y-103553572D01*
X58958333Y-103529762D01*
X58958333Y-103482143D01*
X58970238Y-103458334D01*
X58982143Y-103446429D01*
X59005952Y-103434524D01*
X58863095Y-103660714D02*
X58863095Y-103815476D01*
X58958333Y-103732143D01*
X58958333Y-103767857D01*
X58970238Y-103791667D01*
X58982143Y-103803571D01*
X59005952Y-103815476D01*
X59065476Y-103815476D01*
X59089286Y-103803571D01*
X59101190Y-103791667D01*
X59113095Y-103767857D01*
X59113095Y-103696429D01*
X59101190Y-103672619D01*
X59089286Y-103660714D01*
D11*
X79652381Y-81990476D02*
X78652381Y-81990476D01*
X79366667Y-82323810D01*
X78652381Y-82657143D01*
X79652381Y-82657143D01*
X79652381Y-83133333D02*
X78652381Y-83133333D01*
X79366667Y-83466667D01*
X78652381Y-83800000D01*
X79652381Y-83800000D01*
X79604762Y-84228571D02*
X79652381Y-84371428D01*
X79652381Y-84609524D01*
X79604762Y-84704762D01*
X79557143Y-84752381D01*
X79461905Y-84800000D01*
X79366667Y-84800000D01*
X79271429Y-84752381D01*
X79223810Y-84704762D01*
X79176190Y-84609524D01*
X79128571Y-84419047D01*
X79080952Y-84323809D01*
X79033333Y-84276190D01*
X78938095Y-84228571D01*
X78842857Y-84228571D01*
X78747619Y-84276190D01*
X78700000Y-84323809D01*
X78652381Y-84419047D01*
X78652381Y-84657143D01*
X78700000Y-84800000D01*
X78652381Y-85133333D02*
X78652381Y-85800000D01*
X79652381Y-85133333D01*
X79652381Y-85800000D01*
X78652381Y-86657143D02*
X78652381Y-86180952D01*
X79128571Y-86133333D01*
X79080952Y-86180952D01*
X79033333Y-86276190D01*
X79033333Y-86514286D01*
X79080952Y-86609524D01*
X79128571Y-86657143D01*
X79223810Y-86704762D01*
X79461905Y-86704762D01*
X79557143Y-86657143D01*
X79604762Y-86609524D01*
X79652381Y-86514286D01*
X79652381Y-86276190D01*
X79604762Y-86180952D01*
X79557143Y-86133333D01*
X78747619Y-87085714D02*
X78700000Y-87133333D01*
X78652381Y-87228571D01*
X78652381Y-87466667D01*
X78700000Y-87561905D01*
X78747619Y-87609524D01*
X78842857Y-87657143D01*
X78938095Y-87657143D01*
X79080952Y-87609524D01*
X79652381Y-87038095D01*
X79652381Y-87657143D01*
X78652381Y-87990476D02*
X78652381Y-88609524D01*
X79033333Y-88276190D01*
X79033333Y-88419048D01*
X79080952Y-88514286D01*
X79128571Y-88561905D01*
X79223810Y-88609524D01*
X79461905Y-88609524D01*
X79557143Y-88561905D01*
X79604762Y-88514286D01*
X79652381Y-88419048D01*
X79652381Y-88133333D01*
X79604762Y-88038095D01*
X79557143Y-87990476D01*
X79652381Y-89561905D02*
X79652381Y-88990476D01*
X79652381Y-89276190D02*
X78652381Y-89276190D01*
X78795238Y-89180952D01*
X78890476Y-89085714D01*
X78938095Y-88990476D01*
X79128571Y-90323810D02*
X79176190Y-90466667D01*
X79223810Y-90514286D01*
X79319048Y-90561905D01*
X79461905Y-90561905D01*
X79557143Y-90514286D01*
X79604762Y-90466667D01*
X79652381Y-90371429D01*
X79652381Y-89990476D01*
X78652381Y-89990476D01*
X78652381Y-90323810D01*
X78700000Y-90419048D01*
X78747619Y-90466667D01*
X78842857Y-90514286D01*
X78938095Y-90514286D01*
X79033333Y-90466667D01*
X79080952Y-90419048D01*
X79128571Y-90323810D01*
X79128571Y-89990476D01*
X79271429Y-90990476D02*
X79271429Y-91752381D01*
X79128571Y-92228571D02*
X79128571Y-92561905D01*
X79652381Y-92704762D02*
X79652381Y-92228571D01*
X78652381Y-92228571D01*
X78652381Y-92704762D01*
X78652381Y-93038095D02*
X78652381Y-93657143D01*
X79033333Y-93323809D01*
X79033333Y-93466667D01*
X79080952Y-93561905D01*
X79128571Y-93609524D01*
X79223810Y-93657143D01*
X79461905Y-93657143D01*
X79557143Y-93609524D01*
X79604762Y-93561905D01*
X79652381Y-93466667D01*
X79652381Y-93180952D01*
X79604762Y-93085714D01*
X79557143Y-93038095D01*
X75552381Y-87061905D02*
X74552381Y-87061905D01*
X74552381Y-87300000D01*
X74600000Y-87442858D01*
X74695238Y-87538096D01*
X74790476Y-87585715D01*
X74980952Y-87633334D01*
X75123810Y-87633334D01*
X75314286Y-87585715D01*
X75409524Y-87538096D01*
X75504762Y-87442858D01*
X75552381Y-87300000D01*
X75552381Y-87061905D01*
X74647619Y-88014286D02*
X74600000Y-88061905D01*
X74552381Y-88157143D01*
X74552381Y-88395239D01*
X74600000Y-88490477D01*
X74647619Y-88538096D01*
X74742857Y-88585715D01*
X74838095Y-88585715D01*
X74980952Y-88538096D01*
X75552381Y-87966667D01*
X75552381Y-88585715D01*
X96542857Y-116422381D02*
X96876191Y-115946190D01*
X97114286Y-116422381D02*
X97114286Y-115422381D01*
X96733333Y-115422381D01*
X96638095Y-115470000D01*
X96590476Y-115517619D01*
X96542857Y-115612857D01*
X96542857Y-115755714D01*
X96590476Y-115850952D01*
X96638095Y-115898571D01*
X96733333Y-115946190D01*
X97114286Y-115946190D01*
X96114286Y-115898571D02*
X95780952Y-115898571D01*
X95638095Y-116422381D02*
X96114286Y-116422381D01*
X96114286Y-115422381D01*
X95638095Y-115422381D01*
X95209524Y-116422381D02*
X95209524Y-115422381D01*
X94971429Y-115422381D01*
X94828571Y-115470000D01*
X94733333Y-115565238D01*
X94685714Y-115660476D01*
X94638095Y-115850952D01*
X94638095Y-115993810D01*
X94685714Y-116184286D01*
X94733333Y-116279524D01*
X94828571Y-116374762D01*
X94971429Y-116422381D01*
X95209524Y-116422381D01*
D14*
X96195238Y-117580952D02*
X96195238Y-117180952D01*
X96100000Y-117180952D01*
X96042857Y-117200000D01*
X96004762Y-117238095D01*
X95985714Y-117276190D01*
X95966666Y-117352381D01*
X95966666Y-117409524D01*
X95985714Y-117485714D01*
X96004762Y-117523810D01*
X96042857Y-117561905D01*
X96100000Y-117580952D01*
X96195238Y-117580952D01*
X95833333Y-117180952D02*
X95585714Y-117180952D01*
X95719047Y-117333333D01*
X95661905Y-117333333D01*
X95623809Y-117352381D01*
X95604762Y-117371429D01*
X95585714Y-117409524D01*
X95585714Y-117504762D01*
X95604762Y-117542857D01*
X95623809Y-117561905D01*
X95661905Y-117580952D01*
X95776190Y-117580952D01*
X95814286Y-117561905D01*
X95833333Y-117542857D01*
D11*
X61330000Y-122833334D02*
X61282381Y-122738096D01*
X61282381Y-122595239D01*
X61330000Y-122452381D01*
X61425238Y-122357143D01*
X61520476Y-122309524D01*
X61710952Y-122261905D01*
X61853810Y-122261905D01*
X62044286Y-122309524D01*
X62139524Y-122357143D01*
X62234762Y-122452381D01*
X62282381Y-122595239D01*
X62282381Y-122690477D01*
X62234762Y-122833334D01*
X62187143Y-122880953D01*
X61853810Y-122880953D01*
X61853810Y-122690477D01*
X62282381Y-123880953D02*
X61806190Y-123547619D01*
X62282381Y-123309524D02*
X61282381Y-123309524D01*
X61282381Y-123690477D01*
X61330000Y-123785715D01*
X61377619Y-123833334D01*
X61472857Y-123880953D01*
X61615714Y-123880953D01*
X61710952Y-123833334D01*
X61758571Y-123785715D01*
X61806190Y-123690477D01*
X61806190Y-123309524D01*
X61758571Y-124309524D02*
X61758571Y-124642858D01*
X62282381Y-124785715D02*
X62282381Y-124309524D01*
X61282381Y-124309524D01*
X61282381Y-124785715D01*
X61758571Y-125214286D02*
X61758571Y-125547620D01*
X62282381Y-125690477D02*
X62282381Y-125214286D01*
X61282381Y-125214286D01*
X61282381Y-125690477D01*
X62282381Y-126119048D02*
X61282381Y-126119048D01*
X62282381Y-126690477D01*
X61282381Y-126690477D01*
D14*
X60580952Y-124204762D02*
X60180952Y-124204762D01*
X60180952Y-124300000D01*
X60200000Y-124357143D01*
X60238095Y-124395238D01*
X60276190Y-124414286D01*
X60352381Y-124433334D01*
X60409524Y-124433334D01*
X60485714Y-124414286D01*
X60523810Y-124395238D01*
X60561905Y-124357143D01*
X60580952Y-124300000D01*
X60580952Y-124204762D01*
X60314286Y-124776191D02*
X60580952Y-124776191D01*
X60161905Y-124680953D02*
X60447619Y-124585714D01*
X60447619Y-124833334D01*
D11*
X91046481Y-109698162D02*
X91046481Y-109126733D01*
X91046481Y-109412447D02*
X90046481Y-109412447D01*
X90189338Y-109317209D01*
X90284576Y-109221971D01*
X90332195Y-109126733D01*
X90046481Y-110317209D02*
X90046481Y-110412448D01*
X90094100Y-110507686D01*
X90141719Y-110555305D01*
X90236957Y-110602924D01*
X90427433Y-110650543D01*
X90665529Y-110650543D01*
X90856005Y-110602924D01*
X90951243Y-110555305D01*
X90998862Y-110507686D01*
X91046481Y-110412448D01*
X91046481Y-110317209D01*
X90998862Y-110221971D01*
X90951243Y-110174352D01*
X90856005Y-110126733D01*
X90665529Y-110079114D01*
X90427433Y-110079114D01*
X90236957Y-110126733D01*
X90141719Y-110174352D01*
X90094100Y-110221971D01*
X90046481Y-110317209D01*
X90379814Y-111507686D02*
X91046481Y-111507686D01*
X90379814Y-111079114D02*
X90903624Y-111079114D01*
X90998862Y-111126733D01*
X91046481Y-111221971D01*
X91046481Y-111364829D01*
X90998862Y-111460067D01*
X90951243Y-111507686D01*
X91046481Y-111983876D02*
X90046481Y-111983876D01*
X90522671Y-111983876D02*
X90522671Y-112555305D01*
X91046481Y-112555305D02*
X90046481Y-112555305D01*
X89998862Y-113745781D02*
X91284576Y-112888638D01*
X90379814Y-114507686D02*
X91046481Y-114507686D01*
X89998862Y-114269590D02*
X90713148Y-114031495D01*
X90713148Y-114650543D01*
X90760767Y-114983876D02*
X90760767Y-115460067D01*
X91046481Y-114888638D02*
X90046481Y-115221971D01*
X91046481Y-115555305D01*
X86596481Y-112126734D02*
X86596481Y-111650543D01*
X85596481Y-111650543D01*
X86596481Y-112983877D02*
X86596481Y-112412448D01*
X86596481Y-112698162D02*
X85596481Y-112698162D01*
X85739338Y-112602924D01*
X85834576Y-112507686D01*
X85882195Y-112412448D01*
X97452381Y-109880952D02*
X96452381Y-109880952D01*
X97166667Y-110214286D01*
X96452381Y-110547619D01*
X97452381Y-110547619D01*
X97452381Y-111023809D02*
X96452381Y-111023809D01*
X97166667Y-111357143D01*
X96452381Y-111690476D01*
X97452381Y-111690476D01*
X96928571Y-112500000D02*
X96976190Y-112642857D01*
X97023810Y-112690476D01*
X97119048Y-112738095D01*
X97261905Y-112738095D01*
X97357143Y-112690476D01*
X97404762Y-112642857D01*
X97452381Y-112547619D01*
X97452381Y-112166666D01*
X96452381Y-112166666D01*
X96452381Y-112500000D01*
X96500000Y-112595238D01*
X96547619Y-112642857D01*
X96642857Y-112690476D01*
X96738095Y-112690476D01*
X96833333Y-112642857D01*
X96880952Y-112595238D01*
X96928571Y-112500000D01*
X96928571Y-112166666D01*
X96452381Y-113023809D02*
X96452381Y-113595238D01*
X97452381Y-113309523D02*
X96452381Y-113309523D01*
X96547619Y-113880952D02*
X96500000Y-113928571D01*
X96452381Y-114023809D01*
X96452381Y-114261905D01*
X96500000Y-114357143D01*
X96547619Y-114404762D01*
X96642857Y-114452381D01*
X96738095Y-114452381D01*
X96880952Y-114404762D01*
X97452381Y-113833333D01*
X97452381Y-114452381D01*
X96547619Y-114833333D02*
X96500000Y-114880952D01*
X96452381Y-114976190D01*
X96452381Y-115214286D01*
X96500000Y-115309524D01*
X96547619Y-115357143D01*
X96642857Y-115404762D01*
X96738095Y-115404762D01*
X96880952Y-115357143D01*
X97452381Y-114785714D01*
X97452381Y-115404762D01*
X96547619Y-115785714D02*
X96500000Y-115833333D01*
X96452381Y-115928571D01*
X96452381Y-116166667D01*
X96500000Y-116261905D01*
X96547619Y-116309524D01*
X96642857Y-116357143D01*
X96738095Y-116357143D01*
X96880952Y-116309524D01*
X97452381Y-115738095D01*
X97452381Y-116357143D01*
X96547619Y-116738095D02*
X96500000Y-116785714D01*
X96452381Y-116880952D01*
X96452381Y-117119048D01*
X96500000Y-117214286D01*
X96547619Y-117261905D01*
X96642857Y-117309524D01*
X96738095Y-117309524D01*
X96880952Y-117261905D01*
X97452381Y-116690476D01*
X97452381Y-117309524D01*
X97166667Y-117690476D02*
X97166667Y-118166667D01*
X97452381Y-117595238D02*
X96452381Y-117928571D01*
X97452381Y-118261905D01*
D15*
X94547619Y-114273810D02*
X94595238Y-114250000D01*
X94642857Y-114202381D01*
X94714286Y-114130952D01*
X94761905Y-114107143D01*
X94809524Y-114107143D01*
X94785714Y-114226190D02*
X94833333Y-114202381D01*
X94880952Y-114154762D01*
X94904762Y-114059524D01*
X94904762Y-113892857D01*
X94880952Y-113797619D01*
X94833333Y-113750000D01*
X94785714Y-113726190D01*
X94690476Y-113726190D01*
X94642857Y-113750000D01*
X94595238Y-113797619D01*
X94571429Y-113892857D01*
X94571429Y-114059524D01*
X94595238Y-114154762D01*
X94642857Y-114202381D01*
X94690476Y-114226190D01*
X94785714Y-114226190D01*
X94095238Y-114226190D02*
X94380952Y-114226190D01*
X94238095Y-114226190D02*
X94238095Y-113726190D01*
X94285714Y-113797619D01*
X94333333Y-113845238D01*
X94380952Y-113869048D01*
D11*
X78119048Y-131952381D02*
X78119048Y-130952381D01*
X77785714Y-131666667D01*
X77452381Y-130952381D01*
X77452381Y-131952381D01*
X76976191Y-131952381D02*
X76976191Y-130952381D01*
X76642857Y-131666667D01*
X76309524Y-130952381D01*
X76309524Y-131952381D01*
X75500000Y-131428571D02*
X75357143Y-131476190D01*
X75309524Y-131523810D01*
X75261905Y-131619048D01*
X75261905Y-131761905D01*
X75309524Y-131857143D01*
X75357143Y-131904762D01*
X75452381Y-131952381D01*
X75833334Y-131952381D01*
X75833334Y-130952381D01*
X75500000Y-130952381D01*
X75404762Y-131000000D01*
X75357143Y-131047619D01*
X75309524Y-131142857D01*
X75309524Y-131238095D01*
X75357143Y-131333333D01*
X75404762Y-131380952D01*
X75500000Y-131428571D01*
X75833334Y-131428571D01*
X74976191Y-130952381D02*
X74404762Y-130952381D01*
X74690477Y-131952381D02*
X74690477Y-130952381D01*
X74119048Y-131047619D02*
X74071429Y-131000000D01*
X73976191Y-130952381D01*
X73738095Y-130952381D01*
X73642857Y-131000000D01*
X73595238Y-131047619D01*
X73547619Y-131142857D01*
X73547619Y-131238095D01*
X73595238Y-131380952D01*
X74166667Y-131952381D01*
X73547619Y-131952381D01*
X73166667Y-131047619D02*
X73119048Y-131000000D01*
X73023810Y-130952381D01*
X72785714Y-130952381D01*
X72690476Y-131000000D01*
X72642857Y-131047619D01*
X72595238Y-131142857D01*
X72595238Y-131238095D01*
X72642857Y-131380952D01*
X73214286Y-131952381D01*
X72595238Y-131952381D01*
X72214286Y-131047619D02*
X72166667Y-131000000D01*
X72071429Y-130952381D01*
X71833333Y-130952381D01*
X71738095Y-131000000D01*
X71690476Y-131047619D01*
X71642857Y-131142857D01*
X71642857Y-131238095D01*
X71690476Y-131380952D01*
X72261905Y-131952381D01*
X71642857Y-131952381D01*
X71261905Y-131047619D02*
X71214286Y-131000000D01*
X71119048Y-130952381D01*
X70880952Y-130952381D01*
X70785714Y-131000000D01*
X70738095Y-131047619D01*
X70690476Y-131142857D01*
X70690476Y-131238095D01*
X70738095Y-131380952D01*
X71309524Y-131952381D01*
X70690476Y-131952381D01*
X70309524Y-131666667D02*
X69833333Y-131666667D01*
X70404762Y-131952381D02*
X70071429Y-130952381D01*
X69738095Y-131952381D01*
D15*
X74273810Y-128952381D02*
X74250000Y-128904762D01*
X74202381Y-128857143D01*
X74130952Y-128785714D01*
X74107143Y-128738095D01*
X74107143Y-128690476D01*
X74226190Y-128714286D02*
X74202381Y-128666667D01*
X74154762Y-128619048D01*
X74059524Y-128595238D01*
X73892857Y-128595238D01*
X73797619Y-128619048D01*
X73750000Y-128666667D01*
X73726190Y-128714286D01*
X73726190Y-128809524D01*
X73750000Y-128857143D01*
X73797619Y-128904762D01*
X73892857Y-128928571D01*
X74059524Y-128928571D01*
X74154762Y-128904762D01*
X74202381Y-128857143D01*
X74226190Y-128809524D01*
X74226190Y-128714286D01*
X73773810Y-129119048D02*
X73750000Y-129142858D01*
X73726190Y-129190477D01*
X73726190Y-129309524D01*
X73750000Y-129357143D01*
X73773810Y-129380953D01*
X73821429Y-129404762D01*
X73869048Y-129404762D01*
X73940476Y-129380953D01*
X74226190Y-129095239D01*
X74226190Y-129404762D01*
D11*
X61282381Y-102333334D02*
X61282381Y-101761905D01*
X61282381Y-102047619D02*
X60282381Y-102047619D01*
X60425238Y-101952381D01*
X60520476Y-101857143D01*
X60568095Y-101761905D01*
X60282381Y-102952381D02*
X60282381Y-103047620D01*
X60330000Y-103142858D01*
X60377619Y-103190477D01*
X60472857Y-103238096D01*
X60663333Y-103285715D01*
X60901429Y-103285715D01*
X61091905Y-103238096D01*
X61187143Y-103190477D01*
X61234762Y-103142858D01*
X61282381Y-103047620D01*
X61282381Y-102952381D01*
X61234762Y-102857143D01*
X61187143Y-102809524D01*
X61091905Y-102761905D01*
X60901429Y-102714286D01*
X60663333Y-102714286D01*
X60472857Y-102761905D01*
X60377619Y-102809524D01*
X60330000Y-102857143D01*
X60282381Y-102952381D01*
X60282381Y-103904762D02*
X60282381Y-104000001D01*
X60330000Y-104095239D01*
X60377619Y-104142858D01*
X60472857Y-104190477D01*
X60663333Y-104238096D01*
X60901429Y-104238096D01*
X61091905Y-104190477D01*
X61187143Y-104142858D01*
X61234762Y-104095239D01*
X61282381Y-104000001D01*
X61282381Y-103904762D01*
X61234762Y-103809524D01*
X61187143Y-103761905D01*
X61091905Y-103714286D01*
X60901429Y-103666667D01*
X60663333Y-103666667D01*
X60472857Y-103714286D01*
X60377619Y-103761905D01*
X60330000Y-103809524D01*
X60282381Y-103904762D01*
X61282381Y-104666667D02*
X60282381Y-104666667D01*
X61282381Y-105238096D02*
X60710952Y-104809524D01*
X60282381Y-105238096D02*
X60853810Y-104666667D01*
D13*
X62113095Y-103458334D02*
X61994048Y-103375001D01*
X62113095Y-103315477D02*
X61863095Y-103315477D01*
X61863095Y-103410715D01*
X61875000Y-103434524D01*
X61886905Y-103446429D01*
X61910714Y-103458334D01*
X61946429Y-103458334D01*
X61970238Y-103446429D01*
X61982143Y-103434524D01*
X61994048Y-103410715D01*
X61994048Y-103315477D01*
X62113095Y-103696429D02*
X62113095Y-103553572D01*
X62113095Y-103625001D02*
X61863095Y-103625001D01*
X61898810Y-103601191D01*
X61922619Y-103577382D01*
X61934524Y-103553572D01*
D11*
X74738095Y-99282381D02*
X75214286Y-99282381D01*
X75261905Y-99758571D01*
X75214286Y-99710952D01*
X75119048Y-99663333D01*
X74880952Y-99663333D01*
X74785714Y-99710952D01*
X74738095Y-99758571D01*
X74690476Y-99853810D01*
X74690476Y-100091905D01*
X74738095Y-100187143D01*
X74785714Y-100234762D01*
X74880952Y-100282381D01*
X75119048Y-100282381D01*
X75214286Y-100234762D01*
X75261905Y-100187143D01*
X74261905Y-100282381D02*
X74261905Y-99282381D01*
X73690476Y-100282381D02*
X74119048Y-99710952D01*
X73690476Y-99282381D02*
X74261905Y-99853810D01*
X72833333Y-99282381D02*
X73023810Y-99282381D01*
X73119048Y-99330000D01*
X73166667Y-99377619D01*
X73261905Y-99520476D01*
X73309524Y-99710952D01*
X73309524Y-100091905D01*
X73261905Y-100187143D01*
X73214286Y-100234762D01*
X73119048Y-100282381D01*
X72928571Y-100282381D01*
X72833333Y-100234762D01*
X72785714Y-100187143D01*
X72738095Y-100091905D01*
X72738095Y-99853810D01*
X72785714Y-99758571D01*
X72833333Y-99710952D01*
X72928571Y-99663333D01*
X73119048Y-99663333D01*
X73214286Y-99710952D01*
X73261905Y-99758571D01*
X73309524Y-99853810D01*
D13*
X74041666Y-101113095D02*
X74124999Y-100994048D01*
X74184523Y-101113095D02*
X74184523Y-100863095D01*
X74089285Y-100863095D01*
X74065476Y-100875000D01*
X74053571Y-100886905D01*
X74041666Y-100910714D01*
X74041666Y-100946429D01*
X74053571Y-100970238D01*
X74065476Y-100982143D01*
X74089285Y-100994048D01*
X74184523Y-100994048D01*
X73958333Y-100863095D02*
X73803571Y-100863095D01*
X73886904Y-100958333D01*
X73851190Y-100958333D01*
X73827380Y-100970238D01*
X73815476Y-100982143D01*
X73803571Y-101005952D01*
X73803571Y-101065476D01*
X73815476Y-101089286D01*
X73827380Y-101101190D01*
X73851190Y-101113095D01*
X73922618Y-101113095D01*
X73946428Y-101101190D01*
X73958333Y-101089286D01*
D11*
X72290476Y-95682381D02*
X72861905Y-95682381D01*
X72576191Y-95682381D02*
X72576191Y-94682381D01*
X72671429Y-94825238D01*
X72766667Y-94920476D01*
X72861905Y-94968095D01*
X71909524Y-94777619D02*
X71861905Y-94730000D01*
X71766667Y-94682381D01*
X71528571Y-94682381D01*
X71433333Y-94730000D01*
X71385714Y-94777619D01*
X71338095Y-94872857D01*
X71338095Y-94968095D01*
X71385714Y-95110952D01*
X71957143Y-95682381D01*
X71338095Y-95682381D01*
X70909524Y-95682381D02*
X70909524Y-94682381D01*
X70338095Y-95682381D02*
X70766667Y-95110952D01*
X70338095Y-94682381D02*
X70909524Y-95253810D01*
D13*
X71641666Y-96513095D02*
X71724999Y-96394048D01*
X71784523Y-96513095D02*
X71784523Y-96263095D01*
X71689285Y-96263095D01*
X71665476Y-96275000D01*
X71653571Y-96286905D01*
X71641666Y-96310714D01*
X71641666Y-96346429D01*
X71653571Y-96370238D01*
X71665476Y-96382143D01*
X71689285Y-96394048D01*
X71784523Y-96394048D01*
X71427380Y-96346429D02*
X71427380Y-96513095D01*
X71486904Y-96251190D02*
X71546428Y-96429762D01*
X71391666Y-96429762D01*
D11*
X75309524Y-99022381D02*
X74690476Y-99022381D01*
X75023810Y-99403333D01*
X74880952Y-99403333D01*
X74785714Y-99450952D01*
X74738095Y-99498571D01*
X74690476Y-99593810D01*
X74690476Y-99831905D01*
X74738095Y-99927143D01*
X74785714Y-99974762D01*
X74880952Y-100022381D01*
X75166667Y-100022381D01*
X75261905Y-99974762D01*
X75309524Y-99927143D01*
X74261905Y-100022381D02*
X74261905Y-99022381D01*
X73690476Y-100022381D02*
X74119048Y-99450952D01*
X73690476Y-99022381D02*
X74261905Y-99593810D01*
X73357143Y-99022381D02*
X72738095Y-99022381D01*
X73071429Y-99403333D01*
X72928571Y-99403333D01*
X72833333Y-99450952D01*
X72785714Y-99498571D01*
X72738095Y-99593810D01*
X72738095Y-99831905D01*
X72785714Y-99927143D01*
X72833333Y-99974762D01*
X72928571Y-100022381D01*
X73214286Y-100022381D01*
X73309524Y-99974762D01*
X73357143Y-99927143D01*
D13*
X74041666Y-98513095D02*
X74124999Y-98394048D01*
X74184523Y-98513095D02*
X74184523Y-98263095D01*
X74089285Y-98263095D01*
X74065476Y-98275000D01*
X74053571Y-98286905D01*
X74041666Y-98310714D01*
X74041666Y-98346429D01*
X74053571Y-98370238D01*
X74065476Y-98382143D01*
X74089285Y-98394048D01*
X74184523Y-98394048D01*
X73815476Y-98263095D02*
X73934523Y-98263095D01*
X73946428Y-98382143D01*
X73934523Y-98370238D01*
X73910714Y-98358333D01*
X73851190Y-98358333D01*
X73827380Y-98370238D01*
X73815476Y-98382143D01*
X73803571Y-98405952D01*
X73803571Y-98465476D01*
X73815476Y-98489286D01*
X73827380Y-98501190D01*
X73851190Y-98513095D01*
X73910714Y-98513095D01*
X73934523Y-98501190D01*
X73946428Y-98489286D01*
D11*
X94455714Y-109214286D02*
X95122381Y-109214286D01*
X94074762Y-108976190D02*
X94789048Y-108738095D01*
X94789048Y-109357143D01*
X95122381Y-109738095D02*
X94122381Y-109738095D01*
X95122381Y-110309524D02*
X94550952Y-109880952D01*
X94122381Y-110309524D02*
X94693810Y-109738095D01*
X94122381Y-110642857D02*
X94122381Y-111309524D01*
X95122381Y-110880952D01*
D13*
X93613095Y-109958334D02*
X93494048Y-109875001D01*
X93613095Y-109815477D02*
X93363095Y-109815477D01*
X93363095Y-109910715D01*
X93375000Y-109934524D01*
X93386905Y-109946429D01*
X93410714Y-109958334D01*
X93446429Y-109958334D01*
X93470238Y-109946429D01*
X93482143Y-109934524D01*
X93494048Y-109910715D01*
X93494048Y-109815477D01*
X93470238Y-110101191D02*
X93458333Y-110077382D01*
X93446429Y-110065477D01*
X93422619Y-110053572D01*
X93410714Y-110053572D01*
X93386905Y-110065477D01*
X93375000Y-110077382D01*
X93363095Y-110101191D01*
X93363095Y-110148810D01*
X93375000Y-110172620D01*
X93386905Y-110184524D01*
X93410714Y-110196429D01*
X93422619Y-110196429D01*
X93446429Y-110184524D01*
X93458333Y-110172620D01*
X93470238Y-110148810D01*
X93470238Y-110101191D01*
X93482143Y-110077382D01*
X93494048Y-110065477D01*
X93517857Y-110053572D01*
X93565476Y-110053572D01*
X93589286Y-110065477D01*
X93601190Y-110077382D01*
X93613095Y-110101191D01*
X93613095Y-110148810D01*
X93601190Y-110172620D01*
X93589286Y-110184524D01*
X93565476Y-110196429D01*
X93517857Y-110196429D01*
X93494048Y-110184524D01*
X93482143Y-110172620D01*
X93470238Y-110148810D01*
D11*
X93043414Y-118365686D02*
X93710081Y-118365686D01*
X92662462Y-118127590D02*
X93376748Y-117889495D01*
X93376748Y-118508543D01*
X92710081Y-118794257D02*
X92710081Y-119460924D01*
X93710081Y-119032352D01*
X93710081Y-119841876D02*
X92710081Y-119841876D01*
X93710081Y-120413305D02*
X93138652Y-119984733D01*
X92710081Y-120413305D02*
X93281510Y-119841876D01*
D13*
X92200795Y-119109734D02*
X92081748Y-119026401D01*
X92200795Y-118966877D02*
X91950795Y-118966877D01*
X91950795Y-119062115D01*
X91962700Y-119085924D01*
X91974605Y-119097829D01*
X91998414Y-119109734D01*
X92034129Y-119109734D01*
X92057938Y-119097829D01*
X92069843Y-119085924D01*
X92081748Y-119062115D01*
X92081748Y-118966877D01*
X92200795Y-119228782D02*
X92200795Y-119276401D01*
X92188890Y-119300210D01*
X92176986Y-119312115D01*
X92141271Y-119335924D01*
X92093652Y-119347829D01*
X91998414Y-119347829D01*
X91974605Y-119335924D01*
X91962700Y-119324020D01*
X91950795Y-119300210D01*
X91950795Y-119252591D01*
X91962700Y-119228782D01*
X91974605Y-119216877D01*
X91998414Y-119204972D01*
X92057938Y-119204972D01*
X92081748Y-119216877D01*
X92093652Y-119228782D01*
X92105557Y-119252591D01*
X92105557Y-119300210D01*
X92093652Y-119324020D01*
X92081748Y-119335924D01*
X92057938Y-119347829D01*
D11*
X83190476Y-91615714D02*
X83190476Y-92282381D01*
X83428572Y-91234762D02*
X83666667Y-91949048D01*
X83047619Y-91949048D01*
X82761905Y-91282381D02*
X82095238Y-91282381D01*
X82523810Y-92282381D01*
X81714286Y-92282381D02*
X81714286Y-91282381D01*
X81619048Y-91901429D02*
X81333333Y-92282381D01*
X81333333Y-91615714D02*
X81714286Y-91996667D01*
D13*
X82660714Y-93113095D02*
X82744047Y-92994048D01*
X82803571Y-93113095D02*
X82803571Y-92863095D01*
X82708333Y-92863095D01*
X82684524Y-92875000D01*
X82672619Y-92886905D01*
X82660714Y-92910714D01*
X82660714Y-92946429D01*
X82672619Y-92970238D01*
X82684524Y-92982143D01*
X82708333Y-92994048D01*
X82803571Y-92994048D01*
X82422619Y-93113095D02*
X82565476Y-93113095D01*
X82494047Y-93113095D02*
X82494047Y-92863095D01*
X82517857Y-92898810D01*
X82541666Y-92922619D01*
X82565476Y-92934524D01*
X82196429Y-92863095D02*
X82315476Y-92863095D01*
X82327381Y-92982143D01*
X82315476Y-92970238D01*
X82291667Y-92958333D01*
X82232143Y-92958333D01*
X82208333Y-92970238D01*
X82196429Y-92982143D01*
X82184524Y-93005952D01*
X82184524Y-93065476D01*
X82196429Y-93089286D01*
X82208333Y-93101190D01*
X82232143Y-93113095D01*
X82291667Y-93113095D01*
X82315476Y-93101190D01*
X82327381Y-93089286D01*
D11*
X67261905Y-118217619D02*
X67214286Y-118170000D01*
X67119048Y-118122381D01*
X66880952Y-118122381D01*
X66785714Y-118170000D01*
X66738095Y-118217619D01*
X66690476Y-118312857D01*
X66690476Y-118408095D01*
X66738095Y-118550952D01*
X67309524Y-119122381D01*
X66690476Y-119122381D01*
X66309524Y-118217619D02*
X66261905Y-118170000D01*
X66166667Y-118122381D01*
X65928571Y-118122381D01*
X65833333Y-118170000D01*
X65785714Y-118217619D01*
X65738095Y-118312857D01*
X65738095Y-118408095D01*
X65785714Y-118550952D01*
X66357143Y-119122381D01*
X65738095Y-119122381D01*
X64738095Y-119122381D02*
X65071429Y-118646190D01*
X65309524Y-119122381D02*
X65309524Y-118122381D01*
X64928571Y-118122381D01*
X64833333Y-118170000D01*
X64785714Y-118217619D01*
X64738095Y-118312857D01*
X64738095Y-118455714D01*
X64785714Y-118550952D01*
X64833333Y-118598571D01*
X64928571Y-118646190D01*
X65309524Y-118646190D01*
D13*
X66160714Y-117613095D02*
X66244047Y-117494048D01*
X66303571Y-117613095D02*
X66303571Y-117363095D01*
X66208333Y-117363095D01*
X66184524Y-117375000D01*
X66172619Y-117386905D01*
X66160714Y-117410714D01*
X66160714Y-117446429D01*
X66172619Y-117470238D01*
X66184524Y-117482143D01*
X66208333Y-117494048D01*
X66303571Y-117494048D01*
X65922619Y-117613095D02*
X66065476Y-117613095D01*
X65994047Y-117613095D02*
X65994047Y-117363095D01*
X66017857Y-117398810D01*
X66041666Y-117422619D01*
X66065476Y-117434524D01*
X65708333Y-117363095D02*
X65755952Y-117363095D01*
X65779762Y-117375000D01*
X65791667Y-117386905D01*
X65815476Y-117422619D01*
X65827381Y-117470238D01*
X65827381Y-117565476D01*
X65815476Y-117589286D01*
X65803571Y-117601190D01*
X65779762Y-117613095D01*
X65732143Y-117613095D01*
X65708333Y-117601190D01*
X65696429Y-117589286D01*
X65684524Y-117565476D01*
X65684524Y-117505952D01*
X65696429Y-117482143D01*
X65708333Y-117470238D01*
X65732143Y-117458333D01*
X65779762Y-117458333D01*
X65803571Y-117470238D01*
X65815476Y-117482143D01*
X65827381Y-117505952D01*
D11*
X64761905Y-121217619D02*
X64714286Y-121170000D01*
X64619048Y-121122381D01*
X64380952Y-121122381D01*
X64285714Y-121170000D01*
X64238095Y-121217619D01*
X64190476Y-121312857D01*
X64190476Y-121408095D01*
X64238095Y-121550952D01*
X64809524Y-122122381D01*
X64190476Y-122122381D01*
X63809524Y-121217619D02*
X63761905Y-121170000D01*
X63666667Y-121122381D01*
X63428571Y-121122381D01*
X63333333Y-121170000D01*
X63285714Y-121217619D01*
X63238095Y-121312857D01*
X63238095Y-121408095D01*
X63285714Y-121550952D01*
X63857143Y-122122381D01*
X63238095Y-122122381D01*
X62238095Y-122122381D02*
X62571429Y-121646190D01*
X62809524Y-122122381D02*
X62809524Y-121122381D01*
X62428571Y-121122381D01*
X62333333Y-121170000D01*
X62285714Y-121217619D01*
X62238095Y-121312857D01*
X62238095Y-121455714D01*
X62285714Y-121550952D01*
X62333333Y-121598571D01*
X62428571Y-121646190D01*
X62809524Y-121646190D01*
D13*
X63660714Y-120613095D02*
X63744047Y-120494048D01*
X63803571Y-120613095D02*
X63803571Y-120363095D01*
X63708333Y-120363095D01*
X63684524Y-120375000D01*
X63672619Y-120386905D01*
X63660714Y-120410714D01*
X63660714Y-120446429D01*
X63672619Y-120470238D01*
X63684524Y-120482143D01*
X63708333Y-120494048D01*
X63803571Y-120494048D01*
X63422619Y-120613095D02*
X63565476Y-120613095D01*
X63494047Y-120613095D02*
X63494047Y-120363095D01*
X63517857Y-120398810D01*
X63541666Y-120422619D01*
X63565476Y-120434524D01*
X63339286Y-120363095D02*
X63172619Y-120363095D01*
X63279762Y-120613095D01*
D11*
X67261905Y-116717619D02*
X67214286Y-116670000D01*
X67119048Y-116622381D01*
X66880952Y-116622381D01*
X66785714Y-116670000D01*
X66738095Y-116717619D01*
X66690476Y-116812857D01*
X66690476Y-116908095D01*
X66738095Y-117050952D01*
X67309524Y-117622381D01*
X66690476Y-117622381D01*
X66309524Y-116717619D02*
X66261905Y-116670000D01*
X66166667Y-116622381D01*
X65928571Y-116622381D01*
X65833333Y-116670000D01*
X65785714Y-116717619D01*
X65738095Y-116812857D01*
X65738095Y-116908095D01*
X65785714Y-117050952D01*
X66357143Y-117622381D01*
X65738095Y-117622381D01*
X64738095Y-117622381D02*
X65071429Y-117146190D01*
X65309524Y-117622381D02*
X65309524Y-116622381D01*
X64928571Y-116622381D01*
X64833333Y-116670000D01*
X64785714Y-116717619D01*
X64738095Y-116812857D01*
X64738095Y-116955714D01*
X64785714Y-117050952D01*
X64833333Y-117098571D01*
X64928571Y-117146190D01*
X65309524Y-117146190D01*
D13*
X66160714Y-116113095D02*
X66244047Y-115994048D01*
X66303571Y-116113095D02*
X66303571Y-115863095D01*
X66208333Y-115863095D01*
X66184524Y-115875000D01*
X66172619Y-115886905D01*
X66160714Y-115910714D01*
X66160714Y-115946429D01*
X66172619Y-115970238D01*
X66184524Y-115982143D01*
X66208333Y-115994048D01*
X66303571Y-115994048D01*
X65922619Y-116113095D02*
X66065476Y-116113095D01*
X65994047Y-116113095D02*
X65994047Y-115863095D01*
X66017857Y-115898810D01*
X66041666Y-115922619D01*
X66065476Y-115934524D01*
X65779762Y-115970238D02*
X65803571Y-115958333D01*
X65815476Y-115946429D01*
X65827381Y-115922619D01*
X65827381Y-115910714D01*
X65815476Y-115886905D01*
X65803571Y-115875000D01*
X65779762Y-115863095D01*
X65732143Y-115863095D01*
X65708333Y-115875000D01*
X65696429Y-115886905D01*
X65684524Y-115910714D01*
X65684524Y-115922619D01*
X65696429Y-115946429D01*
X65708333Y-115958333D01*
X65732143Y-115970238D01*
X65779762Y-115970238D01*
X65803571Y-115982143D01*
X65815476Y-115994048D01*
X65827381Y-116017857D01*
X65827381Y-116065476D01*
X65815476Y-116089286D01*
X65803571Y-116101190D01*
X65779762Y-116113095D01*
X65732143Y-116113095D01*
X65708333Y-116101190D01*
X65696429Y-116089286D01*
X65684524Y-116065476D01*
X65684524Y-116017857D01*
X65696429Y-115994048D01*
X65708333Y-115982143D01*
X65732143Y-115970238D01*
D11*
X83215714Y-102909524D02*
X83882381Y-102909524D01*
X82834762Y-102671428D02*
X83549048Y-102433333D01*
X83549048Y-103052381D01*
X82882381Y-103338095D02*
X82882381Y-104004762D01*
X83882381Y-103576190D01*
X83882381Y-104385714D02*
X82882381Y-104385714D01*
X83501429Y-104480952D02*
X83882381Y-104766667D01*
X83215714Y-104766667D02*
X83596667Y-104385714D01*
D13*
X84713095Y-103439286D02*
X84594048Y-103355953D01*
X84713095Y-103296429D02*
X84463095Y-103296429D01*
X84463095Y-103391667D01*
X84475000Y-103415476D01*
X84486905Y-103427381D01*
X84510714Y-103439286D01*
X84546429Y-103439286D01*
X84570238Y-103427381D01*
X84582143Y-103415476D01*
X84594048Y-103391667D01*
X84594048Y-103296429D01*
X84486905Y-103534524D02*
X84475000Y-103546429D01*
X84463095Y-103570238D01*
X84463095Y-103629762D01*
X84475000Y-103653572D01*
X84486905Y-103665476D01*
X84510714Y-103677381D01*
X84534524Y-103677381D01*
X84570238Y-103665476D01*
X84713095Y-103522619D01*
X84713095Y-103677381D01*
X84486905Y-103772619D02*
X84475000Y-103784524D01*
X84463095Y-103808333D01*
X84463095Y-103867857D01*
X84475000Y-103891667D01*
X84486905Y-103903571D01*
X84510714Y-103915476D01*
X84534524Y-103915476D01*
X84570238Y-103903571D01*
X84713095Y-103760714D01*
X84713095Y-103915476D01*
D11*
X60855714Y-116414286D02*
X61522381Y-116414286D01*
X60474762Y-116176190D02*
X61189048Y-115938095D01*
X61189048Y-116557143D01*
X61522381Y-116938095D02*
X60522381Y-116938095D01*
X61522381Y-117509524D02*
X60950952Y-117080952D01*
X60522381Y-117509524D02*
X61093810Y-116938095D01*
X60522381Y-117842857D02*
X60522381Y-118509524D01*
X61522381Y-118080952D01*
D13*
X60013095Y-117039286D02*
X59894048Y-116955953D01*
X60013095Y-116896429D02*
X59763095Y-116896429D01*
X59763095Y-116991667D01*
X59775000Y-117015476D01*
X59786905Y-117027381D01*
X59810714Y-117039286D01*
X59846429Y-117039286D01*
X59870238Y-117027381D01*
X59882143Y-117015476D01*
X59894048Y-116991667D01*
X59894048Y-116896429D01*
X59786905Y-117134524D02*
X59775000Y-117146429D01*
X59763095Y-117170238D01*
X59763095Y-117229762D01*
X59775000Y-117253572D01*
X59786905Y-117265476D01*
X59810714Y-117277381D01*
X59834524Y-117277381D01*
X59870238Y-117265476D01*
X60013095Y-117122619D01*
X60013095Y-117277381D01*
X59763095Y-117360714D02*
X59763095Y-117515476D01*
X59858333Y-117432143D01*
X59858333Y-117467857D01*
X59870238Y-117491667D01*
X59882143Y-117503571D01*
X59905952Y-117515476D01*
X59965476Y-117515476D01*
X59989286Y-117503571D01*
X60001190Y-117491667D01*
X60013095Y-117467857D01*
X60013095Y-117396429D01*
X60001190Y-117372619D01*
X59989286Y-117360714D01*
D11*
X58615714Y-118714286D02*
X59282381Y-118714286D01*
X58234762Y-118476190D02*
X58949048Y-118238095D01*
X58949048Y-118857143D01*
X58282381Y-119142857D02*
X58282381Y-119809524D01*
X59282381Y-119380952D01*
X59282381Y-120190476D02*
X58282381Y-120190476D01*
X59282381Y-120761905D02*
X58710952Y-120333333D01*
X58282381Y-120761905D02*
X58853810Y-120190476D01*
D13*
X60113095Y-119339286D02*
X59994048Y-119255953D01*
X60113095Y-119196429D02*
X59863095Y-119196429D01*
X59863095Y-119291667D01*
X59875000Y-119315476D01*
X59886905Y-119327381D01*
X59910714Y-119339286D01*
X59946429Y-119339286D01*
X59970238Y-119327381D01*
X59982143Y-119315476D01*
X59994048Y-119291667D01*
X59994048Y-119196429D01*
X59886905Y-119434524D02*
X59875000Y-119446429D01*
X59863095Y-119470238D01*
X59863095Y-119529762D01*
X59875000Y-119553572D01*
X59886905Y-119565476D01*
X59910714Y-119577381D01*
X59934524Y-119577381D01*
X59970238Y-119565476D01*
X60113095Y-119422619D01*
X60113095Y-119577381D01*
X59863095Y-119803571D02*
X59863095Y-119684524D01*
X59982143Y-119672619D01*
X59970238Y-119684524D01*
X59958333Y-119708333D01*
X59958333Y-119767857D01*
X59970238Y-119791667D01*
X59982143Y-119803571D01*
X60005952Y-119815476D01*
X60065476Y-119815476D01*
X60089286Y-119803571D01*
X60101190Y-119791667D01*
X60113095Y-119767857D01*
X60113095Y-119708333D01*
X60101190Y-119684524D01*
X60089286Y-119672619D01*
D11*
X96290476Y-121122381D02*
X96861905Y-121122381D01*
X96576191Y-121122381D02*
X96576191Y-120122381D01*
X96671429Y-120265238D01*
X96766667Y-120360476D01*
X96861905Y-120408095D01*
X95861905Y-121122381D02*
X95861905Y-120122381D01*
X95290476Y-121122381D02*
X95719048Y-120550952D01*
X95290476Y-120122381D02*
X95861905Y-120693810D01*
X94385714Y-120122381D02*
X94861905Y-120122381D01*
X94909524Y-120598571D01*
X94861905Y-120550952D01*
X94766667Y-120503333D01*
X94528571Y-120503333D01*
X94433333Y-120550952D01*
X94385714Y-120598571D01*
X94338095Y-120693810D01*
X94338095Y-120931905D01*
X94385714Y-121027143D01*
X94433333Y-121074762D01*
X94528571Y-121122381D01*
X94766667Y-121122381D01*
X94861905Y-121074762D01*
X94909524Y-121027143D01*
D13*
X95760714Y-119613095D02*
X95844047Y-119494048D01*
X95903571Y-119613095D02*
X95903571Y-119363095D01*
X95808333Y-119363095D01*
X95784524Y-119375000D01*
X95772619Y-119386905D01*
X95760714Y-119410714D01*
X95760714Y-119446429D01*
X95772619Y-119470238D01*
X95784524Y-119482143D01*
X95808333Y-119494048D01*
X95903571Y-119494048D01*
X95665476Y-119386905D02*
X95653571Y-119375000D01*
X95629762Y-119363095D01*
X95570238Y-119363095D01*
X95546428Y-119375000D01*
X95534524Y-119386905D01*
X95522619Y-119410714D01*
X95522619Y-119434524D01*
X95534524Y-119470238D01*
X95677381Y-119613095D01*
X95522619Y-119613095D01*
X95379762Y-119470238D02*
X95403571Y-119458333D01*
X95415476Y-119446429D01*
X95427381Y-119422619D01*
X95427381Y-119410714D01*
X95415476Y-119386905D01*
X95403571Y-119375000D01*
X95379762Y-119363095D01*
X95332143Y-119363095D01*
X95308333Y-119375000D01*
X95296429Y-119386905D01*
X95284524Y-119410714D01*
X95284524Y-119422619D01*
X95296429Y-119446429D01*
X95308333Y-119458333D01*
X95332143Y-119470238D01*
X95379762Y-119470238D01*
X95403571Y-119482143D01*
X95415476Y-119494048D01*
X95427381Y-119517857D01*
X95427381Y-119565476D01*
X95415476Y-119589286D01*
X95403571Y-119601190D01*
X95379762Y-119613095D01*
X95332143Y-119613095D01*
X95308333Y-119601190D01*
X95296429Y-119589286D01*
X95284524Y-119565476D01*
X95284524Y-119517857D01*
X95296429Y-119494048D01*
X95308333Y-119482143D01*
X95332143Y-119470238D01*
D11*
X59682381Y-126609524D02*
X59682381Y-126038095D01*
X59682381Y-126323809D02*
X58682381Y-126323809D01*
X58825238Y-126228571D01*
X58920476Y-126133333D01*
X58968095Y-126038095D01*
X59682381Y-127038095D02*
X58682381Y-127038095D01*
X59682381Y-127609524D02*
X59110952Y-127180952D01*
X58682381Y-127609524D02*
X59253810Y-127038095D01*
X58682381Y-128514286D02*
X58682381Y-128038095D01*
X59158571Y-127990476D01*
X59110952Y-128038095D01*
X59063333Y-128133333D01*
X59063333Y-128371429D01*
X59110952Y-128466667D01*
X59158571Y-128514286D01*
X59253810Y-128561905D01*
X59491905Y-128561905D01*
X59587143Y-128514286D01*
X59634762Y-128466667D01*
X59682381Y-128371429D01*
X59682381Y-128133333D01*
X59634762Y-128038095D01*
X59587143Y-127990476D01*
D13*
X60513095Y-127139286D02*
X60394048Y-127055953D01*
X60513095Y-126996429D02*
X60263095Y-126996429D01*
X60263095Y-127091667D01*
X60275000Y-127115476D01*
X60286905Y-127127381D01*
X60310714Y-127139286D01*
X60346429Y-127139286D01*
X60370238Y-127127381D01*
X60382143Y-127115476D01*
X60394048Y-127091667D01*
X60394048Y-126996429D01*
X60286905Y-127234524D02*
X60275000Y-127246429D01*
X60263095Y-127270238D01*
X60263095Y-127329762D01*
X60275000Y-127353572D01*
X60286905Y-127365476D01*
X60310714Y-127377381D01*
X60334524Y-127377381D01*
X60370238Y-127365476D01*
X60513095Y-127222619D01*
X60513095Y-127377381D01*
X60513095Y-127496429D02*
X60513095Y-127544048D01*
X60501190Y-127567857D01*
X60489286Y-127579762D01*
X60453571Y-127603571D01*
X60405952Y-127615476D01*
X60310714Y-127615476D01*
X60286905Y-127603571D01*
X60275000Y-127591667D01*
X60263095Y-127567857D01*
X60263095Y-127520238D01*
X60275000Y-127496429D01*
X60286905Y-127484524D01*
X60310714Y-127472619D01*
X60370238Y-127472619D01*
X60394048Y-127484524D01*
X60405952Y-127496429D01*
X60417857Y-127520238D01*
X60417857Y-127567857D01*
X60405952Y-127591667D01*
X60394048Y-127603571D01*
X60370238Y-127615476D01*
D11*
X64354381Y-108186981D02*
X63878190Y-107853647D01*
X64354381Y-107615552D02*
X63354381Y-107615552D01*
X63354381Y-107996505D01*
X63402000Y-108091743D01*
X63449619Y-108139362D01*
X63544857Y-108186981D01*
X63687714Y-108186981D01*
X63782952Y-108139362D01*
X63830571Y-108091743D01*
X63878190Y-107996505D01*
X63878190Y-107615552D01*
X63354381Y-108472695D02*
X63354381Y-109044124D01*
X64354381Y-108758409D02*
X63354381Y-108758409D01*
X64354381Y-109425076D02*
X64354381Y-109615552D01*
X64306762Y-109710791D01*
X64259143Y-109758410D01*
X64116286Y-109853648D01*
X63925810Y-109901267D01*
X63544857Y-109901267D01*
X63449619Y-109853648D01*
X63402000Y-109806029D01*
X63354381Y-109710791D01*
X63354381Y-109520314D01*
X63402000Y-109425076D01*
X63449619Y-109377457D01*
X63544857Y-109329838D01*
X63782952Y-109329838D01*
X63878190Y-109377457D01*
X63925810Y-109425076D01*
X63973429Y-109520314D01*
X63973429Y-109710791D01*
X63925810Y-109806029D01*
X63878190Y-109853648D01*
X63782952Y-109901267D01*
X64354381Y-110853648D02*
X64354381Y-110282219D01*
X64354381Y-110567933D02*
X63354381Y-110567933D01*
X63497238Y-110472695D01*
X63592476Y-110377457D01*
X63640095Y-110282219D01*
X64354381Y-111329838D02*
X64354381Y-111520314D01*
X64306762Y-111615553D01*
X64259143Y-111663172D01*
X64116286Y-111758410D01*
X63925810Y-111806029D01*
X63544857Y-111806029D01*
X63449619Y-111758410D01*
X63402000Y-111710791D01*
X63354381Y-111615553D01*
X63354381Y-111425076D01*
X63402000Y-111329838D01*
X63449619Y-111282219D01*
X63544857Y-111234600D01*
X63782952Y-111234600D01*
X63878190Y-111282219D01*
X63925810Y-111329838D01*
X63973429Y-111425076D01*
X63973429Y-111615553D01*
X63925810Y-111710791D01*
X63878190Y-111758410D01*
X63782952Y-111806029D01*
X63354381Y-112139362D02*
X63354381Y-112758410D01*
X63735333Y-112425076D01*
X63735333Y-112567934D01*
X63782952Y-112663172D01*
X63830571Y-112710791D01*
X63925810Y-112758410D01*
X64163905Y-112758410D01*
X64259143Y-112710791D01*
X64306762Y-112663172D01*
X64354381Y-112567934D01*
X64354381Y-112282219D01*
X64306762Y-112186981D01*
X64259143Y-112139362D01*
X63973429Y-113186981D02*
X63973429Y-113948886D01*
X63354381Y-114329838D02*
X63354381Y-114948886D01*
X63735333Y-114615552D01*
X63735333Y-114758410D01*
X63782952Y-114853648D01*
X63830571Y-114901267D01*
X63925810Y-114948886D01*
X64163905Y-114948886D01*
X64259143Y-114901267D01*
X64306762Y-114853648D01*
X64354381Y-114758410D01*
X64354381Y-114472695D01*
X64306762Y-114377457D01*
X64259143Y-114329838D01*
X63354381Y-115282219D02*
X63354381Y-115901267D01*
X63735333Y-115567933D01*
X63735333Y-115710791D01*
X63782952Y-115806029D01*
X63830571Y-115853648D01*
X63925810Y-115901267D01*
X64163905Y-115901267D01*
X64259143Y-115853648D01*
X64306762Y-115806029D01*
X64354381Y-115710791D01*
X64354381Y-115425076D01*
X64306762Y-115329838D01*
X64259143Y-115282219D01*
D15*
X67182952Y-111460790D02*
X67182952Y-111865552D01*
X67159143Y-111913171D01*
X67135333Y-111936981D01*
X67087714Y-111960790D01*
X66992476Y-111960790D01*
X66944857Y-111936981D01*
X66921048Y-111913171D01*
X66897238Y-111865552D01*
X66897238Y-111460790D01*
X66397238Y-111960790D02*
X66682952Y-111960790D01*
X66540095Y-111960790D02*
X66540095Y-111460790D01*
X66587714Y-111532219D01*
X66635333Y-111579838D01*
X66682952Y-111603648D01*
X66463114Y-120629429D02*
X66705971Y-120629429D01*
X66734543Y-120643714D01*
X66748829Y-120658000D01*
X66763114Y-120686571D01*
X66763114Y-120743714D01*
X66748829Y-120772286D01*
X66734543Y-120786571D01*
X66705971Y-120800857D01*
X66463114Y-120800857D01*
X66463114Y-120915143D02*
X66463114Y-121115143D01*
X66763114Y-120986572D01*
X67248829Y-120336572D02*
X67263114Y-120379429D01*
X67263114Y-120450858D01*
X67248829Y-120479429D01*
X67234543Y-120493715D01*
X67205971Y-120508000D01*
X67177400Y-120508000D01*
X67148829Y-120493715D01*
X67134543Y-120479429D01*
X67120257Y-120450858D01*
X67105971Y-120393715D01*
X67091686Y-120365143D01*
X67077400Y-120350858D01*
X67048829Y-120336572D01*
X67020257Y-120336572D01*
X66991686Y-120350858D01*
X66977400Y-120365143D01*
X66963114Y-120393715D01*
X66963114Y-120465143D01*
X66977400Y-120508000D01*
X67263114Y-120636572D02*
X66963114Y-120636572D01*
X67177400Y-120736572D01*
X66963114Y-120836572D01*
X67263114Y-120836572D01*
X67105971Y-121079429D02*
X67105971Y-120979429D01*
X67263114Y-120979429D02*
X66963114Y-120979429D01*
X66963114Y-121122286D01*
X66963114Y-121293714D02*
X66963114Y-121322286D01*
X66977400Y-121350857D01*
X66991686Y-121365143D01*
X67020257Y-121379429D01*
X67077400Y-121393714D01*
X67148829Y-121393714D01*
X67205971Y-121379429D01*
X67234543Y-121365143D01*
X67248829Y-121350857D01*
X67263114Y-121322286D01*
X67263114Y-121293714D01*
X67248829Y-121265143D01*
X67234543Y-121250857D01*
X67205971Y-121236572D01*
X67148829Y-121222286D01*
X67077400Y-121222286D01*
X67020257Y-121236572D01*
X66991686Y-121250857D01*
X66977400Y-121265143D01*
X66963114Y-121293714D01*
X66963114Y-121665143D02*
X66963114Y-121522286D01*
X67105971Y-121508000D01*
X67091686Y-121522286D01*
X67077400Y-121550857D01*
X67077400Y-121622286D01*
X67091686Y-121650857D01*
X67105971Y-121665143D01*
X67134543Y-121679428D01*
X67205971Y-121679428D01*
X67234543Y-121665143D01*
X67248829Y-121650857D01*
X67263114Y-121622286D01*
X67263114Y-121550857D01*
X67248829Y-121522286D01*
X67234543Y-121508000D01*
X67234543Y-121979428D02*
X67248829Y-121965142D01*
X67263114Y-121922285D01*
X67263114Y-121893714D01*
X67248829Y-121850857D01*
X67220257Y-121822285D01*
X67191686Y-121808000D01*
X67134543Y-121793714D01*
X67091686Y-121793714D01*
X67034543Y-121808000D01*
X67005971Y-121822285D01*
X66977400Y-121850857D01*
X66963114Y-121893714D01*
X66963114Y-121922285D01*
X66977400Y-121965142D01*
X66991686Y-121979428D01*
D11*
X54082381Y-90242858D02*
X54082381Y-89671429D01*
X54082381Y-89957143D02*
X53082381Y-89957143D01*
X53225238Y-89861905D01*
X53320476Y-89766667D01*
X53368095Y-89671429D01*
X54082381Y-90671429D02*
X53082381Y-90671429D01*
X54082381Y-91242858D02*
X53510952Y-90814286D01*
X53082381Y-91242858D02*
X53653810Y-90671429D01*
X53082381Y-91861905D02*
X53082381Y-92052382D01*
X53130000Y-92147620D01*
X53225238Y-92242858D01*
X53415714Y-92290477D01*
X53749048Y-92290477D01*
X53939524Y-92242858D01*
X54034762Y-92147620D01*
X54082381Y-92052382D01*
X54082381Y-91861905D01*
X54034762Y-91766667D01*
X53939524Y-91671429D01*
X53749048Y-91623810D01*
X53415714Y-91623810D01*
X53225238Y-91671429D01*
X53130000Y-91766667D01*
X53082381Y-91861905D01*
X54082381Y-92719048D02*
X53082381Y-92719048D01*
X54082381Y-93147620D02*
X53558571Y-93147620D01*
X53463333Y-93100001D01*
X53415714Y-93004763D01*
X53415714Y-92861905D01*
X53463333Y-92766667D01*
X53510952Y-92719048D01*
X54082381Y-93623810D02*
X53415714Y-93623810D01*
X53510952Y-93623810D02*
X53463333Y-93671429D01*
X53415714Y-93766667D01*
X53415714Y-93909525D01*
X53463333Y-94004763D01*
X53558571Y-94052382D01*
X54082381Y-94052382D01*
X53558571Y-94052382D02*
X53463333Y-94100001D01*
X53415714Y-94195239D01*
X53415714Y-94338096D01*
X53463333Y-94433334D01*
X53558571Y-94480953D01*
X54082381Y-94480953D01*
D14*
X52380952Y-92033333D02*
X52380952Y-91842857D01*
X51980952Y-91842857D01*
X52152381Y-92223810D02*
X52133333Y-92185715D01*
X52114286Y-92166667D01*
X52076190Y-92147619D01*
X52057143Y-92147619D01*
X52019048Y-92166667D01*
X52000000Y-92185715D01*
X51980952Y-92223810D01*
X51980952Y-92300000D01*
X52000000Y-92338096D01*
X52019048Y-92357143D01*
X52057143Y-92376191D01*
X52076190Y-92376191D01*
X52114286Y-92357143D01*
X52133333Y-92338096D01*
X52152381Y-92300000D01*
X52152381Y-92223810D01*
X52171429Y-92185715D01*
X52190476Y-92166667D01*
X52228571Y-92147619D01*
X52304762Y-92147619D01*
X52342857Y-92166667D01*
X52361905Y-92185715D01*
X52380952Y-92223810D01*
X52380952Y-92300000D01*
X52361905Y-92338096D01*
X52342857Y-92357143D01*
X52304762Y-92376191D01*
X52228571Y-92376191D01*
X52190476Y-92357143D01*
X52171429Y-92338096D01*
X52152381Y-92300000D01*
D11*
X65622381Y-80214286D02*
X66336667Y-80214286D01*
X66479524Y-80166666D01*
X66574762Y-80071428D01*
X66622381Y-79928571D01*
X66622381Y-79833333D01*
X66622381Y-81119048D02*
X66098571Y-81119048D01*
X66003333Y-81071429D01*
X65955714Y-80976191D01*
X65955714Y-80785714D01*
X66003333Y-80690476D01*
X66574762Y-81119048D02*
X66622381Y-81023810D01*
X66622381Y-80785714D01*
X66574762Y-80690476D01*
X66479524Y-80642857D01*
X66384286Y-80642857D01*
X66289048Y-80690476D01*
X66241429Y-80785714D01*
X66241429Y-81023810D01*
X66193810Y-81119048D01*
X66574762Y-82023810D02*
X66622381Y-81928572D01*
X66622381Y-81738095D01*
X66574762Y-81642857D01*
X66527143Y-81595238D01*
X66431905Y-81547619D01*
X66146190Y-81547619D01*
X66050952Y-81595238D01*
X66003333Y-81642857D01*
X65955714Y-81738095D01*
X65955714Y-81928572D01*
X66003333Y-82023810D01*
X66622381Y-82452381D02*
X65622381Y-82452381D01*
X66241429Y-82547619D02*
X66622381Y-82833334D01*
X65955714Y-82833334D02*
X66336667Y-82452381D01*
X66336667Y-83214286D02*
X66336667Y-83690477D01*
X66622381Y-83119048D02*
X65622381Y-83452381D01*
X66622381Y-83785715D01*
X65955714Y-84547620D02*
X66622381Y-84547620D01*
X65955714Y-84119048D02*
X66479524Y-84119048D01*
X66574762Y-84166667D01*
X66622381Y-84261905D01*
X66622381Y-84404763D01*
X66574762Y-84500001D01*
X66527143Y-84547620D01*
X66622381Y-85452382D02*
X65622381Y-85452382D01*
X66574762Y-85452382D02*
X66622381Y-85357144D01*
X66622381Y-85166667D01*
X66574762Y-85071429D01*
X66527143Y-85023810D01*
X66431905Y-84976191D01*
X66146190Y-84976191D01*
X66050952Y-85023810D01*
X66003333Y-85071429D01*
X65955714Y-85166667D01*
X65955714Y-85357144D01*
X66003333Y-85452382D01*
X66622381Y-85928572D02*
X65955714Y-85928572D01*
X65622381Y-85928572D02*
X65670000Y-85880953D01*
X65717619Y-85928572D01*
X65670000Y-85976191D01*
X65622381Y-85928572D01*
X65717619Y-85928572D01*
X66622381Y-86547619D02*
X66574762Y-86452381D01*
X66527143Y-86404762D01*
X66431905Y-86357143D01*
X66146190Y-86357143D01*
X66050952Y-86404762D01*
X66003333Y-86452381D01*
X65955714Y-86547619D01*
X65955714Y-86690477D01*
X66003333Y-86785715D01*
X66050952Y-86833334D01*
X66146190Y-86880953D01*
X66431905Y-86880953D01*
X66527143Y-86833334D01*
X66574762Y-86785715D01*
X66622381Y-86690477D01*
X66622381Y-86547619D01*
X65622381Y-87214286D02*
X65622381Y-87833334D01*
X66003333Y-87500000D01*
X66003333Y-87642858D01*
X66050952Y-87738096D01*
X66098571Y-87785715D01*
X66193810Y-87833334D01*
X66431905Y-87833334D01*
X66527143Y-87785715D01*
X66574762Y-87738096D01*
X66622381Y-87642858D01*
X66622381Y-87357143D01*
X66574762Y-87261905D01*
X66527143Y-87214286D01*
X66527143Y-88261905D02*
X66574762Y-88309524D01*
X66622381Y-88261905D01*
X66574762Y-88214286D01*
X66527143Y-88261905D01*
X66622381Y-88261905D01*
X65622381Y-89214286D02*
X65622381Y-88738095D01*
X66098571Y-88690476D01*
X66050952Y-88738095D01*
X66003333Y-88833333D01*
X66003333Y-89071429D01*
X66050952Y-89166667D01*
X66098571Y-89214286D01*
X66193810Y-89261905D01*
X66431905Y-89261905D01*
X66527143Y-89214286D01*
X66574762Y-89166667D01*
X66622381Y-89071429D01*
X66622381Y-88833333D01*
X66574762Y-88738095D01*
X66527143Y-88690476D01*
X66622381Y-89690476D02*
X65622381Y-89690476D01*
X65622381Y-90071429D01*
X65670000Y-90166667D01*
X65717619Y-90214286D01*
X65812857Y-90261905D01*
X65955714Y-90261905D01*
X66050952Y-90214286D01*
X66098571Y-90166667D01*
X66146190Y-90071429D01*
X66146190Y-89690476D01*
X65622381Y-90976191D02*
X66336667Y-90976191D01*
X66479524Y-90928571D01*
X66574762Y-90833333D01*
X66622381Y-90690476D01*
X66622381Y-90595238D01*
X66241429Y-91452381D02*
X66241429Y-92214286D01*
X65622381Y-92595238D02*
X65622381Y-93214286D01*
X66003333Y-92880952D01*
X66003333Y-93023810D01*
X66050952Y-93119048D01*
X66098571Y-93166667D01*
X66193810Y-93214286D01*
X66431905Y-93214286D01*
X66527143Y-93166667D01*
X66574762Y-93119048D01*
X66622381Y-93023810D01*
X66622381Y-92738095D01*
X66574762Y-92642857D01*
X66527143Y-92595238D01*
X65955714Y-94071429D02*
X66622381Y-94071429D01*
X65574762Y-93833333D02*
X66289048Y-93595238D01*
X66289048Y-94214286D01*
X65717619Y-94547619D02*
X65670000Y-94595238D01*
X65622381Y-94690476D01*
X65622381Y-94928572D01*
X65670000Y-95023810D01*
X65717619Y-95071429D01*
X65812857Y-95119048D01*
X65908095Y-95119048D01*
X66050952Y-95071429D01*
X66622381Y-94500000D01*
X66622381Y-95119048D01*
X58452381Y-87166667D02*
X59166667Y-87166667D01*
X59309524Y-87119047D01*
X59404762Y-87023809D01*
X59452381Y-86880952D01*
X59452381Y-86785714D01*
X59452381Y-88166667D02*
X59452381Y-87595238D01*
X59452381Y-87880952D02*
X58452381Y-87880952D01*
X58595238Y-87785714D01*
X58690476Y-87690476D01*
X58738095Y-87595238D01*
X83252381Y-98709524D02*
X83252381Y-99280953D01*
X84252381Y-98995238D02*
X83252381Y-98995238D01*
X83252381Y-99519048D02*
X84252381Y-100185715D01*
X83252381Y-100185715D02*
X84252381Y-99519048D01*
X83728571Y-100900001D02*
X83776190Y-101042858D01*
X83823810Y-101090477D01*
X83919048Y-101138096D01*
X84061905Y-101138096D01*
X84157143Y-101090477D01*
X84204762Y-101042858D01*
X84252381Y-100947620D01*
X84252381Y-100566667D01*
X83252381Y-100566667D01*
X83252381Y-100900001D01*
X83300000Y-100995239D01*
X83347619Y-101042858D01*
X83442857Y-101090477D01*
X83538095Y-101090477D01*
X83633333Y-101042858D01*
X83680952Y-100995239D01*
X83728571Y-100900001D01*
X83728571Y-100566667D01*
X83252381Y-101757143D02*
X83252381Y-101852382D01*
X83300000Y-101947620D01*
X83347619Y-101995239D01*
X83442857Y-102042858D01*
X83633333Y-102090477D01*
X83871429Y-102090477D01*
X84061905Y-102042858D01*
X84157143Y-101995239D01*
X84204762Y-101947620D01*
X84252381Y-101852382D01*
X84252381Y-101757143D01*
X84204762Y-101661905D01*
X84157143Y-101614286D01*
X84061905Y-101566667D01*
X83871429Y-101519048D01*
X83633333Y-101519048D01*
X83442857Y-101566667D01*
X83347619Y-101614286D01*
X83300000Y-101661905D01*
X83252381Y-101757143D01*
X84252381Y-103042858D02*
X84252381Y-102471429D01*
X84252381Y-102757143D02*
X83252381Y-102757143D01*
X83395238Y-102661905D01*
X83490476Y-102566667D01*
X83538095Y-102471429D01*
X83252381Y-103661905D02*
X83252381Y-103757144D01*
X83300000Y-103852382D01*
X83347619Y-103900001D01*
X83442857Y-103947620D01*
X83633333Y-103995239D01*
X83871429Y-103995239D01*
X84061905Y-103947620D01*
X84157143Y-103900001D01*
X84204762Y-103852382D01*
X84252381Y-103757144D01*
X84252381Y-103661905D01*
X84204762Y-103566667D01*
X84157143Y-103519048D01*
X84061905Y-103471429D01*
X83871429Y-103423810D01*
X83633333Y-103423810D01*
X83442857Y-103471429D01*
X83347619Y-103519048D01*
X83300000Y-103566667D01*
X83252381Y-103661905D01*
X83680952Y-104566667D02*
X83633333Y-104471429D01*
X83585714Y-104423810D01*
X83490476Y-104376191D01*
X83442857Y-104376191D01*
X83347619Y-104423810D01*
X83300000Y-104471429D01*
X83252381Y-104566667D01*
X83252381Y-104757144D01*
X83300000Y-104852382D01*
X83347619Y-104900001D01*
X83442857Y-104947620D01*
X83490476Y-104947620D01*
X83585714Y-104900001D01*
X83633333Y-104852382D01*
X83680952Y-104757144D01*
X83680952Y-104566667D01*
X83728571Y-104471429D01*
X83776190Y-104423810D01*
X83871429Y-104376191D01*
X84061905Y-104376191D01*
X84157143Y-104423810D01*
X84204762Y-104471429D01*
X84252381Y-104566667D01*
X84252381Y-104757144D01*
X84204762Y-104852382D01*
X84157143Y-104900001D01*
X84061905Y-104947620D01*
X83871429Y-104947620D01*
X83776190Y-104900001D01*
X83728571Y-104852382D01*
X83680952Y-104757144D01*
X83728571Y-105376191D02*
X83728571Y-105709525D01*
X84252381Y-105852382D02*
X84252381Y-105376191D01*
X83252381Y-105376191D01*
X83252381Y-105852382D01*
X84252381Y-106280953D02*
X83252381Y-106280953D01*
X83252381Y-106661906D01*
X83300000Y-106757144D01*
X83347619Y-106804763D01*
X83442857Y-106852382D01*
X83585714Y-106852382D01*
X83680952Y-106804763D01*
X83728571Y-106757144D01*
X83776190Y-106661906D01*
X83776190Y-106280953D01*
X83252381Y-107185715D02*
X84252381Y-107423810D01*
X83538095Y-107614287D01*
X84252381Y-107804763D01*
X83252381Y-108042858D01*
X84252381Y-108995239D02*
X83776190Y-108661905D01*
X84252381Y-108423810D02*
X83252381Y-108423810D01*
X83252381Y-108804763D01*
X83300000Y-108900001D01*
X83347619Y-108947620D01*
X83442857Y-108995239D01*
X83585714Y-108995239D01*
X83680952Y-108947620D01*
X83728571Y-108900001D01*
X83776190Y-108804763D01*
X83776190Y-108423810D01*
X79061905Y-103290476D02*
X79709524Y-103290476D01*
X79785714Y-103328571D01*
X79823810Y-103366667D01*
X79861905Y-103442857D01*
X79861905Y-103595238D01*
X79823810Y-103671429D01*
X79785714Y-103709524D01*
X79709524Y-103747619D01*
X79061905Y-103747619D01*
X79061905Y-104471428D02*
X79061905Y-104319047D01*
X79100000Y-104242857D01*
X79138095Y-104204762D01*
X79252381Y-104128571D01*
X79404762Y-104090476D01*
X79709524Y-104090476D01*
X79785714Y-104128571D01*
X79823810Y-104166666D01*
X79861905Y-104242857D01*
X79861905Y-104395238D01*
X79823810Y-104471428D01*
X79785714Y-104509524D01*
X79709524Y-104547619D01*
X79519048Y-104547619D01*
X79442857Y-104509524D01*
X79404762Y-104471428D01*
X79366667Y-104395238D01*
X79366667Y-104242857D01*
X79404762Y-104166666D01*
X79442857Y-104128571D01*
X79519048Y-104090476D01*
X71238095Y-96952381D02*
X71238095Y-95952381D01*
X70904761Y-96666667D01*
X70571428Y-95952381D01*
X70571428Y-96952381D01*
X70095238Y-96952381D02*
X70095238Y-95952381D01*
X69714285Y-95952381D01*
X69619047Y-96000000D01*
X69571428Y-96047619D01*
X69523809Y-96142857D01*
X69523809Y-96285714D01*
X69571428Y-96380952D01*
X69619047Y-96428571D01*
X69714285Y-96476190D01*
X70095238Y-96476190D01*
X68571428Y-96952381D02*
X69142857Y-96952381D01*
X68857143Y-96952381D02*
X68857143Y-95952381D01*
X68952381Y-96095238D01*
X69047619Y-96190476D01*
X69142857Y-96238095D01*
X67714285Y-96285714D02*
X67714285Y-96952381D01*
X67952381Y-95904762D02*
X68190476Y-96619048D01*
X67571428Y-96619048D01*
X67047619Y-96380952D02*
X67142857Y-96333333D01*
X67190476Y-96285714D01*
X67238095Y-96190476D01*
X67238095Y-96142857D01*
X67190476Y-96047619D01*
X67142857Y-96000000D01*
X67047619Y-95952381D01*
X66857142Y-95952381D01*
X66761904Y-96000000D01*
X66714285Y-96047619D01*
X66666666Y-96142857D01*
X66666666Y-96190476D01*
X66714285Y-96285714D01*
X66761904Y-96333333D01*
X66857142Y-96380952D01*
X67047619Y-96380952D01*
X67142857Y-96428571D01*
X67190476Y-96476190D01*
X67238095Y-96571429D01*
X67238095Y-96761905D01*
X67190476Y-96857143D01*
X67142857Y-96904762D01*
X67047619Y-96952381D01*
X66857142Y-96952381D01*
X66761904Y-96904762D01*
X66714285Y-96857143D01*
X66666666Y-96761905D01*
X66666666Y-96571429D01*
X66714285Y-96476190D01*
X66761904Y-96428571D01*
X66857142Y-96380952D01*
X66285714Y-96047619D02*
X66238095Y-96000000D01*
X66142857Y-95952381D01*
X65904761Y-95952381D01*
X65809523Y-96000000D01*
X65761904Y-96047619D01*
X65714285Y-96142857D01*
X65714285Y-96238095D01*
X65761904Y-96380952D01*
X66333333Y-96952381D01*
X65714285Y-96952381D01*
X69261905Y-99452381D02*
X69261905Y-100261905D01*
X69214286Y-100357143D01*
X69166667Y-100404762D01*
X69071429Y-100452381D01*
X68880952Y-100452381D01*
X68785714Y-100404762D01*
X68738095Y-100357143D01*
X68690476Y-100261905D01*
X68690476Y-99452381D01*
X68261905Y-99547619D02*
X68214286Y-99500000D01*
X68119048Y-99452381D01*
X67880952Y-99452381D01*
X67785714Y-99500000D01*
X67738095Y-99547619D01*
X67690476Y-99642857D01*
X67690476Y-99738095D01*
X67738095Y-99880952D01*
X68309524Y-100452381D01*
X67690476Y-100452381D01*
M02*
