G04 #@! TF.FileFunction,Legend,Top*
%FSLAX46Y46*%
G04 Gerber Fmt 4.6, Leading zero omitted, Abs format (unit mm)*
G04 Created by KiCad (PCBNEW 4.0.5+dfsg1-4) date Tue Aug 14 14:25:04 2018*
%MOMM*%
%LPD*%
G01*
G04 APERTURE LIST*
%ADD10C,0.100000*%
%ADD11C,0.180000*%
%ADD12C,0.120000*%
%ADD13C,0.150000*%
%ADD14C,0.200000*%
G04 APERTURE END LIST*
D10*
D11*
X54987143Y-119179524D02*
X56187143Y-119179524D01*
X56187143Y-119484286D01*
X56130000Y-119560477D01*
X56072857Y-119598572D01*
X55958571Y-119636667D01*
X55787143Y-119636667D01*
X55672857Y-119598572D01*
X55615714Y-119560477D01*
X55558571Y-119484286D01*
X55558571Y-119179524D01*
X56187143Y-120322381D02*
X56187143Y-120170000D01*
X56130000Y-120093810D01*
X56072857Y-120055715D01*
X55901429Y-119979524D01*
X55672857Y-119941429D01*
X55215714Y-119941429D01*
X55101429Y-119979524D01*
X55044286Y-120017619D01*
X54987143Y-120093810D01*
X54987143Y-120246191D01*
X55044286Y-120322381D01*
X55101429Y-120360477D01*
X55215714Y-120398572D01*
X55501429Y-120398572D01*
X55615714Y-120360477D01*
X55672857Y-120322381D01*
X55730000Y-120246191D01*
X55730000Y-120093810D01*
X55672857Y-120017619D01*
X55615714Y-119979524D01*
X55501429Y-119941429D01*
X55141429Y-116746667D02*
X55084286Y-116708572D01*
X55027143Y-116594286D01*
X55027143Y-116518096D01*
X55084286Y-116403810D01*
X55198571Y-116327619D01*
X55312857Y-116289524D01*
X55541429Y-116251429D01*
X55712857Y-116251429D01*
X55941429Y-116289524D01*
X56055714Y-116327619D01*
X56170000Y-116403810D01*
X56227143Y-116518096D01*
X56227143Y-116594286D01*
X56170000Y-116708572D01*
X56112857Y-116746667D01*
X55084286Y-117051429D02*
X55027143Y-117165715D01*
X55027143Y-117356191D01*
X55084286Y-117432381D01*
X55141429Y-117470477D01*
X55255714Y-117508572D01*
X55370000Y-117508572D01*
X55484286Y-117470477D01*
X55541429Y-117432381D01*
X55598571Y-117356191D01*
X55655714Y-117203810D01*
X55712857Y-117127619D01*
X55770000Y-117089524D01*
X55884286Y-117051429D01*
X55998571Y-117051429D01*
X56112857Y-117089524D01*
X56170000Y-117127619D01*
X56227143Y-117203810D01*
X56227143Y-117394286D01*
X56170000Y-117508572D01*
X55047143Y-113503333D02*
X56247143Y-113503333D01*
X55390000Y-113770000D01*
X56247143Y-114036667D01*
X55047143Y-114036667D01*
X56247143Y-114570000D02*
X56247143Y-114722381D01*
X56190000Y-114798572D01*
X56075714Y-114874762D01*
X55847143Y-114912857D01*
X55447143Y-114912857D01*
X55218571Y-114874762D01*
X55104286Y-114798572D01*
X55047143Y-114722381D01*
X55047143Y-114570000D01*
X55104286Y-114493810D01*
X55218571Y-114417619D01*
X55447143Y-114379524D01*
X55847143Y-114379524D01*
X56075714Y-114417619D01*
X56190000Y-114493810D01*
X56247143Y-114570000D01*
X55104286Y-115217619D02*
X55047143Y-115331905D01*
X55047143Y-115522381D01*
X55104286Y-115598571D01*
X55161429Y-115636667D01*
X55275714Y-115674762D01*
X55390000Y-115674762D01*
X55504286Y-115636667D01*
X55561429Y-115598571D01*
X55618571Y-115522381D01*
X55675714Y-115370000D01*
X55732857Y-115293809D01*
X55790000Y-115255714D01*
X55904286Y-115217619D01*
X56018571Y-115217619D01*
X56132857Y-115255714D01*
X56190000Y-115293809D01*
X56247143Y-115370000D01*
X56247143Y-115560476D01*
X56190000Y-115674762D01*
X55037143Y-110871905D02*
X56237143Y-110871905D01*
X55380000Y-111138572D01*
X56237143Y-111405239D01*
X55037143Y-111405239D01*
X55037143Y-111786191D02*
X56237143Y-111786191D01*
X55094286Y-112129048D02*
X55037143Y-112243334D01*
X55037143Y-112433810D01*
X55094286Y-112510000D01*
X55151429Y-112548096D01*
X55265714Y-112586191D01*
X55380000Y-112586191D01*
X55494286Y-112548096D01*
X55551429Y-112510000D01*
X55608571Y-112433810D01*
X55665714Y-112281429D01*
X55722857Y-112205238D01*
X55780000Y-112167143D01*
X55894286Y-112129048D01*
X56008571Y-112129048D01*
X56122857Y-112167143D01*
X56180000Y-112205238D01*
X56237143Y-112281429D01*
X56237143Y-112471905D01*
X56180000Y-112586191D01*
X55141429Y-108533810D02*
X55084286Y-108495715D01*
X55027143Y-108381429D01*
X55027143Y-108305239D01*
X55084286Y-108190953D01*
X55198571Y-108114762D01*
X55312857Y-108076667D01*
X55541429Y-108038572D01*
X55712857Y-108038572D01*
X55941429Y-108076667D01*
X56055714Y-108114762D01*
X56170000Y-108190953D01*
X56227143Y-108305239D01*
X56227143Y-108381429D01*
X56170000Y-108495715D01*
X56112857Y-108533810D01*
X55027143Y-109257620D02*
X55027143Y-108876667D01*
X56227143Y-108876667D01*
X55027143Y-109524286D02*
X56227143Y-109524286D01*
X55027143Y-109981429D02*
X55712857Y-109638572D01*
X56227143Y-109981429D02*
X55541429Y-109524286D01*
X54987143Y-106526667D02*
X55558571Y-106260000D01*
X54987143Y-106069524D02*
X56187143Y-106069524D01*
X56187143Y-106374286D01*
X56130000Y-106450477D01*
X56072857Y-106488572D01*
X55958571Y-106526667D01*
X55787143Y-106526667D01*
X55672857Y-106488572D01*
X55615714Y-106450477D01*
X55558571Y-106374286D01*
X55558571Y-106069524D01*
X56187143Y-106793334D02*
X54987143Y-107326667D01*
X56187143Y-107326667D02*
X54987143Y-106793334D01*
X56217143Y-103630476D02*
X56217143Y-104087619D01*
X55017143Y-103859048D02*
X56217143Y-103859048D01*
X56217143Y-104278096D02*
X55017143Y-104811429D01*
X56217143Y-104811429D02*
X55017143Y-104278096D01*
X56140000Y-100320477D02*
X56197143Y-100244286D01*
X56197143Y-100130001D01*
X56140000Y-100015715D01*
X56025714Y-99939524D01*
X55911429Y-99901429D01*
X55682857Y-99863334D01*
X55511429Y-99863334D01*
X55282857Y-99901429D01*
X55168571Y-99939524D01*
X55054286Y-100015715D01*
X54997143Y-100130001D01*
X54997143Y-100206191D01*
X55054286Y-100320477D01*
X55111429Y-100358572D01*
X55511429Y-100358572D01*
X55511429Y-100206191D01*
X54997143Y-100701429D02*
X56197143Y-100701429D01*
X54997143Y-101158572D01*
X56197143Y-101158572D01*
X54997143Y-101539524D02*
X56197143Y-101539524D01*
X56197143Y-101730000D01*
X56140000Y-101844286D01*
X56025714Y-101920477D01*
X55911429Y-101958572D01*
X55682857Y-101996667D01*
X55511429Y-101996667D01*
X55282857Y-101958572D01*
X55168571Y-101920477D01*
X55054286Y-101844286D01*
X54997143Y-101730000D01*
X54997143Y-101539524D01*
X56207143Y-98537620D02*
X56207143Y-98156667D01*
X55635714Y-98118572D01*
X55692857Y-98156667D01*
X55750000Y-98232858D01*
X55750000Y-98423334D01*
X55692857Y-98499524D01*
X55635714Y-98537620D01*
X55521429Y-98575715D01*
X55235714Y-98575715D01*
X55121429Y-98537620D01*
X55064286Y-98499524D01*
X55007143Y-98423334D01*
X55007143Y-98232858D01*
X55064286Y-98156667D01*
X55121429Y-98118572D01*
X56207143Y-98804286D02*
X55007143Y-99070953D01*
X56207143Y-99337620D01*
D12*
X87882633Y-126840000D02*
X88917367Y-126840000D01*
X87882633Y-129560000D02*
X88917367Y-129560000D01*
X81750000Y-130500000D02*
X81750000Y-128500000D01*
X81750000Y-128500000D02*
X77850000Y-128500000D01*
X81750000Y-130500000D02*
X77850000Y-130500000D01*
X91193875Y-88310000D02*
X90806125Y-88310000D01*
X91193875Y-87290000D02*
X90806125Y-87290000D01*
D13*
X82723607Y-91400000D02*
G75*
G03X82723607Y-91400000I-223607J0D01*
G01*
D12*
X59990000Y-95773875D02*
X59990000Y-95386125D01*
X61010000Y-95773875D02*
X61010000Y-95386125D01*
X90656125Y-84380000D02*
X91043875Y-84380000D01*
X90656125Y-85400000D02*
X91043875Y-85400000D01*
X56530000Y-97620000D02*
X50510000Y-97620000D01*
X50510000Y-97620000D02*
X50510000Y-120700000D01*
X50510000Y-120700000D02*
X56530000Y-120700000D01*
X56530000Y-120700000D02*
X56530000Y-97620000D01*
X50510000Y-99000000D02*
X51510000Y-99000000D01*
X51510000Y-99000000D02*
X51510000Y-104080000D01*
X51510000Y-104080000D02*
X50510000Y-104080000D01*
X50510000Y-119320000D02*
X51510000Y-119320000D01*
X51510000Y-119320000D02*
X51510000Y-114240000D01*
X51510000Y-114240000D02*
X50510000Y-114240000D01*
D14*
X99782542Y-126500000D02*
G75*
G03X99782542Y-126500000I-2282542J0D01*
G01*
X101400000Y-130400000D02*
X93600000Y-130400000D01*
X93600000Y-130400000D02*
X93600000Y-122600000D01*
X93600000Y-122600000D02*
X101400000Y-122600000D01*
X101400000Y-122600000D02*
X101400000Y-130400000D01*
X99782542Y-87000000D02*
G75*
G03X99782542Y-87000000I-2282542J0D01*
G01*
X101400000Y-90900000D02*
X93600000Y-90900000D01*
X93600000Y-90900000D02*
X93600000Y-83100000D01*
X93600000Y-83100000D02*
X101400000Y-83100000D01*
X101400000Y-83100000D02*
X101400000Y-90900000D01*
X50900000Y-122200000D02*
X50800000Y-122200000D01*
X50800000Y-122200000D02*
X50800000Y-131000000D01*
X56100000Y-122200000D02*
X50900000Y-122200000D01*
X50800000Y-131000000D02*
X51000000Y-131000000D01*
X56100000Y-122200000D02*
X56100000Y-131000000D01*
X56100000Y-131000000D02*
X51000000Y-131000000D01*
D12*
X55410000Y-130410000D02*
X55410000Y-130030000D01*
X51360000Y-130410000D02*
X51100000Y-130410000D01*
X55410000Y-130410000D02*
X53640000Y-130410000D01*
X55410000Y-122790000D02*
X55410000Y-123170000D01*
X53640000Y-122790000D02*
X55410000Y-122790000D01*
X51100000Y-122790000D02*
X51360000Y-122790000D01*
D14*
X59900000Y-127500000D02*
X71200000Y-127500000D01*
X71200000Y-127500000D02*
X71200000Y-130500000D01*
X71200000Y-130500000D02*
X59900000Y-130500000D01*
X59900000Y-130500000D02*
X59800000Y-130500000D01*
X59800000Y-130500000D02*
X59800000Y-127500000D01*
X59800000Y-127500000D02*
X59900000Y-127500000D01*
X101144100Y-111496200D02*
X101144100Y-107296200D01*
X101144100Y-107296200D02*
X99544100Y-107296200D01*
X101044100Y-111496200D02*
X101144100Y-111496200D01*
X101044100Y-111496200D02*
X96544100Y-111496200D01*
X96544100Y-111496200D02*
X96544100Y-107296200D01*
X96544100Y-107296200D02*
X98144100Y-107296200D01*
X91500000Y-125000000D02*
X91500000Y-121200000D01*
X91500000Y-95000000D02*
X91500000Y-98800000D01*
X61500000Y-95000000D02*
X61500000Y-99700000D01*
X61500000Y-125000000D02*
X61500000Y-121100000D01*
X61500000Y-125000000D02*
X65400000Y-125000000D01*
X91500000Y-125000000D02*
X87600000Y-125000000D01*
X91500000Y-95000000D02*
X87600000Y-95000000D01*
X61500000Y-95000000D02*
X65400000Y-95000000D01*
D13*
X65200000Y-97100000D02*
G75*
G03X65200000Y-97100000I-1500000J0D01*
G01*
D14*
X75470711Y-91350000D02*
G75*
G03X75470711Y-91350000I-70711J0D01*
G01*
X73850000Y-91500000D02*
X73850000Y-89750000D01*
X75150000Y-91500000D02*
X73850000Y-91500000D01*
X73850000Y-89750000D02*
X75150000Y-89750000D01*
X75150000Y-89750000D02*
X75150000Y-91500000D01*
X66800000Y-90450000D02*
X66800000Y-89650000D01*
X66800000Y-90450000D02*
X67550000Y-90450000D01*
X71000000Y-90400000D02*
X70250000Y-90400000D01*
X71000000Y-90400000D02*
X71000000Y-89650000D01*
X71000000Y-86200000D02*
X70200000Y-86200000D01*
X71000000Y-86200000D02*
X71000000Y-87000000D01*
X66900000Y-87050000D02*
X67600000Y-86350000D01*
D11*
X69785714Y-82528571D02*
X69747619Y-82585714D01*
X69633333Y-82642857D01*
X69557143Y-82642857D01*
X69442857Y-82585714D01*
X69366666Y-82471429D01*
X69328571Y-82357143D01*
X69290476Y-82128571D01*
X69290476Y-81957143D01*
X69328571Y-81728571D01*
X69366666Y-81614286D01*
X69442857Y-81500000D01*
X69557143Y-81442857D01*
X69633333Y-81442857D01*
X69747619Y-81500000D01*
X69785714Y-81557143D01*
X70090476Y-81557143D02*
X70128571Y-81500000D01*
X70204762Y-81442857D01*
X70395238Y-81442857D01*
X70471428Y-81500000D01*
X70509524Y-81557143D01*
X70547619Y-81671429D01*
X70547619Y-81785714D01*
X70509524Y-81957143D01*
X70052381Y-82642857D01*
X70547619Y-82642857D01*
X71233333Y-81442857D02*
X71080952Y-81442857D01*
X71004762Y-81500000D01*
X70966667Y-81557143D01*
X70890476Y-81728571D01*
X70852381Y-81957143D01*
X70852381Y-82414286D01*
X70890476Y-82528571D01*
X70928571Y-82585714D01*
X71004762Y-82642857D01*
X71157143Y-82642857D01*
X71233333Y-82585714D01*
X71271429Y-82528571D01*
X71309524Y-82414286D01*
X71309524Y-82128571D01*
X71271429Y-82014286D01*
X71233333Y-81957143D01*
X71157143Y-81900000D01*
X71004762Y-81900000D01*
X70928571Y-81957143D01*
X70890476Y-82014286D01*
X70852381Y-82128571D01*
D13*
X53433334Y-93887143D02*
X53385715Y-93934762D01*
X53242858Y-93982381D01*
X53147620Y-93982381D01*
X53004762Y-93934762D01*
X52909524Y-93839524D01*
X52861905Y-93744286D01*
X52814286Y-93553810D01*
X52814286Y-93410952D01*
X52861905Y-93220476D01*
X52909524Y-93125238D01*
X53004762Y-93030000D01*
X53147620Y-92982381D01*
X53242858Y-92982381D01*
X53385715Y-93030000D01*
X53433334Y-93077619D01*
X54338096Y-92982381D02*
X53861905Y-92982381D01*
X53814286Y-93458571D01*
X53861905Y-93410952D01*
X53957143Y-93363333D01*
X54195239Y-93363333D01*
X54290477Y-93410952D01*
X54338096Y-93458571D01*
X54385715Y-93553810D01*
X54385715Y-93791905D01*
X54338096Y-93887143D01*
X54290477Y-93934762D01*
X54195239Y-93982381D01*
X53957143Y-93982381D01*
X53861905Y-93934762D01*
X53814286Y-93887143D01*
X55633334Y-93807143D02*
X55585715Y-93854762D01*
X55442858Y-93902381D01*
X55347620Y-93902381D01*
X55204762Y-93854762D01*
X55109524Y-93759524D01*
X55061905Y-93664286D01*
X55014286Y-93473810D01*
X55014286Y-93330952D01*
X55061905Y-93140476D01*
X55109524Y-93045238D01*
X55204762Y-92950000D01*
X55347620Y-92902381D01*
X55442858Y-92902381D01*
X55585715Y-92950000D01*
X55633334Y-92997619D01*
X56490477Y-92902381D02*
X56300000Y-92902381D01*
X56204762Y-92950000D01*
X56157143Y-92997619D01*
X56061905Y-93140476D01*
X56014286Y-93330952D01*
X56014286Y-93711905D01*
X56061905Y-93807143D01*
X56109524Y-93854762D01*
X56204762Y-93902381D01*
X56395239Y-93902381D01*
X56490477Y-93854762D01*
X56538096Y-93807143D01*
X56585715Y-93711905D01*
X56585715Y-93473810D01*
X56538096Y-93378571D01*
X56490477Y-93330952D01*
X56395239Y-93283333D01*
X56204762Y-93283333D01*
X56109524Y-93330952D01*
X56061905Y-93378571D01*
X56014286Y-93473810D01*
D11*
X64066667Y-87658571D02*
X64028572Y-87715714D01*
X63914286Y-87772857D01*
X63838096Y-87772857D01*
X63723810Y-87715714D01*
X63647619Y-87601429D01*
X63609524Y-87487143D01*
X63571429Y-87258571D01*
X63571429Y-87087143D01*
X63609524Y-86858571D01*
X63647619Y-86744286D01*
X63723810Y-86630000D01*
X63838096Y-86572857D01*
X63914286Y-86572857D01*
X64028572Y-86630000D01*
X64066667Y-86687143D01*
X64523810Y-87087143D02*
X64447619Y-87030000D01*
X64409524Y-86972857D01*
X64371429Y-86858571D01*
X64371429Y-86801429D01*
X64409524Y-86687143D01*
X64447619Y-86630000D01*
X64523810Y-86572857D01*
X64676191Y-86572857D01*
X64752381Y-86630000D01*
X64790477Y-86687143D01*
X64828572Y-86801429D01*
X64828572Y-86858571D01*
X64790477Y-86972857D01*
X64752381Y-87030000D01*
X64676191Y-87087143D01*
X64523810Y-87087143D01*
X64447619Y-87144286D01*
X64409524Y-87201429D01*
X64371429Y-87315714D01*
X64371429Y-87544286D01*
X64409524Y-87658571D01*
X64447619Y-87715714D01*
X64523810Y-87772857D01*
X64676191Y-87772857D01*
X64752381Y-87715714D01*
X64790477Y-87658571D01*
X64828572Y-87544286D01*
X64828572Y-87315714D01*
X64790477Y-87201429D01*
X64752381Y-87144286D01*
X64676191Y-87087143D01*
D13*
X53433334Y-97557143D02*
X53385715Y-97604762D01*
X53242858Y-97652381D01*
X53147620Y-97652381D01*
X53004762Y-97604762D01*
X52909524Y-97509524D01*
X52861905Y-97414286D01*
X52814286Y-97223810D01*
X52814286Y-97080952D01*
X52861905Y-96890476D01*
X52909524Y-96795238D01*
X53004762Y-96700000D01*
X53147620Y-96652381D01*
X53242858Y-96652381D01*
X53385715Y-96700000D01*
X53433334Y-96747619D01*
X53909524Y-97652381D02*
X54100000Y-97652381D01*
X54195239Y-97604762D01*
X54242858Y-97557143D01*
X54338096Y-97414286D01*
X54385715Y-97223810D01*
X54385715Y-96842857D01*
X54338096Y-96747619D01*
X54290477Y-96700000D01*
X54195239Y-96652381D01*
X54004762Y-96652381D01*
X53909524Y-96700000D01*
X53861905Y-96747619D01*
X53814286Y-96842857D01*
X53814286Y-97080952D01*
X53861905Y-97176190D01*
X53909524Y-97223810D01*
X54004762Y-97271429D01*
X54195239Y-97271429D01*
X54290477Y-97223810D01*
X54338096Y-97176190D01*
X54385715Y-97080952D01*
X55367143Y-97537143D02*
X55319524Y-97584762D01*
X55176667Y-97632381D01*
X55081429Y-97632381D01*
X54938571Y-97584762D01*
X54843333Y-97489524D01*
X54795714Y-97394286D01*
X54748095Y-97203810D01*
X54748095Y-97060952D01*
X54795714Y-96870476D01*
X54843333Y-96775238D01*
X54938571Y-96680000D01*
X55081429Y-96632381D01*
X55176667Y-96632381D01*
X55319524Y-96680000D01*
X55367143Y-96727619D01*
X56319524Y-97632381D02*
X55748095Y-97632381D01*
X56033809Y-97632381D02*
X56033809Y-96632381D01*
X55938571Y-96775238D01*
X55843333Y-96870476D01*
X55748095Y-96918095D01*
X56938571Y-96632381D02*
X57033810Y-96632381D01*
X57129048Y-96680000D01*
X57176667Y-96727619D01*
X57224286Y-96822857D01*
X57271905Y-97013333D01*
X57271905Y-97251429D01*
X57224286Y-97441905D01*
X57176667Y-97537143D01*
X57129048Y-97584762D01*
X57033810Y-97632381D01*
X56938571Y-97632381D01*
X56843333Y-97584762D01*
X56795714Y-97537143D01*
X56748095Y-97441905D01*
X56700476Y-97251429D01*
X56700476Y-97013333D01*
X56748095Y-96822857D01*
X56795714Y-96727619D01*
X56843333Y-96680000D01*
X56938571Y-96632381D01*
X57757143Y-93647143D02*
X57709524Y-93694762D01*
X57566667Y-93742381D01*
X57471429Y-93742381D01*
X57328571Y-93694762D01*
X57233333Y-93599524D01*
X57185714Y-93504286D01*
X57138095Y-93313810D01*
X57138095Y-93170952D01*
X57185714Y-92980476D01*
X57233333Y-92885238D01*
X57328571Y-92790000D01*
X57471429Y-92742381D01*
X57566667Y-92742381D01*
X57709524Y-92790000D01*
X57757143Y-92837619D01*
X58709524Y-93742381D02*
X58138095Y-93742381D01*
X58423809Y-93742381D02*
X58423809Y-92742381D01*
X58328571Y-92885238D01*
X58233333Y-92980476D01*
X58138095Y-93028095D01*
X59661905Y-93742381D02*
X59090476Y-93742381D01*
X59376190Y-93742381D02*
X59376190Y-92742381D01*
X59280952Y-92885238D01*
X59185714Y-92980476D01*
X59090476Y-93028095D01*
X58157143Y-97577143D02*
X58109524Y-97624762D01*
X57966667Y-97672381D01*
X57871429Y-97672381D01*
X57728571Y-97624762D01*
X57633333Y-97529524D01*
X57585714Y-97434286D01*
X57538095Y-97243810D01*
X57538095Y-97100952D01*
X57585714Y-96910476D01*
X57633333Y-96815238D01*
X57728571Y-96720000D01*
X57871429Y-96672381D01*
X57966667Y-96672381D01*
X58109524Y-96720000D01*
X58157143Y-96767619D01*
X59109524Y-97672381D02*
X58538095Y-97672381D01*
X58823809Y-97672381D02*
X58823809Y-96672381D01*
X58728571Y-96815238D01*
X58633333Y-96910476D01*
X58538095Y-96958095D01*
X59966667Y-97005714D02*
X59966667Y-97672381D01*
X59728571Y-96624762D02*
X59490476Y-97339048D01*
X60109524Y-97339048D01*
X72757143Y-87142857D02*
X72804762Y-87190476D01*
X72852381Y-87333333D01*
X72852381Y-87428571D01*
X72804762Y-87571429D01*
X72709524Y-87666667D01*
X72614286Y-87714286D01*
X72423810Y-87761905D01*
X72280952Y-87761905D01*
X72090476Y-87714286D01*
X71995238Y-87666667D01*
X71900000Y-87571429D01*
X71852381Y-87428571D01*
X71852381Y-87333333D01*
X71900000Y-87190476D01*
X71947619Y-87142857D01*
X72852381Y-86190476D02*
X72852381Y-86761905D01*
X72852381Y-86476191D02*
X71852381Y-86476191D01*
X71995238Y-86571429D01*
X72090476Y-86666667D01*
X72138095Y-86761905D01*
X71852381Y-85285714D02*
X71852381Y-85761905D01*
X72328571Y-85809524D01*
X72280952Y-85761905D01*
X72233333Y-85666667D01*
X72233333Y-85428571D01*
X72280952Y-85333333D01*
X72328571Y-85285714D01*
X72423810Y-85238095D01*
X72661905Y-85238095D01*
X72757143Y-85285714D01*
X72804762Y-85333333D01*
X72852381Y-85428571D01*
X72852381Y-85666667D01*
X72804762Y-85761905D01*
X72757143Y-85809524D01*
X69057143Y-92357143D02*
X69009524Y-92404762D01*
X68866667Y-92452381D01*
X68771429Y-92452381D01*
X68628571Y-92404762D01*
X68533333Y-92309524D01*
X68485714Y-92214286D01*
X68438095Y-92023810D01*
X68438095Y-91880952D01*
X68485714Y-91690476D01*
X68533333Y-91595238D01*
X68628571Y-91500000D01*
X68771429Y-91452381D01*
X68866667Y-91452381D01*
X69009524Y-91500000D01*
X69057143Y-91547619D01*
X69438095Y-91547619D02*
X69485714Y-91500000D01*
X69580952Y-91452381D01*
X69819048Y-91452381D01*
X69914286Y-91500000D01*
X69961905Y-91547619D01*
X70009524Y-91642857D01*
X70009524Y-91738095D01*
X69961905Y-91880952D01*
X69390476Y-92452381D01*
X70009524Y-92452381D01*
X70628571Y-91452381D02*
X70723810Y-91452381D01*
X70819048Y-91500000D01*
X70866667Y-91547619D01*
X70914286Y-91642857D01*
X70961905Y-91833333D01*
X70961905Y-92071429D01*
X70914286Y-92261905D01*
X70866667Y-92357143D01*
X70819048Y-92404762D01*
X70723810Y-92452381D01*
X70628571Y-92452381D01*
X70533333Y-92404762D01*
X70485714Y-92357143D01*
X70438095Y-92261905D01*
X70390476Y-92071429D01*
X70390476Y-91833333D01*
X70438095Y-91642857D01*
X70485714Y-91547619D01*
X70533333Y-91500000D01*
X70628571Y-91452381D01*
D11*
X50628571Y-95914286D02*
X50685714Y-95952381D01*
X50742857Y-96066667D01*
X50742857Y-96142857D01*
X50685714Y-96257143D01*
X50571429Y-96333334D01*
X50457143Y-96371429D01*
X50228571Y-96409524D01*
X50057143Y-96409524D01*
X49828571Y-96371429D01*
X49714286Y-96333334D01*
X49600000Y-96257143D01*
X49542857Y-96142857D01*
X49542857Y-96066667D01*
X49600000Y-95952381D01*
X49657143Y-95914286D01*
X49657143Y-95609524D02*
X49600000Y-95571429D01*
X49542857Y-95495238D01*
X49542857Y-95304762D01*
X49600000Y-95228572D01*
X49657143Y-95190476D01*
X49771429Y-95152381D01*
X49885714Y-95152381D01*
X50057143Y-95190476D01*
X50742857Y-95647619D01*
X50742857Y-95152381D01*
X49657143Y-94847619D02*
X49600000Y-94809524D01*
X49542857Y-94733333D01*
X49542857Y-94542857D01*
X49600000Y-94466667D01*
X49657143Y-94428571D01*
X49771429Y-94390476D01*
X49885714Y-94390476D01*
X50057143Y-94428571D01*
X50742857Y-94885714D01*
X50742857Y-94390476D01*
X66528571Y-85714286D02*
X66585714Y-85752381D01*
X66642857Y-85866667D01*
X66642857Y-85942857D01*
X66585714Y-86057143D01*
X66471429Y-86133334D01*
X66357143Y-86171429D01*
X66128571Y-86209524D01*
X65957143Y-86209524D01*
X65728571Y-86171429D01*
X65614286Y-86133334D01*
X65500000Y-86057143D01*
X65442857Y-85942857D01*
X65442857Y-85866667D01*
X65500000Y-85752381D01*
X65557143Y-85714286D01*
X65557143Y-85409524D02*
X65500000Y-85371429D01*
X65442857Y-85295238D01*
X65442857Y-85104762D01*
X65500000Y-85028572D01*
X65557143Y-84990476D01*
X65671429Y-84952381D01*
X65785714Y-84952381D01*
X65957143Y-84990476D01*
X66642857Y-85447619D01*
X66642857Y-84952381D01*
X65442857Y-84685714D02*
X65442857Y-84190476D01*
X65900000Y-84457143D01*
X65900000Y-84342857D01*
X65957143Y-84266667D01*
X66014286Y-84228571D01*
X66128571Y-84190476D01*
X66414286Y-84190476D01*
X66528571Y-84228571D01*
X66585714Y-84266667D01*
X66642857Y-84342857D01*
X66642857Y-84571429D01*
X66585714Y-84647619D01*
X66528571Y-84685714D01*
X64728571Y-82614286D02*
X64785714Y-82652381D01*
X64842857Y-82766667D01*
X64842857Y-82842857D01*
X64785714Y-82957143D01*
X64671429Y-83033334D01*
X64557143Y-83071429D01*
X64328571Y-83109524D01*
X64157143Y-83109524D01*
X63928571Y-83071429D01*
X63814286Y-83033334D01*
X63700000Y-82957143D01*
X63642857Y-82842857D01*
X63642857Y-82766667D01*
X63700000Y-82652381D01*
X63757143Y-82614286D01*
X63757143Y-82309524D02*
X63700000Y-82271429D01*
X63642857Y-82195238D01*
X63642857Y-82004762D01*
X63700000Y-81928572D01*
X63757143Y-81890476D01*
X63871429Y-81852381D01*
X63985714Y-81852381D01*
X64157143Y-81890476D01*
X64842857Y-82347619D01*
X64842857Y-81852381D01*
X64042857Y-81166667D02*
X64842857Y-81166667D01*
X63585714Y-81357143D02*
X64442857Y-81547619D01*
X64442857Y-81052381D01*
D13*
X76257143Y-83987143D02*
X76209524Y-84034762D01*
X76066667Y-84082381D01*
X75971429Y-84082381D01*
X75828571Y-84034762D01*
X75733333Y-83939524D01*
X75685714Y-83844286D01*
X75638095Y-83653810D01*
X75638095Y-83510952D01*
X75685714Y-83320476D01*
X75733333Y-83225238D01*
X75828571Y-83130000D01*
X75971429Y-83082381D01*
X76066667Y-83082381D01*
X76209524Y-83130000D01*
X76257143Y-83177619D01*
X76638095Y-83177619D02*
X76685714Y-83130000D01*
X76780952Y-83082381D01*
X77019048Y-83082381D01*
X77114286Y-83130000D01*
X77161905Y-83177619D01*
X77209524Y-83272857D01*
X77209524Y-83368095D01*
X77161905Y-83510952D01*
X76590476Y-84082381D01*
X77209524Y-84082381D01*
X78114286Y-83082381D02*
X77638095Y-83082381D01*
X77590476Y-83558571D01*
X77638095Y-83510952D01*
X77733333Y-83463333D01*
X77971429Y-83463333D01*
X78066667Y-83510952D01*
X78114286Y-83558571D01*
X78161905Y-83653810D01*
X78161905Y-83891905D01*
X78114286Y-83987143D01*
X78066667Y-84034762D01*
X77971429Y-84082381D01*
X77733333Y-84082381D01*
X77638095Y-84034762D01*
X77590476Y-83987143D01*
X89257143Y-86642857D02*
X89304762Y-86690476D01*
X89352381Y-86833333D01*
X89352381Y-86928571D01*
X89304762Y-87071429D01*
X89209524Y-87166667D01*
X89114286Y-87214286D01*
X88923810Y-87261905D01*
X88780952Y-87261905D01*
X88590476Y-87214286D01*
X88495238Y-87166667D01*
X88400000Y-87071429D01*
X88352381Y-86928571D01*
X88352381Y-86833333D01*
X88400000Y-86690476D01*
X88447619Y-86642857D01*
X88447619Y-86261905D02*
X88400000Y-86214286D01*
X88352381Y-86119048D01*
X88352381Y-85880952D01*
X88400000Y-85785714D01*
X88447619Y-85738095D01*
X88542857Y-85690476D01*
X88638095Y-85690476D01*
X88780952Y-85738095D01*
X89352381Y-86309524D01*
X89352381Y-85690476D01*
X88352381Y-85357143D02*
X88352381Y-84690476D01*
X89352381Y-85119048D01*
X74387143Y-83642857D02*
X74434762Y-83690476D01*
X74482381Y-83833333D01*
X74482381Y-83928571D01*
X74434762Y-84071429D01*
X74339524Y-84166667D01*
X74244286Y-84214286D01*
X74053810Y-84261905D01*
X73910952Y-84261905D01*
X73720476Y-84214286D01*
X73625238Y-84166667D01*
X73530000Y-84071429D01*
X73482381Y-83928571D01*
X73482381Y-83833333D01*
X73530000Y-83690476D01*
X73577619Y-83642857D01*
X73577619Y-83261905D02*
X73530000Y-83214286D01*
X73482381Y-83119048D01*
X73482381Y-82880952D01*
X73530000Y-82785714D01*
X73577619Y-82738095D01*
X73672857Y-82690476D01*
X73768095Y-82690476D01*
X73910952Y-82738095D01*
X74482381Y-83309524D01*
X74482381Y-82690476D01*
X73910952Y-82119048D02*
X73863333Y-82214286D01*
X73815714Y-82261905D01*
X73720476Y-82309524D01*
X73672857Y-82309524D01*
X73577619Y-82261905D01*
X73530000Y-82214286D01*
X73482381Y-82119048D01*
X73482381Y-81928571D01*
X73530000Y-81833333D01*
X73577619Y-81785714D01*
X73672857Y-81738095D01*
X73720476Y-81738095D01*
X73815714Y-81785714D01*
X73863333Y-81833333D01*
X73910952Y-81928571D01*
X73910952Y-82119048D01*
X73958571Y-82214286D01*
X74006190Y-82261905D01*
X74101429Y-82309524D01*
X74291905Y-82309524D01*
X74387143Y-82261905D01*
X74434762Y-82214286D01*
X74482381Y-82119048D01*
X74482381Y-81928571D01*
X74434762Y-81833333D01*
X74387143Y-81785714D01*
X74291905Y-81738095D01*
X74101429Y-81738095D01*
X74006190Y-81785714D01*
X73958571Y-81833333D01*
X73910952Y-81928571D01*
X86457143Y-83757143D02*
X86409524Y-83804762D01*
X86266667Y-83852381D01*
X86171429Y-83852381D01*
X86028571Y-83804762D01*
X85933333Y-83709524D01*
X85885714Y-83614286D01*
X85838095Y-83423810D01*
X85838095Y-83280952D01*
X85885714Y-83090476D01*
X85933333Y-82995238D01*
X86028571Y-82900000D01*
X86171429Y-82852381D01*
X86266667Y-82852381D01*
X86409524Y-82900000D01*
X86457143Y-82947619D01*
X86838095Y-82947619D02*
X86885714Y-82900000D01*
X86980952Y-82852381D01*
X87219048Y-82852381D01*
X87314286Y-82900000D01*
X87361905Y-82947619D01*
X87409524Y-83042857D01*
X87409524Y-83138095D01*
X87361905Y-83280952D01*
X86790476Y-83852381D01*
X87409524Y-83852381D01*
X87885714Y-83852381D02*
X88076190Y-83852381D01*
X88171429Y-83804762D01*
X88219048Y-83757143D01*
X88314286Y-83614286D01*
X88361905Y-83423810D01*
X88361905Y-83042857D01*
X88314286Y-82947619D01*
X88266667Y-82900000D01*
X88171429Y-82852381D01*
X87980952Y-82852381D01*
X87885714Y-82900000D01*
X87838095Y-82947619D01*
X87790476Y-83042857D01*
X87790476Y-83280952D01*
X87838095Y-83376190D01*
X87885714Y-83423810D01*
X87980952Y-83471429D01*
X88171429Y-83471429D01*
X88266667Y-83423810D01*
X88314286Y-83376190D01*
X88361905Y-83280952D01*
X87757143Y-126277143D02*
X87709524Y-126324762D01*
X87566667Y-126372381D01*
X87471429Y-126372381D01*
X87328571Y-126324762D01*
X87233333Y-126229524D01*
X87185714Y-126134286D01*
X87138095Y-125943810D01*
X87138095Y-125800952D01*
X87185714Y-125610476D01*
X87233333Y-125515238D01*
X87328571Y-125420000D01*
X87471429Y-125372381D01*
X87566667Y-125372381D01*
X87709524Y-125420000D01*
X87757143Y-125467619D01*
X88090476Y-125372381D02*
X88709524Y-125372381D01*
X88376190Y-125753333D01*
X88519048Y-125753333D01*
X88614286Y-125800952D01*
X88661905Y-125848571D01*
X88709524Y-125943810D01*
X88709524Y-126181905D01*
X88661905Y-126277143D01*
X88614286Y-126324762D01*
X88519048Y-126372381D01*
X88233333Y-126372381D01*
X88138095Y-126324762D01*
X88090476Y-126277143D01*
X89328571Y-125372381D02*
X89423810Y-125372381D01*
X89519048Y-125420000D01*
X89566667Y-125467619D01*
X89614286Y-125562857D01*
X89661905Y-125753333D01*
X89661905Y-125991429D01*
X89614286Y-126181905D01*
X89566667Y-126277143D01*
X89519048Y-126324762D01*
X89423810Y-126372381D01*
X89328571Y-126372381D01*
X89233333Y-126324762D01*
X89185714Y-126277143D01*
X89138095Y-126181905D01*
X89090476Y-125991429D01*
X89090476Y-125753333D01*
X89138095Y-125562857D01*
X89185714Y-125467619D01*
X89233333Y-125420000D01*
X89328571Y-125372381D01*
X83257143Y-83987143D02*
X83209524Y-84034762D01*
X83066667Y-84082381D01*
X82971429Y-84082381D01*
X82828571Y-84034762D01*
X82733333Y-83939524D01*
X82685714Y-83844286D01*
X82638095Y-83653810D01*
X82638095Y-83510952D01*
X82685714Y-83320476D01*
X82733333Y-83225238D01*
X82828571Y-83130000D01*
X82971429Y-83082381D01*
X83066667Y-83082381D01*
X83209524Y-83130000D01*
X83257143Y-83177619D01*
X83590476Y-83082381D02*
X84209524Y-83082381D01*
X83876190Y-83463333D01*
X84019048Y-83463333D01*
X84114286Y-83510952D01*
X84161905Y-83558571D01*
X84209524Y-83653810D01*
X84209524Y-83891905D01*
X84161905Y-83987143D01*
X84114286Y-84034762D01*
X84019048Y-84082381D01*
X83733333Y-84082381D01*
X83638095Y-84034762D01*
X83590476Y-83987143D01*
X84590476Y-83177619D02*
X84638095Y-83130000D01*
X84733333Y-83082381D01*
X84971429Y-83082381D01*
X85066667Y-83130000D01*
X85114286Y-83177619D01*
X85161905Y-83272857D01*
X85161905Y-83368095D01*
X85114286Y-83510952D01*
X84542857Y-84082381D01*
X85161905Y-84082381D01*
X84457143Y-127942857D02*
X84504762Y-127990476D01*
X84552381Y-128133333D01*
X84552381Y-128228571D01*
X84504762Y-128371429D01*
X84409524Y-128466667D01*
X84314286Y-128514286D01*
X84123810Y-128561905D01*
X83980952Y-128561905D01*
X83790476Y-128514286D01*
X83695238Y-128466667D01*
X83600000Y-128371429D01*
X83552381Y-128228571D01*
X83552381Y-128133333D01*
X83600000Y-127990476D01*
X83647619Y-127942857D01*
X83552381Y-127609524D02*
X83552381Y-126990476D01*
X83933333Y-127323810D01*
X83933333Y-127180952D01*
X83980952Y-127085714D01*
X84028571Y-127038095D01*
X84123810Y-126990476D01*
X84361905Y-126990476D01*
X84457143Y-127038095D01*
X84504762Y-127085714D01*
X84552381Y-127180952D01*
X84552381Y-127466667D01*
X84504762Y-127561905D01*
X84457143Y-127609524D01*
X83552381Y-126657143D02*
X83552381Y-126038095D01*
X83933333Y-126371429D01*
X83933333Y-126228571D01*
X83980952Y-126133333D01*
X84028571Y-126085714D01*
X84123810Y-126038095D01*
X84361905Y-126038095D01*
X84457143Y-126085714D01*
X84504762Y-126133333D01*
X84552381Y-126228571D01*
X84552381Y-126514286D01*
X84504762Y-126609524D01*
X84457143Y-126657143D01*
X79457143Y-87142857D02*
X79504762Y-87190476D01*
X79552381Y-87333333D01*
X79552381Y-87428571D01*
X79504762Y-87571429D01*
X79409524Y-87666667D01*
X79314286Y-87714286D01*
X79123810Y-87761905D01*
X78980952Y-87761905D01*
X78790476Y-87714286D01*
X78695238Y-87666667D01*
X78600000Y-87571429D01*
X78552381Y-87428571D01*
X78552381Y-87333333D01*
X78600000Y-87190476D01*
X78647619Y-87142857D01*
X78552381Y-86809524D02*
X78552381Y-86190476D01*
X78933333Y-86523810D01*
X78933333Y-86380952D01*
X78980952Y-86285714D01*
X79028571Y-86238095D01*
X79123810Y-86190476D01*
X79361905Y-86190476D01*
X79457143Y-86238095D01*
X79504762Y-86285714D01*
X79552381Y-86380952D01*
X79552381Y-86666667D01*
X79504762Y-86761905D01*
X79457143Y-86809524D01*
X78552381Y-85285714D02*
X78552381Y-85761905D01*
X79028571Y-85809524D01*
X78980952Y-85761905D01*
X78933333Y-85666667D01*
X78933333Y-85428571D01*
X78980952Y-85333333D01*
X79028571Y-85285714D01*
X79123810Y-85238095D01*
X79361905Y-85238095D01*
X79457143Y-85285714D01*
X79504762Y-85333333D01*
X79552381Y-85428571D01*
X79552381Y-85666667D01*
X79504762Y-85761905D01*
X79457143Y-85809524D01*
X80157143Y-82887143D02*
X80109524Y-82934762D01*
X79966667Y-82982381D01*
X79871429Y-82982381D01*
X79728571Y-82934762D01*
X79633333Y-82839524D01*
X79585714Y-82744286D01*
X79538095Y-82553810D01*
X79538095Y-82410952D01*
X79585714Y-82220476D01*
X79633333Y-82125238D01*
X79728571Y-82030000D01*
X79871429Y-81982381D01*
X79966667Y-81982381D01*
X80109524Y-82030000D01*
X80157143Y-82077619D01*
X80490476Y-81982381D02*
X81109524Y-81982381D01*
X80776190Y-82363333D01*
X80919048Y-82363333D01*
X81014286Y-82410952D01*
X81061905Y-82458571D01*
X81109524Y-82553810D01*
X81109524Y-82791905D01*
X81061905Y-82887143D01*
X81014286Y-82934762D01*
X80919048Y-82982381D01*
X80633333Y-82982381D01*
X80538095Y-82934762D01*
X80490476Y-82887143D01*
X81966667Y-81982381D02*
X81776190Y-81982381D01*
X81680952Y-82030000D01*
X81633333Y-82077619D01*
X81538095Y-82220476D01*
X81490476Y-82410952D01*
X81490476Y-82791905D01*
X81538095Y-82887143D01*
X81585714Y-82934762D01*
X81680952Y-82982381D01*
X81871429Y-82982381D01*
X81966667Y-82934762D01*
X82014286Y-82887143D01*
X82061905Y-82791905D01*
X82061905Y-82553810D01*
X82014286Y-82458571D01*
X81966667Y-82410952D01*
X81871429Y-82363333D01*
X81680952Y-82363333D01*
X81585714Y-82410952D01*
X81538095Y-82458571D01*
X81490476Y-82553810D01*
X76257143Y-93457143D02*
X76209524Y-93504762D01*
X76066667Y-93552381D01*
X75971429Y-93552381D01*
X75828571Y-93504762D01*
X75733333Y-93409524D01*
X75685714Y-93314286D01*
X75638095Y-93123810D01*
X75638095Y-92980952D01*
X75685714Y-92790476D01*
X75733333Y-92695238D01*
X75828571Y-92600000D01*
X75971429Y-92552381D01*
X76066667Y-92552381D01*
X76209524Y-92600000D01*
X76257143Y-92647619D01*
X76590476Y-92552381D02*
X77209524Y-92552381D01*
X76876190Y-92933333D01*
X77019048Y-92933333D01*
X77114286Y-92980952D01*
X77161905Y-93028571D01*
X77209524Y-93123810D01*
X77209524Y-93361905D01*
X77161905Y-93457143D01*
X77114286Y-93504762D01*
X77019048Y-93552381D01*
X76733333Y-93552381D01*
X76638095Y-93504762D01*
X76590476Y-93457143D01*
X77542857Y-92552381D02*
X78209524Y-92552381D01*
X77780952Y-93552381D01*
D11*
X60728571Y-82914286D02*
X60785714Y-82952381D01*
X60842857Y-83066667D01*
X60842857Y-83142857D01*
X60785714Y-83257143D01*
X60671429Y-83333334D01*
X60557143Y-83371429D01*
X60328571Y-83409524D01*
X60157143Y-83409524D01*
X59928571Y-83371429D01*
X59814286Y-83333334D01*
X59700000Y-83257143D01*
X59642857Y-83142857D01*
X59642857Y-83066667D01*
X59700000Y-82952381D01*
X59757143Y-82914286D01*
X59642857Y-82647619D02*
X59642857Y-82152381D01*
X60100000Y-82419048D01*
X60100000Y-82304762D01*
X60157143Y-82228572D01*
X60214286Y-82190476D01*
X60328571Y-82152381D01*
X60614286Y-82152381D01*
X60728571Y-82190476D01*
X60785714Y-82228572D01*
X60842857Y-82304762D01*
X60842857Y-82533334D01*
X60785714Y-82609524D01*
X60728571Y-82647619D01*
X60157143Y-81695238D02*
X60100000Y-81771429D01*
X60042857Y-81809524D01*
X59928571Y-81847619D01*
X59871429Y-81847619D01*
X59757143Y-81809524D01*
X59700000Y-81771429D01*
X59642857Y-81695238D01*
X59642857Y-81542857D01*
X59700000Y-81466667D01*
X59757143Y-81428571D01*
X59871429Y-81390476D01*
X59928571Y-81390476D01*
X60042857Y-81428571D01*
X60100000Y-81466667D01*
X60157143Y-81542857D01*
X60157143Y-81695238D01*
X60214286Y-81771429D01*
X60271429Y-81809524D01*
X60385714Y-81847619D01*
X60614286Y-81847619D01*
X60728571Y-81809524D01*
X60785714Y-81771429D01*
X60842857Y-81695238D01*
X60842857Y-81542857D01*
X60785714Y-81466667D01*
X60728571Y-81428571D01*
X60614286Y-81390476D01*
X60385714Y-81390476D01*
X60271429Y-81428571D01*
X60214286Y-81466667D01*
X60157143Y-81542857D01*
D13*
X89357143Y-89114286D02*
X89404762Y-89152381D01*
X89452381Y-89266667D01*
X89452381Y-89342857D01*
X89404762Y-89457143D01*
X89309524Y-89533334D01*
X89214286Y-89571429D01*
X89023810Y-89609524D01*
X88880952Y-89609524D01*
X88690476Y-89571429D01*
X88595238Y-89533334D01*
X88500000Y-89457143D01*
X88452381Y-89342857D01*
X88452381Y-89266667D01*
X88500000Y-89152381D01*
X88547619Y-89114286D01*
X88452381Y-88847619D02*
X88452381Y-88352381D01*
X88833333Y-88619048D01*
X88833333Y-88504762D01*
X88880952Y-88428572D01*
X88928571Y-88390476D01*
X89023810Y-88352381D01*
X89261905Y-88352381D01*
X89357143Y-88390476D01*
X89404762Y-88428572D01*
X89452381Y-88504762D01*
X89452381Y-88733334D01*
X89404762Y-88809524D01*
X89357143Y-88847619D01*
X89452381Y-87971429D02*
X89452381Y-87819048D01*
X89404762Y-87742857D01*
X89357143Y-87704762D01*
X89214286Y-87628571D01*
X89023810Y-87590476D01*
X88642857Y-87590476D01*
X88547619Y-87628571D01*
X88500000Y-87666667D01*
X88452381Y-87742857D01*
X88452381Y-87895238D01*
X88500000Y-87971429D01*
X88547619Y-88009524D01*
X88642857Y-88047619D01*
X88880952Y-88047619D01*
X88976190Y-88009524D01*
X89023810Y-87971429D01*
X89071429Y-87895238D01*
X89071429Y-87742857D01*
X89023810Y-87666667D01*
X88976190Y-87628571D01*
X88880952Y-87590476D01*
D11*
X66385714Y-82028571D02*
X66347619Y-82085714D01*
X66233333Y-82142857D01*
X66157143Y-82142857D01*
X66042857Y-82085714D01*
X65966666Y-81971429D01*
X65928571Y-81857143D01*
X65890476Y-81628571D01*
X65890476Y-81457143D01*
X65928571Y-81228571D01*
X65966666Y-81114286D01*
X66042857Y-81000000D01*
X66157143Y-80942857D01*
X66233333Y-80942857D01*
X66347619Y-81000000D01*
X66385714Y-81057143D01*
X67071428Y-81342857D02*
X67071428Y-82142857D01*
X66880952Y-80885714D02*
X66690476Y-81742857D01*
X67185714Y-81742857D01*
X67642857Y-80942857D02*
X67719048Y-80942857D01*
X67795238Y-81000000D01*
X67833333Y-81057143D01*
X67871429Y-81171429D01*
X67909524Y-81400000D01*
X67909524Y-81685714D01*
X67871429Y-81914286D01*
X67833333Y-82028571D01*
X67795238Y-82085714D01*
X67719048Y-82142857D01*
X67642857Y-82142857D01*
X67566667Y-82085714D01*
X67528571Y-82028571D01*
X67490476Y-81914286D01*
X67452381Y-81685714D01*
X67452381Y-81400000D01*
X67490476Y-81171429D01*
X67528571Y-81057143D01*
X67566667Y-81000000D01*
X67642857Y-80942857D01*
X66285714Y-92428571D02*
X66247619Y-92485714D01*
X66133333Y-92542857D01*
X66057143Y-92542857D01*
X65942857Y-92485714D01*
X65866666Y-92371429D01*
X65828571Y-92257143D01*
X65790476Y-92028571D01*
X65790476Y-91857143D01*
X65828571Y-91628571D01*
X65866666Y-91514286D01*
X65942857Y-91400000D01*
X66057143Y-91342857D01*
X66133333Y-91342857D01*
X66247619Y-91400000D01*
X66285714Y-91457143D01*
X66971428Y-91742857D02*
X66971428Y-92542857D01*
X66780952Y-91285714D02*
X66590476Y-92142857D01*
X67085714Y-92142857D01*
X67809524Y-92542857D02*
X67352381Y-92542857D01*
X67580952Y-92542857D02*
X67580952Y-91342857D01*
X67504762Y-91514286D01*
X67428571Y-91628571D01*
X67352381Y-91685714D01*
X54128571Y-83014286D02*
X54185714Y-83052381D01*
X54242857Y-83166667D01*
X54242857Y-83242857D01*
X54185714Y-83357143D01*
X54071429Y-83433334D01*
X53957143Y-83471429D01*
X53728571Y-83509524D01*
X53557143Y-83509524D01*
X53328571Y-83471429D01*
X53214286Y-83433334D01*
X53100000Y-83357143D01*
X53042857Y-83242857D01*
X53042857Y-83166667D01*
X53100000Y-83052381D01*
X53157143Y-83014286D01*
X53442857Y-82328572D02*
X54242857Y-82328572D01*
X52985714Y-82519048D02*
X53842857Y-82709524D01*
X53842857Y-82214286D01*
X53157143Y-81947619D02*
X53100000Y-81909524D01*
X53042857Y-81833333D01*
X53042857Y-81642857D01*
X53100000Y-81566667D01*
X53157143Y-81528571D01*
X53271429Y-81490476D01*
X53385714Y-81490476D01*
X53557143Y-81528571D01*
X54242857Y-81985714D01*
X54242857Y-81490476D01*
X60228571Y-86014286D02*
X60285714Y-86052381D01*
X60342857Y-86166667D01*
X60342857Y-86242857D01*
X60285714Y-86357143D01*
X60171429Y-86433334D01*
X60057143Y-86471429D01*
X59828571Y-86509524D01*
X59657143Y-86509524D01*
X59428571Y-86471429D01*
X59314286Y-86433334D01*
X59200000Y-86357143D01*
X59142857Y-86242857D01*
X59142857Y-86166667D01*
X59200000Y-86052381D01*
X59257143Y-86014286D01*
X59542857Y-85328572D02*
X60342857Y-85328572D01*
X59085714Y-85519048D02*
X59942857Y-85709524D01*
X59942857Y-85214286D01*
X59142857Y-84985714D02*
X59142857Y-84490476D01*
X59600000Y-84757143D01*
X59600000Y-84642857D01*
X59657143Y-84566667D01*
X59714286Y-84528571D01*
X59828571Y-84490476D01*
X60114286Y-84490476D01*
X60228571Y-84528571D01*
X60285714Y-84566667D01*
X60342857Y-84642857D01*
X60342857Y-84871429D01*
X60285714Y-84947619D01*
X60228571Y-84985714D01*
X64088571Y-91924286D02*
X64145714Y-91962381D01*
X64202857Y-92076667D01*
X64202857Y-92152857D01*
X64145714Y-92267143D01*
X64031429Y-92343334D01*
X63917143Y-92381429D01*
X63688571Y-92419524D01*
X63517143Y-92419524D01*
X63288571Y-92381429D01*
X63174286Y-92343334D01*
X63060000Y-92267143D01*
X63002857Y-92152857D01*
X63002857Y-92076667D01*
X63060000Y-91962381D01*
X63117143Y-91924286D01*
X63402857Y-91238572D02*
X64202857Y-91238572D01*
X62945714Y-91429048D02*
X63802857Y-91619524D01*
X63802857Y-91124286D01*
X63402857Y-90476667D02*
X64202857Y-90476667D01*
X62945714Y-90667143D02*
X63802857Y-90857619D01*
X63802857Y-90362381D01*
X52228571Y-83014286D02*
X52285714Y-83052381D01*
X52342857Y-83166667D01*
X52342857Y-83242857D01*
X52285714Y-83357143D01*
X52171429Y-83433334D01*
X52057143Y-83471429D01*
X51828571Y-83509524D01*
X51657143Y-83509524D01*
X51428571Y-83471429D01*
X51314286Y-83433334D01*
X51200000Y-83357143D01*
X51142857Y-83242857D01*
X51142857Y-83166667D01*
X51200000Y-83052381D01*
X51257143Y-83014286D01*
X51542857Y-82328572D02*
X52342857Y-82328572D01*
X51085714Y-82519048D02*
X51942857Y-82709524D01*
X51942857Y-82214286D01*
X51142857Y-81528571D02*
X51142857Y-81909524D01*
X51714286Y-81947619D01*
X51657143Y-81909524D01*
X51600000Y-81833333D01*
X51600000Y-81642857D01*
X51657143Y-81566667D01*
X51714286Y-81528571D01*
X51828571Y-81490476D01*
X52114286Y-81490476D01*
X52228571Y-81528571D01*
X52285714Y-81566667D01*
X52342857Y-81642857D01*
X52342857Y-81833333D01*
X52285714Y-81909524D01*
X52228571Y-81947619D01*
X51128571Y-88214286D02*
X51185714Y-88252381D01*
X51242857Y-88366667D01*
X51242857Y-88442857D01*
X51185714Y-88557143D01*
X51071429Y-88633334D01*
X50957143Y-88671429D01*
X50728571Y-88709524D01*
X50557143Y-88709524D01*
X50328571Y-88671429D01*
X50214286Y-88633334D01*
X50100000Y-88557143D01*
X50042857Y-88442857D01*
X50042857Y-88366667D01*
X50100000Y-88252381D01*
X50157143Y-88214286D01*
X50442857Y-87528572D02*
X51242857Y-87528572D01*
X49985714Y-87719048D02*
X50842857Y-87909524D01*
X50842857Y-87414286D01*
X50042857Y-86766667D02*
X50042857Y-86919048D01*
X50100000Y-86995238D01*
X50157143Y-87033333D01*
X50328571Y-87109524D01*
X50557143Y-87147619D01*
X51014286Y-87147619D01*
X51128571Y-87109524D01*
X51185714Y-87071429D01*
X51242857Y-86995238D01*
X51242857Y-86842857D01*
X51185714Y-86766667D01*
X51128571Y-86728571D01*
X51014286Y-86690476D01*
X50728571Y-86690476D01*
X50614286Y-86728571D01*
X50557143Y-86766667D01*
X50500000Y-86842857D01*
X50500000Y-86995238D01*
X50557143Y-87071429D01*
X50614286Y-87109524D01*
X50728571Y-87147619D01*
X54085714Y-88428571D02*
X54047619Y-88485714D01*
X53933333Y-88542857D01*
X53857143Y-88542857D01*
X53742857Y-88485714D01*
X53666666Y-88371429D01*
X53628571Y-88257143D01*
X53590476Y-88028571D01*
X53590476Y-87857143D01*
X53628571Y-87628571D01*
X53666666Y-87514286D01*
X53742857Y-87400000D01*
X53857143Y-87342857D01*
X53933333Y-87342857D01*
X54047619Y-87400000D01*
X54085714Y-87457143D01*
X54771428Y-87742857D02*
X54771428Y-88542857D01*
X54580952Y-87285714D02*
X54390476Y-88142857D01*
X54885714Y-88142857D01*
X55114286Y-87342857D02*
X55647619Y-87342857D01*
X55304762Y-88542857D01*
D13*
X80957143Y-87757143D02*
X80909524Y-87804762D01*
X80766667Y-87852381D01*
X80671429Y-87852381D01*
X80528571Y-87804762D01*
X80433333Y-87709524D01*
X80385714Y-87614286D01*
X80338095Y-87423810D01*
X80338095Y-87280952D01*
X80385714Y-87090476D01*
X80433333Y-86995238D01*
X80528571Y-86900000D01*
X80671429Y-86852381D01*
X80766667Y-86852381D01*
X80909524Y-86900000D01*
X80957143Y-86947619D01*
X81814286Y-87185714D02*
X81814286Y-87852381D01*
X81576190Y-86804762D02*
X81338095Y-87519048D01*
X81957143Y-87519048D01*
X82480952Y-87280952D02*
X82385714Y-87233333D01*
X82338095Y-87185714D01*
X82290476Y-87090476D01*
X82290476Y-87042857D01*
X82338095Y-86947619D01*
X82385714Y-86900000D01*
X82480952Y-86852381D01*
X82671429Y-86852381D01*
X82766667Y-86900000D01*
X82814286Y-86947619D01*
X82861905Y-87042857D01*
X82861905Y-87090476D01*
X82814286Y-87185714D01*
X82766667Y-87233333D01*
X82671429Y-87280952D01*
X82480952Y-87280952D01*
X82385714Y-87328571D01*
X82338095Y-87376190D01*
X82290476Y-87471429D01*
X82290476Y-87661905D01*
X82338095Y-87757143D01*
X82385714Y-87804762D01*
X82480952Y-87852381D01*
X82671429Y-87852381D01*
X82766667Y-87804762D01*
X82814286Y-87757143D01*
X82861905Y-87661905D01*
X82861905Y-87471429D01*
X82814286Y-87376190D01*
X82766667Y-87328571D01*
X82671429Y-87280952D01*
X86157143Y-93057143D02*
X86109524Y-93104762D01*
X85966667Y-93152381D01*
X85871429Y-93152381D01*
X85728571Y-93104762D01*
X85633333Y-93009524D01*
X85585714Y-92914286D01*
X85538095Y-92723810D01*
X85538095Y-92580952D01*
X85585714Y-92390476D01*
X85633333Y-92295238D01*
X85728571Y-92200000D01*
X85871429Y-92152381D01*
X85966667Y-92152381D01*
X86109524Y-92200000D01*
X86157143Y-92247619D01*
X87061905Y-92152381D02*
X86585714Y-92152381D01*
X86538095Y-92628571D01*
X86585714Y-92580952D01*
X86680952Y-92533333D01*
X86919048Y-92533333D01*
X87014286Y-92580952D01*
X87061905Y-92628571D01*
X87109524Y-92723810D01*
X87109524Y-92961905D01*
X87061905Y-93057143D01*
X87014286Y-93104762D01*
X86919048Y-93152381D01*
X86680952Y-93152381D01*
X86585714Y-93104762D01*
X86538095Y-93057143D01*
X87490476Y-92247619D02*
X87538095Y-92200000D01*
X87633333Y-92152381D01*
X87871429Y-92152381D01*
X87966667Y-92200000D01*
X88014286Y-92247619D01*
X88061905Y-92342857D01*
X88061905Y-92438095D01*
X88014286Y-92580952D01*
X87442857Y-93152381D01*
X88061905Y-93152381D01*
X97857143Y-120657143D02*
X97809524Y-120704762D01*
X97666667Y-120752381D01*
X97571429Y-120752381D01*
X97428571Y-120704762D01*
X97333333Y-120609524D01*
X97285714Y-120514286D01*
X97238095Y-120323810D01*
X97238095Y-120180952D01*
X97285714Y-119990476D01*
X97333333Y-119895238D01*
X97428571Y-119800000D01*
X97571429Y-119752381D01*
X97666667Y-119752381D01*
X97809524Y-119800000D01*
X97857143Y-119847619D01*
X98761905Y-119752381D02*
X98285714Y-119752381D01*
X98238095Y-120228571D01*
X98285714Y-120180952D01*
X98380952Y-120133333D01*
X98619048Y-120133333D01*
X98714286Y-120180952D01*
X98761905Y-120228571D01*
X98809524Y-120323810D01*
X98809524Y-120561905D01*
X98761905Y-120657143D01*
X98714286Y-120704762D01*
X98619048Y-120752381D01*
X98380952Y-120752381D01*
X98285714Y-120704762D01*
X98238095Y-120657143D01*
X99142857Y-119752381D02*
X99809524Y-119752381D01*
X99380952Y-120752381D01*
X98257143Y-100657143D02*
X98209524Y-100704762D01*
X98066667Y-100752381D01*
X97971429Y-100752381D01*
X97828571Y-100704762D01*
X97733333Y-100609524D01*
X97685714Y-100514286D01*
X97638095Y-100323810D01*
X97638095Y-100180952D01*
X97685714Y-99990476D01*
X97733333Y-99895238D01*
X97828571Y-99800000D01*
X97971429Y-99752381D01*
X98066667Y-99752381D01*
X98209524Y-99800000D01*
X98257143Y-99847619D01*
X99161905Y-99752381D02*
X98685714Y-99752381D01*
X98638095Y-100228571D01*
X98685714Y-100180952D01*
X98780952Y-100133333D01*
X99019048Y-100133333D01*
X99114286Y-100180952D01*
X99161905Y-100228571D01*
X99209524Y-100323810D01*
X99209524Y-100561905D01*
X99161905Y-100657143D01*
X99114286Y-100704762D01*
X99019048Y-100752381D01*
X98780952Y-100752381D01*
X98685714Y-100704762D01*
X98638095Y-100657143D01*
X99780952Y-100180952D02*
X99685714Y-100133333D01*
X99638095Y-100085714D01*
X99590476Y-99990476D01*
X99590476Y-99942857D01*
X99638095Y-99847619D01*
X99685714Y-99800000D01*
X99780952Y-99752381D01*
X99971429Y-99752381D01*
X100066667Y-99800000D01*
X100114286Y-99847619D01*
X100161905Y-99942857D01*
X100161905Y-99990476D01*
X100114286Y-100085714D01*
X100066667Y-100133333D01*
X99971429Y-100180952D01*
X99780952Y-100180952D01*
X99685714Y-100228571D01*
X99638095Y-100276190D01*
X99590476Y-100371429D01*
X99590476Y-100561905D01*
X99638095Y-100657143D01*
X99685714Y-100704762D01*
X99780952Y-100752381D01*
X99971429Y-100752381D01*
X100066667Y-100704762D01*
X100114286Y-100657143D01*
X100161905Y-100561905D01*
X100161905Y-100371429D01*
X100114286Y-100276190D01*
X100066667Y-100228571D01*
X99971429Y-100180952D01*
X83357143Y-91027143D02*
X83309524Y-91074762D01*
X83166667Y-91122381D01*
X83071429Y-91122381D01*
X82928571Y-91074762D01*
X82833333Y-90979524D01*
X82785714Y-90884286D01*
X82738095Y-90693810D01*
X82738095Y-90550952D01*
X82785714Y-90360476D01*
X82833333Y-90265238D01*
X82928571Y-90170000D01*
X83071429Y-90122381D01*
X83166667Y-90122381D01*
X83309524Y-90170000D01*
X83357143Y-90217619D01*
X84261905Y-90122381D02*
X83785714Y-90122381D01*
X83738095Y-90598571D01*
X83785714Y-90550952D01*
X83880952Y-90503333D01*
X84119048Y-90503333D01*
X84214286Y-90550952D01*
X84261905Y-90598571D01*
X84309524Y-90693810D01*
X84309524Y-90931905D01*
X84261905Y-91027143D01*
X84214286Y-91074762D01*
X84119048Y-91122381D01*
X83880952Y-91122381D01*
X83785714Y-91074762D01*
X83738095Y-91027143D01*
X84785714Y-91122381D02*
X84976190Y-91122381D01*
X85071429Y-91074762D01*
X85119048Y-91027143D01*
X85214286Y-90884286D01*
X85261905Y-90693810D01*
X85261905Y-90312857D01*
X85214286Y-90217619D01*
X85166667Y-90170000D01*
X85071429Y-90122381D01*
X84880952Y-90122381D01*
X84785714Y-90170000D01*
X84738095Y-90217619D01*
X84690476Y-90312857D01*
X84690476Y-90550952D01*
X84738095Y-90646190D01*
X84785714Y-90693810D01*
X84880952Y-90741429D01*
X85071429Y-90741429D01*
X85166667Y-90693810D01*
X85214286Y-90646190D01*
X85261905Y-90550952D01*
X83757143Y-87557143D02*
X83709524Y-87604762D01*
X83566667Y-87652381D01*
X83471429Y-87652381D01*
X83328571Y-87604762D01*
X83233333Y-87509524D01*
X83185714Y-87414286D01*
X83138095Y-87223810D01*
X83138095Y-87080952D01*
X83185714Y-86890476D01*
X83233333Y-86795238D01*
X83328571Y-86700000D01*
X83471429Y-86652381D01*
X83566667Y-86652381D01*
X83709524Y-86700000D01*
X83757143Y-86747619D01*
X84614286Y-86652381D02*
X84423809Y-86652381D01*
X84328571Y-86700000D01*
X84280952Y-86747619D01*
X84185714Y-86890476D01*
X84138095Y-87080952D01*
X84138095Y-87461905D01*
X84185714Y-87557143D01*
X84233333Y-87604762D01*
X84328571Y-87652381D01*
X84519048Y-87652381D01*
X84614286Y-87604762D01*
X84661905Y-87557143D01*
X84709524Y-87461905D01*
X84709524Y-87223810D01*
X84661905Y-87128571D01*
X84614286Y-87080952D01*
X84519048Y-87033333D01*
X84328571Y-87033333D01*
X84233333Y-87080952D01*
X84185714Y-87128571D01*
X84138095Y-87223810D01*
X85328571Y-86652381D02*
X85423810Y-86652381D01*
X85519048Y-86700000D01*
X85566667Y-86747619D01*
X85614286Y-86842857D01*
X85661905Y-87033333D01*
X85661905Y-87271429D01*
X85614286Y-87461905D01*
X85566667Y-87557143D01*
X85519048Y-87604762D01*
X85423810Y-87652381D01*
X85328571Y-87652381D01*
X85233333Y-87604762D01*
X85185714Y-87557143D01*
X85138095Y-87461905D01*
X85090476Y-87271429D01*
X85090476Y-87033333D01*
X85138095Y-86842857D01*
X85185714Y-86747619D01*
X85233333Y-86700000D01*
X85328571Y-86652381D01*
X97657143Y-116557143D02*
X97609524Y-116604762D01*
X97466667Y-116652381D01*
X97371429Y-116652381D01*
X97228571Y-116604762D01*
X97133333Y-116509524D01*
X97085714Y-116414286D01*
X97038095Y-116223810D01*
X97038095Y-116080952D01*
X97085714Y-115890476D01*
X97133333Y-115795238D01*
X97228571Y-115700000D01*
X97371429Y-115652381D01*
X97466667Y-115652381D01*
X97609524Y-115700000D01*
X97657143Y-115747619D01*
X98514286Y-115652381D02*
X98323809Y-115652381D01*
X98228571Y-115700000D01*
X98180952Y-115747619D01*
X98085714Y-115890476D01*
X98038095Y-116080952D01*
X98038095Y-116461905D01*
X98085714Y-116557143D01*
X98133333Y-116604762D01*
X98228571Y-116652381D01*
X98419048Y-116652381D01*
X98514286Y-116604762D01*
X98561905Y-116557143D01*
X98609524Y-116461905D01*
X98609524Y-116223810D01*
X98561905Y-116128571D01*
X98514286Y-116080952D01*
X98419048Y-116033333D01*
X98228571Y-116033333D01*
X98133333Y-116080952D01*
X98085714Y-116128571D01*
X98038095Y-116223810D01*
X99561905Y-116652381D02*
X98990476Y-116652381D01*
X99276190Y-116652381D02*
X99276190Y-115652381D01*
X99180952Y-115795238D01*
X99085714Y-115890476D01*
X98990476Y-115938095D01*
X98157143Y-97857143D02*
X98109524Y-97904762D01*
X97966667Y-97952381D01*
X97871429Y-97952381D01*
X97728571Y-97904762D01*
X97633333Y-97809524D01*
X97585714Y-97714286D01*
X97538095Y-97523810D01*
X97538095Y-97380952D01*
X97585714Y-97190476D01*
X97633333Y-97095238D01*
X97728571Y-97000000D01*
X97871429Y-96952381D01*
X97966667Y-96952381D01*
X98109524Y-97000000D01*
X98157143Y-97047619D01*
X99014286Y-96952381D02*
X98823809Y-96952381D01*
X98728571Y-97000000D01*
X98680952Y-97047619D01*
X98585714Y-97190476D01*
X98538095Y-97380952D01*
X98538095Y-97761905D01*
X98585714Y-97857143D01*
X98633333Y-97904762D01*
X98728571Y-97952381D01*
X98919048Y-97952381D01*
X99014286Y-97904762D01*
X99061905Y-97857143D01*
X99109524Y-97761905D01*
X99109524Y-97523810D01*
X99061905Y-97428571D01*
X99014286Y-97380952D01*
X98919048Y-97333333D01*
X98728571Y-97333333D01*
X98633333Y-97380952D01*
X98585714Y-97428571D01*
X98538095Y-97523810D01*
X99490476Y-97047619D02*
X99538095Y-97000000D01*
X99633333Y-96952381D01*
X99871429Y-96952381D01*
X99966667Y-97000000D01*
X100014286Y-97047619D01*
X100061905Y-97142857D01*
X100061905Y-97238095D01*
X100014286Y-97380952D01*
X99442857Y-97952381D01*
X100061905Y-97952381D01*
D11*
X51585714Y-92428571D02*
X51547619Y-92485714D01*
X51433333Y-92542857D01*
X51357143Y-92542857D01*
X51242857Y-92485714D01*
X51166666Y-92371429D01*
X51128571Y-92257143D01*
X51090476Y-92028571D01*
X51090476Y-91857143D01*
X51128571Y-91628571D01*
X51166666Y-91514286D01*
X51242857Y-91400000D01*
X51357143Y-91342857D01*
X51433333Y-91342857D01*
X51547619Y-91400000D01*
X51585714Y-91457143D01*
X52271428Y-91342857D02*
X52119047Y-91342857D01*
X52042857Y-91400000D01*
X52004762Y-91457143D01*
X51928571Y-91628571D01*
X51890476Y-91857143D01*
X51890476Y-92314286D01*
X51928571Y-92428571D01*
X51966666Y-92485714D01*
X52042857Y-92542857D01*
X52195238Y-92542857D01*
X52271428Y-92485714D01*
X52309524Y-92428571D01*
X52347619Y-92314286D01*
X52347619Y-92028571D01*
X52309524Y-91914286D01*
X52271428Y-91857143D01*
X52195238Y-91800000D01*
X52042857Y-91800000D01*
X51966666Y-91857143D01*
X51928571Y-91914286D01*
X51890476Y-92028571D01*
X53033333Y-91742857D02*
X53033333Y-92542857D01*
X52842857Y-91285714D02*
X52652381Y-92142857D01*
X53147619Y-92142857D01*
D13*
X82061905Y-130452381D02*
X82061905Y-129452381D01*
X82300000Y-129452381D01*
X82442858Y-129500000D01*
X82538096Y-129595238D01*
X82585715Y-129690476D01*
X82633334Y-129880952D01*
X82633334Y-130023810D01*
X82585715Y-130214286D01*
X82538096Y-130309524D01*
X82442858Y-130404762D01*
X82300000Y-130452381D01*
X82061905Y-130452381D01*
X83585715Y-130452381D02*
X83014286Y-130452381D01*
X83300000Y-130452381D02*
X83300000Y-129452381D01*
X83204762Y-129595238D01*
X83109524Y-129690476D01*
X83014286Y-129738095D01*
D10*
X89930953Y-93776190D02*
X89930953Y-93276190D01*
X90050000Y-93276190D01*
X90121429Y-93300000D01*
X90169048Y-93347619D01*
X90192857Y-93395238D01*
X90216667Y-93490476D01*
X90216667Y-93561905D01*
X90192857Y-93657143D01*
X90169048Y-93704762D01*
X90121429Y-93752381D01*
X90050000Y-93776190D01*
X89930953Y-93776190D01*
X90669048Y-93276190D02*
X90430953Y-93276190D01*
X90407143Y-93514286D01*
X90430953Y-93490476D01*
X90478572Y-93466667D01*
X90597619Y-93466667D01*
X90645238Y-93490476D01*
X90669048Y-93514286D01*
X90692857Y-93561905D01*
X90692857Y-93680952D01*
X90669048Y-93728571D01*
X90645238Y-93752381D01*
X90597619Y-93776190D01*
X90478572Y-93776190D01*
X90430953Y-93752381D01*
X90407143Y-93728571D01*
D13*
X75933334Y-89352381D02*
X75457143Y-89352381D01*
X75457143Y-88352381D01*
X76219048Y-88447619D02*
X76266667Y-88400000D01*
X76361905Y-88352381D01*
X76600001Y-88352381D01*
X76695239Y-88400000D01*
X76742858Y-88447619D01*
X76790477Y-88542857D01*
X76790477Y-88638095D01*
X76742858Y-88780952D01*
X76171429Y-89352381D01*
X76790477Y-89352381D01*
D11*
X57266667Y-82642857D02*
X56885714Y-82642857D01*
X56885714Y-81442857D01*
X57457143Y-81442857D02*
X57952381Y-81442857D01*
X57685714Y-81900000D01*
X57800000Y-81900000D01*
X57876190Y-81957143D01*
X57914286Y-82014286D01*
X57952381Y-82128571D01*
X57952381Y-82414286D01*
X57914286Y-82528571D01*
X57876190Y-82585714D01*
X57800000Y-82642857D01*
X57571428Y-82642857D01*
X57495238Y-82585714D01*
X57457143Y-82528571D01*
X58966667Y-91042857D02*
X58585714Y-91042857D01*
X58585714Y-89842857D01*
X59576190Y-90242857D02*
X59576190Y-91042857D01*
X59385714Y-89785714D02*
X59195238Y-90642857D01*
X59690476Y-90642857D01*
X65866667Y-90242857D02*
X65485714Y-90242857D01*
X65485714Y-89042857D01*
X66514286Y-89042857D02*
X66133333Y-89042857D01*
X66095238Y-89614286D01*
X66133333Y-89557143D01*
X66209524Y-89500000D01*
X66400000Y-89500000D01*
X66476190Y-89557143D01*
X66514286Y-89614286D01*
X66552381Y-89728571D01*
X66552381Y-90014286D01*
X66514286Y-90128571D01*
X66476190Y-90185714D01*
X66400000Y-90242857D01*
X66209524Y-90242857D01*
X66133333Y-90185714D01*
X66095238Y-90128571D01*
D13*
X93852381Y-87866666D02*
X93852381Y-88342857D01*
X92852381Y-88342857D01*
X92852381Y-87104761D02*
X92852381Y-87295238D01*
X92900000Y-87390476D01*
X92947619Y-87438095D01*
X93090476Y-87533333D01*
X93280952Y-87580952D01*
X93661905Y-87580952D01*
X93757143Y-87533333D01*
X93804762Y-87485714D01*
X93852381Y-87390476D01*
X93852381Y-87199999D01*
X93804762Y-87104761D01*
X93757143Y-87057142D01*
X93661905Y-87009523D01*
X93423810Y-87009523D01*
X93328571Y-87057142D01*
X93280952Y-87104761D01*
X93233333Y-87199999D01*
X93233333Y-87390476D01*
X93280952Y-87485714D01*
X93328571Y-87533333D01*
X93423810Y-87580952D01*
X72552381Y-89366666D02*
X72076190Y-89700000D01*
X72552381Y-89938095D02*
X71552381Y-89938095D01*
X71552381Y-89557142D01*
X71600000Y-89461904D01*
X71647619Y-89414285D01*
X71742857Y-89366666D01*
X71885714Y-89366666D01*
X71980952Y-89414285D01*
X72028571Y-89461904D01*
X72076190Y-89557142D01*
X72076190Y-89938095D01*
X71647619Y-88985714D02*
X71600000Y-88938095D01*
X71552381Y-88842857D01*
X71552381Y-88604761D01*
X71600000Y-88509523D01*
X71647619Y-88461904D01*
X71742857Y-88414285D01*
X71838095Y-88414285D01*
X71980952Y-88461904D01*
X72552381Y-89033333D01*
X72552381Y-88414285D01*
D11*
X59866667Y-89042857D02*
X59600000Y-88471429D01*
X59409524Y-89042857D02*
X59409524Y-87842857D01*
X59714286Y-87842857D01*
X59790477Y-87900000D01*
X59828572Y-87957143D01*
X59866667Y-88071429D01*
X59866667Y-88242857D01*
X59828572Y-88357143D01*
X59790477Y-88414286D01*
X59714286Y-88471429D01*
X59409524Y-88471429D01*
X60552381Y-87842857D02*
X60400000Y-87842857D01*
X60323810Y-87900000D01*
X60285715Y-87957143D01*
X60209524Y-88128571D01*
X60171429Y-88357143D01*
X60171429Y-88814286D01*
X60209524Y-88928571D01*
X60247619Y-88985714D01*
X60323810Y-89042857D01*
X60476191Y-89042857D01*
X60552381Y-88985714D01*
X60590477Y-88928571D01*
X60628572Y-88814286D01*
X60628572Y-88528571D01*
X60590477Y-88414286D01*
X60552381Y-88357143D01*
X60476191Y-88300000D01*
X60323810Y-88300000D01*
X60247619Y-88357143D01*
X60209524Y-88414286D01*
X60171429Y-88528571D01*
X62742857Y-83033333D02*
X62171429Y-83300000D01*
X62742857Y-83490476D02*
X61542857Y-83490476D01*
X61542857Y-83185714D01*
X61600000Y-83109523D01*
X61657143Y-83071428D01*
X61771429Y-83033333D01*
X61942857Y-83033333D01*
X62057143Y-83071428D01*
X62114286Y-83109523D01*
X62171429Y-83185714D01*
X62171429Y-83490476D01*
X61542857Y-82766666D02*
X61542857Y-82233333D01*
X62742857Y-82576190D01*
D13*
X98057143Y-102552381D02*
X97723809Y-102076190D01*
X97485714Y-102552381D02*
X97485714Y-101552381D01*
X97866667Y-101552381D01*
X97961905Y-101600000D01*
X98009524Y-101647619D01*
X98057143Y-101742857D01*
X98057143Y-101885714D01*
X98009524Y-101980952D01*
X97961905Y-102028571D01*
X97866667Y-102076190D01*
X97485714Y-102076190D01*
X99009524Y-102552381D02*
X98438095Y-102552381D01*
X98723809Y-102552381D02*
X98723809Y-101552381D01*
X98628571Y-101695238D01*
X98533333Y-101790476D01*
X98438095Y-101838095D01*
X99628571Y-101552381D02*
X99723810Y-101552381D01*
X99819048Y-101600000D01*
X99866667Y-101647619D01*
X99914286Y-101742857D01*
X99961905Y-101933333D01*
X99961905Y-102171429D01*
X99914286Y-102361905D01*
X99866667Y-102457143D01*
X99819048Y-102504762D01*
X99723810Y-102552381D01*
X99628571Y-102552381D01*
X99533333Y-102504762D01*
X99485714Y-102457143D01*
X99438095Y-102361905D01*
X99390476Y-102171429D01*
X99390476Y-101933333D01*
X99438095Y-101742857D01*
X99485714Y-101647619D01*
X99533333Y-101600000D01*
X99628571Y-101552381D01*
X98157143Y-104552381D02*
X97823809Y-104076190D01*
X97585714Y-104552381D02*
X97585714Y-103552381D01*
X97966667Y-103552381D01*
X98061905Y-103600000D01*
X98109524Y-103647619D01*
X98157143Y-103742857D01*
X98157143Y-103885714D01*
X98109524Y-103980952D01*
X98061905Y-104028571D01*
X97966667Y-104076190D01*
X97585714Y-104076190D01*
X99109524Y-104552381D02*
X98538095Y-104552381D01*
X98823809Y-104552381D02*
X98823809Y-103552381D01*
X98728571Y-103695238D01*
X98633333Y-103790476D01*
X98538095Y-103838095D01*
X100061905Y-104552381D02*
X99490476Y-104552381D01*
X99776190Y-104552381D02*
X99776190Y-103552381D01*
X99680952Y-103695238D01*
X99585714Y-103790476D01*
X99490476Y-103838095D01*
D11*
X56042857Y-83014286D02*
X55471429Y-83280953D01*
X56042857Y-83471429D02*
X54842857Y-83471429D01*
X54842857Y-83166667D01*
X54900000Y-83090476D01*
X54957143Y-83052381D01*
X55071429Y-83014286D01*
X55242857Y-83014286D01*
X55357143Y-83052381D01*
X55414286Y-83090476D01*
X55471429Y-83166667D01*
X55471429Y-83471429D01*
X56042857Y-82252381D02*
X56042857Y-82709524D01*
X56042857Y-82480953D02*
X54842857Y-82480953D01*
X55014286Y-82557143D01*
X55128571Y-82633334D01*
X55185714Y-82709524D01*
X54957143Y-81947619D02*
X54900000Y-81909524D01*
X54842857Y-81833333D01*
X54842857Y-81642857D01*
X54900000Y-81566667D01*
X54957143Y-81528571D01*
X55071429Y-81490476D01*
X55185714Y-81490476D01*
X55357143Y-81528571D01*
X56042857Y-81985714D01*
X56042857Y-81490476D01*
X62485714Y-91442857D02*
X62219047Y-90871429D01*
X62028571Y-91442857D02*
X62028571Y-90242857D01*
X62333333Y-90242857D01*
X62409524Y-90300000D01*
X62447619Y-90357143D01*
X62485714Y-90471429D01*
X62485714Y-90642857D01*
X62447619Y-90757143D01*
X62409524Y-90814286D01*
X62333333Y-90871429D01*
X62028571Y-90871429D01*
X63247619Y-91442857D02*
X62790476Y-91442857D01*
X63019047Y-91442857D02*
X63019047Y-90242857D01*
X62942857Y-90414286D01*
X62866666Y-90528571D01*
X62790476Y-90585714D01*
X63514286Y-90242857D02*
X64009524Y-90242857D01*
X63742857Y-90700000D01*
X63857143Y-90700000D01*
X63933333Y-90757143D01*
X63971429Y-90814286D01*
X64009524Y-90928571D01*
X64009524Y-91214286D01*
X63971429Y-91328571D01*
X63933333Y-91385714D01*
X63857143Y-91442857D01*
X63628571Y-91442857D01*
X63552381Y-91385714D01*
X63514286Y-91328571D01*
X56485714Y-90642857D02*
X56219047Y-90071429D01*
X56028571Y-90642857D02*
X56028571Y-89442857D01*
X56333333Y-89442857D01*
X56409524Y-89500000D01*
X56447619Y-89557143D01*
X56485714Y-89671429D01*
X56485714Y-89842857D01*
X56447619Y-89957143D01*
X56409524Y-90014286D01*
X56333333Y-90071429D01*
X56028571Y-90071429D01*
X57247619Y-90642857D02*
X56790476Y-90642857D01*
X57019047Y-90642857D02*
X57019047Y-89442857D01*
X56942857Y-89614286D01*
X56866666Y-89728571D01*
X56790476Y-89785714D01*
X57933333Y-89842857D02*
X57933333Y-90642857D01*
X57742857Y-89385714D02*
X57552381Y-90242857D01*
X58047619Y-90242857D01*
D13*
X98157143Y-105852381D02*
X97823809Y-105376190D01*
X97585714Y-105852381D02*
X97585714Y-104852381D01*
X97966667Y-104852381D01*
X98061905Y-104900000D01*
X98109524Y-104947619D01*
X98157143Y-105042857D01*
X98157143Y-105185714D01*
X98109524Y-105280952D01*
X98061905Y-105328571D01*
X97966667Y-105376190D01*
X97585714Y-105376190D01*
X99109524Y-105852381D02*
X98538095Y-105852381D01*
X98823809Y-105852381D02*
X98823809Y-104852381D01*
X98728571Y-104995238D01*
X98633333Y-105090476D01*
X98538095Y-105138095D01*
X99585714Y-105852381D02*
X99776190Y-105852381D01*
X99871429Y-105804762D01*
X99919048Y-105757143D01*
X100014286Y-105614286D01*
X100061905Y-105423810D01*
X100061905Y-105042857D01*
X100014286Y-104947619D01*
X99966667Y-104900000D01*
X99871429Y-104852381D01*
X99680952Y-104852381D01*
X99585714Y-104900000D01*
X99538095Y-104947619D01*
X99490476Y-105042857D01*
X99490476Y-105280952D01*
X99538095Y-105376190D01*
X99585714Y-105423810D01*
X99680952Y-105471429D01*
X99871429Y-105471429D01*
X99966667Y-105423810D01*
X100014286Y-105376190D01*
X100061905Y-105280952D01*
X76157143Y-88122381D02*
X75823809Y-87646190D01*
X75585714Y-88122381D02*
X75585714Y-87122381D01*
X75966667Y-87122381D01*
X76061905Y-87170000D01*
X76109524Y-87217619D01*
X76157143Y-87312857D01*
X76157143Y-87455714D01*
X76109524Y-87550952D01*
X76061905Y-87598571D01*
X75966667Y-87646190D01*
X75585714Y-87646190D01*
X76538095Y-87217619D02*
X76585714Y-87170000D01*
X76680952Y-87122381D01*
X76919048Y-87122381D01*
X77014286Y-87170000D01*
X77061905Y-87217619D01*
X77109524Y-87312857D01*
X77109524Y-87408095D01*
X77061905Y-87550952D01*
X76490476Y-88122381D01*
X77109524Y-88122381D01*
X77728571Y-87122381D02*
X77823810Y-87122381D01*
X77919048Y-87170000D01*
X77966667Y-87217619D01*
X78014286Y-87312857D01*
X78061905Y-87503333D01*
X78061905Y-87741429D01*
X78014286Y-87931905D01*
X77966667Y-88027143D01*
X77919048Y-88074762D01*
X77823810Y-88122381D01*
X77728571Y-88122381D01*
X77633333Y-88074762D01*
X77585714Y-88027143D01*
X77538095Y-87931905D01*
X77490476Y-87741429D01*
X77490476Y-87503333D01*
X77538095Y-87312857D01*
X77585714Y-87217619D01*
X77633333Y-87170000D01*
X77728571Y-87122381D01*
X88257143Y-91352381D02*
X87923809Y-90876190D01*
X87685714Y-91352381D02*
X87685714Y-90352381D01*
X88066667Y-90352381D01*
X88161905Y-90400000D01*
X88209524Y-90447619D01*
X88257143Y-90542857D01*
X88257143Y-90685714D01*
X88209524Y-90780952D01*
X88161905Y-90828571D01*
X88066667Y-90876190D01*
X87685714Y-90876190D01*
X88638095Y-90447619D02*
X88685714Y-90400000D01*
X88780952Y-90352381D01*
X89019048Y-90352381D01*
X89114286Y-90400000D01*
X89161905Y-90447619D01*
X89209524Y-90542857D01*
X89209524Y-90638095D01*
X89161905Y-90780952D01*
X88590476Y-91352381D01*
X89209524Y-91352381D01*
X90161905Y-91352381D02*
X89590476Y-91352381D01*
X89876190Y-91352381D02*
X89876190Y-90352381D01*
X89780952Y-90495238D01*
X89685714Y-90590476D01*
X89590476Y-90638095D01*
X97957143Y-119152381D02*
X97623809Y-118676190D01*
X97385714Y-119152381D02*
X97385714Y-118152381D01*
X97766667Y-118152381D01*
X97861905Y-118200000D01*
X97909524Y-118247619D01*
X97957143Y-118342857D01*
X97957143Y-118485714D01*
X97909524Y-118580952D01*
X97861905Y-118628571D01*
X97766667Y-118676190D01*
X97385714Y-118676190D01*
X98338095Y-118247619D02*
X98385714Y-118200000D01*
X98480952Y-118152381D01*
X98719048Y-118152381D01*
X98814286Y-118200000D01*
X98861905Y-118247619D01*
X98909524Y-118342857D01*
X98909524Y-118438095D01*
X98861905Y-118580952D01*
X98290476Y-119152381D01*
X98909524Y-119152381D01*
X99766667Y-118485714D02*
X99766667Y-119152381D01*
X99528571Y-118104762D02*
X99290476Y-118819048D01*
X99909524Y-118819048D01*
X98157143Y-99352381D02*
X97823809Y-98876190D01*
X97585714Y-99352381D02*
X97585714Y-98352381D01*
X97966667Y-98352381D01*
X98061905Y-98400000D01*
X98109524Y-98447619D01*
X98157143Y-98542857D01*
X98157143Y-98685714D01*
X98109524Y-98780952D01*
X98061905Y-98828571D01*
X97966667Y-98876190D01*
X97585714Y-98876190D01*
X98538095Y-98447619D02*
X98585714Y-98400000D01*
X98680952Y-98352381D01*
X98919048Y-98352381D01*
X99014286Y-98400000D01*
X99061905Y-98447619D01*
X99109524Y-98542857D01*
X99109524Y-98638095D01*
X99061905Y-98780952D01*
X98490476Y-99352381D01*
X99109524Y-99352381D01*
X99966667Y-98352381D02*
X99776190Y-98352381D01*
X99680952Y-98400000D01*
X99633333Y-98447619D01*
X99538095Y-98590476D01*
X99490476Y-98780952D01*
X99490476Y-99161905D01*
X99538095Y-99257143D01*
X99585714Y-99304762D01*
X99680952Y-99352381D01*
X99871429Y-99352381D01*
X99966667Y-99304762D01*
X100014286Y-99257143D01*
X100061905Y-99161905D01*
X100061905Y-98923810D01*
X100014286Y-98828571D01*
X99966667Y-98780952D01*
X99871429Y-98733333D01*
X99680952Y-98733333D01*
X99585714Y-98780952D01*
X99538095Y-98828571D01*
X99490476Y-98923810D01*
X93042857Y-90414286D02*
X92471429Y-90680953D01*
X93042857Y-90871429D02*
X91842857Y-90871429D01*
X91842857Y-90566667D01*
X91900000Y-90490476D01*
X91957143Y-90452381D01*
X92071429Y-90414286D01*
X92242857Y-90414286D01*
X92357143Y-90452381D01*
X92414286Y-90490476D01*
X92471429Y-90566667D01*
X92471429Y-90871429D01*
X91957143Y-90109524D02*
X91900000Y-90071429D01*
X91842857Y-89995238D01*
X91842857Y-89804762D01*
X91900000Y-89728572D01*
X91957143Y-89690476D01*
X92071429Y-89652381D01*
X92185714Y-89652381D01*
X92357143Y-89690476D01*
X93042857Y-90147619D01*
X93042857Y-89652381D01*
X91842857Y-89385714D02*
X91842857Y-88852381D01*
X93042857Y-89195238D01*
D11*
X79690476Y-92242857D02*
X79690476Y-93214286D01*
X79728571Y-93328571D01*
X79766667Y-93385714D01*
X79842857Y-93442857D01*
X79995238Y-93442857D01*
X80071429Y-93385714D01*
X80109524Y-93328571D01*
X80147619Y-93214286D01*
X80147619Y-92242857D01*
X80566666Y-93442857D02*
X80719047Y-93442857D01*
X80795238Y-93385714D01*
X80833333Y-93328571D01*
X80909524Y-93157143D01*
X80947619Y-92928571D01*
X80947619Y-92471429D01*
X80909524Y-92357143D01*
X80871428Y-92300000D01*
X80795238Y-92242857D01*
X80642857Y-92242857D01*
X80566666Y-92300000D01*
X80528571Y-92357143D01*
X80490476Y-92471429D01*
X80490476Y-92757143D01*
X80528571Y-92871429D01*
X80566666Y-92928571D01*
X80642857Y-92985714D01*
X80795238Y-92985714D01*
X80871428Y-92928571D01*
X80909524Y-92871429D01*
X80947619Y-92757143D01*
X60566667Y-93722857D02*
X60185714Y-93722857D01*
X60185714Y-92522857D01*
X60757143Y-92522857D02*
X61290476Y-92522857D01*
X60947619Y-93722857D01*
D13*
X90716667Y-84002857D02*
X90335714Y-84002857D01*
X90335714Y-82802857D01*
X91021428Y-84002857D02*
X91173809Y-84002857D01*
X91250000Y-83945714D01*
X91288095Y-83888571D01*
X91364286Y-83717143D01*
X91402381Y-83488571D01*
X91402381Y-83031429D01*
X91364286Y-82917143D01*
X91326190Y-82860000D01*
X91250000Y-82802857D01*
X91097619Y-82802857D01*
X91021428Y-82860000D01*
X90983333Y-82917143D01*
X90945238Y-83031429D01*
X90945238Y-83317143D01*
X90983333Y-83431429D01*
X91021428Y-83488571D01*
X91097619Y-83545714D01*
X91250000Y-83545714D01*
X91326190Y-83488571D01*
X91364286Y-83431429D01*
X91402381Y-83317143D01*
X58072381Y-109898095D02*
X57072381Y-109898095D01*
X57072381Y-109517142D01*
X57120000Y-109421904D01*
X57167619Y-109374285D01*
X57262857Y-109326666D01*
X57405714Y-109326666D01*
X57500952Y-109374285D01*
X57548571Y-109421904D01*
X57596190Y-109517142D01*
X57596190Y-109898095D01*
X57167619Y-108945714D02*
X57120000Y-108898095D01*
X57072381Y-108802857D01*
X57072381Y-108564761D01*
X57120000Y-108469523D01*
X57167619Y-108421904D01*
X57262857Y-108374285D01*
X57358095Y-108374285D01*
X57500952Y-108421904D01*
X58072381Y-108993333D01*
X58072381Y-108374285D01*
X101702381Y-126833333D02*
X102416667Y-126833333D01*
X102559524Y-126880953D01*
X102654762Y-126976191D01*
X102702381Y-127119048D01*
X102702381Y-127214286D01*
X101797619Y-126404762D02*
X101750000Y-126357143D01*
X101702381Y-126261905D01*
X101702381Y-126023809D01*
X101750000Y-125928571D01*
X101797619Y-125880952D01*
X101892857Y-125833333D01*
X101988095Y-125833333D01*
X102130952Y-125880952D01*
X102702381Y-126452381D01*
X102702381Y-125833333D01*
X101702381Y-87333333D02*
X102416667Y-87333333D01*
X102559524Y-87380953D01*
X102654762Y-87476191D01*
X102702381Y-87619048D01*
X102702381Y-87714286D01*
X101702381Y-86952381D02*
X101702381Y-86333333D01*
X102083333Y-86666667D01*
X102083333Y-86523809D01*
X102130952Y-86428571D01*
X102178571Y-86380952D01*
X102273810Y-86333333D01*
X102511905Y-86333333D01*
X102607143Y-86380952D01*
X102654762Y-86428571D01*
X102702381Y-86523809D01*
X102702381Y-86809524D01*
X102654762Y-86904762D01*
X102607143Y-86952381D01*
X57452381Y-127338095D02*
X56452381Y-127338095D01*
X56452381Y-126957142D01*
X56500000Y-126861904D01*
X56547619Y-126814285D01*
X56642857Y-126766666D01*
X56785714Y-126766666D01*
X56880952Y-126814285D01*
X56928571Y-126861904D01*
X56976190Y-126957142D01*
X56976190Y-127338095D01*
X57452381Y-125814285D02*
X57452381Y-126385714D01*
X57452381Y-126100000D02*
X56452381Y-126100000D01*
X56595238Y-126195238D01*
X56690476Y-126290476D01*
X56738095Y-126385714D01*
X64714286Y-131678571D02*
X64857143Y-131726190D01*
X64904762Y-131773810D01*
X64952381Y-131869048D01*
X64952381Y-132011905D01*
X64904762Y-132107143D01*
X64857143Y-132154762D01*
X64761905Y-132202381D01*
X64380952Y-132202381D01*
X64380952Y-131202381D01*
X64714286Y-131202381D01*
X64809524Y-131250000D01*
X64857143Y-131297619D01*
X64904762Y-131392857D01*
X64904762Y-131488095D01*
X64857143Y-131583333D01*
X64809524Y-131630952D01*
X64714286Y-131678571D01*
X64380952Y-131678571D01*
X65238095Y-131202381D02*
X65809524Y-131202381D01*
X65523809Y-132202381D02*
X65523809Y-131202381D01*
X66666667Y-132202381D02*
X66095238Y-132202381D01*
X66380952Y-132202381D02*
X66380952Y-131202381D01*
X66285714Y-131345238D01*
X66190476Y-131440476D01*
X66095238Y-131488095D01*
X98510767Y-105248581D02*
X98510767Y-105962867D01*
X98463147Y-106105724D01*
X98367909Y-106200962D01*
X98225052Y-106248581D01*
X98129814Y-106248581D01*
X99415529Y-105581914D02*
X99415529Y-106248581D01*
X99177433Y-105200962D02*
X98939338Y-105915248D01*
X99558386Y-105915248D01*
X82428095Y-92292381D02*
X82428095Y-93101905D01*
X82475714Y-93197143D01*
X82523333Y-93244762D01*
X82618571Y-93292381D01*
X82809048Y-93292381D01*
X82904286Y-93244762D01*
X82951905Y-93197143D01*
X82999524Y-93101905D01*
X82999524Y-92292381D01*
X83904286Y-92625714D02*
X83904286Y-93292381D01*
X83666190Y-92244762D02*
X83428095Y-92959048D01*
X84047143Y-92959048D01*
X73738095Y-91752381D02*
X73738095Y-92561905D01*
X73785714Y-92657143D01*
X73833333Y-92704762D01*
X73928571Y-92752381D01*
X74119048Y-92752381D01*
X74214286Y-92704762D01*
X74261905Y-92657143D01*
X74309524Y-92561905D01*
X74309524Y-91752381D01*
X75261905Y-91752381D02*
X74785714Y-91752381D01*
X74738095Y-92228571D01*
X74785714Y-92180952D01*
X74880952Y-92133333D01*
X75119048Y-92133333D01*
X75214286Y-92180952D01*
X75261905Y-92228571D01*
X75309524Y-92323810D01*
X75309524Y-92561905D01*
X75261905Y-92657143D01*
X75214286Y-92704762D01*
X75119048Y-92752381D01*
X74880952Y-92752381D01*
X74785714Y-92704762D01*
X74738095Y-92657143D01*
X68138095Y-84452381D02*
X68138095Y-85261905D01*
X68185714Y-85357143D01*
X68233333Y-85404762D01*
X68328571Y-85452381D01*
X68519048Y-85452381D01*
X68614286Y-85404762D01*
X68661905Y-85357143D01*
X68709524Y-85261905D01*
X68709524Y-84452381D01*
X69090476Y-84452381D02*
X69709524Y-84452381D01*
X69376190Y-84833333D01*
X69519048Y-84833333D01*
X69614286Y-84880952D01*
X69661905Y-84928571D01*
X69709524Y-85023810D01*
X69709524Y-85261905D01*
X69661905Y-85357143D01*
X69614286Y-85404762D01*
X69519048Y-85452381D01*
X69233333Y-85452381D01*
X69138095Y-85404762D01*
X69090476Y-85357143D01*
M02*
