G04 #@! TF.FileFunction,Other,User*
%FSLAX46Y46*%
G04 Gerber Fmt 4.6, Leading zero omitted, Abs format (unit mm)*
G04 Created by KiCad (PCBNEW 4.0.5+dfsg1-4) date Tue Aug 14 14:25:04 2018*
%MOMM*%
%LPD*%
G01*
G04 APERTURE LIST*
%ADD10C,0.100000*%
%ADD11C,0.050000*%
G04 APERTURE END LIST*
D10*
D11*
X57550000Y-98020000D02*
X57550000Y-101180000D01*
X57550000Y-101180000D02*
X62450000Y-101180000D01*
X62450000Y-101180000D02*
X62450000Y-98020000D01*
X62450000Y-98020000D02*
X57550000Y-98020000D01*
X60970000Y-102570000D02*
X60030000Y-102570000D01*
X60030000Y-102570000D02*
X60030000Y-104430000D01*
X60030000Y-104430000D02*
X60970000Y-104430000D01*
X60970000Y-104430000D02*
X60970000Y-102570000D01*
X59130000Y-111430000D02*
X60070000Y-111430000D01*
X60070000Y-111430000D02*
X60070000Y-109570000D01*
X60070000Y-109570000D02*
X59130000Y-109570000D01*
X59130000Y-109570000D02*
X59130000Y-111430000D01*
X58550000Y-105420000D02*
X58550000Y-108580000D01*
X58550000Y-108580000D02*
X63450000Y-108580000D01*
X63450000Y-108580000D02*
X63450000Y-105420000D01*
X63450000Y-105420000D02*
X58550000Y-105420000D01*
X64868700Y-103670000D02*
X64868700Y-104610000D01*
X64868700Y-104610000D02*
X66728700Y-104610000D01*
X66728700Y-104610000D02*
X66728700Y-103670000D01*
X66728700Y-103670000D02*
X64868700Y-103670000D01*
X65930000Y-107970000D02*
X65930000Y-107030000D01*
X65930000Y-107030000D02*
X64070000Y-107030000D01*
X64070000Y-107030000D02*
X64070000Y-107970000D01*
X64070000Y-107970000D02*
X65930000Y-107970000D01*
X60430000Y-111430000D02*
X61370000Y-111430000D01*
X61370000Y-111430000D02*
X61370000Y-109570000D01*
X61370000Y-109570000D02*
X60430000Y-109570000D01*
X60430000Y-109570000D02*
X60430000Y-111430000D01*
X65930000Y-106470000D02*
X65930000Y-105530000D01*
X65930000Y-105530000D02*
X64070000Y-105530000D01*
X64070000Y-105530000D02*
X64070000Y-106470000D01*
X64070000Y-106470000D02*
X65930000Y-106470000D01*
X71070000Y-110770000D02*
X70130000Y-110770000D01*
X70130000Y-110770000D02*
X70130000Y-112630000D01*
X70130000Y-112630000D02*
X71070000Y-112630000D01*
X71070000Y-112630000D02*
X71070000Y-110770000D01*
X73070000Y-99230000D02*
X73070000Y-100170000D01*
X73070000Y-100170000D02*
X74930000Y-100170000D01*
X74930000Y-100170000D02*
X74930000Y-99230000D01*
X74930000Y-99230000D02*
X73070000Y-99230000D01*
X87550000Y-97020000D02*
X87550000Y-100180000D01*
X87550000Y-100180000D02*
X92450000Y-100180000D01*
X92450000Y-100180000D02*
X92450000Y-97020000D01*
X92450000Y-97020000D02*
X87550000Y-97020000D01*
X87550000Y-101020000D02*
X87550000Y-104180000D01*
X87550000Y-104180000D02*
X92450000Y-104180000D01*
X92450000Y-104180000D02*
X92450000Y-101020000D01*
X92450000Y-101020000D02*
X87550000Y-101020000D01*
X86150000Y-88120000D02*
X86150000Y-91280000D01*
X86150000Y-91280000D02*
X91050000Y-91280000D01*
X91050000Y-91280000D02*
X91050000Y-88120000D01*
X91050000Y-88120000D02*
X86150000Y-88120000D01*
X85250000Y-83120000D02*
X85250000Y-86280000D01*
X85250000Y-86280000D02*
X90150000Y-86280000D01*
X90150000Y-86280000D02*
X90150000Y-83120000D01*
X90150000Y-83120000D02*
X85250000Y-83120000D01*
X62570000Y-117030000D02*
X62570000Y-117970000D01*
X62570000Y-117970000D02*
X64430000Y-117970000D01*
X64430000Y-117970000D02*
X64430000Y-117030000D01*
X64430000Y-117030000D02*
X62570000Y-117030000D01*
X64430000Y-119470000D02*
X64430000Y-118530000D01*
X64430000Y-118530000D02*
X62570000Y-118530000D01*
X62570000Y-118530000D02*
X62570000Y-119470000D01*
X62570000Y-119470000D02*
X64430000Y-119470000D01*
X62570000Y-115531800D02*
X62570000Y-116471800D01*
X62570000Y-116471800D02*
X64430000Y-116471800D01*
X64430000Y-116471800D02*
X64430000Y-115531800D01*
X64430000Y-115531800D02*
X62570000Y-115531800D01*
X65870000Y-122930000D02*
X65870000Y-123870000D01*
X65870000Y-123870000D02*
X67730000Y-123870000D01*
X67730000Y-123870000D02*
X67730000Y-122930000D01*
X67730000Y-122930000D02*
X65870000Y-122930000D01*
X74930000Y-102970000D02*
X74930000Y-102030000D01*
X74930000Y-102030000D02*
X73070000Y-102030000D01*
X73070000Y-102030000D02*
X73070000Y-102970000D01*
X73070000Y-102970000D02*
X74930000Y-102970000D01*
X59470000Y-102570000D02*
X58530000Y-102570000D01*
X58530000Y-102570000D02*
X58530000Y-104430000D01*
X58530000Y-104430000D02*
X59470000Y-104430000D01*
X59470000Y-104430000D02*
X59470000Y-102570000D01*
X75950000Y-85450000D02*
X75950000Y-90150000D01*
X75950000Y-90150000D02*
X78250000Y-90150000D01*
X78250000Y-90150000D02*
X78250000Y-85450000D01*
X75950000Y-85450000D02*
X78250000Y-85450000D01*
X94420000Y-116670000D02*
X94420000Y-118130000D01*
X94420000Y-118130000D02*
X97380000Y-118130000D01*
X97380000Y-118130000D02*
X97380000Y-116670000D01*
X97380000Y-116670000D02*
X94420000Y-116670000D01*
X61130000Y-123020000D02*
X59670000Y-123020000D01*
X59670000Y-123020000D02*
X59670000Y-125980000D01*
X59670000Y-125980000D02*
X61130000Y-125980000D01*
X61130000Y-125980000D02*
X61130000Y-123020000D01*
X82744100Y-108543400D02*
X89544100Y-108543400D01*
X89544100Y-108543400D02*
X89544100Y-116043400D01*
X89544100Y-116043400D02*
X82744100Y-116043400D01*
X82744100Y-116043400D02*
X82744100Y-108543400D01*
X92750000Y-112300000D02*
X92750000Y-115700000D01*
X92750000Y-115700000D02*
X96250000Y-115700000D01*
X96250000Y-115700000D02*
X96250000Y-112300000D01*
X96250000Y-112300000D02*
X92750000Y-112300000D01*
X75700000Y-127250000D02*
X72300000Y-127250000D01*
X72300000Y-127250000D02*
X72300000Y-130750000D01*
X72300000Y-130750000D02*
X75700000Y-130750000D01*
X75700000Y-130750000D02*
X75700000Y-127250000D01*
X61530000Y-104430000D02*
X62470000Y-104430000D01*
X62470000Y-104430000D02*
X62470000Y-102570000D01*
X62470000Y-102570000D02*
X61530000Y-102570000D01*
X61530000Y-102570000D02*
X61530000Y-104430000D01*
X73070000Y-100530000D02*
X73070000Y-101470000D01*
X73070000Y-101470000D02*
X74930000Y-101470000D01*
X74930000Y-101470000D02*
X74930000Y-100530000D01*
X74930000Y-100530000D02*
X73070000Y-100530000D01*
X70670000Y-95930000D02*
X70670000Y-96870000D01*
X70670000Y-96870000D02*
X72530000Y-96870000D01*
X72530000Y-96870000D02*
X72530000Y-95930000D01*
X72530000Y-95930000D02*
X70670000Y-95930000D01*
X74930000Y-98870000D02*
X74930000Y-97930000D01*
X74930000Y-97930000D02*
X73070000Y-97930000D01*
X73070000Y-97930000D02*
X73070000Y-98870000D01*
X73070000Y-98870000D02*
X74930000Y-98870000D01*
X93970000Y-109070000D02*
X93030000Y-109070000D01*
X93030000Y-109070000D02*
X93030000Y-110930000D01*
X93030000Y-110930000D02*
X93970000Y-110930000D01*
X93970000Y-110930000D02*
X93970000Y-109070000D01*
X92557700Y-118221400D02*
X91617700Y-118221400D01*
X91617700Y-118221400D02*
X91617700Y-120081400D01*
X91617700Y-120081400D02*
X92557700Y-120081400D01*
X92557700Y-120081400D02*
X92557700Y-118221400D01*
X81570000Y-92530000D02*
X81570000Y-93470000D01*
X81570000Y-93470000D02*
X83430000Y-93470000D01*
X83430000Y-93470000D02*
X83430000Y-92530000D01*
X83430000Y-92530000D02*
X81570000Y-92530000D01*
X66930000Y-117970000D02*
X66930000Y-117030000D01*
X66930000Y-117030000D02*
X65070000Y-117030000D01*
X65070000Y-117030000D02*
X65070000Y-117970000D01*
X65070000Y-117970000D02*
X66930000Y-117970000D01*
X64430000Y-120970000D02*
X64430000Y-120030000D01*
X64430000Y-120030000D02*
X62570000Y-120030000D01*
X62570000Y-120030000D02*
X62570000Y-120970000D01*
X62570000Y-120970000D02*
X64430000Y-120970000D01*
X66930000Y-116470000D02*
X66930000Y-115530000D01*
X66930000Y-115530000D02*
X65070000Y-115530000D01*
X65070000Y-115530000D02*
X65070000Y-116470000D01*
X65070000Y-116470000D02*
X66930000Y-116470000D01*
X84130000Y-104530000D02*
X85070000Y-104530000D01*
X85070000Y-104530000D02*
X85070000Y-102670000D01*
X85070000Y-102670000D02*
X84130000Y-102670000D01*
X84130000Y-102670000D02*
X84130000Y-104530000D01*
X60370000Y-116270000D02*
X59430000Y-116270000D01*
X59430000Y-116270000D02*
X59430000Y-118130000D01*
X59430000Y-118130000D02*
X60370000Y-118130000D01*
X60370000Y-118130000D02*
X60370000Y-116270000D01*
X59530000Y-120430000D02*
X60470000Y-120430000D01*
X60470000Y-120430000D02*
X60470000Y-118570000D01*
X60470000Y-118570000D02*
X59530000Y-118570000D01*
X59530000Y-118570000D02*
X59530000Y-120430000D01*
X96530000Y-119970000D02*
X96530000Y-119030000D01*
X96530000Y-119030000D02*
X94670000Y-119030000D01*
X94670000Y-119030000D02*
X94670000Y-119970000D01*
X94670000Y-119970000D02*
X96530000Y-119970000D01*
X59930000Y-128230000D02*
X60870000Y-128230000D01*
X60870000Y-128230000D02*
X60870000Y-126370000D01*
X60870000Y-126370000D02*
X59930000Y-126370000D01*
X59930000Y-126370000D02*
X59930000Y-128230000D01*
X68602000Y-114114600D02*
X68602000Y-109354600D01*
X68602000Y-114114600D02*
X65002000Y-114114600D01*
X65002000Y-109354600D02*
X68602000Y-109354600D01*
X65002000Y-109354600D02*
X65002000Y-114114600D01*
X52930000Y-90450000D02*
X51470000Y-90450000D01*
X51470000Y-90450000D02*
X51470000Y-93750000D01*
X51470000Y-93750000D02*
X52930000Y-93750000D01*
X52930000Y-93750000D02*
X52930000Y-90450000D01*
X49690000Y-82500000D02*
X49690000Y-92500000D01*
X49690000Y-82500000D02*
X64940000Y-82500000D01*
X64940000Y-92500000D02*
X49690000Y-92500000D01*
X64940000Y-82500000D02*
X64940000Y-92500000D01*
X75950000Y-99950000D02*
X83050000Y-99950000D01*
X75950000Y-107850000D02*
X83050000Y-107850000D01*
X75950000Y-99950000D02*
X75950000Y-107850000D01*
X83050000Y-99950000D02*
X83050000Y-107850000D01*
X64770000Y-102700000D02*
X64770000Y-97300000D01*
X72230000Y-102700000D02*
X72230000Y-97300000D01*
X64770000Y-102700000D02*
X72230000Y-102700000D01*
X64770000Y-97300000D02*
X72230000Y-97300000D01*
M02*
