%FSLAX45Y45*%
G04 Gerber Fmt 4.5, Leading zero omitted, Abs format (unit mm)*
G04 Created by KiCad (PCBNEW 4.0.5+dfsg1-4) date Mon Aug 13 15:56:23 2018*
%MOMM*%
%LPD*%
G01*
G04 APERTURE LIST*
%ADD10C,0.127000*%
%ADD11C,0.150000*%
%ADD12C,0.200000*%
%ADD13C,0.300000*%
G04 APERTURE END LIST*
D10*
D11*
X4950000Y-8200000D02*
X4950000Y-13150000D01*
X10250000Y-8050000D02*
X10250000Y-8200000D01*
X4950000Y-8050000D02*
X4950000Y-8200000D01*
X10250000Y-8050000D02*
X4950000Y-8050000D01*
X10250000Y-13150000D02*
X4950000Y-13150000D01*
X10250000Y-8200000D02*
X10250000Y-13150000D01*
D12*
X7145160Y-11265750D02*
X7215160Y-11335750D01*
X7215160Y-11265750D02*
X7145160Y-11335750D01*
X8045160Y-12095750D02*
X8115160Y-12165750D01*
X8115160Y-12095750D02*
X8045160Y-12165750D01*
X5545000Y-8750000D02*
G75*
G03X5545000Y-8750000I-75000J0D01*
G01*
X6245000Y-8750000D02*
G75*
G03X6245000Y-8750000I-75000J0D01*
G01*
D13*
X5213929Y-13623214D02*
X5213929Y-13323214D01*
X5285357Y-13323214D01*
X5328214Y-13337500D01*
X5356786Y-13366071D01*
X5371071Y-13394643D01*
X5385357Y-13451786D01*
X5385357Y-13494643D01*
X5371071Y-13551786D01*
X5356786Y-13580357D01*
X5328214Y-13608929D01*
X5285357Y-13623214D01*
X5213929Y-13623214D01*
X5513929Y-13623214D02*
X5513929Y-13423214D01*
X5513929Y-13480357D02*
X5528214Y-13451786D01*
X5542500Y-13437500D01*
X5571071Y-13423214D01*
X5599643Y-13423214D01*
X5699643Y-13623214D02*
X5699643Y-13423214D01*
X5699643Y-13323214D02*
X5685357Y-13337500D01*
X5699643Y-13351786D01*
X5713928Y-13337500D01*
X5699643Y-13323214D01*
X5699643Y-13351786D01*
X5885357Y-13623214D02*
X5856786Y-13608929D01*
X5842500Y-13580357D01*
X5842500Y-13323214D01*
X6042500Y-13623214D02*
X6013928Y-13608929D01*
X5999643Y-13580357D01*
X5999643Y-13323214D01*
X6385357Y-13623214D02*
X6385357Y-13323214D01*
X6485357Y-13537500D01*
X6585357Y-13323214D01*
X6585357Y-13623214D01*
X6856786Y-13623214D02*
X6856786Y-13466071D01*
X6842500Y-13437500D01*
X6813928Y-13423214D01*
X6756786Y-13423214D01*
X6728214Y-13437500D01*
X6856786Y-13608929D02*
X6828214Y-13623214D01*
X6756786Y-13623214D01*
X6728214Y-13608929D01*
X6713928Y-13580357D01*
X6713928Y-13551786D01*
X6728214Y-13523214D01*
X6756786Y-13508929D01*
X6828214Y-13508929D01*
X6856786Y-13494643D01*
X6999643Y-13423214D02*
X6999643Y-13723214D01*
X6999643Y-13437500D02*
X7028214Y-13423214D01*
X7085357Y-13423214D01*
X7113928Y-13437500D01*
X7128214Y-13451786D01*
X7142500Y-13480357D01*
X7142500Y-13566071D01*
X7128214Y-13594643D01*
X7113928Y-13608929D01*
X7085357Y-13623214D01*
X7028214Y-13623214D01*
X6999643Y-13608929D01*
X7271071Y-13594643D02*
X7285357Y-13608929D01*
X7271071Y-13623214D01*
X7256786Y-13608929D01*
X7271071Y-13594643D01*
X7271071Y-13623214D01*
X7271071Y-13437500D02*
X7285357Y-13451786D01*
X7271071Y-13466071D01*
X7256786Y-13451786D01*
X7271071Y-13437500D01*
X7271071Y-13466071D01*
X4872500Y-14082500D02*
X4942500Y-14152500D01*
X4942500Y-14082500D02*
X4872500Y-14152500D01*
X5271071Y-13953214D02*
X5299643Y-13953214D01*
X5328214Y-13967500D01*
X5342500Y-13981786D01*
X5356786Y-14010357D01*
X5371071Y-14067500D01*
X5371071Y-14138929D01*
X5356786Y-14196071D01*
X5342500Y-14224643D01*
X5328214Y-14238929D01*
X5299643Y-14253214D01*
X5271071Y-14253214D01*
X5242500Y-14238929D01*
X5228214Y-14224643D01*
X5213929Y-14196071D01*
X5199643Y-14138929D01*
X5199643Y-14067500D01*
X5213929Y-14010357D01*
X5228214Y-13981786D01*
X5242500Y-13967500D01*
X5271071Y-13953214D01*
X5499643Y-14224643D02*
X5513929Y-14238929D01*
X5499643Y-14253214D01*
X5485357Y-14238929D01*
X5499643Y-14224643D01*
X5499643Y-14253214D01*
X5613928Y-13953214D02*
X5813928Y-13953214D01*
X5685357Y-14253214D01*
X5985357Y-13953214D02*
X6013928Y-13953214D01*
X6042500Y-13967500D01*
X6056786Y-13981786D01*
X6071071Y-14010357D01*
X6085357Y-14067500D01*
X6085357Y-14138929D01*
X6071071Y-14196071D01*
X6056786Y-14224643D01*
X6042500Y-14238929D01*
X6013928Y-14253214D01*
X5985357Y-14253214D01*
X5956786Y-14238929D01*
X5942500Y-14224643D01*
X5928214Y-14196071D01*
X5913928Y-14138929D01*
X5913928Y-14067500D01*
X5928214Y-14010357D01*
X5942500Y-13981786D01*
X5956786Y-13967500D01*
X5985357Y-13953214D01*
X6213928Y-14253214D02*
X6213928Y-14053214D01*
X6213928Y-14081786D02*
X6228214Y-14067500D01*
X6256786Y-14053214D01*
X6299643Y-14053214D01*
X6328214Y-14067500D01*
X6342500Y-14096071D01*
X6342500Y-14253214D01*
X6342500Y-14096071D02*
X6356786Y-14067500D01*
X6385357Y-14053214D01*
X6428214Y-14053214D01*
X6456786Y-14067500D01*
X6471071Y-14096071D01*
X6471071Y-14253214D01*
X6613928Y-14253214D02*
X6613928Y-14053214D01*
X6613928Y-14081786D02*
X6628214Y-14067500D01*
X6656786Y-14053214D01*
X6699643Y-14053214D01*
X6728214Y-14067500D01*
X6742500Y-14096071D01*
X6742500Y-14253214D01*
X6742500Y-14096071D02*
X6756786Y-14067500D01*
X6785357Y-14053214D01*
X6828214Y-14053214D01*
X6856786Y-14067500D01*
X6871071Y-14096071D01*
X6871071Y-14253214D01*
X7456786Y-13938929D02*
X7199643Y-14324643D01*
X7842500Y-13953214D02*
X7871071Y-13953214D01*
X7899643Y-13967500D01*
X7913928Y-13981786D01*
X7928214Y-14010357D01*
X7942500Y-14067500D01*
X7942500Y-14138929D01*
X7928214Y-14196071D01*
X7913928Y-14224643D01*
X7899643Y-14238929D01*
X7871071Y-14253214D01*
X7842500Y-14253214D01*
X7813928Y-14238929D01*
X7799643Y-14224643D01*
X7785357Y-14196071D01*
X7771071Y-14138929D01*
X7771071Y-14067500D01*
X7785357Y-14010357D01*
X7799643Y-13981786D01*
X7813928Y-13967500D01*
X7842500Y-13953214D01*
X8071071Y-14224643D02*
X8085357Y-14238929D01*
X8071071Y-14253214D01*
X8056786Y-14238929D01*
X8071071Y-14224643D01*
X8071071Y-14253214D01*
X8271071Y-13953214D02*
X8299643Y-13953214D01*
X8328214Y-13967500D01*
X8342500Y-13981786D01*
X8356785Y-14010357D01*
X8371071Y-14067500D01*
X8371071Y-14138929D01*
X8356785Y-14196071D01*
X8342500Y-14224643D01*
X8328214Y-14238929D01*
X8299643Y-14253214D01*
X8271071Y-14253214D01*
X8242500Y-14238929D01*
X8228214Y-14224643D01*
X8213928Y-14196071D01*
X8199643Y-14138929D01*
X8199643Y-14067500D01*
X8213928Y-14010357D01*
X8228214Y-13981786D01*
X8242500Y-13967500D01*
X8271071Y-13953214D01*
X8485357Y-13981786D02*
X8499643Y-13967500D01*
X8528214Y-13953214D01*
X8599643Y-13953214D01*
X8628214Y-13967500D01*
X8642500Y-13981786D01*
X8656786Y-14010357D01*
X8656786Y-14038929D01*
X8642500Y-14081786D01*
X8471071Y-14253214D01*
X8656786Y-14253214D01*
X8828214Y-14081786D02*
X8799643Y-14067500D01*
X8785357Y-14053214D01*
X8771071Y-14024643D01*
X8771071Y-14010357D01*
X8785357Y-13981786D01*
X8799643Y-13967500D01*
X8828214Y-13953214D01*
X8885357Y-13953214D01*
X8913928Y-13967500D01*
X8928214Y-13981786D01*
X8942500Y-14010357D01*
X8942500Y-14024643D01*
X8928214Y-14053214D01*
X8913928Y-14067500D01*
X8885357Y-14081786D01*
X8828214Y-14081786D01*
X8799643Y-14096071D01*
X8785357Y-14110357D01*
X8771071Y-14138929D01*
X8771071Y-14196071D01*
X8785357Y-14224643D01*
X8799643Y-14238929D01*
X8828214Y-14253214D01*
X8885357Y-14253214D01*
X8913928Y-14238929D01*
X8928214Y-14224643D01*
X8942500Y-14196071D01*
X8942500Y-14138929D01*
X8928214Y-14110357D01*
X8913928Y-14096071D01*
X8885357Y-14081786D01*
X9056786Y-13953214D02*
X9056786Y-14010357D01*
X9171071Y-13953214D02*
X9171071Y-14010357D01*
X9613928Y-14367500D02*
X9599643Y-14353214D01*
X9571071Y-14310357D01*
X9556786Y-14281786D01*
X9542500Y-14238929D01*
X9528214Y-14167500D01*
X9528214Y-14110357D01*
X9542500Y-14038929D01*
X9556786Y-13996071D01*
X9571071Y-13967500D01*
X9599643Y-13924643D01*
X9613928Y-13910357D01*
X9713928Y-13981786D02*
X9728214Y-13967500D01*
X9756786Y-13953214D01*
X9828214Y-13953214D01*
X9856786Y-13967500D01*
X9871071Y-13981786D01*
X9885357Y-14010357D01*
X9885357Y-14038929D01*
X9871071Y-14081786D01*
X9699643Y-14253214D01*
X9885357Y-14253214D01*
X10242500Y-14253214D02*
X10242500Y-13953214D01*
X10371071Y-14253214D02*
X10371071Y-14096071D01*
X10356786Y-14067500D01*
X10328214Y-14053214D01*
X10285357Y-14053214D01*
X10256786Y-14067500D01*
X10242500Y-14081786D01*
X10556786Y-14253214D02*
X10528214Y-14238929D01*
X10513928Y-14224643D01*
X10499643Y-14196071D01*
X10499643Y-14110357D01*
X10513928Y-14081786D01*
X10528214Y-14067500D01*
X10556786Y-14053214D01*
X10599643Y-14053214D01*
X10628214Y-14067500D01*
X10642500Y-14081786D01*
X10656786Y-14110357D01*
X10656786Y-14196071D01*
X10642500Y-14224643D01*
X10628214Y-14238929D01*
X10599643Y-14253214D01*
X10556786Y-14253214D01*
X10828214Y-14253214D02*
X10799643Y-14238929D01*
X10785357Y-14210357D01*
X10785357Y-13953214D01*
X11056786Y-14238929D02*
X11028214Y-14253214D01*
X10971071Y-14253214D01*
X10942500Y-14238929D01*
X10928214Y-14210357D01*
X10928214Y-14096071D01*
X10942500Y-14067500D01*
X10971071Y-14053214D01*
X11028214Y-14053214D01*
X11056786Y-14067500D01*
X11071071Y-14096071D01*
X11071071Y-14124643D01*
X10928214Y-14153214D01*
X11185357Y-14238929D02*
X11213928Y-14253214D01*
X11271071Y-14253214D01*
X11299643Y-14238929D01*
X11313928Y-14210357D01*
X11313928Y-14196071D01*
X11299643Y-14167500D01*
X11271071Y-14153214D01*
X11228214Y-14153214D01*
X11199643Y-14138929D01*
X11185357Y-14110357D01*
X11185357Y-14096071D01*
X11199643Y-14067500D01*
X11228214Y-14053214D01*
X11271071Y-14053214D01*
X11299643Y-14067500D01*
X11413928Y-14367500D02*
X11428214Y-14353214D01*
X11456786Y-14310357D01*
X11471071Y-14281786D01*
X11485357Y-14238929D01*
X11499643Y-14167500D01*
X11499643Y-14110357D01*
X11485357Y-14038929D01*
X11471071Y-13996071D01*
X11456786Y-13967500D01*
X11428214Y-13924643D01*
X11413928Y-13910357D01*
X11956786Y-14367500D02*
X11942500Y-14353214D01*
X11913928Y-14310357D01*
X11899643Y-14281786D01*
X11885357Y-14238929D01*
X11871071Y-14167500D01*
X11871071Y-14110357D01*
X11885357Y-14038929D01*
X11899643Y-13996071D01*
X11913928Y-13967500D01*
X11942500Y-13924643D01*
X11956786Y-13910357D01*
X12071071Y-14053214D02*
X12071071Y-14253214D01*
X12071071Y-14081786D02*
X12085357Y-14067500D01*
X12113928Y-14053214D01*
X12156786Y-14053214D01*
X12185357Y-14067500D01*
X12199643Y-14096071D01*
X12199643Y-14253214D01*
X12385357Y-14253214D02*
X12356786Y-14238929D01*
X12342500Y-14224643D01*
X12328214Y-14196071D01*
X12328214Y-14110357D01*
X12342500Y-14081786D01*
X12356786Y-14067500D01*
X12385357Y-14053214D01*
X12428214Y-14053214D01*
X12456786Y-14067500D01*
X12471071Y-14081786D01*
X12485357Y-14110357D01*
X12485357Y-14196071D01*
X12471071Y-14224643D01*
X12456786Y-14238929D01*
X12428214Y-14253214D01*
X12385357Y-14253214D01*
X12571071Y-14053214D02*
X12685357Y-14053214D01*
X12613928Y-13953214D02*
X12613928Y-14210357D01*
X12628214Y-14238929D01*
X12656786Y-14253214D01*
X12685357Y-14253214D01*
X13013928Y-14053214D02*
X13013928Y-14353214D01*
X13013928Y-14067500D02*
X13042500Y-14053214D01*
X13099643Y-14053214D01*
X13128214Y-14067500D01*
X13142500Y-14081786D01*
X13156786Y-14110357D01*
X13156786Y-14196071D01*
X13142500Y-14224643D01*
X13128214Y-14238929D01*
X13099643Y-14253214D01*
X13042500Y-14253214D01*
X13013928Y-14238929D01*
X13328214Y-14253214D02*
X13299643Y-14238929D01*
X13285357Y-14210357D01*
X13285357Y-13953214D01*
X13571071Y-14253214D02*
X13571071Y-14096071D01*
X13556786Y-14067500D01*
X13528214Y-14053214D01*
X13471071Y-14053214D01*
X13442500Y-14067500D01*
X13571071Y-14238929D02*
X13542500Y-14253214D01*
X13471071Y-14253214D01*
X13442500Y-14238929D01*
X13428214Y-14210357D01*
X13428214Y-14181786D01*
X13442500Y-14153214D01*
X13471071Y-14138929D01*
X13542500Y-14138929D01*
X13571071Y-14124643D01*
X13671071Y-14053214D02*
X13785357Y-14053214D01*
X13713929Y-13953214D02*
X13713929Y-14210357D01*
X13728214Y-14238929D01*
X13756786Y-14253214D01*
X13785357Y-14253214D01*
X13999643Y-14238929D02*
X13971071Y-14253214D01*
X13913929Y-14253214D01*
X13885357Y-14238929D01*
X13871071Y-14210357D01*
X13871071Y-14096071D01*
X13885357Y-14067500D01*
X13913929Y-14053214D01*
X13971071Y-14053214D01*
X13999643Y-14067500D01*
X14013929Y-14096071D01*
X14013929Y-14124643D01*
X13871071Y-14153214D01*
X14271071Y-14253214D02*
X14271071Y-13953214D01*
X14271071Y-14238929D02*
X14242500Y-14253214D01*
X14185357Y-14253214D01*
X14156786Y-14238929D01*
X14142500Y-14224643D01*
X14128214Y-14196071D01*
X14128214Y-14110357D01*
X14142500Y-14081786D01*
X14156786Y-14067500D01*
X14185357Y-14053214D01*
X14242500Y-14053214D01*
X14271071Y-14067500D01*
X14385357Y-14367500D02*
X14399643Y-14353214D01*
X14428214Y-14310357D01*
X14442500Y-14281786D01*
X14456786Y-14238929D01*
X14471071Y-14167500D01*
X14471071Y-14110357D01*
X14456786Y-14038929D01*
X14442500Y-13996071D01*
X14428214Y-13967500D01*
X14399643Y-13924643D01*
X14385357Y-13910357D01*
X4942500Y-14513500D02*
G75*
G03X4942500Y-14513500I-75000J0D01*
G01*
X5371071Y-14649214D02*
X5199643Y-14649214D01*
X5285357Y-14649214D02*
X5285357Y-14349214D01*
X5256786Y-14392071D01*
X5228214Y-14420643D01*
X5199643Y-14434929D01*
X5499643Y-14620643D02*
X5513929Y-14634929D01*
X5499643Y-14649214D01*
X5485357Y-14634929D01*
X5499643Y-14620643D01*
X5499643Y-14649214D01*
X5785357Y-14349214D02*
X5642500Y-14349214D01*
X5628214Y-14492071D01*
X5642500Y-14477786D01*
X5671071Y-14463500D01*
X5742500Y-14463500D01*
X5771071Y-14477786D01*
X5785357Y-14492071D01*
X5799643Y-14520643D01*
X5799643Y-14592071D01*
X5785357Y-14620643D01*
X5771071Y-14634929D01*
X5742500Y-14649214D01*
X5671071Y-14649214D01*
X5642500Y-14634929D01*
X5628214Y-14620643D01*
X5985357Y-14349214D02*
X6013928Y-14349214D01*
X6042500Y-14363500D01*
X6056786Y-14377786D01*
X6071071Y-14406357D01*
X6085357Y-14463500D01*
X6085357Y-14534929D01*
X6071071Y-14592071D01*
X6056786Y-14620643D01*
X6042500Y-14634929D01*
X6013928Y-14649214D01*
X5985357Y-14649214D01*
X5956786Y-14634929D01*
X5942500Y-14620643D01*
X5928214Y-14592071D01*
X5913928Y-14534929D01*
X5913928Y-14463500D01*
X5928214Y-14406357D01*
X5942500Y-14377786D01*
X5956786Y-14363500D01*
X5985357Y-14349214D01*
X6213928Y-14649214D02*
X6213928Y-14449214D01*
X6213928Y-14477786D02*
X6228214Y-14463500D01*
X6256786Y-14449214D01*
X6299643Y-14449214D01*
X6328214Y-14463500D01*
X6342500Y-14492071D01*
X6342500Y-14649214D01*
X6342500Y-14492071D02*
X6356786Y-14463500D01*
X6385357Y-14449214D01*
X6428214Y-14449214D01*
X6456786Y-14463500D01*
X6471071Y-14492071D01*
X6471071Y-14649214D01*
X6613928Y-14649214D02*
X6613928Y-14449214D01*
X6613928Y-14477786D02*
X6628214Y-14463500D01*
X6656786Y-14449214D01*
X6699643Y-14449214D01*
X6728214Y-14463500D01*
X6742500Y-14492071D01*
X6742500Y-14649214D01*
X6742500Y-14492071D02*
X6756786Y-14463500D01*
X6785357Y-14449214D01*
X6828214Y-14449214D01*
X6856786Y-14463500D01*
X6871071Y-14492071D01*
X6871071Y-14649214D01*
X7456786Y-14334929D02*
X7199643Y-14720643D01*
X7842500Y-14349214D02*
X7871071Y-14349214D01*
X7899643Y-14363500D01*
X7913928Y-14377786D01*
X7928214Y-14406357D01*
X7942500Y-14463500D01*
X7942500Y-14534929D01*
X7928214Y-14592071D01*
X7913928Y-14620643D01*
X7899643Y-14634929D01*
X7871071Y-14649214D01*
X7842500Y-14649214D01*
X7813928Y-14634929D01*
X7799643Y-14620643D01*
X7785357Y-14592071D01*
X7771071Y-14534929D01*
X7771071Y-14463500D01*
X7785357Y-14406357D01*
X7799643Y-14377786D01*
X7813928Y-14363500D01*
X7842500Y-14349214D01*
X8071071Y-14620643D02*
X8085357Y-14634929D01*
X8071071Y-14649214D01*
X8056786Y-14634929D01*
X8071071Y-14620643D01*
X8071071Y-14649214D01*
X8271071Y-14349214D02*
X8299643Y-14349214D01*
X8328214Y-14363500D01*
X8342500Y-14377786D01*
X8356785Y-14406357D01*
X8371071Y-14463500D01*
X8371071Y-14534929D01*
X8356785Y-14592071D01*
X8342500Y-14620643D01*
X8328214Y-14634929D01*
X8299643Y-14649214D01*
X8271071Y-14649214D01*
X8242500Y-14634929D01*
X8228214Y-14620643D01*
X8213928Y-14592071D01*
X8199643Y-14534929D01*
X8199643Y-14463500D01*
X8213928Y-14406357D01*
X8228214Y-14377786D01*
X8242500Y-14363500D01*
X8271071Y-14349214D01*
X8642500Y-14349214D02*
X8499643Y-14349214D01*
X8485357Y-14492071D01*
X8499643Y-14477786D01*
X8528214Y-14463500D01*
X8599643Y-14463500D01*
X8628214Y-14477786D01*
X8642500Y-14492071D01*
X8656786Y-14520643D01*
X8656786Y-14592071D01*
X8642500Y-14620643D01*
X8628214Y-14634929D01*
X8599643Y-14649214D01*
X8528214Y-14649214D01*
X8499643Y-14634929D01*
X8485357Y-14620643D01*
X8799643Y-14649214D02*
X8856786Y-14649214D01*
X8885357Y-14634929D01*
X8899643Y-14620643D01*
X8928214Y-14577786D01*
X8942500Y-14520643D01*
X8942500Y-14406357D01*
X8928214Y-14377786D01*
X8913928Y-14363500D01*
X8885357Y-14349214D01*
X8828214Y-14349214D01*
X8799643Y-14363500D01*
X8785357Y-14377786D01*
X8771071Y-14406357D01*
X8771071Y-14477786D01*
X8785357Y-14506357D01*
X8799643Y-14520643D01*
X8828214Y-14534929D01*
X8885357Y-14534929D01*
X8913928Y-14520643D01*
X8928214Y-14506357D01*
X8942500Y-14477786D01*
X9056786Y-14349214D02*
X9056786Y-14406357D01*
X9171071Y-14349214D02*
X9171071Y-14406357D01*
X9613928Y-14763500D02*
X9599643Y-14749214D01*
X9571071Y-14706357D01*
X9556786Y-14677786D01*
X9542500Y-14634929D01*
X9528214Y-14563500D01*
X9528214Y-14506357D01*
X9542500Y-14434929D01*
X9556786Y-14392071D01*
X9571071Y-14363500D01*
X9599643Y-14320643D01*
X9613928Y-14306357D01*
X9713928Y-14377786D02*
X9728214Y-14363500D01*
X9756786Y-14349214D01*
X9828214Y-14349214D01*
X9856786Y-14363500D01*
X9871071Y-14377786D01*
X9885357Y-14406357D01*
X9885357Y-14434929D01*
X9871071Y-14477786D01*
X9699643Y-14649214D01*
X9885357Y-14649214D01*
X10242500Y-14649214D02*
X10242500Y-14349214D01*
X10371071Y-14649214D02*
X10371071Y-14492071D01*
X10356786Y-14463500D01*
X10328214Y-14449214D01*
X10285357Y-14449214D01*
X10256786Y-14463500D01*
X10242500Y-14477786D01*
X10556786Y-14649214D02*
X10528214Y-14634929D01*
X10513928Y-14620643D01*
X10499643Y-14592071D01*
X10499643Y-14506357D01*
X10513928Y-14477786D01*
X10528214Y-14463500D01*
X10556786Y-14449214D01*
X10599643Y-14449214D01*
X10628214Y-14463500D01*
X10642500Y-14477786D01*
X10656786Y-14506357D01*
X10656786Y-14592071D01*
X10642500Y-14620643D01*
X10628214Y-14634929D01*
X10599643Y-14649214D01*
X10556786Y-14649214D01*
X10828214Y-14649214D02*
X10799643Y-14634929D01*
X10785357Y-14606357D01*
X10785357Y-14349214D01*
X11056786Y-14634929D02*
X11028214Y-14649214D01*
X10971071Y-14649214D01*
X10942500Y-14634929D01*
X10928214Y-14606357D01*
X10928214Y-14492071D01*
X10942500Y-14463500D01*
X10971071Y-14449214D01*
X11028214Y-14449214D01*
X11056786Y-14463500D01*
X11071071Y-14492071D01*
X11071071Y-14520643D01*
X10928214Y-14549214D01*
X11185357Y-14634929D02*
X11213928Y-14649214D01*
X11271071Y-14649214D01*
X11299643Y-14634929D01*
X11313928Y-14606357D01*
X11313928Y-14592071D01*
X11299643Y-14563500D01*
X11271071Y-14549214D01*
X11228214Y-14549214D01*
X11199643Y-14534929D01*
X11185357Y-14506357D01*
X11185357Y-14492071D01*
X11199643Y-14463500D01*
X11228214Y-14449214D01*
X11271071Y-14449214D01*
X11299643Y-14463500D01*
X11413928Y-14763500D02*
X11428214Y-14749214D01*
X11456786Y-14706357D01*
X11471071Y-14677786D01*
X11485357Y-14634929D01*
X11499643Y-14563500D01*
X11499643Y-14506357D01*
X11485357Y-14434929D01*
X11471071Y-14392071D01*
X11456786Y-14363500D01*
X11428214Y-14320643D01*
X11413928Y-14306357D01*
X11956786Y-14763500D02*
X11942500Y-14749214D01*
X11913928Y-14706357D01*
X11899643Y-14677786D01*
X11885357Y-14634929D01*
X11871071Y-14563500D01*
X11871071Y-14506357D01*
X11885357Y-14434929D01*
X11899643Y-14392071D01*
X11913928Y-14363500D01*
X11942500Y-14320643D01*
X11956786Y-14306357D01*
X12071071Y-14449214D02*
X12071071Y-14649214D01*
X12071071Y-14477786D02*
X12085357Y-14463500D01*
X12113928Y-14449214D01*
X12156786Y-14449214D01*
X12185357Y-14463500D01*
X12199643Y-14492071D01*
X12199643Y-14649214D01*
X12385357Y-14649214D02*
X12356786Y-14634929D01*
X12342500Y-14620643D01*
X12328214Y-14592071D01*
X12328214Y-14506357D01*
X12342500Y-14477786D01*
X12356786Y-14463500D01*
X12385357Y-14449214D01*
X12428214Y-14449214D01*
X12456786Y-14463500D01*
X12471071Y-14477786D01*
X12485357Y-14506357D01*
X12485357Y-14592071D01*
X12471071Y-14620643D01*
X12456786Y-14634929D01*
X12428214Y-14649214D01*
X12385357Y-14649214D01*
X12571071Y-14449214D02*
X12685357Y-14449214D01*
X12613928Y-14349214D02*
X12613928Y-14606357D01*
X12628214Y-14634929D01*
X12656786Y-14649214D01*
X12685357Y-14649214D01*
X13013928Y-14449214D02*
X13013928Y-14749214D01*
X13013928Y-14463500D02*
X13042500Y-14449214D01*
X13099643Y-14449214D01*
X13128214Y-14463500D01*
X13142500Y-14477786D01*
X13156786Y-14506357D01*
X13156786Y-14592071D01*
X13142500Y-14620643D01*
X13128214Y-14634929D01*
X13099643Y-14649214D01*
X13042500Y-14649214D01*
X13013928Y-14634929D01*
X13328214Y-14649214D02*
X13299643Y-14634929D01*
X13285357Y-14606357D01*
X13285357Y-14349214D01*
X13571071Y-14649214D02*
X13571071Y-14492071D01*
X13556786Y-14463500D01*
X13528214Y-14449214D01*
X13471071Y-14449214D01*
X13442500Y-14463500D01*
X13571071Y-14634929D02*
X13542500Y-14649214D01*
X13471071Y-14649214D01*
X13442500Y-14634929D01*
X13428214Y-14606357D01*
X13428214Y-14577786D01*
X13442500Y-14549214D01*
X13471071Y-14534929D01*
X13542500Y-14534929D01*
X13571071Y-14520643D01*
X13671071Y-14449214D02*
X13785357Y-14449214D01*
X13713929Y-14349214D02*
X13713929Y-14606357D01*
X13728214Y-14634929D01*
X13756786Y-14649214D01*
X13785357Y-14649214D01*
X13999643Y-14634929D02*
X13971071Y-14649214D01*
X13913929Y-14649214D01*
X13885357Y-14634929D01*
X13871071Y-14606357D01*
X13871071Y-14492071D01*
X13885357Y-14463500D01*
X13913929Y-14449214D01*
X13971071Y-14449214D01*
X13999643Y-14463500D01*
X14013929Y-14492071D01*
X14013929Y-14520643D01*
X13871071Y-14549214D01*
X14271071Y-14649214D02*
X14271071Y-14349214D01*
X14271071Y-14634929D02*
X14242500Y-14649214D01*
X14185357Y-14649214D01*
X14156786Y-14634929D01*
X14142500Y-14620643D01*
X14128214Y-14592071D01*
X14128214Y-14506357D01*
X14142500Y-14477786D01*
X14156786Y-14463500D01*
X14185357Y-14449214D01*
X14242500Y-14449214D01*
X14271071Y-14463500D01*
X14385357Y-14763500D02*
X14399643Y-14749214D01*
X14428214Y-14706357D01*
X14442500Y-14677786D01*
X14456786Y-14634929D01*
X14471071Y-14563500D01*
X14471071Y-14506357D01*
X14456786Y-14434929D01*
X14442500Y-14392071D01*
X14428214Y-14363500D01*
X14399643Y-14320643D01*
X14385357Y-14306357D01*
M02*
